  0
SECTION
  2
HEADER
  9
$ACADVER
  1
AC1009
  9
$DWGCODEPAGE
  3
ansi_1252
  9
$INSBASE
 10
0.0
 20
0.0
 30
0.0
  9
$EXTMIN
 10
-304.8000006587581
 20
647.6000419827606
 30
0.0
  9
$EXTMAX
 10
304.7999993412418
 20
952.4000419827607
 30
0.0
  9
$LIMMIN
 10
0.0
 20
0.0
  9
$LIMMAX
 10
12.0
 20
9.0
  9
$ORTHOMODE
 70
     0
  9
$REGENMODE
 70
     1
  9
$FILLMODE
 70
     1
  9
$QTEXTMODE
 70
     0
  9
$MIRRTEXT
 70
     1
  9
$DRAGMODE
 70
     2
  9
$LTSCALE
 40
1.0
  9
$OSMODE
 70
    37
  9
$ATTMODE
 70
     1
  9
$TEXTSIZE
 40
0.2
  9
$TRACEWID
 40
0.05
  9
$TEXTSTYLE
  7
STANDARD
  9
$CLAYER
  8
0
  9
$CELTYPE
  6
BYLAYER
  9
$CECOLOR
 62
   256
  9
$DIMSCALE
 40
1.0
  9
$DIMASZ
 40
0.18
  9
$DIMEXO
 40
0.0625
  9
$DIMDLI
 40
0.38
  9
$DIMRND
 40
0.0
  9
$DIMDLE
 40
0.0
  9
$DIMEXE
 40
0.18
  9
$DIMTP
 40
0.0
  9
$DIMTM
 40
0.0
  9
$DIMTXT
 40
0.18
  9
$DIMCEN
 40
0.09
  9
$DIMTSZ
 40
0.0
  9
$DIMTOL
 70
     0
  9
$DIMLIM
 70
     0
  9
$DIMTIH
 70
     1
  9
$DIMTOH
 70
     1
  9
$DIMSE1
 70
     0
  9
$DIMSE2
 70
     0
  9
$DIMTAD
 70
     0
  9
$DIMZIN
 70
     0
  9
$DIMBLK
  1

  9
$DIMASO
 70
     1
  9
$DIMSHO
 70
     1
  9
$DIMPOST
  1

  9
$DIMAPOST
  1

  9
$DIMALT
 70
     0
  9
$DIMALTD
 70
     2
  9
$DIMALTF
 40
25.4
  9
$DIMLFAC
 40
1.0
  9
$DIMTOFL
 70
     0
  9
$DIMTVP
 40
0.0
  9
$DIMTIX
 70
     0
  9
$DIMSOXD
 70
     0
  9
$DIMSAH
 70
     0
  9
$DIMBLK1
  1

  9
$DIMBLK2
  1

  9
$DIMSTYLE
  2
STANDARD
  9
$DIMCLRD
 70
     0
  9
$DIMCLRE
 70
     0
  9
$DIMCLRT
 70
     0
  9
$DIMTFAC
 40
1.0
  9
$DIMGAP
 40
0.09
  9
$LUNITS
 70
     2
  9
$LUPREC
 70
     3
  9
$SKETCHINC
 40
0.1
  9
$FILLETRAD
 40
0.5
  9
$AUNITS
 70
     0
  9
$AUPREC
 70
     0
  9
$MENU
  1
.
  9
$ELEVATION
 40
0.0
  9
$PELEVATION
 40
0.0
  9
$THICKNESS
 40
0.0
  9
$LIMCHECK
 70
     0
  9
$CHAMFERA
 40
0.0
  9
$CHAMFERB
 40
0.0
  9
$SKPOLY
 70
     0
  9
$TDCREATE
 40
2457280.466178484
  9
$TDUPDATE
 40
2457280.46619257
  9
$TDINDWG
 40
0.0000000116
  9
$TDUSRTIMER
 40
0.0000000116
  9
$USRTIMER
 70
     1
  9
$ANGBASE
 50
0.0
  9
$ANGDIR
 70
     0
  9
$PDMODE
 70
     0
  9
$PDSIZE
 40
0.0
  9
$PLINEWID
 40
0.0
  9
$COORDS
 70
     1
  9
$SPLFRAME
 70
     0
  9
$SPLINETYPE
 70
     6
  9
$SPLINESEGS
 70
     8
  9
$ATTDIA
 70
     0
  9
$ATTREQ
 70
     1
  9
$HANDLING
 70
     1
  9
$HANDSEED
  5
31F
  9
$SURFTAB1
 70
     6
  9
$SURFTAB2
 70
     6
  9
$SURFTYPE
 70
     6
  9
$SURFU
 70
     6
  9
$SURFV
 70
     6
  9
$UCSNAME
  2

  9
$UCSORG
 10
0.0
 20
0.0
 30
0.0
  9
$UCSXDIR
 10
1.0
 20
0.0
 30
0.0
  9
$UCSYDIR
 10
0.0
 20
1.0
 30
0.0
  9
$PUCSNAME
  2

  9
$PUCSORG
 10
0.0
 20
0.0
 30
0.0
  9
$PUCSXDIR
 10
1.0
 20
0.0
 30
0.0
  9
$PUCSYDIR
 10
0.0
 20
1.0
 30
0.0
  9
$USERI1
 70
     0
  9
$USERI2
 70
     0
  9
$USERI3
 70
     0
  9
$USERI4
 70
     0
  9
$USERI5
 70
     0
  9
$USERR1
 40
0.0
  9
$USERR2
 40
0.0
  9
$USERR3
 40
0.0
  9
$USERR4
 40
0.0
  9
$USERR5
 40
0.0
  9
$WORLDVIEW
 70
     1
  9
$SHADEDGE
 70
     3
  9
$SHADEDIF
 70
    70
  9
$TILEMODE
 70
     1
  9
$MAXACTVP
 70
    64
  9
$PLIMCHECK
 70
     0
  9
$PEXTMIN
 10
1.000000000000000E+20
 20
1.000000000000000E+20
 30
1.000000000000000E+20
  9
$PEXTMAX
 10
-1.000000000000000E+20
 20
-1.000000000000000E+20
 30
-1.000000000000000E+20
  9
$PLIMMIN
 10
0.0
 20
0.0
  9
$PLIMMAX
 10
12.0
 20
9.0
  9
$UNITMODE
 70
     0
  9
$VISRETAIN
 70
     1
  9
$PLINEGEN
 70
     0
  9
$PSLTSCALE
 70
     1
  0
ENDSEC
  0
SECTION
  2
TABLES
  0
TABLE
  2
VPORT
 70
     1
  0
VPORT
  2
*ACTIVE
 70
     0
 10
0.0
 20
0.0
 11
1.0
 21
1.0
 12
-0.0000006587581538
 22
800.0000419827606
 13
0.0
 23
0.0
 14
0.5
 24
0.5
 15
0.5
 25
0.5
 16
0.0
 26
0.0
 36
1.0
 17
0.0
 27
0.0
 37
0.0
 40
310.8960000000002
 41
1.999999999999998
 42
50.0
 43
0.0
 44
0.0
 50
0.0
 51
0.0
 71
     0
 72
   100
 73
     1
 74
     3
 75
     0
 76
     0
 77
     0
 78
     0
  0
ENDTAB
  0
TABLE
  2
LTYPE
 70
     1
  0
LTYPE
  2
CONTINUOUS
 70
     0
  3
Solid line
 72
    65
 73
     0
 40
0.0
  0
ENDTAB
  0
TABLE
  2
LAYER
 70
     5
  0
LAYER
  2
0
 70
     0
 62
     7
  6
CONTINUOUS
  0
LAYER
  2
6_06MM_ABS_INSIDE
 70
     0
 62
    15
  6
CONTINUOUS
  0
LAYER
  2
6_06MM_ABS_OUTSIDE
 70
     0
 62
     1
  6
CONTINUOUS
  0
LAYER
  2
SCREW_HOLES
 70
     0
 62
     7
  6
CONTINUOUS
  0
LAYER
  2
BOUNDARIES
 70
     0
 62
     7
  6
CONTINUOUS
  0
ENDTAB
  0
TABLE
  2
STYLE
 70
     1
  0
STYLE
  2
STANDARD
 70
     0
 40
0.0
 41
1.0
 50
0.0
 71
     0
 42
0.2
  3
txt
  4

  0
ENDTAB
  0
TABLE
  2
VIEW
 70
     0
  0
ENDTAB
  0
TABLE
  2
UCS
 70
     0
  0
ENDTAB
  0
TABLE
  2
APPID
 70
     1
  0
APPID
  2
ACAD
 70
     0
  0
ENDTAB
  0
TABLE
  2
DIMSTYLE
 70
     1
  0
DIMSTYLE
  2
STANDARD
 70
     0
  3

  4

  5

  6

  7

 40
1.0
 41
0.18
 42
0.0625
 43
0.38
 44
0.18
 45
0.0
 46
0.0
 47
0.0
 48
0.0
140
0.18
141
0.09
142
0.0
143
25.4
144
1.0
145
0.0
146
1.0
147
0.09
 71
     0
 72
     0
 73
     1
 74
     1
 75
     0
 76
     0
 77
     0
 78
     0
170
     0
171
     2
172
     0
173
     0
174
     0
175
     0
176
     0
177
     0
178
     0
  0
ENDTAB
  0
ENDSEC
  0
SECTION
  2
BLOCKS
  0
BLOCK
  8
0
  2
$MODEL_SPACE
 70
     0
 10
0.0
 20
0.0
 30
0.0
  3
$MODEL_SPACE
  1

  0
ENDBLK
  5
21
  8
0
  0
BLOCK
 67
     1
  8
0
  2
$PAPER_SPACE
 70
     0
 10
0.0
 20
0.0
 30
0.0
  3
$PAPER_SPACE
  1

  0
ENDBLK
  5
1D
 67
     1
  8
0
  0
ENDSEC
  0
SECTION
  2
ENTITIES
  0
POLYLINE
  5
6F
  8
6_06MM_ABS_INSIDE
 66
     1
 10
0.0
 20
0.0
 30
0.0
 70
     1
  0
VERTEX
  5
70
  8
6_06MM_ABS_INSIDE
 10
-36.22241664678654
 20
794.599909445154
 30
0.0
  0
VERTEX
  5
71
  8
6_06MM_ABS_INSIDE
 10
-31.37730162183035
 20
786.2079240534144
 30
0.0
 42
0.2679491285468359
  0
VERTEX
  5
72
  8
6_06MM_ABS_INSIDE
 10
-29.64525081426125
 20
785.207924053415
 30
0.0
  0
VERTEX
  5
73
  8
6_06MM_ABS_INSIDE
 10
-19.955020764349
 20
785.2079240534146
 30
0.0
 42
0.2679490007789172
  0
VERTEX
  5
74
  8
6_06MM_ABS_INSIDE
 10
-18.22296995678035
 20
786.2079240534147
 30
0.0
  0
VERTEX
  5
75
  8
6_06MM_ABS_INSIDE
 10
-13.37785493182394
 20
794.599909445154
 30
0.0
 42
0.2679490646631822
  0
VERTEX
  5
76
  8
6_06MM_ABS_INSIDE
 10
-13.37785493182419
 20
796.599909445154
 30
0.0
  0
VERTEX
  5
77
  8
6_06MM_ABS_INSIDE
 10
-18.22296995678034
 20
804.9918948368937
 30
0.0
 42
0.2679491285472664
  0
VERTEX
  5
78
  8
6_06MM_ABS_INSIDE
 10
-19.955020764349
 20
805.9918948368936
 30
0.0
  0
VERTEX
  5
79
  8
6_06MM_ABS_INSIDE
 10
-29.64525081426154
 20
805.9918948368938
 30
0.0
 42
0.267949128546896
  0
VERTEX
  5
7A
  8
6_06MM_ABS_INSIDE
 10
-31.37730162183039
 20
804.9918948368936
 30
0.0
  0
VERTEX
  5
7B
  8
6_06MM_ABS_INSIDE
 10
-36.22241664678654
 20
796.599909445154
 30
0.0
 42
0.2679490646629613
  0
SEQEND
  5
7C
  8
6_06MM_ABS_INSIDE
  0
POLYLINE
  5
7D
  8
6_06MM_ABS_INSIDE
 66
     1
 10
0.0
 20
0.0
 30
0.0
 70
     1
  0
VERTEX
  5
7E
  8
6_06MM_ABS_INSIDE
 10
-132.2224166467868
 20
794.5999094451543
 30
0.0
  0
VERTEX
  5
7F
  8
6_06MM_ABS_INSIDE
 10
-127.3773016218304
 20
786.2079240534144
 30
0.0
 42
0.2679491285467607
  0
VERTEX
  5
80
  8
6_06MM_ABS_INSIDE
 10
-125.6452508142613
 20
785.2079240534152
 30
0.0
  0
VERTEX
  5
81
  8
6_06MM_ABS_INSIDE
 10
-115.955020764349
 20
785.2079240534146
 30
0.0
 42
0.2679490007789597
  0
VERTEX
  5
82
  8
6_06MM_ABS_INSIDE
 10
-114.2229699567802
 20
786.2079240534147
 30
0.0
  0
VERTEX
  5
83
  8
6_06MM_ABS_INSIDE
 10
-109.377854931824
 20
794.599909445154
 30
0.0
 42
0.2679490646630088
  0
VERTEX
  5
84
  8
6_06MM_ABS_INSIDE
 10
-109.377854931824
 20
796.5999094451545
 30
0.0
  0
VERTEX
  5
85
  8
6_06MM_ABS_INSIDE
 10
-114.2229699567804
 20
804.9918948368936
 30
0.0
 42
0.2679490007799391
  0
VERTEX
  5
86
  8
6_06MM_ABS_INSIDE
 10
-115.9550207643492
 20
805.9918948368937
 30
0.0
  0
VERTEX
  5
87
  8
6_06MM_ABS_INSIDE
 10
-125.6452508142618
 20
805.9918948368937
 30
0.0
 42
0.2679490646629538
  0
VERTEX
  5
88
  8
6_06MM_ABS_INSIDE
 10
-127.3773016218304
 20
804.9918948368936
 30
0.0
  0
VERTEX
  5
89
  8
6_06MM_ABS_INSIDE
 10
-132.2224166467865
 20
796.5999094451541
 30
0.0
 42
0.2679491285470703
  0
SEQEND
  5
8A
  8
6_06MM_ABS_INSIDE
  0
POLYLINE
  5
8B
  8
6_06MM_ABS_INSIDE
 66
     1
 10
0.0
 20
0.0
 30
0.0
 70
     1
  0
VERTEX
  5
8C
  8
6_06MM_ABS_INSIDE
 10
-12.22241664678677
 20
839.599909445154
 30
0.0
  0
VERTEX
  5
8D
  8
6_06MM_ABS_INSIDE
 10
-7.3773016218304
 20
831.2079240534144
 30
0.0
 42
0.2679491924309355
  0
VERTEX
  5
8E
  8
6_06MM_ABS_INSIDE
 10
-5.645250814261544
 20
830.2079240534144
 30
0.0
  0
VERTEX
  5
8F
  8
6_06MM_ABS_INSIDE
 10
4.044979235650999
 20
830.2079240534144
 30
0.0
 42
0.2679490007788725
  0
VERTEX
  5
90
  8
6_06MM_ABS_INSIDE
 10
5.777030043219797
 20
831.2079240534147
 30
0.0
  0
VERTEX
  5
91
  8
6_06MM_ABS_INSIDE
 10
10.62214506817601
 20
839.5999094451539
 30
0.0
 42
0.2679491285468732
  0
VERTEX
  5
92
  8
6_06MM_ABS_INSIDE
 10
10.62214506817621
 20
841.5999094451547
 30
0.0
  0
VERTEX
  5
93
  8
6_06MM_ABS_INSIDE
 10
5.777030043219837
 20
849.9918948368935
 30
0.0
 42
0.2679490007786484
  0
VERTEX
  5
94
  8
6_06MM_ABS_INSIDE
 10
4.04497923565076
 20
850.9918948368937
 30
0.0
  0
VERTEX
  5
95
  8
6_06MM_ABS_INSIDE
 10
-5.645250814261317
 20
850.9918948368937
 30
0.0
 42
0.2679491285467798
  0
VERTEX
  5
96
  8
6_06MM_ABS_INSIDE
 10
-7.377301621830383
 20
849.991894836894
 30
0.0
  0
VERTEX
  5
97
  8
6_06MM_ABS_INSIDE
 10
-12.22241664678652
 20
841.5999094451541
 30
0.0
 42
0.2679491285469333
  0
SEQEND
  5
98
  8
6_06MM_ABS_INSIDE
  0
POLYLINE
  5
99
  8
6_06MM_ABS_INSIDE
 66
     1
 10
0.0
 20
0.0
 30
0.0
 70
     1
  0
VERTEX
  5
9A
  8
6_06MM_ABS_INSIDE
 10
-132.2224166467865
 20
854.599909445154
 30
0.0
  0
VERTEX
  5
9B
  8
6_06MM_ABS_INSIDE
 10
-127.3773016218304
 20
846.2079240534144
 30
0.0
 42
0.2679491924311108
  0
VERTEX
  5
9C
  8
6_06MM_ABS_INSIDE
 10
-125.6452508142618
 20
845.2079240534144
 30
0.0
  0
VERTEX
  5
9D
  8
6_06MM_ABS_INSIDE
 10
-115.955020764349
 20
845.2079240534144
 30
0.0
 42
0.2679490646632795
  0
VERTEX
  5
9E
  8
6_06MM_ABS_INSIDE
 10
-114.2229699567804
 20
846.2079240534147
 30
0.0
  0
VERTEX
  5
9F
  8
6_06MM_ABS_INSIDE
 10
-109.377854931824
 20
854.599909445154
 30
0.0
 42
0.2679491285470138
  0
VERTEX
  5
A0
  8
6_06MM_ABS_INSIDE
 10
-109.377854931824
 20
856.5999094451545
 30
0.0
  0
VERTEX
  5
A1
  8
6_06MM_ABS_INSIDE
 10
-114.2229699567802
 20
864.9918948368936
 30
0.0
 42
0.2679490007790635
  0
VERTEX
  5
A2
  8
6_06MM_ABS_INSIDE
 10
-115.9550207643493
 20
865.9918948368938
 30
0.0
  0
VERTEX
  5
A3
  8
6_06MM_ABS_INSIDE
 10
-125.6452508142616
 20
865.991894836894
 30
0.0
 42
0.2679490646627506
  0
VERTEX
  5
A4
  8
6_06MM_ABS_INSIDE
 10
-127.3773016218304
 20
864.9918948368936
 30
0.0
  0
VERTEX
  5
A5
  8
6_06MM_ABS_INSIDE
 10
-132.2224166467867
 20
856.5999094451543
 30
0.0
 42
0.2679490646632396
  0
SEQEND
  5
A6
  8
6_06MM_ABS_INSIDE
  0
POLYLINE
  5
A7
  8
6_06MM_ABS_INSIDE
 66
     1
 10
0.0
 20
0.0
 30
0.0
 70
     1
  0
VERTEX
  5
A8
  8
6_06MM_ABS_INSIDE
 10
88.19974419154983
 20
777.599912866835
 30
0.0
  0
VERTEX
  5
A9
  8
6_06MM_ABS_INSIDE
 10
94.19974419154983
 20
777.5999128668349
 30
0.0
 42
0.4142132661045792
  0
VERTEX
  5
AA
  8
6_06MM_ABS_INSIDE
 10
98.19974419154948
 20
781.5999128668351
 30
0.0
  0
VERTEX
  5
AB
  8
6_06MM_ABS_INSIDE
 10
98.19974419154971
 20
809.599912866835
 30
0.0
 42
0.414213266104633
  0
VERTEX
  5
AC
  8
6_06MM_ABS_INSIDE
 10
94.19974419155005
 20
813.5999128668351
 30
0.0
  0
VERTEX
  5
AD
  8
6_06MM_ABS_INSIDE
 10
88.19974419154981
 20
813.599912866835
 30
0.0
 42
0.4142135623730352
  0
VERTEX
  5
AE
  8
6_06MM_ABS_INSIDE
 10
84.19974419154971
 20
809.599912866835
 30
0.0
  0
VERTEX
  5
AF
  8
6_06MM_ABS_INSIDE
 10
84.19974419154951
 20
781.5999128668349
 30
0.0
 42
0.414213463616751
  0
SEQEND
  5
B0
  8
6_06MM_ABS_INSIDE
  0
POLYLINE
  5
B1
  8
6_06MM_ABS_INSIDE
 66
     1
 10
0.0
 20
0.0
 30
0.0
 70
     1
  0
VERTEX
  5
B2
  8
6_06MM_ABS_INSIDE
 10
-60.22241664678677
 20
839.599909445154
 30
0.0
  0
VERTEX
  5
B3
  8
6_06MM_ABS_INSIDE
 10
-55.37730162183038
 20
831.2079240534144
 30
0.0
 42
0.2679491924309636
  0
VERTEX
  5
B4
  8
6_06MM_ABS_INSIDE
 10
-53.64525081426154
 20
830.2079240534144
 30
0.0
  0
VERTEX
  5
B5
  8
6_06MM_ABS_INSIDE
 10
-43.95502076434923
 20
830.2079240534144
 30
0.0
 42
0.2679491924309894
  0
VERTEX
  5
B6
  8
6_06MM_ABS_INSIDE
 10
-42.22296995678014
 20
831.2079240534144
 30
0.0
  0
VERTEX
  5
B7
  8
6_06MM_ABS_INSIDE
 10
-37.37785493182398
 20
839.599909445154
 30
0.0
 42
0.2679491285469312
  0
VERTEX
  5
B8
  8
6_06MM_ABS_INSIDE
 10
-37.37785493182405
 20
841.5999094451546
 30
0.0
  0
VERTEX
  5
B9
  8
6_06MM_ABS_INSIDE
 10
-42.22296995678015
 20
849.9918948368934
 30
0.0
 42
0.2679489368946298
  0
VERTEX
  5
BA
  8
6_06MM_ABS_INSIDE
 10
-43.95502076434934
 20
850.9918948368938
 30
0.0
  0
VERTEX
  5
BB
  8
6_06MM_ABS_INSIDE
 10
-53.64525081426154
 20
850.9918948368935
 30
0.0
 42
0.2679491285471872
  0
VERTEX
  5
BC
  8
6_06MM_ABS_INSIDE
 10
-55.37730162183053
 20
849.9918948368937
 30
0.0
  0
VERTEX
  5
BD
  8
6_06MM_ABS_INSIDE
 10
-60.22241664678677
 20
841.5999094451543
 30
0.0
 42
0.2679490646630375
  0
SEQEND
  5
BE
  8
6_06MM_ABS_INSIDE
  0
POLYLINE
  5
BF
  8
6_06MM_ABS_INSIDE
 66
     1
 10
0.0
 20
0.0
 30
0.0
 70
     1
  0
VERTEX
  5
C0
  8
6_06MM_ABS_INSIDE
 10
-204.2224166467865
 20
749.599909445154
 30
0.0
  0
VERTEX
  5
C1
  8
6_06MM_ABS_INSIDE
 10
-199.3773016218304
 20
741.2079240534144
 30
0.0
 42
0.2679491285472793
  0
VERTEX
  5
C2
  8
6_06MM_ABS_INSIDE
 10
-197.6452508142618
 20
740.2079240534151
 30
0.0
  0
VERTEX
  5
C3
  8
6_06MM_ABS_INSIDE
 10
-187.955020764349
 20
740.2079240534144
 30
0.0
 42
0.2679490007790556
  0
VERTEX
  5
C4
  8
6_06MM_ABS_INSIDE
 10
-186.2229699567805
 20
741.2079240534147
 30
0.0
  0
VERTEX
  5
C5
  8
6_06MM_ABS_INSIDE
 10
-181.3778549318241
 20
749.599909445154
 30
0.0
 42
0.2679490646634796
  0
VERTEX
  5
C6
  8
6_06MM_ABS_INSIDE
 10
-181.3778549318243
 20
751.5999094451544
 30
0.0
  0
VERTEX
  5
C7
  8
6_06MM_ABS_INSIDE
 10
-186.2229699567803
 20
759.9918948368937
 30
0.0
 42
0.2679491285470949
  0
VERTEX
  5
C8
  8
6_06MM_ABS_INSIDE
 10
-187.9550207643492
 20
760.9918948368936
 30
0.0
  0
VERTEX
  5
C9
  8
6_06MM_ABS_INSIDE
 10
-197.6452508142615
 20
760.9918948368936
 30
0.0
 42
0.2679491285469162
  0
VERTEX
  5
CA
  8
6_06MM_ABS_INSIDE
 10
-199.3773016218305
 20
759.9918948368936
 30
0.0
  0
VERTEX
  5
CB
  8
6_06MM_ABS_INSIDE
 10
-204.2224166467866
 20
751.5999094451544
 30
0.0
 42
0.2679490646631364
  0
SEQEND
  5
CC
  8
6_06MM_ABS_INSIDE
  0
POLYLINE
  5
CD
  8
6_06MM_ABS_INSIDE
 66
     1
 10
0.0
 20
0.0
 30
0.0
 70
     1
  0
VERTEX
  5
CE
  8
6_06MM_ABS_INSIDE
 10
-156.2224166467865
 20
749.599909445154
 30
0.0
  0
VERTEX
  5
CF
  8
6_06MM_ABS_INSIDE
 10
-151.3773016218304
 20
741.2079240534143
 30
0.0
 42
0.2679491285470879
  0
VERTEX
  5
D0
  8
6_06MM_ABS_INSIDE
 10
-149.6452508142615
 20
740.2079240534151
 30
0.0
  0
VERTEX
  5
D1
  8
6_06MM_ABS_INSIDE
 10
-139.955020764349
 20
740.2079240534146
 30
0.0
 42
0.2679490007790424
  0
VERTEX
  5
D2
  8
6_06MM_ABS_INSIDE
 10
-138.2229699567806
 20
741.2079240534147
 30
0.0
  0
VERTEX
  5
D3
  8
6_06MM_ABS_INSIDE
 10
-133.3778549318241
 20
749.599909445154
 30
0.0
 42
0.2679490646629251
  0
VERTEX
  5
D4
  8
6_06MM_ABS_INSIDE
 10
-133.3778549318241
 20
751.5999094451545
 30
0.0
  0
VERTEX
  5
D5
  8
6_06MM_ABS_INSIDE
 10
-138.2229699567805
 20
759.9918948368935
 30
0.0
 42
0.2679489368946943
  0
VERTEX
  5
D6
  8
6_06MM_ABS_INSIDE
 10
-139.9550207643493
 20
760.991894836894
 30
0.0
  0
VERTEX
  5
D7
  8
6_06MM_ABS_INSIDE
 10
-149.6452508142615
 20
760.9918948368935
 30
0.0
 42
0.2679491285474719
  0
VERTEX
  5
D8
  8
6_06MM_ABS_INSIDE
 10
-151.3773016218305
 20
759.9918948368936
 30
0.0
  0
VERTEX
  5
D9
  8
6_06MM_ABS_INSIDE
 10
-156.2224166467865
 20
751.599909445154
 30
0.0
 42
0.2679491924313467
  0
SEQEND
  5
DA
  8
6_06MM_ABS_INSIDE
  0
POLYLINE
  5
DB
  8
6_06MM_ABS_INSIDE
 66
     1
 10
0.0
 20
0.0
 30
0.0
 70
     1
  0
VERTEX
  5
DC
  8
6_06MM_ABS_INSIDE
 10
-60.22241664678677
 20
749.5999094451543
 30
0.0
  0
VERTEX
  5
DD
  8
6_06MM_ABS_INSIDE
 10
-55.37730162183034
 20
741.2079240534147
 30
0.0
 42
0.2679490007789284
  0
VERTEX
  5
DE
  8
6_06MM_ABS_INSIDE
 10
-53.6452508142614
 20
740.2079240534154
 30
0.0
  0
VERTEX
  5
DF
  8
6_06MM_ABS_INSIDE
 10
-43.955020764349
 20
740.2079240534144
 30
0.0
 42
0.2679490007790279
  0
VERTEX
  5
E0
  8
6_06MM_ABS_INSIDE
 10
-42.2229699567803
 20
741.2079240534147
 30
0.0
  0
VERTEX
  5
E1
  8
6_06MM_ABS_INSIDE
 10
-37.377854931824
 20
749.5999094451544
 30
0.0
 42
0.2679491285470512
  0
VERTEX
  5
E2
  8
6_06MM_ABS_INSIDE
 10
-37.377854931824
 20
751.5999094451541
 30
0.0
  0
VERTEX
  5
E3
  8
6_06MM_ABS_INSIDE
 10
-42.2229699567804
 20
759.9918948368936
 30
0.0
 42
0.2679490007787907
  0
VERTEX
  5
E4
  8
6_06MM_ABS_INSIDE
 10
-43.95502076434938
 20
760.991894836894
 30
0.0
  0
VERTEX
  5
E5
  8
6_06MM_ABS_INSIDE
 10
-53.64525081426154
 20
760.9918948368936
 30
0.0
 42
0.2679491285472351
  0
VERTEX
  5
E6
  8
6_06MM_ABS_INSIDE
 10
-55.37730162183037
 20
759.9918948368936
 30
0.0
  0
VERTEX
  5
E7
  8
6_06MM_ABS_INSIDE
 10
-60.2224166467868
 20
751.5999094451539
 30
0.0
 42
0.267949064662941
  0
SEQEND
  5
E8
  8
6_06MM_ABS_INSIDE
  0
POLYLINE
  5
E9
  8
6_06MM_ABS_INSIDE
 66
     1
 10
0.0
 20
0.0
 30
0.0
 70
     1
  0
VERTEX
  5
EA
  8
6_06MM_ABS_INSIDE
 10
-36.22241664678654
 20
764.599909445154
 30
0.0
  0
VERTEX
  5
EB
  8
6_06MM_ABS_INSIDE
 10
-31.37730162183035
 20
756.2079240534144
 30
0.0
 42
0.2679491924309748
  0
VERTEX
  5
EC
  8
6_06MM_ABS_INSIDE
 10
-29.64525081426154
 20
755.2079240534146
 30
0.0
  0
VERTEX
  5
ED
  8
6_06MM_ABS_INSIDE
 10
-19.955020764349
 20
755.2079240534144
 30
0.0
 42
0.2679490646628941
  0
VERTEX
  5
EE
  8
6_06MM_ABS_INSIDE
 10
-18.22296995678028
 20
756.2079240534146
 30
0.0
  0
VERTEX
  5
EF
  8
6_06MM_ABS_INSIDE
 10
-13.377854931824
 20
764.599909445154
 30
0.0
 42
0.2679491285469501
  0
VERTEX
  5
F0
  8
6_06MM_ABS_INSIDE
 10
-13.37785493182387
 20
766.5999094451545
 30
0.0
  0
VERTEX
  5
F1
  8
6_06MM_ABS_INSIDE
 10
-18.22296995678012
 20
774.9918948368937
 30
0.0
 42
0.2679489368947996
  0
VERTEX
  5
F2
  8
6_06MM_ABS_INSIDE
 10
-19.95502076434929
 20
775.9918948368936
 30
0.0
  0
VERTEX
  5
F3
  8
6_06MM_ABS_INSIDE
 10
-29.64525081426154
 20
775.9918948368937
 30
0.0
 42
0.2679490646630328
  0
VERTEX
  5
F4
  8
6_06MM_ABS_INSIDE
 10
-31.37730162183041
 20
774.9918948368936
 30
0.0
  0
VERTEX
  5
F5
  8
6_06MM_ABS_INSIDE
 10
-36.22241664678654
 20
766.5999094451543
 30
0.0
 42
0.2679490646630509
  0
SEQEND
  5
F6
  8
6_06MM_ABS_INSIDE
  0
POLYLINE
  5
F7
  8
6_06MM_ABS_INSIDE
 66
     1
 10
0.0
 20
0.0
 30
0.0
 70
     1
  0
VERTEX
  5
F8
  8
6_06MM_ABS_INSIDE
 10
-12.22241664678654
 20
809.599909445154
 30
0.0
  0
VERTEX
  5
F9
  8
6_06MM_ABS_INSIDE
 10
-7.377301621830409
 20
801.2079240534144
 30
0.0
 42
0.2679491924310144
  0
VERTEX
  5
FA
  8
6_06MM_ABS_INSIDE
 10
-5.645250814261544
 20
800.2079240534144
 30
0.0
  0
VERTEX
  5
FB
  8
6_06MM_ABS_INSIDE
 10
4.044979235650998
 20
800.2079240534144
 30
0.0
 42
0.2679491285466336
  0
VERTEX
  5
FC
  8
6_06MM_ABS_INSIDE
 10
5.777030043219886
 20
801.2079240534147
 30
0.0
  0
VERTEX
  5
FD
  8
6_06MM_ABS_INSIDE
 10
10.622145068176
 20
809.599909445154
 30
0.0
 42
0.2679491924310558
  0
VERTEX
  5
FE
  8
6_06MM_ABS_INSIDE
 10
10.622145068176
 20
811.599909445154
 30
0.0
  0
VERTEX
  5
FF
  8
6_06MM_ABS_INSIDE
 10
5.777030043219856
 20
819.9918948368935
 30
0.0
 42
0.2679491285471136
  0
VERTEX
  5
100
  8
6_06MM_ABS_INSIDE
 10
4.044979235651
 20
820.9918948368935
 30
0.0
  0
VERTEX
  5
101
  8
6_06MM_ABS_INSIDE
 10
-5.645250814261317
 20
820.9918948368936
 30
0.0
 42
0.2679490646630911
  0
VERTEX
  5
102
  8
6_06MM_ABS_INSIDE
 10
-7.377301621830381
 20
819.9918948368936
 30
0.0
  0
VERTEX
  5
103
  8
6_06MM_ABS_INSIDE
 10
-12.22241664678676
 20
811.5999094451543
 30
0.0
 42
0.2679490646629821
  0
SEQEND
  5
104
  8
6_06MM_ABS_INSIDE
  0
POLYLINE
  5
105
  8
6_06MM_ABS_INSIDE
 66
     1
 10
0.0
 20
0.0
 30
0.0
 70
     1
  0
VERTEX
  5
106
  8
6_06MM_ABS_INSIDE
 10
-156.2224166467868
 20
809.5999094451543
 30
0.0
  0
VERTEX
  5
107
  8
6_06MM_ABS_INSIDE
 10
-151.3773016218304
 20
801.2079240534144
 30
0.0
 42
0.2679491285470159
  0
VERTEX
  5
108
  8
6_06MM_ABS_INSIDE
 10
-149.6452508142615
 20
800.2079240534149
 30
0.0
  0
VERTEX
  5
109
  8
6_06MM_ABS_INSIDE
 10
-139.955020764349
 20
800.2079240534144
 30
0.0
 42
0.267949192430981
  0
VERTEX
  5
10A
  8
6_06MM_ABS_INSIDE
 10
-138.2229699567804
 20
801.2079240534144
 30
0.0
  0
VERTEX
  5
10B
  8
6_06MM_ABS_INSIDE
 10
-133.3778549318241
 20
809.5999094451543
 30
0.0
 42
0.267949064663133
  0
VERTEX
  5
10C
  8
6_06MM_ABS_INSIDE
 10
-133.3778549318239
 20
811.5999094451541
 30
0.0
  0
VERTEX
  5
10D
  8
6_06MM_ABS_INSIDE
 10
-138.2229699567804
 20
819.9918948368938
 30
0.0
 42
0.2679491285470277
  0
VERTEX
  5
10E
  8
6_06MM_ABS_INSIDE
 10
-139.955020764349
 20
820.9918948368936
 30
0.0
  0
VERTEX
  5
10F
  8
6_06MM_ABS_INSIDE
 10
-149.6452508142618
 20
820.9918948368937
 30
0.0
 42
0.2679490646631053
  0
VERTEX
  5
110
  8
6_06MM_ABS_INSIDE
 10
-151.3773016218304
 20
819.9918948368936
 30
0.0
  0
VERTEX
  5
111
  8
6_06MM_ABS_INSIDE
 10
-156.2224166467866
 20
811.599909445154
 30
0.0
 42
0.267949064663089
  0
SEQEND
  5
112
  8
6_06MM_ABS_INSIDE
  0
POLYLINE
  5
113
  8
6_06MM_ABS_INSIDE
 66
     1
 10
0.0
 20
0.0
 30
0.0
 70
     1
  0
VERTEX
  5
114
  8
6_06MM_ABS_INSIDE
 10
-108.2224166467868
 20
779.5999094451541
 30
0.0
  0
VERTEX
  5
115
  8
6_06MM_ABS_INSIDE
 10
-103.3773016218304
 20
771.2079240534144
 30
0.0
 42
0.2679491285469929
  0
VERTEX
  5
116
  8
6_06MM_ABS_INSIDE
 10
-101.6452508142612
 20
770.2079240534148
 30
0.0
  0
VERTEX
  5
117
  8
6_06MM_ABS_INSIDE
 10
-91.95502076434921
 20
770.2079240534143
 30
0.0
 42
0.2679491924307366
  0
VERTEX
  5
118
  8
6_06MM_ABS_INSIDE
 10
-90.22296995678013
 20
771.2079240534143
 30
0.0
  0
VERTEX
  5
119
  8
6_06MM_ABS_INSIDE
 10
-85.3778549318243
 20
779.5999094451539
 30
0.0
 42
0.2679490646630009
  0
VERTEX
  5
11A
  8
6_06MM_ABS_INSIDE
 10
-85.377854931824
 20
781.599909445154
 30
0.0
  0
VERTEX
  5
11B
  8
6_06MM_ABS_INSIDE
 10
-90.22296995678036
 20
789.9918948368937
 30
0.0
 42
0.267948936894552
  0
VERTEX
  5
11C
  8
6_06MM_ABS_INSIDE
 10
-91.95502076434917
 20
790.9918948368936
 30
0.0
  0
VERTEX
  5
11D
  8
6_06MM_ABS_INSIDE
 10
-101.6452508142615
 20
790.9918948368935
 30
0.0
 42
0.2679491285472037
  0
VERTEX
  5
11E
  8
6_06MM_ABS_INSIDE
 10
-103.3773016218302
 20
789.9918948368938
 30
0.0
  0
VERTEX
  5
11F
  8
6_06MM_ABS_INSIDE
 10
-108.2224166467866
 20
781.599909445154
 30
0.0
 42
0.2679490646628853
  0
SEQEND
  5
120
  8
6_06MM_ABS_INSIDE
  0
POLYLINE
  5
121
  8
6_06MM_ABS_INSIDE
 66
     1
 10
0.0
 20
0.0
 30
0.0
 70
     1
  0
VERTEX
  5
122
  8
6_06MM_ABS_INSIDE
 10
-12.22241664678677
 20
779.5999094451541
 30
0.0
  0
VERTEX
  5
123
  8
6_06MM_ABS_INSIDE
 10
-7.377301621830375
 20
771.2079240534144
 30
0.0
 42
0.2679491924310504
  0
VERTEX
  5
124
  8
6_06MM_ABS_INSIDE
 10
-5.645250814261544
 20
770.2079240534144
 30
0.0
  0
VERTEX
  5
125
  8
6_06MM_ABS_INSIDE
 10
4.044979235650999
 20
770.2079240534144
 30
0.0
 42
0.267949128547234
  0
VERTEX
  5
126
  8
6_06MM_ABS_INSIDE
 10
5.777030043219831
 20
771.2079240534144
 30
0.0
  0
VERTEX
  5
127
  8
6_06MM_ABS_INSIDE
 10
10.622145068176
 20
779.599909445154
 30
0.0
 42
0.2679491924310022
  0
VERTEX
  5
128
  8
6_06MM_ABS_INSIDE
 10
10.622145068176
 20
781.599909445154
 30
0.0
  0
VERTEX
  5
129
  8
6_06MM_ABS_INSIDE
 10
5.777030043219867
 20
789.9918948368936
 30
0.0
 42
0.2679490007790888
  0
VERTEX
  5
12A
  8
6_06MM_ABS_INSIDE
 10
4.04497923565099
 20
790.9918948368937
 30
0.0
  0
VERTEX
  5
12B
  8
6_06MM_ABS_INSIDE
 10
-5.645250814261544
 20
790.9918948368936
 30
0.0
 42
0.2679491924312042
  0
VERTEX
  5
12C
  8
6_06MM_ABS_INSIDE
 10
-7.377301621830329
 20
789.9918948368936
 30
0.0
  0
VERTEX
  5
12D
  8
6_06MM_ABS_INSIDE
 10
-12.22241664678657
 20
781.599909445154
 30
0.0
 42
0.2679491285468186
  0
SEQEND
  5
12E
  8
6_06MM_ABS_INSIDE
  0
POLYLINE
  5
12F
  8
6_06MM_ABS_INSIDE
 66
     1
 10
0.0
 20
0.0
 30
0.0
 70
     1
  0
VERTEX
  5
130
  8
6_06MM_ABS_INSIDE
 10
-84.22241664678654
 20
854.599909445154
 30
0.0
  0
VERTEX
  5
131
  8
6_06MM_ABS_INSIDE
 10
-79.3773016218304
 20
846.2079240534144
 30
0.0
 42
0.2679490646631661
  0
VERTEX
  5
132
  8
6_06MM_ABS_INSIDE
 10
-77.64525081426154
 20
845.2079240534152
 30
0.0
  0
VERTEX
  5
133
  8
6_06MM_ABS_INSIDE
 10
-67.955020764349
 20
845.2079240534147
 30
0.0
 42
0.2679491924308468
  0
VERTEX
  5
134
  8
6_06MM_ABS_INSIDE
 10
-66.22296995678019
 20
846.2079240534147
 30
0.0
  0
VERTEX
  5
135
  8
6_06MM_ABS_INSIDE
 10
-61.377854931824
 20
854.5999094451541
 30
0.0
 42
0.2679491924311399
  0
VERTEX
  5
136
  8
6_06MM_ABS_INSIDE
 10
-61.37785493182406
 20
856.599909445154
 30
0.0
  0
VERTEX
  5
137
  8
6_06MM_ABS_INSIDE
 10
-66.22296995678039
 20
864.9918948368941
 30
0.0
 42
0.2679491285468832
  0
VERTEX
  5
138
  8
6_06MM_ABS_INSIDE
 10
-67.95502076434923
 20
865.9918948368936
 30
0.0
  0
VERTEX
  5
139
  8
6_06MM_ABS_INSIDE
 10
-77.64525081426154
 20
865.9918948368936
 30
0.0
 42
0.2679490007788048
  0
VERTEX
  5
13A
  8
6_06MM_ABS_INSIDE
 10
-79.37730162183048
 20
864.991894836894
 30
0.0
  0
VERTEX
  5
13B
  8
6_06MM_ABS_INSIDE
 10
-84.22241664678667
 20
856.5999094451541
 30
0.0
 42
0.2679490646624216
  0
SEQEND
  5
13C
  8
6_06MM_ABS_INSIDE
  0
POLYLINE
  5
13D
  8
6_06MM_ABS_INSIDE
 66
     1
 10
0.0
 20
0.0
 30
0.0
 70
     1
  0
VERTEX
  5
13E
  8
6_06MM_ABS_INSIDE
 10
-84.22241664678677
 20
734.599909445154
 30
0.0
  0
VERTEX
  5
13F
  8
6_06MM_ABS_INSIDE
 10
-79.3773016218304
 20
726.2079240534144
 30
0.0
 42
0.2679490646631276
  0
VERTEX
  5
140
  8
6_06MM_ABS_INSIDE
 10
-77.64525081426154
 20
725.2079240534147
 30
0.0
  0
VERTEX
  5
141
  8
6_06MM_ABS_INSIDE
 10
-67.95502076434923
 20
725.2079240534146
 30
0.0
 42
0.2679490646629127
  0
VERTEX
  5
142
  8
6_06MM_ABS_INSIDE
 10
-66.22296995678046
 20
726.2079240534148
 30
0.0
  0
VERTEX
  5
143
  8
6_06MM_ABS_INSIDE
 10
-61.3778549318241
 20
734.5999094451543
 30
0.0
 42
0.2679491924312949
  0
VERTEX
  5
144
  8
6_06MM_ABS_INSIDE
 10
-61.37785493182426
 20
736.5999094451541
 30
0.0
  0
VERTEX
  5
145
  8
6_06MM_ABS_INSIDE
 10
-66.22296995678043
 20
744.991894836894
 30
0.0
 42
0.2679491285469257
  0
VERTEX
  5
146
  8
6_06MM_ABS_INSIDE
 10
-67.95502076434923
 20
745.9918948368936
 30
0.0
  0
VERTEX
  5
147
  8
6_06MM_ABS_INSIDE
 10
-77.64525081426154
 20
745.9918948368936
 30
0.0
 42
0.2679490007787935
  0
VERTEX
  5
148
  8
6_06MM_ABS_INSIDE
 10
-79.37730162183053
 20
744.991894836894
 30
0.0
  0
VERTEX
  5
149
  8
6_06MM_ABS_INSIDE
 10
-84.22241664678683
 20
736.599909445154
 30
0.0
 42
0.2679491924311602
  0
SEQEND
  5
14A
  8
6_06MM_ABS_INSIDE
  0
POLYLINE
  5
14B
  8
6_06MM_ABS_INSIDE
 66
     1
 10
0.0
 20
0.0
 30
0.0
 70
     1
  0
VERTEX
  5
14C
  8
6_06MM_ABS_INSIDE
 10
-84.22241664678654
 20
824.5999094451541
 30
0.0
  0
VERTEX
  5
14D
  8
6_06MM_ABS_INSIDE
 10
-79.3773016218304
 20
816.2079240534144
 30
0.0
 42
0.2679491285471074
  0
VERTEX
  5
14E
  8
6_06MM_ABS_INSIDE
 10
-77.64525081426152
 20
815.2079240534147
 30
0.0
  0
VERTEX
  5
14F
  8
6_06MM_ABS_INSIDE
 10
-67.95502076434923
 20
815.2079240534146
 30
0.0
 42
0.2679490646630808
  0
VERTEX
  5
150
  8
6_06MM_ABS_INSIDE
 10
-66.22296995678028
 20
816.2079240534152
 30
0.0
  0
VERTEX
  5
151
  8
6_06MM_ABS_INSIDE
 10
-61.37785493182395
 20
824.5999094451541
 30
0.0
 42
0.2679490646629385
  0
VERTEX
  5
152
  8
6_06MM_ABS_INSIDE
 10
-61.37785493182412
 20
826.599909445154
 30
0.0
  0
VERTEX
  5
153
  8
6_06MM_ABS_INSIDE
 10
-66.22296995678039
 20
834.9918948368937
 30
0.0
 42
0.2679491285468584
  0
VERTEX
  5
154
  8
6_06MM_ABS_INSIDE
 10
-67.95502076434923
 20
835.9918948368937
 30
0.0
  0
VERTEX
  5
155
  8
6_06MM_ABS_INSIDE
 10
-77.64525081426154
 20
835.9918948368938
 30
0.0
 42
0.2679490007788184
  0
VERTEX
  5
156
  8
6_06MM_ABS_INSIDE
 10
-79.37730162183053
 20
834.9918948368938
 30
0.0
  0
VERTEX
  5
157
  8
6_06MM_ABS_INSIDE
 10
-84.2224166467868
 20
826.599909445154
 30
0.0
 42
0.2679490646629864
  0
SEQEND
  5
158
  8
6_06MM_ABS_INSIDE
  0
POLYLINE
  5
159
  8
6_06MM_ABS_INSIDE
 66
     1
 10
0.0
 20
0.0
 30
0.0
 70
     1
  0
VERTEX
  5
15A
  8
6_06MM_ABS_INSIDE
 10
-108.2224166467868
 20
839.599909445154
 30
0.0
  0
VERTEX
  5
15B
  8
6_06MM_ABS_INSIDE
 10
-103.3773016218304
 20
831.2079240534144
 30
0.0
 42
0.2679490646631016
  0
VERTEX
  5
15C
  8
6_06MM_ABS_INSIDE
 10
-101.6452508142616
 20
830.2079240534146
 30
0.0
  0
VERTEX
  5
15D
  8
6_06MM_ABS_INSIDE
 10
-91.95502076434923
 20
830.2079240534146
 30
0.0
 42
0.2679490646626125
  0
VERTEX
  5
15E
  8
6_06MM_ABS_INSIDE
 10
-90.22296995678053
 20
831.2079240534148
 30
0.0
  0
VERTEX
  5
15F
  8
6_06MM_ABS_INSIDE
 10
-85.37785493182407
 20
839.5999094451541
 30
0.0
 42
0.2679490646630069
  0
VERTEX
  5
160
  8
6_06MM_ABS_INSIDE
 10
-85.3778549318239
 20
841.5999094451543
 30
0.0
  0
VERTEX
  5
161
  8
6_06MM_ABS_INSIDE
 10
-90.22296995678019
 20
849.9918948368936
 30
0.0
 42
0.2679490646626146
  0
VERTEX
  5
162
  8
6_06MM_ABS_INSIDE
 10
-91.95502076434896
 20
850.991894836894
 30
0.0
  0
VERTEX
  5
163
  8
6_06MM_ABS_INSIDE
 10
-101.6452508142615
 20
850.9918948368936
 30
0.0
 42
0.267949192430918
  0
VERTEX
  5
164
  8
6_06MM_ABS_INSIDE
 10
-103.3773016218304
 20
849.9918948368936
 30
0.0
  0
VERTEX
  5
165
  8
6_06MM_ABS_INSIDE
 10
-108.2224166467867
 20
841.599909445154
 30
0.0
 42
0.2679490646628849
  0
SEQEND
  5
166
  8
6_06MM_ABS_INSIDE
  0
POLYLINE
  5
167
  8
6_06MM_ABS_INSIDE
 66
     1
 10
0.0
 20
0.0
 30
0.0
 70
     1
  0
VERTEX
  5
168
  8
6_06MM_ABS_INSIDE
 10
-180.2224166467868
 20
764.5999094451543
 30
0.0
  0
VERTEX
  5
169
  8
6_06MM_ABS_INSIDE
 10
-175.3773016218303
 20
756.2079240534144
 30
0.0
 42
0.2679491924310451
  0
VERTEX
  5
16A
  8
6_06MM_ABS_INSIDE
 10
-173.6452508142618
 20
755.2079240534146
 30
0.0
  0
VERTEX
  5
16B
  8
6_06MM_ABS_INSIDE
 10
-163.9550207643492
 20
755.2079240534144
 30
0.0
 42
0.2679490646629397
  0
VERTEX
  5
16C
  8
6_06MM_ABS_INSIDE
 10
-162.2229699567805
 20
756.2079240534146
 30
0.0
  0
VERTEX
  5
16D
  8
6_06MM_ABS_INSIDE
 10
-157.377854931824
 20
764.5999094451541
 30
0.0
 42
0.2679490646632796
  0
VERTEX
  5
16E
  8
6_06MM_ABS_INSIDE
 10
-157.3778549318239
 20
766.5999094451544
 30
0.0
  0
VERTEX
  5
16F
  8
6_06MM_ABS_INSIDE
 10
-162.2229699567804
 20
774.9918948368937
 30
0.0
 42
0.2679490646630681
  0
VERTEX
  5
170
  8
6_06MM_ABS_INSIDE
 10
-163.9550207643492
 20
775.991894836894
 30
0.0
  0
VERTEX
  5
171
  8
6_06MM_ABS_INSIDE
 10
-173.6452508142618
 20
775.9918948368936
 30
0.0
 42
0.2679490646631262
  0
VERTEX
  5
172
  8
6_06MM_ABS_INSIDE
 10
-175.3773016218305
 20
774.9918948368942
 30
0.0
  0
VERTEX
  5
173
  8
6_06MM_ABS_INSIDE
 10
-180.2224166467865
 20
766.5999094451539
 30
0.0
 42
0.2679491285471464
  0
SEQEND
  5
174
  8
6_06MM_ABS_INSIDE
  0
POLYLINE
  5
175
  8
6_06MM_ABS_INSIDE
 66
     1
 10
0.0
 20
0.0
 30
0.0
 70
     1
  0
VERTEX
  5
176
  8
6_06MM_ABS_INSIDE
 10
-12.22241664678654
 20
749.599909445154
 30
0.0
  0
VERTEX
  5
177
  8
6_06MM_ABS_INSIDE
 10
-7.377301621830364
 20
741.2079240534144
 30
0.0
 42
0.2679491924306711
  0
VERTEX
  5
178
  8
6_06MM_ABS_INSIDE
 10
-5.645250814261545
 20
740.2079240534144
 30
0.0
  0
VERTEX
  5
179
  8
6_06MM_ABS_INSIDE
 10
4.044979235650771
 20
740.2079240534143
 30
0.0
 42
0.2679491285465939
  0
VERTEX
  5
17A
  8
6_06MM_ABS_INSIDE
 10
5.777030043219847
 20
741.2079240534144
 30
0.0
  0
VERTEX
  5
17B
  8
6_06MM_ABS_INSIDE
 10
10.62214506817591
 20
749.5999094451544
 30
0.0
 42
0.2679491285470043
  0
VERTEX
  5
17C
  8
6_06MM_ABS_INSIDE
 10
10.62214506817595
 20
751.599909445154
 30
0.0
  0
VERTEX
  5
17D
  8
6_06MM_ABS_INSIDE
 10
5.777030043219863
 20
759.9918948368936
 30
0.0
 42
0.2679491285472053
  0
VERTEX
  5
17E
  8
6_06MM_ABS_INSIDE
 10
4.044979235650771
 20
760.9918948368937
 30
0.0
  0
VERTEX
  5
17F
  8
6_06MM_ABS_INSIDE
 10
-5.645250814261544
 20
760.9918948368938
 30
0.0
 42
0.267949064662938
  0
VERTEX
  5
180
  8
6_06MM_ABS_INSIDE
 10
-7.377301621830369
 20
759.9918948368936
 30
0.0
  0
VERTEX
  5
181
  8
6_06MM_ABS_INSIDE
 10
-12.22241664678678
 20
751.5999094451543
 30
0.0
 42
0.2679490646630928
  0
SEQEND
  5
182
  8
6_06MM_ABS_INSIDE
  0
POLYLINE
  5
183
  8
6_06MM_ABS_INSIDE
 66
     1
 10
0.0
 20
0.0
 30
0.0
 70
     1
  0
VERTEX
  5
184
  8
6_06MM_ABS_INSIDE
 10
-204.2224166467865
 20
779.599909445154
 30
0.0
  0
VERTEX
  5
185
  8
6_06MM_ABS_INSIDE
 10
-199.3773016218304
 20
771.2079240534144
 30
0.0
 42
0.2679491285470224
  0
VERTEX
  5
186
  8
6_06MM_ABS_INSIDE
 10
-197.6452508142615
 20
770.2079240534146
 30
0.0
  0
VERTEX
  5
187
  8
6_06MM_ABS_INSIDE
 10
-187.955020764349
 20
770.2079240534146
 30
0.0
 42
0.2679490646628726
  0
VERTEX
  5
188
  8
6_06MM_ABS_INSIDE
 10
-186.2229699567804
 20
771.2079240534147
 30
0.0
  0
VERTEX
  5
189
  8
6_06MM_ABS_INSIDE
 10
-181.377854931824
 20
779.599909445154
 30
0.0
 42
0.2679490646629465
  0
VERTEX
  5
18A
  8
6_06MM_ABS_INSIDE
 10
-181.377854931824
 20
781.599909445154
 30
0.0
  0
VERTEX
  5
18B
  8
6_06MM_ABS_INSIDE
 10
-186.2229699567804
 20
789.9918948368935
 30
0.0
 42
0.2679489368943522
  0
VERTEX
  5
18C
  8
6_06MM_ABS_INSIDE
 10
-187.9550207643493
 20
790.9918948368936
 30
0.0
  0
VERTEX
  5
18D
  8
6_06MM_ABS_INSIDE
 10
-197.645250814262
 20
790.9918948368936
 30
0.0
 42
0.2679490646630875
  0
VERTEX
  5
18E
  8
6_06MM_ABS_INSIDE
 10
-199.3773016218304
 20
789.9918948368935
 30
0.0
  0
VERTEX
  5
18F
  8
6_06MM_ABS_INSIDE
 10
-204.2224166467866
 20
781.599909445154
 30
0.0
 42
0.2679491924312889
  0
SEQEND
  5
190
  8
6_06MM_ABS_INSIDE
  0
POLYLINE
  5
191
  8
6_06MM_ABS_INSIDE
 66
     1
 10
0.0
 20
0.0
 30
0.0
 70
     1
  0
VERTEX
  5
192
  8
6_06MM_ABS_INSIDE
 10
-132.2224166467865
 20
764.599909445154
 30
0.0
  0
VERTEX
  5
193
  8
6_06MM_ABS_INSIDE
 10
-127.3773016218304
 20
756.2079240534144
 30
0.0
 42
0.267949192431171
  0
VERTEX
  5
194
  8
6_06MM_ABS_INSIDE
 10
-125.6452508142615
 20
755.2079240534144
 30
0.0
  0
VERTEX
  5
195
  8
6_06MM_ABS_INSIDE
 10
-115.955020764349
 20
755.2079240534144
 30
0.0
 42
0.2679490646629767
  0
VERTEX
  5
196
  8
6_06MM_ABS_INSIDE
 10
-114.2229699567804
 20
756.2079240534146
 30
0.0
  0
VERTEX
  5
197
  8
6_06MM_ABS_INSIDE
 10
-109.377854931824
 20
764.5999094451543
 30
0.0
 42
0.2679490646629929
  0
VERTEX
  5
198
  8
6_06MM_ABS_INSIDE
 10
-109.3778549318241
 20
766.5999094451539
 30
0.0
  0
VERTEX
  5
199
  8
6_06MM_ABS_INSIDE
 10
-114.2229699567804
 20
774.9918948368936
 30
0.0
 42
0.267949064663131
  0
VERTEX
  5
19A
  8
6_06MM_ABS_INSIDE
 10
-115.9550207643492
 20
775.9918948368937
 30
0.0
  0
VERTEX
  5
19B
  8
6_06MM_ABS_INSIDE
 10
-125.6452508142615
 20
775.9918948368937
 30
0.0
 42
0.2679490646629809
  0
VERTEX
  5
19C
  8
6_06MM_ABS_INSIDE
 10
-127.3773016218304
 20
774.9918948368936
 30
0.0
  0
VERTEX
  5
19D
  8
6_06MM_ABS_INSIDE
 10
-132.2224166467865
 20
766.599909445154
 30
0.0
 42
0.2679491285472817
  0
SEQEND
  5
19E
  8
6_06MM_ABS_INSIDE
  0
POLYLINE
  5
19F
  8
6_06MM_ABS_INSIDE
 66
     1
 10
0.0
 20
0.0
 30
0.0
 70
     1
  0
VERTEX
  5
1A0
  8
6_06MM_ABS_INSIDE
 10
-132.2224166467865
 20
824.599909445154
 30
0.0
  0
VERTEX
  5
1A1
  8
6_06MM_ABS_INSIDE
 10
-127.3773016218304
 20
816.2079240534146
 30
0.0
 42
0.2679491924308097
  0
VERTEX
  5
1A2
  8
6_06MM_ABS_INSIDE
 10
-125.6452508142615
 20
815.2079240534144
 30
0.0
  0
VERTEX
  5
1A3
  8
6_06MM_ABS_INSIDE
 10
-115.9550207643492
 20
815.2079240534144
 30
0.0
 42
0.2679490646628868
  0
VERTEX
  5
1A4
  8
6_06MM_ABS_INSIDE
 10
-114.2229699567801
 20
816.2079240534152
 30
0.0
  0
VERTEX
  5
1A5
  8
6_06MM_ABS_INSIDE
 10
-109.377854931824
 20
824.5999094451541
 30
0.0
 42
0.2679491924311129
  0
VERTEX
  5
1A6
  8
6_06MM_ABS_INSIDE
 10
-109.3778549318241
 20
826.599909445154
 30
0.0
  0
VERTEX
  5
1A7
  8
6_06MM_ABS_INSIDE
 10
-114.2229699567804
 20
834.9918948368937
 30
0.0
 42
0.2679490646631576
  0
VERTEX
  5
1A8
  8
6_06MM_ABS_INSIDE
 10
-115.9550207643492
 20
835.9918948368937
 30
0.0
  0
VERTEX
  5
1A9
  8
6_06MM_ABS_INSIDE
 10
-125.6452508142618
 20
835.9918948368937
 30
0.0
 42
0.267949192431013
  0
VERTEX
  5
1AA
  8
6_06MM_ABS_INSIDE
 10
-127.3773016218304
 20
834.9918948368937
 30
0.0
  0
VERTEX
  5
1AB
  8
6_06MM_ABS_INSIDE
 10
-132.2224166467869
 20
826.5999094451544
 30
0.0
 42
0.2679490646630516
  0
SEQEND
  5
1AC
  8
6_06MM_ABS_INSIDE
  0
POLYLINE
  5
1AD
  8
6_06MM_ABS_INSIDE
 66
     1
 10
0.0
 20
0.0
 30
0.0
 70
     1
  0
VERTEX
  5
1AE
  8
6_06MM_ABS_INSIDE
 10
-180.2224166467868
 20
854.5999094451543
 30
0.0
  0
VERTEX
  5
1AF
  8
6_06MM_ABS_INSIDE
 10
-175.3773016218304
 20
846.2079240534144
 30
0.0
 42
0.2679490646634151
  0
VERTEX
  5
1B0
  8
6_06MM_ABS_INSIDE
 10
-173.6452508142617
 20
845.2079240534152
 30
0.0
  0
VERTEX
  5
1B1
  8
6_06MM_ABS_INSIDE
 10
-163.9550207643488
 20
845.2079240534146
 30
0.0
 42
0.2679491924310267
  0
VERTEX
  5
1B2
  8
6_06MM_ABS_INSIDE
 10
-162.2229699567802
 20
846.2079240534146
 30
0.0
  0
VERTEX
  5
1B3
  8
6_06MM_ABS_INSIDE
 10
-157.3778549318241
 20
854.5999094451541
 30
0.0
 42
0.2679490646633004
  0
VERTEX
  5
1B4
  8
6_06MM_ABS_INSIDE
 10
-157.377854931824
 20
856.5999094451543
 30
0.0
  0
VERTEX
  5
1B5
  8
6_06MM_ABS_INSIDE
 10
-162.2229699567805
 20
864.9918948368937
 30
0.0
 42
0.2679490646630803
  0
VERTEX
  5
1B6
  8
6_06MM_ABS_INSIDE
 10
-163.9550207643492
 20
865.991894836894
 30
0.0
  0
VERTEX
  5
1B7
  8
6_06MM_ABS_INSIDE
 10
-173.6452508142615
 20
865.9918948368936
 30
0.0
 42
0.2679491924313087
  0
VERTEX
  5
1B8
  8
6_06MM_ABS_INSIDE
 10
-175.3773016218304
 20
864.9918948368936
 30
0.0
  0
VERTEX
  5
1B9
  8
6_06MM_ABS_INSIDE
 10
-180.2224166467867
 20
856.599909445154
 30
0.0
 42
0.2679491285468652
  0
SEQEND
  5
1BA
  8
6_06MM_ABS_INSIDE
  0
POLYLINE
  5
1BB
  8
6_06MM_ABS_INSIDE
 66
     1
 10
0.0
 20
0.0
 30
0.0
 70
     1
  0
VERTEX
  5
1BC
  8
6_06MM_ABS_INSIDE
 10
-156.2224166467868
 20
779.5999094451541
 30
0.0
  0
VERTEX
  5
1BD
  8
6_06MM_ABS_INSIDE
 10
-151.3773016218303
 20
771.2079240534146
 30
0.0
 42
0.2679491285470563
  0
VERTEX
  5
1BE
  8
6_06MM_ABS_INSIDE
 10
-149.6452508142619
 20
770.2079240534146
 30
0.0
  0
VERTEX
  5
1BF
  8
6_06MM_ABS_INSIDE
 10
-139.9550207643492
 20
770.2079240534143
 30
0.0
 42
0.2679491285471426
  0
VERTEX
  5
1C0
  8
6_06MM_ABS_INSIDE
 10
-138.2229699567803
 20
771.2079240534151
 30
0.0
  0
VERTEX
  5
1C1
  8
6_06MM_ABS_INSIDE
 10
-133.3778549318243
 20
779.599909445154
 30
0.0
 42
0.2679491924311653
  0
VERTEX
  5
1C2
  8
6_06MM_ABS_INSIDE
 10
-133.3778549318241
 20
781.599909445154
 30
0.0
  0
VERTEX
  5
1C3
  8
6_06MM_ABS_INSIDE
 10
-138.2229699567804
 20
789.9918948368936
 30
0.0
 42
0.2679489368949298
  0
VERTEX
  5
1C4
  8
6_06MM_ABS_INSIDE
 10
-139.9550207643493
 20
790.9918948368937
 30
0.0
  0
VERTEX
  5
1C5
  8
6_06MM_ABS_INSIDE
 10
-149.6452508142615
 20
790.9918948368936
 30
0.0
 42
0.2679491924310282
  0
VERTEX
  5
1C6
  8
6_06MM_ABS_INSIDE
 10
-151.3773016218304
 20
789.9918948368937
 30
0.0
  0
VERTEX
  5
1C7
  8
6_06MM_ABS_INSIDE
 10
-156.2224166467868
 20
781.599909445154
 30
0.0
 42
0.2679490007790206
  0
SEQEND
  5
1C8
  8
6_06MM_ABS_INSIDE
  0
POLYLINE
  5
1C9
  8
6_06MM_ABS_INSIDE
 66
     1
 10
0.0
 20
0.0
 30
0.0
 70
     1
  0
VERTEX
  5
1CA
  8
6_06MM_ABS_INSIDE
 10
-204.2224166467865
 20
839.599909445154
 30
0.0
  0
VERTEX
  5
1CB
  8
6_06MM_ABS_INSIDE
 10
-199.3773016218304
 20
831.2079240534144
 30
0.0
 42
0.2679491924311531
  0
VERTEX
  5
1CC
  8
6_06MM_ABS_INSIDE
 10
-197.6452508142618
 20
830.2079240534144
 30
0.0
  0
VERTEX
  5
1CD
  8
6_06MM_ABS_INSIDE
 10
-187.9550207643488
 20
830.2079240534144
 30
0.0
 42
0.2679490007790901
  0
VERTEX
  5
1CE
  8
6_06MM_ABS_INSIDE
 10
-186.2229699567805
 20
831.2079240534147
 30
0.0
  0
VERTEX
  5
1CF
  8
6_06MM_ABS_INSIDE
 10
-181.377854931824
 20
839.5999094451539
 30
0.0
 42
0.2679491285470283
  0
VERTEX
  5
1D0
  8
6_06MM_ABS_INSIDE
 10
-181.3778549318239
 20
841.599909445154
 30
0.0
  0
VERTEX
  5
1D1
  8
6_06MM_ABS_INSIDE
 10
-186.2229699567804
 20
849.9918948368937
 30
0.0
 42
0.2679491285470939
  0
VERTEX
  5
1D2
  8
6_06MM_ABS_INSIDE
 10
-187.955020764349
 20
850.9918948368936
 30
0.0
  0
VERTEX
  5
1D3
  8
6_06MM_ABS_INSIDE
 10
-197.6452508142615
 20
850.9918948368935
 30
0.0
 42
0.26794919243127
  0
VERTEX
  5
1D4
  8
6_06MM_ABS_INSIDE
 10
-199.3773016218304
 20
849.9918948368936
 30
0.0
  0
VERTEX
  5
1D5
  8
6_06MM_ABS_INSIDE
 10
-204.2224166467868
 20
841.599909445154
 30
0.0
 42
0.2679491285471662
  0
SEQEND
  5
1D6
  8
6_06MM_ABS_INSIDE
  0
POLYLINE
  5
1D7
  8
6_06MM_ABS_INSIDE
 66
     1
 10
0.0
 20
0.0
 30
0.0
 70
     1
  0
VERTEX
  5
1D8
  8
6_06MM_ABS_INSIDE
 10
-36.22241664678654
 20
734.599909445154
 30
0.0
  0
VERTEX
  5
1D9
  8
6_06MM_ABS_INSIDE
 10
-31.37730162183031
 20
726.2079240534146
 30
0.0
 42
0.2679490646631645
  0
VERTEX
  5
1DA
  8
6_06MM_ABS_INSIDE
 10
-29.64525081426149
 20
725.2079240534146
 30
0.0
  0
VERTEX
  5
1DB
  8
6_06MM_ABS_INSIDE
 10
-19.955020764349
 20
725.2079240534146
 30
0.0
 42
0.2679490646630811
  0
VERTEX
  5
1DC
  8
6_06MM_ABS_INSIDE
 10
-18.22296995678023
 20
726.2079240534148
 30
0.0
  0
VERTEX
  5
1DD
  8
6_06MM_ABS_INSIDE
 10
-13.377854931824
 20
734.5999094451541
 30
0.0
 42
0.2679491924310904
  0
VERTEX
  5
1DE
  8
6_06MM_ABS_INSIDE
 10
-13.377854931824
 20
736.5999094451541
 30
0.0
  0
VERTEX
  5
1DF
  8
6_06MM_ABS_INSIDE
 10
-18.22296995678011
 20
744.9918948368937
 30
0.0
 42
0.2679490646629345
  0
VERTEX
  5
1E0
  8
6_06MM_ABS_INSIDE
 10
-19.95502076434931
 20
745.9918948368936
 30
0.0
  0
VERTEX
  5
1E1
  8
6_06MM_ABS_INSIDE
 10
-29.64525081426154
 20
745.9918948368936
 30
0.0
 42
0.2679490646631753
  0
VERTEX
  5
1E2
  8
6_06MM_ABS_INSIDE
 10
-31.3773016218304
 20
744.9918948368937
 30
0.0
  0
VERTEX
  5
1E3
  8
6_06MM_ABS_INSIDE
 10
-36.22241664678675
 20
736.5999094451541
 30
0.0
 42
0.267949064662965
  0
SEQEND
  5
1E4
  8
6_06MM_ABS_INSIDE
  0
POLYLINE
  5
1E5
  8
6_06MM_ABS_INSIDE
 66
     1
 10
0.0
 20
0.0
 30
0.0
 70
     1
  0
VERTEX
  5
1E6
  8
6_06MM_ABS_INSIDE
 10
-36.22241664678654
 20
824.599909445154
 30
0.0
  0
VERTEX
  5
1E7
  8
6_06MM_ABS_INSIDE
 10
-31.37730162183041
 20
816.2079240534144
 30
0.0
 42
0.2679491285472402
  0
VERTEX
  5
1E8
  8
6_06MM_ABS_INSIDE
 10
-29.64525081426148
 20
815.2079240534147
 30
0.0
  0
VERTEX
  5
1E9
  8
6_06MM_ABS_INSIDE
 10
-19.955020764349
 20
815.2079240534144
 30
0.0
 42
0.2679490646629338
  0
VERTEX
  5
1EA
  8
6_06MM_ABS_INSIDE
 10
-18.22296995678
 20
816.2079240534152
 30
0.0
  0
VERTEX
  5
1EB
  8
6_06MM_ABS_INSIDE
 10
-13.377854931824
 20
824.5999094451541
 30
0.0
 42
0.2679490646630753
  0
VERTEX
  5
1EC
  8
6_06MM_ABS_INSIDE
 10
-13.37785493182414
 20
826.5999094451541
 30
0.0
  0
VERTEX
  5
1ED
  8
6_06MM_ABS_INSIDE
 10
-18.2229699567801
 20
834.9918948368937
 30
0.0
 42
0.2679491285470094
  0
VERTEX
  5
1EE
  8
6_06MM_ABS_INSIDE
 10
-19.95502076434923
 20
835.9918948368936
 30
0.0
  0
VERTEX
  5
1EF
  8
6_06MM_ABS_INSIDE
 10
-29.64525081426155
 20
835.9918948368937
 30
0.0
 42
0.2679491924309085
  0
VERTEX
  5
1F0
  8
6_06MM_ABS_INSIDE
 10
-31.37730162183035
 20
834.9918948368937
 30
0.0
  0
VERTEX
  5
1F1
  8
6_06MM_ABS_INSIDE
 10
-36.22241664678655
 20
826.5999094451543
 30
0.0
 42
0.2679490646630507
  0
SEQEND
  5
1F2
  8
6_06MM_ABS_INSIDE
  0
POLYLINE
  5
1F3
  8
6_06MM_ABS_INSIDE
 66
     1
 10
0.0
 20
0.0
 30
0.0
 70
     1
  0
VERTEX
  5
1F4
  8
6_06MM_ABS_INSIDE
 10
-84.22241664678677
 20
794.5999094451543
 30
0.0
  0
VERTEX
  5
1F5
  8
6_06MM_ABS_INSIDE
 10
-79.37730162183061
 20
786.2079240534147
 30
0.0
 42
0.2679490646628912
  0
VERTEX
  5
1F6
  8
6_06MM_ABS_INSIDE
 10
-77.64525081426154
 20
785.2079240534143
 30
0.0
  0
VERTEX
  5
1F7
  8
6_06MM_ABS_INSIDE
 10
-67.95502076434923
 20
785.2079240534144
 30
0.0
 42
0.2679490646630371
  0
VERTEX
  5
1F8
  8
6_06MM_ABS_INSIDE
 10
-66.2229699567804
 20
786.2079240534147
 30
0.0
  0
VERTEX
  5
1F9
  8
6_06MM_ABS_INSIDE
 10
-61.37785493182403
 20
794.5999094451541
 30
0.0
 42
0.2679491285468346
  0
VERTEX
  5
1FA
  8
6_06MM_ABS_INSIDE
 10
-61.37785493182383
 20
796.5999094451546
 30
0.0
  0
VERTEX
  5
1FB
  8
6_06MM_ABS_INSIDE
 10
-66.22296995678015
 20
804.9918948368937
 30
0.0
 42
0.2679491285470179
  0
VERTEX
  5
1FC
  8
6_06MM_ABS_INSIDE
 10
-67.95502076434923
 20
805.9918948368936
 30
0.0
  0
VERTEX
  5
1FD
  8
6_06MM_ABS_INSIDE
 10
-77.64525081426154
 20
805.9918948368936
 30
0.0
 42
0.2679491285473489
  0
VERTEX
  5
1FE
  8
6_06MM_ABS_INSIDE
 10
-79.3773016218305
 20
804.9918948368937
 30
0.0
  0
VERTEX
  5
1FF
  8
6_06MM_ABS_INSIDE
 10
-84.22241664678674
 20
796.5999094451539
 30
0.0
 42
0.2679491285470529
  0
SEQEND
  5
200
  8
6_06MM_ABS_INSIDE
  0
POLYLINE
  5
201
  8
6_06MM_ABS_INSIDE
 66
     1
 10
0.0
 20
0.0
 30
0.0
 70
     1
  0
VERTEX
  5
202
  8
6_06MM_ABS_INSIDE
 10
-108.2224166467868
 20
809.5999094451543
 30
0.0
  0
VERTEX
  5
203
  8
6_06MM_ABS_INSIDE
 10
-103.3773016218304
 20
801.2079240534144
 30
0.0
 42
0.2679491285472496
  0
VERTEX
  5
204
  8
6_06MM_ABS_INSIDE
 10
-101.6452508142614
 20
800.207924053415
 30
0.0
  0
VERTEX
  5
205
  8
6_06MM_ABS_INSIDE
 10
-91.95502076434921
 20
800.2079240534144
 30
0.0
 42
0.2679490646632048
  0
VERTEX
  5
206
  8
6_06MM_ABS_INSIDE
 10
-90.22296995678029
 20
801.2079240534147
 30
0.0
  0
VERTEX
  5
207
  8
6_06MM_ABS_INSIDE
 10
-85.377854931824
 20
809.5999094451543
 30
0.0
 42
0.2679491285469758
  0
VERTEX
  5
208
  8
6_06MM_ABS_INSIDE
 10
-85.377854931824
 20
811.599909445154
 30
0.0
  0
VERTEX
  5
209
  8
6_06MM_ABS_INSIDE
 10
-90.22296995678016
 20
819.9918948368936
 30
0.0
 42
0.267949000778603
  0
VERTEX
  5
20A
  8
6_06MM_ABS_INSIDE
 10
-91.95502076434929
 20
820.9918948368937
 30
0.0
  0
VERTEX
  5
20B
  8
6_06MM_ABS_INSIDE
 10
-101.6452508142615
 20
820.9918948368935
 30
0.0
 42
0.2679491924312381
  0
VERTEX
  5
20C
  8
6_06MM_ABS_INSIDE
 10
-103.3773016218304
 20
819.9918948368938
 30
0.0
  0
VERTEX
  5
20D
  8
6_06MM_ABS_INSIDE
 10
-108.2224166467867
 20
811.599909445154
 30
0.0
 42
0.2679490646627071
  0
SEQEND
  5
20E
  8
6_06MM_ABS_INSIDE
  0
POLYLINE
  5
20F
  8
6_06MM_ABS_INSIDE
 66
     1
 10
0.0
 20
0.0
 30
0.0
 70
     1
  0
VERTEX
  5
210
  8
6_06MM_ABS_INSIDE
 10
-180.2224166467865
 20
794.599909445154
 30
0.0
  0
VERTEX
  5
211
  8
6_06MM_ABS_INSIDE
 10
-175.3773016218304
 20
786.2079240534146
 30
0.0
 42
0.2679491924308071
  0
VERTEX
  5
212
  8
6_06MM_ABS_INSIDE
 10
-173.6452508142615
 20
785.2079240534144
 30
0.0
  0
VERTEX
  5
213
  8
6_06MM_ABS_INSIDE
 10
-163.955020764349
 20
785.2079240534144
 30
0.0
 42
0.2679490646631687
  0
VERTEX
  5
214
  8
6_06MM_ABS_INSIDE
 10
-162.2229699567806
 20
786.2079240534147
 30
0.0
  0
VERTEX
  5
215
  8
6_06MM_ABS_INSIDE
 10
-157.377854931824
 20
794.599909445154
 30
0.0
 42
0.2679490646629578
  0
VERTEX
  5
216
  8
6_06MM_ABS_INSIDE
 10
-157.377854931824
 20
796.5999094451541
 30
0.0
  0
VERTEX
  5
217
  8
6_06MM_ABS_INSIDE
 10
-162.2229699567804
 20
804.9918948368936
 30
0.0
 42
0.2679490007785185
  0
VERTEX
  5
218
  8
6_06MM_ABS_INSIDE
 10
-163.9550207643494
 20
805.9918948368937
 30
0.0
  0
VERTEX
  5
219
  8
6_06MM_ABS_INSIDE
 10
-173.6452508142618
 20
805.9918948368936
 30
0.0
 42
0.2679491285469639
  0
VERTEX
  5
21A
  8
6_06MM_ABS_INSIDE
 10
-175.3773016218303
 20
804.9918948368937
 30
0.0
  0
VERTEX
  5
21B
  8
6_06MM_ABS_INSIDE
 10
-180.2224166467865
 20
796.599909445154
 30
0.0
 42
0.2679491285471258
  0
SEQEND
  5
21C
  8
6_06MM_ABS_INSIDE
  0
POLYLINE
  5
21D
  8
6_06MM_ABS_INSIDE
 66
     1
 10
0.0
 20
0.0
 30
0.0
 70
     1
  0
VERTEX
  5
21E
  8
6_06MM_ABS_INSIDE
 10
-180.2224166467868
 20
734.599909445154
 30
0.0
  0
VERTEX
  5
21F
  8
6_06MM_ABS_INSIDE
 10
-175.3773016218304
 20
726.2079240534144
 30
0.0
 42
0.2679491285468542
  0
VERTEX
  5
220
  8
6_06MM_ABS_INSIDE
 10
-173.6452508142615
 20
725.2079240534146
 30
0.0
  0
VERTEX
  5
221
  8
6_06MM_ABS_INSIDE
 10
-163.955020764349
 20
725.2079240534147
 30
0.0
 42
0.267949000779329
  0
VERTEX
  5
222
  8
6_06MM_ABS_INSIDE
 10
-162.2229699567808
 20
726.2079240534146
 30
0.0
  0
VERTEX
  5
223
  8
6_06MM_ABS_INSIDE
 10
-157.3778549318243
 20
734.599909445154
 30
0.0
 42
0.2679491285472866
  0
VERTEX
  5
224
  8
6_06MM_ABS_INSIDE
 10
-157.3778549318238
 20
736.599909445154
 30
0.0
  0
VERTEX
  5
225
  8
6_06MM_ABS_INSIDE
 10
-162.2229699567806
 20
744.9918948368937
 30
0.0
 42
0.2679491285472325
  0
VERTEX
  5
226
  8
6_06MM_ABS_INSIDE
 10
-163.9550207643492
 20
745.9918948368936
 30
0.0
  0
VERTEX
  5
227
  8
6_06MM_ABS_INSIDE
 10
-173.6452508142615
 20
745.9918948368936
 30
0.0
 42
0.2679491924311105
  0
VERTEX
  5
228
  8
6_06MM_ABS_INSIDE
 10
-175.3773016218304
 20
744.9918948368936
 30
0.0
  0
VERTEX
  5
229
  8
6_06MM_ABS_INSIDE
 10
-180.2224166467866
 20
736.599909445154
 30
0.0
 42
0.2679490646630069
  0
SEQEND
  5
22A
  8
6_06MM_ABS_INSIDE
  0
POLYLINE
  5
22B
  8
6_06MM_ABS_INSIDE
 66
     1
 10
0.0
 20
0.0
 30
0.0
 70
     1
  0
VERTEX
  5
22C
  8
6_06MM_ABS_INSIDE
 10
-108.2224166467868
 20
749.5999094451543
 30
0.0
  0
VERTEX
  5
22D
  8
6_06MM_ABS_INSIDE
 10
-103.3773016218304
 20
741.2079240534144
 30
0.0
 42
0.2679491285470011
  0
VERTEX
  5
22E
  8
6_06MM_ABS_INSIDE
 10
-101.6452508142612
 20
740.2079240534151
 30
0.0
  0
VERTEX
  5
22F
  8
6_06MM_ABS_INSIDE
 10
-91.95502076434921
 20
740.2079240534148
 30
0.0
 42
0.2679491285471112
  0
VERTEX
  5
230
  8
6_06MM_ABS_INSIDE
 10
-90.22296995678042
 20
741.2079240534144
 30
0.0
  0
VERTEX
  5
231
  8
6_06MM_ABS_INSIDE
 10
-85.37785493182399
 20
749.5999094451539
 30
0.0
 42
0.2679490646630617
  0
VERTEX
  5
232
  8
6_06MM_ABS_INSIDE
 10
-85.37785493182425
 20
751.5999094451543
 30
0.0
  0
VERTEX
  5
233
  8
6_06MM_ABS_INSIDE
 10
-90.22296995678035
 20
759.9918948368935
 30
0.0
 42
0.267948936894649
  0
VERTEX
  5
234
  8
6_06MM_ABS_INSIDE
 10
-91.9550207643492
 20
760.991894836894
 30
0.0
  0
VERTEX
  5
235
  8
6_06MM_ABS_INSIDE
 10
-101.6452508142616
 20
760.991894836894
 30
0.0
 42
0.2679490646627918
  0
VERTEX
  5
236
  8
6_06MM_ABS_INSIDE
 10
-103.3773016218304
 20
759.9918948368936
 30
0.0
  0
VERTEX
  5
237
  8
6_06MM_ABS_INSIDE
 10
-108.2224166467868
 20
751.5999094451541
 30
0.0
 42
0.2679489368947741
  0
SEQEND
  5
238
  8
6_06MM_ABS_INSIDE
  0
POLYLINE
  5
239
  8
6_06MM_ABS_INSIDE
 66
     1
 10
0.0
 20
0.0
 30
0.0
 70
     1
  0
VERTEX
  5
23A
  8
6_06MM_ABS_INSIDE
 10
-84.22241664678677
 20
764.5999094451543
 30
0.0
  0
VERTEX
  5
23B
  8
6_06MM_ABS_INSIDE
 10
-79.37730162183058
 20
756.2079240534146
 30
0.0
 42
0.2679490646627566
  0
VERTEX
  5
23C
  8
6_06MM_ABS_INSIDE
 10
-77.64525081426154
 20
755.2079240534146
 30
0.0
  0
VERTEX
  5
23D
  8
6_06MM_ABS_INSIDE
 10
-67.95502076434923
 20
755.2079240534144
 30
0.0
 42
0.2679490646628802
  0
VERTEX
  5
23E
  8
6_06MM_ABS_INSIDE
 10
-66.22296995678036
 20
756.2079240534146
 30
0.0
  0
VERTEX
  5
23F
  8
6_06MM_ABS_INSIDE
 10
-61.37785493182398
 20
764.5999094451541
 30
0.0
 42
0.2679491285472284
  0
VERTEX
  5
240
  8
6_06MM_ABS_INSIDE
 10
-61.3778549318241
 20
766.599909445154
 30
0.0
  0
VERTEX
  5
241
  8
6_06MM_ABS_INSIDE
 10
-66.22296995678018
 20
774.9918948368936
 30
0.0
 42
0.2679491285472173
  0
VERTEX
  5
242
  8
6_06MM_ABS_INSIDE
 10
-67.95502076434921
 20
775.9918948368936
 30
0.0
  0
VERTEX
  5
243
  8
6_06MM_ABS_INSIDE
 10
-77.64525081426154
 20
775.9918948368937
 30
0.0
 42
0.2679490646629351
  0
VERTEX
  5
244
  8
6_06MM_ABS_INSIDE
 10
-79.37730162183053
 20
774.9918948368936
 30
0.0
  0
VERTEX
  5
245
  8
6_06MM_ABS_INSIDE
 10
-84.22241664678685
 20
766.599909445154
 30
0.0
 42
0.2679490646626383
  0
SEQEND
  5
246
  8
6_06MM_ABS_INSIDE
  0
POLYLINE
  5
247
  8
6_06MM_ABS_INSIDE
 66
     1
 10
0.0
 20
0.0
 30
0.0
 70
     1
  0
VERTEX
  5
248
  8
6_06MM_ABS_INSIDE
 10
-180.2224166467868
 20
824.5999094451541
 30
0.0
  0
VERTEX
  5
249
  8
6_06MM_ABS_INSIDE
 10
-175.3773016218304
 20
816.2079240534144
 30
0.0
 42
0.267949128546951
  0
VERTEX
  5
24A
  8
6_06MM_ABS_INSIDE
 10
-173.6452508142616
 20
815.2079240534147
 30
0.0
  0
VERTEX
  5
24B
  8
6_06MM_ABS_INSIDE
 10
-163.955020764349
 20
815.2079240534144
 30
0.0
 42
0.2679491285472763
  0
VERTEX
  5
24C
  8
6_06MM_ABS_INSIDE
 10
-162.2229699567804
 20
816.2079240534151
 30
0.0
  0
VERTEX
  5
24D
  8
6_06MM_ABS_INSIDE
 10
-157.3778549318241
 20
824.5999094451541
 30
0.0
 42
0.2679491924314064
  0
VERTEX
  5
24E
  8
6_06MM_ABS_INSIDE
 10
-157.3778549318243
 20
826.5999094451539
 30
0.0
  0
VERTEX
  5
24F
  8
6_06MM_ABS_INSIDE
 10
-162.2229699567803
 20
834.9918948368937
 30
0.0
 42
0.2679490646631433
  0
VERTEX
  5
250
  8
6_06MM_ABS_INSIDE
 10
-163.9550207643492
 20
835.9918948368937
 30
0.0
  0
VERTEX
  5
251
  8
6_06MM_ABS_INSIDE
 10
-173.6452508142616
 20
835.9918948368937
 30
0.0
 42
0.2679490646628827
  0
VERTEX
  5
252
  8
6_06MM_ABS_INSIDE
 10
-175.3773016218304
 20
834.9918948368936
 30
0.0
  0
VERTEX
  5
253
  8
6_06MM_ABS_INSIDE
 10
-180.2224166467866
 20
826.5999094451541
 30
0.0
 42
0.2679491285471459
  0
SEQEND
  5
254
  8
6_06MM_ABS_INSIDE
  0
POLYLINE
  5
255
  8
6_06MM_ABS_INSIDE
 66
     1
 10
0.0
 20
0.0
 30
0.0
 70
     1
  0
VERTEX
  5
256
  8
6_06MM_ABS_INSIDE
 10
-156.2224166467865
 20
839.599909445154
 30
0.0
  0
VERTEX
  5
257
  8
6_06MM_ABS_INSIDE
 10
-151.3773016218304
 20
831.2079240534143
 30
0.0
 42
0.2679490646632829
  0
VERTEX
  5
258
  8
6_06MM_ABS_INSIDE
 10
-149.6452508142618
 20
830.2079240534148
 30
0.0
  0
VERTEX
  5
259
  8
6_06MM_ABS_INSIDE
 10
-139.955020764349
 20
830.2079240534146
 30
0.0
 42
0.2679490007792416
  0
VERTEX
  5
25A
  8
6_06MM_ABS_INSIDE
 10
-138.2229699567806
 20
831.2079240534147
 30
0.0
  0
VERTEX
  5
25B
  8
6_06MM_ABS_INSIDE
 10
-133.377854931824
 20
839.599909445154
 30
0.0
 42
0.267948936894942
  0
VERTEX
  5
25C
  8
6_06MM_ABS_INSIDE
 10
-133.377854931824
 20
841.5999094451539
 30
0.0
  0
VERTEX
  5
25D
  8
6_06MM_ABS_INSIDE
 10
-138.2229699567803
 20
849.9918948368934
 30
0.0
 42
0.2679489368947283
  0
VERTEX
  5
25E
  8
6_06MM_ABS_INSIDE
 10
-139.9550207643493
 20
850.9918948368938
 30
0.0
  0
VERTEX
  5
25F
  8
6_06MM_ABS_INSIDE
 10
-149.6452508142615
 20
850.9918948368935
 30
0.0
 42
0.2679490646629296
  0
VERTEX
  5
260
  8
6_06MM_ABS_INSIDE
 10
-151.3773016218305
 20
849.9918948368937
 30
0.0
  0
VERTEX
  5
261
  8
6_06MM_ABS_INSIDE
 10
-156.2224166467865
 20
841.5999094451538
 30
0.0
 42
0.267949128547065
  0
SEQEND
  5
262
  8
6_06MM_ABS_INSIDE
  0
POLYLINE
  5
263
  8
6_06MM_ABS_INSIDE
 66
     1
 10
0.0
 20
0.0
 30
0.0
 70
     1
  0
VERTEX
  5
264
  8
6_06MM_ABS_INSIDE
 10
-132.2224166467868
 20
734.599909445154
 30
0.0
  0
VERTEX
  5
265
  8
6_06MM_ABS_INSIDE
 10
-127.3773016218304
 20
726.2079240534144
 30
0.0
 42
0.2679491285465935
  0
VERTEX
  5
266
  8
6_06MM_ABS_INSIDE
 10
-125.6452508142616
 20
725.2079240534144
 30
0.0
  0
VERTEX
  5
267
  8
6_06MM_ABS_INSIDE
 10
-115.955020764349
 20
725.2079240534147
 30
0.0
 42
0.2679490007788972
  0
VERTEX
  5
268
  8
6_06MM_ABS_INSIDE
 10
-114.2229699567804
 20
726.2079240534147
 30
0.0
  0
VERTEX
  5
269
  8
6_06MM_ABS_INSIDE
 10
-109.377854931824
 20
734.599909445154
 30
0.0
 42
0.267949064663117
  0
VERTEX
  5
26A
  8
6_06MM_ABS_INSIDE
 10
-109.3778549318241
 20
736.599909445154
 30
0.0
  0
VERTEX
  5
26B
  8
6_06MM_ABS_INSIDE
 10
-114.2229699567802
 20
744.9918948368936
 30
0.0
 42
0.2679490646630313
  0
VERTEX
  5
26C
  8
6_06MM_ABS_INSIDE
 10
-115.9550207643492
 20
745.9918948368938
 30
0.0
  0
VERTEX
  5
26D
  8
6_06MM_ABS_INSIDE
 10
-125.6452508142616
 20
745.9918948368937
 30
0.0
 42
0.2679490646629208
  0
VERTEX
  5
26E
  8
6_06MM_ABS_INSIDE
 10
-127.3773016218304
 20
744.9918948368936
 30
0.0
  0
VERTEX
  5
26F
  8
6_06MM_ABS_INSIDE
 10
-132.2224166467865
 20
736.599909445154
 30
0.0
 42
0.2679491285472611
  0
SEQEND
  5
270
  8
6_06MM_ABS_INSIDE
  0
POLYLINE
  5
271
  8
6_06MM_ABS_INSIDE
 66
     1
 10
0.0
 20
0.0
 30
0.0
 70
     1
  0
VERTEX
  5
272
  8
6_06MM_ABS_INSIDE
 10
-60.22241664678654
 20
809.599909445154
 30
0.0
  0
VERTEX
  5
273
  8
6_06MM_ABS_INSIDE
 10
-55.37730162183036
 20
801.2079240534144
 30
0.0
 42
0.2679491924314067
  0
VERTEX
  5
274
  8
6_06MM_ABS_INSIDE
 10
-53.64525081426154
 20
800.2079240534144
 30
0.0
  0
VERTEX
  5
275
  8
6_06MM_ABS_INSIDE
 10
-43.955020764349
 20
800.2079240534144
 30
0.0
 42
0.2679491924310483
  0
VERTEX
  5
276
  8
6_06MM_ABS_INSIDE
 10
-42.2229699567801
 20
801.2079240534144
 30
0.0
  0
VERTEX
  5
277
  8
6_06MM_ABS_INSIDE
 10
-37.377854931824
 20
809.5999094451543
 30
0.0
 42
0.2679491285471114
  0
VERTEX
  5
278
  8
6_06MM_ABS_INSIDE
 10
-37.377854931824
 20
811.599909445154
 30
0.0
  0
VERTEX
  5
279
  8
6_06MM_ABS_INSIDE
 10
-42.22296995678011
 20
819.9918948368937
 30
0.0
 42
0.2679490646629347
  0
VERTEX
  5
27A
  8
6_06MM_ABS_INSIDE
 10
-43.95502076434919
 20
820.9918948368938
 30
0.0
  0
VERTEX
  5
27B
  8
6_06MM_ABS_INSIDE
 10
-53.64525081426154
 20
820.9918948368936
 30
0.0
 42
0.2679490007786247
  0
VERTEX
  5
27C
  8
6_06MM_ABS_INSIDE
 10
-55.37730162183038
 20
819.9918948368943
 30
0.0
  0
VERTEX
  5
27D
  8
6_06MM_ABS_INSIDE
 10
-60.22241664678679
 20
811.5999094451544
 30
0.0
 42
0.2679490646627364
  0
SEQEND
  5
27E
  8
6_06MM_ABS_INSIDE
  0
POLYLINE
  5
27F
  8
6_06MM_ABS_INSIDE
 66
     1
 10
0.0
 20
0.0
 30
0.0
 70
     1
  0
VERTEX
  5
280
  8
6_06MM_ABS_INSIDE
 10
-204.2224166467865
 20
809.5999094451543
 30
0.0
  0
VERTEX
  5
281
  8
6_06MM_ABS_INSIDE
 10
-199.3773016218304
 20
801.2079240534144
 30
0.0
 42
0.2679491924309791
  0
VERTEX
  5
282
  8
6_06MM_ABS_INSIDE
 10
-197.6452508142615
 20
800.2079240534144
 30
0.0
  0
VERTEX
  5
283
  8
6_06MM_ABS_INSIDE
 10
-187.955020764349
 20
800.2079240534144
 30
0.0
 42
0.2679491285469817
  0
VERTEX
  5
284
  8
6_06MM_ABS_INSIDE
 10
-186.2229699567804
 20
801.2079240534146
 30
0.0
  0
VERTEX
  5
285
  8
6_06MM_ABS_INSIDE
 10
-181.3778549318239
 20
809.5999094451541
 30
0.0
 42
0.2679491924314232
  0
VERTEX
  5
286
  8
6_06MM_ABS_INSIDE
 10
-181.377854931824
 20
811.599909445154
 30
0.0
  0
VERTEX
  5
287
  8
6_06MM_ABS_INSIDE
 10
-186.2229699567804
 20
819.9918948368936
 30
0.0
 42
0.267949000778773
  0
VERTEX
  5
288
  8
6_06MM_ABS_INSIDE
 10
-187.9550207643493
 20
820.991894836894
 30
0.0
  0
VERTEX
  5
289
  8
6_06MM_ABS_INSIDE
 10
-197.6452508142615
 20
820.9918948368936
 30
0.0
 42
0.2679491285470793
  0
VERTEX
  5
28A
  8
6_06MM_ABS_INSIDE
 10
-199.3773016218306
 20
819.9918948368936
 30
0.0
  0
VERTEX
  5
28B
  8
6_06MM_ABS_INSIDE
 10
-204.2224166467864
 20
811.5999094451539
 30
0.0
 42
0.2679490646631499
  0
SEQEND
  5
28C
  8
6_06MM_ABS_INSIDE
  0
POLYLINE
  5
28D
  8
6_06MM_ABS_INSIDE
 66
     1
 10
0.0
 20
0.0
 30
0.0
 70
     1
  0
VERTEX
  5
28E
  8
6_06MM_ABS_INSIDE
 10
68.19974419154983
 20
777.599912866835
 30
0.0
  0
VERTEX
  5
28F
  8
6_06MM_ABS_INSIDE
 10
74.19974419154983
 20
777.5999128668352
 30
0.0
 42
0.414213266104583
  0
VERTEX
  5
290
  8
6_06MM_ABS_INSIDE
 10
78.19974419154931
 20
781.599912866835
 30
0.0
  0
VERTEX
  5
291
  8
6_06MM_ABS_INSIDE
 10
78.19974419154963
 20
809.599912866835
 30
0.0
 42
0.4142134636169697
  0
VERTEX
  5
292
  8
6_06MM_ABS_INSIDE
 10
74.19974419154967
 20
813.5999128668356
 30
0.0
  0
VERTEX
  5
293
  8
6_06MM_ABS_INSIDE
 10
68.19974419154984
 20
813.599912866835
 30
0.0
 42
0.4142135623730352
  0
VERTEX
  5
294
  8
6_06MM_ABS_INSIDE
 10
64.19974419154966
 20
809.599912866835
 30
0.0
  0
VERTEX
  5
295
  8
6_06MM_ABS_INSIDE
 10
64.19974419154951
 20
781.599912866835
 30
0.0
 42
0.4142134636167524
  0
SEQEND
  5
296
  8
6_06MM_ABS_INSIDE
  0
POLYLINE
  5
297
  8
6_06MM_ABS_INSIDE
 66
     1
 10
0.0
 20
0.0
 30
0.0
 70
     1
  0
VERTEX
  5
298
  8
6_06MM_ABS_INSIDE
 10
-60.22241664678677
 20
779.5999094451541
 30
0.0
  0
VERTEX
  5
299
  8
6_06MM_ABS_INSIDE
 10
-55.37730162183039
 20
771.2079240534144
 30
0.0
 42
0.267949128546826
  0
VERTEX
  5
29A
  8
6_06MM_ABS_INSIDE
 10
-53.64525081426132
 20
770.2079240534144
 30
0.0
  0
VERTEX
  5
29B
  8
6_06MM_ABS_INSIDE
 10
-43.95502076434924
 20
770.2079240534146
 30
0.0
 42
0.2679490007791503
  0
VERTEX
  5
29C
  8
6_06MM_ABS_INSIDE
 10
-42.22296995678031
 20
771.2079240534148
 30
0.0
  0
VERTEX
  5
29D
  8
6_06MM_ABS_INSIDE
 10
-37.37785493182392
 20
779.5999094451539
 30
0.0
 42
0.2679490646626989
  0
VERTEX
  5
29E
  8
6_06MM_ABS_INSIDE
 10
-37.37785493182395
 20
781.5999094451541
 30
0.0
  0
VERTEX
  5
29F
  8
6_06MM_ABS_INSIDE
 10
-42.22296995678013
 20
789.9918948368938
 30
0.0
 42
0.2679491285470518
  0
VERTEX
  5
2A0
  8
6_06MM_ABS_INSIDE
 10
-43.95502076434923
 20
790.9918948368936
 30
0.0
  0
VERTEX
  5
2A1
  8
6_06MM_ABS_INSIDE
 10
-53.64525081426154
 20
790.9918948368936
 30
0.0
 42
0.2679491924312349
  0
VERTEX
  5
2A2
  8
6_06MM_ABS_INSIDE
 10
-55.37730162183036
 20
789.9918948368935
 30
0.0
  0
VERTEX
  5
2A3
  8
6_06MM_ABS_INSIDE
 10
-60.22241664678651
 20
781.5999094451539
 30
0.0
 42
0.2679491285470233
  0
SEQEND
  5
2A4
  8
6_06MM_ABS_INSIDE
  0
POLYLINE
  5
2A5
  8
6_06MM_ABS_INSIDE
 66
     1
 10
0.0
 20
0.0
 30
0.0
 70
     1
  0
VERTEX
  5
2A6
  8
6_06MM_ABS_INSIDE
 10
48.19974419154983
 20
777.599912866835
 30
0.0
  0
VERTEX
  5
2A7
  8
6_06MM_ABS_INSIDE
 10
54.19974419155005
 20
777.5999128668352
 30
0.0
 42
0.4142132661045843
  0
VERTEX
  5
2A8
  8
6_06MM_ABS_INSIDE
 10
58.19974419154948
 20
781.5999128668351
 30
0.0
  0
VERTEX
  5
2A9
  8
6_06MM_ABS_INSIDE
 10
58.19974419154957
 20
809.599912866835
 30
0.0
 42
0.4142134636169763
  0
VERTEX
  5
2AA
  8
6_06MM_ABS_INSIDE
 10
54.19974419154988
 20
813.5999128668354
 30
0.0
  0
VERTEX
  5
2AB
  8
6_06MM_ABS_INSIDE
 10
48.19974419154983
 20
813.599912866835
 30
0.0
 42
0.4142135623730989
  0
VERTEX
  5
2AC
  8
6_06MM_ABS_INSIDE
 10
44.19974419154971
 20
809.599912866835
 30
0.0
  0
VERTEX
  5
2AD
  8
6_06MM_ABS_INSIDE
 10
44.19974419154966
 20
781.5999128668349
 30
0.0
 42
0.4142134636167557
  0
SEQEND
  5
2AE
  8
6_06MM_ABS_INSIDE
  0
POLYLINE
  5
2AF
  8
6_06MM_ABS_INSIDE
 66
     1
 10
0.0
 20
0.0
 30
0.0
 70
     1
  0
VERTEX
  5
2B0
  8
6_06MM_ABS_INSIDE
 10
-247.8000042356894
 20
777.5999128668352
 30
0.0
  0
VERTEX
  5
2B1
  8
6_06MM_ABS_INSIDE
 10
-241.8000042356894
 20
777.599912866835
 30
0.0
 42
0.4142134636168269
  0
VERTEX
  5
2B2
  8
6_06MM_ABS_INSIDE
 10
-237.8000042356896
 20
781.599912866835
 30
0.0
  0
VERTEX
  5
2B3
  8
6_06MM_ABS_INSIDE
 10
-237.8000042356894
 20
809.599912866835
 30
0.0
 42
0.4142135623730965
  0
VERTEX
  5
2B4
  8
6_06MM_ABS_INSIDE
 10
-241.8000042356894
 20
813.599912866835
 30
0.0
  0
VERTEX
  5
2B5
  8
6_06MM_ABS_INSIDE
 10
-247.8000042356894
 20
813.5999128668351
 30
0.0
 42
0.414213463616903
  0
VERTEX
  5
2B6
  8
6_06MM_ABS_INSIDE
 10
-251.8000042356893
 20
809.599912866835
 30
0.0
  0
VERTEX
  5
2B7
  8
6_06MM_ABS_INSIDE
 10
-251.8000042356893
 20
781.599912866835
 30
0.0
 42
0.4142131673483627
  0
SEQEND
  5
2B8
  8
6_06MM_ABS_INSIDE
  0
POLYLINE
  5
2B9
  8
6_06MM_ABS_INSIDE
 66
     1
 10
0.0
 20
0.0
 30
0.0
 70
     1
  0
VERTEX
  5
2BA
  8
6_06MM_ABS_INSIDE
 10
-36.22241664678654
 20
854.5999094451543
 30
0.0
  0
VERTEX
  5
2BB
  8
6_06MM_ABS_INSIDE
 10
-31.3773016218304
 20
846.2079240534144
 30
0.0
 42
0.2679490646630601
  0
VERTEX
  5
2BC
  8
6_06MM_ABS_INSIDE
 10
-29.64525081426149
 20
845.2079240534148
 30
0.0
  0
VERTEX
  5
2BD
  8
6_06MM_ABS_INSIDE
 10
-19.955020764349
 20
845.2079240534146
 30
0.0
 42
0.267949128547081
  0
VERTEX
  5
2BE
  8
6_06MM_ABS_INSIDE
 10
-18.22296995678014
 20
846.2079240534144
 30
0.0
  0
VERTEX
  5
2BF
  8
6_06MM_ABS_INSIDE
 10
-13.37785493182411
 20
854.5999094451541
 30
0.0
 42
0.2679490646631632
  0
VERTEX
  5
2C0
  8
6_06MM_ABS_INSIDE
 10
-13.37785493182409
 20
856.5999094451544
 30
0.0
  0
VERTEX
  5
2C1
  8
6_06MM_ABS_INSIDE
 10
-18.2229699567804
 20
864.9918948368938
 30
0.0
 42
0.2679491285468764
  0
VERTEX
  5
2C2
  8
6_06MM_ABS_INSIDE
 10
-19.955020764349
 20
865.9918948368936
 30
0.0
  0
VERTEX
  5
2C3
  8
6_06MM_ABS_INSIDE
 10
-29.64525081426154
 20
865.9918948368936
 30
0.0
 42
0.2679490007788469
  0
VERTEX
  5
2C4
  8
6_06MM_ABS_INSIDE
 10
-31.37730162183026
 20
864.991894836894
 30
0.0
  0
VERTEX
  5
2C5
  8
6_06MM_ABS_INSIDE
 10
-36.22241664678653
 20
856.599909445154
 30
0.0
 42
0.2679491285470756
  0
SEQEND
  5
2C6
  8
6_06MM_ABS_INSIDE
  0
POLYLINE
  5
2C7
  8
6_06MM_ABS_INSIDE
 66
     1
 10
0.0
 20
0.0
 30
0.0
 70
     1
  0
VERTEX
  5
2C8
  8
6_06MM_ABS_INSIDE
 10
-267.8000042356894
 20
777.5999128668352
 30
0.0
  0
VERTEX
  5
2C9
  8
6_06MM_ABS_INSIDE
 10
-261.8000042356894
 20
777.599912866835
 30
0.0
 42
0.4142133648606897
  0
VERTEX
  5
2CA
  8
6_06MM_ABS_INSIDE
 10
-257.8000042356892
 20
781.5999128668348
 30
0.0
  0
VERTEX
  5
2CB
  8
6_06MM_ABS_INSIDE
 10
-257.8000042356895
 20
809.599912866835
 30
0.0
 42
0.4142135623730925
  0
VERTEX
  5
2CC
  8
6_06MM_ABS_INSIDE
 10
-261.8000042356894
 20
813.5999128668349
 30
0.0
  0
VERTEX
  5
2CD
  8
6_06MM_ABS_INSIDE
 10
-267.8000042356894
 20
813.5999128668349
 30
0.0
 42
0.4142134636169983
  0
VERTEX
  5
2CE
  8
6_06MM_ABS_INSIDE
 10
-271.8000042356894
 20
809.5999128668351
 30
0.0
  0
VERTEX
  5
2CF
  8
6_06MM_ABS_INSIDE
 10
-271.8000042356893
 20
781.599912866835
 30
0.0
 42
0.4142132661045023
  0
SEQEND
  5
2D0
  8
6_06MM_ABS_INSIDE
  0
POLYLINE
  5
2D1
  8
6_06MM_ABS_INSIDE
 66
     1
 10
0.0
 20
0.0
 30
0.0
 70
     1
  0
VERTEX
  5
2D2
  8
6_06MM_ABS_INSIDE
 10
-287.8000042356894
 20
777.5999128668352
 30
0.0
  0
VERTEX
  5
2D3
  8
6_06MM_ABS_INSIDE
 10
-281.8000042356894
 20
777.599912866835
 30
0.0
 42
0.4142133648606897
  0
VERTEX
  5
2D4
  8
6_06MM_ABS_INSIDE
 10
-277.8000042356891
 20
781.5999128668349
 30
0.0
  0
VERTEX
  5
2D5
  8
6_06MM_ABS_INSIDE
 10
-277.8000042356895
 20
809.599912866835
 30
0.0
 42
0.4142135623731371
  0
VERTEX
  5
2D6
  8
6_06MM_ABS_INSIDE
 10
-281.8000042356894
 20
813.5999128668349
 30
0.0
  0
VERTEX
  5
2D7
  8
6_06MM_ABS_INSIDE
 10
-287.8000042356893
 20
813.599912866835
 30
0.0
 42
0.4142134636170447
  0
VERTEX
  5
2D8
  8
6_06MM_ABS_INSIDE
 10
-291.8000042356892
 20
809.5999128668351
 30
0.0
  0
VERTEX
  5
2D9
  8
6_06MM_ABS_INSIDE
 10
-291.8000042356893
 20
781.599912866835
 30
0.0
 42
0.4142132661045023
  0
SEQEND
  5
2DA
  8
6_06MM_ABS_INSIDE
  0
POLYLINE
  5
2DC
  8
6_06MM_ABS_OUTSIDE
 66
     1
 10
0.0
 20
0.0
 30
0.0
 70
     1
  0
VERTEX
  5
2DD
  8
6_06MM_ABS_OUTSIDE
 10
-43.23753992477896
 20
945.9641889230143
 30
0.0
  0
VERTEX
  5
2DE
  8
6_06MM_ABS_OUTSIDE
 10
-36.80025938538142
 20
940.5997769075484
 30
0.0
  0
VERTEX
  5
2DF
  8
6_06MM_ABS_OUTSIDE
 10
108.1997406146183
 20
940.5997769075484
 30
0.0
  0
VERTEX
  5
2E0
  8
6_06MM_ABS_OUTSIDE
 10
108.1997406146183
 20
650.6000419827601
 30
0.0
  0
VERTEX
  5
2E1
  8
6_06MM_ABS_OUTSIDE
 10
58.72958771756771
 20
650.6000419827601
 30
0.0
  0
VERTEX
  5
2E2
  8
6_06MM_ABS_OUTSIDE
 10
58.72958771756771
 20
656.66004198276
 30
0.0
  0
VERTEX
  5
2E3
  8
6_06MM_ABS_OUTSIDE
 10
8.730009764423357
 20
656.66004198276
 30
0.0
  0
VERTEX
  5
2E4
  8
6_06MM_ABS_OUTSIDE
 10
8.730009764423357
 20
650.6000419827601
 30
0.0
  0
VERTEX
  5
2E5
  8
6_06MM_ABS_OUTSIDE
 10
-202.3302813430339
 20
650.6000419827601
 30
0.0
  0
VERTEX
  5
2E6
  8
6_06MM_ABS_OUTSIDE
 10
-202.3302813430339
 20
656.6600419827605
 30
0.0
  0
VERTEX
  5
2E7
  8
6_06MM_ABS_OUTSIDE
 10
-252.3298592961796
 20
656.6600419827605
 30
0.0
  0
VERTEX
  5
2E8
  8
6_06MM_ABS_OUTSIDE
 10
-252.3298592961796
 20
650.6000419827601
 30
0.0
  0
VERTEX
  5
2E9
  8
6_06MM_ABS_OUTSIDE
 10
-301.8000006587581
 20
650.6000419827601
 30
0.0
  0
VERTEX
  5
2EA
  8
6_06MM_ABS_OUTSIDE
 10
-301.8000006587581
 20
940.5997769075484
 30
0.0
  0
VERTEX
  5
2EB
  8
6_06MM_ABS_OUTSIDE
 10
-156.8000006587579
 20
940.5997769075484
 30
0.0
  0
VERTEX
  5
2EC
  8
6_06MM_ABS_OUTSIDE
 10
-150.3627201193599
 20
945.9641889230143
 30
0.0
 42
-0.1754526520137887
  0
VERTEX
  5
2ED
  8
6_06MM_ABS_OUTSIDE
 10
-137.5590158343105
 20
950.5997769075489
 30
0.0
  0
VERTEX
  5
2EE
  8
6_06MM_ABS_OUTSIDE
 10
-56.04124420982976
 20
950.5997769075484
 30
0.0
 42
-0.1754526520137467
  0
SEQEND
  5
2EF
  8
6_06MM_ABS_OUTSIDE
  0
CIRCLE
  5
2F1
  8
SCREW_HOLES
 10
-243.5697598331904
 20
660.7500419827616
 30
0.0
 40
1.500000000000057
  0
CIRCLE
  5
2F2
  8
SCREW_HOLES
 10
-211.0903744245682
 20
660.7500419827614
 30
0.0
 40
1.5
  0
CIRCLE
  5
2F3
  8
SCREW_HOLES
 10
50.00919249336176
 20
660.7500419827616
 30
0.0
 40
1.499999999999993
  0
CIRCLE
  5
2F4
  8
SCREW_HOLES
 10
17.52980708473953
 20
660.7500419827616
 30
0.0
 40
1.500000000000028
  0
CIRCLE
  5
2F5
  8
SCREW_HOLES
 10
-126.800130680828
 20
910.5997769075482
 30
0.0
 40
1.500000000000057
  0
CIRCLE
  5
2F6
  8
SCREW_HOLES
 10
-126.8001306808278
 20
920.5997769075483
 30
0.0
 40
1.499999999999829
  0
CIRCLE
  5
2F7
  8
SCREW_HOLES
 10
-126.800130680828
 20
930.5997769075486
 30
0.0
 40
1.5
  0
CIRCLE
  5
2F8
  8
SCREW_HOLES
 10
-126.8001306808281
 20
900.5997769075484
 30
0.0
 40
1.500000000000114
  0
CIRCLE
  5
2F9
  8
SCREW_HOLES
 10
-66.8001306808281
 20
900.5997769075484
 30
0.0
 40
1.500000000000071
  0
CIRCLE
  5
2FA
  8
SCREW_HOLES
 10
-66.80013068082793
 20
930.5997769075483
 30
0.0
 40
1.5
  0
CIRCLE
  5
2FB
  8
SCREW_HOLES
 10
-66.800130680828
 20
920.5997769075483
 30
0.0
 40
1.500000000000071
  0
CIRCLE
  5
2FC
  8
SCREW_HOLES
 10
-66.80013068082798
 20
910.5997769075484
 30
0.0
 40
1.500000000000043
  0
CIRCLE
  5
2FD
  8
SCREW_HOLES
 10
-96.80013068082803
 20
900.5997769075485
 30
0.0
 40
1.500000000000014
  0
CIRCLE
  5
2FE
  8
SCREW_HOLES
 10
-96.80013068082802
 20
930.5997769075484
 30
0.0
 40
1.499999999999957
  0
CIRCLE
  5
2FF
  8
SCREW_HOLES
 10
-96.80013068082802
 20
920.5997769075484
 30
0.0
 40
1.499999999999957
  0
CIRCLE
  5
300
  8
SCREW_HOLES
 10
-96.80013068082798
 20
910.5997769075486
 30
0.0
 40
1.499999999999915
  0
CIRCLE
  5
301
  8
SCREW_HOLES
 10
-96.8001306808281
 20
670.6000419827603
 30
0.0
 40
1.500000000000043
  0
CIRCLE
  5
302
  8
SCREW_HOLES
 10
-96.800130680828
 20
680.6000419827601
 30
0.0
 40
1.499999999999986
  0
CIRCLE
  5
303
  8
SCREW_HOLES
 10
-96.80013068082813
 20
690.6000419827601
 30
0.0
 40
1.500000000000114
  0
CIRCLE
  5
304
  8
SCREW_HOLES
 10
-96.80013068082805
 20
660.60004198276
 30
0.0
 40
1.500000000000028
  0
CIRCLE
  5
305
  8
SCREW_HOLES
 10
-66.80013068082789
 20
670.6000419827602
 30
0.0
 40
1.499999999999957
  0
CIRCLE
  5
306
  8
SCREW_HOLES
 10
-66.80013068082803
 20
680.6000419827603
 30
0.0
 40
1.5
  0
CIRCLE
  5
307
  8
SCREW_HOLES
 10
-66.80013068082803
 20
690.6000419827601
 30
0.0
 40
1.5
  0
CIRCLE
  5
308
  8
SCREW_HOLES
 10
-66.80013068082803
 20
660.6000419827601
 30
0.0
 40
1.5
  0
CIRCLE
  5
309
  8
SCREW_HOLES
 10
-126.800130680828
 20
660.6000419827603
 30
0.0
 40
1.5
  0
CIRCLE
  5
30A
  8
SCREW_HOLES
 10
-126.8001306808281
 20
690.6000419827601
 30
0.0
 40
1.500000000000114
  0
CIRCLE
  5
30B
  8
SCREW_HOLES
 10
-126.8001306808281
 20
680.6000419827602
 30
0.0
 40
1.500000000000043
  0
CIRCLE
  5
30C
  8
SCREW_HOLES
 10
-126.800130680828
 20
670.6000419827602
 30
0.0
 40
1.499999999999957
  0
CIRCLE
  5
30D
  8
SCREW_HOLES
 10
-159.9401301246421
 20
919.7699482614044
 30
0.0
 40
1.0
  0
CIRCLE
  5
30E
  8
SCREW_HOLES
 10
-159.9401301246421
 20
886.6299482614045
 30
0.0
 40
1.0
  0
CIRCLE
  5
30F
  8
SCREW_HOLES
 10
-33.66012991949766
 20
886.6299482614045
 30
0.0
 40
1.000000000000014
  0
CIRCLE
  5
310
  8
SCREW_HOLES
 10
-33.66012991949766
 20
919.7699482614045
 30
0.0
 40
1.000000000000014
  0
POLYLINE
  5
312
  8
BOUNDARIES
 66
     1
 10
0.0
 20
0.0
 30
0.0
 70
     1
  0
VERTEX
  5
313
  8
BOUNDARIES
 10
304.7999993412418
 20
647.6000419827606
 30
0.0
  0
VERTEX
  5
314
  8
BOUNDARIES
 10
304.7999993412418
 20
952.4000419827607
 30
0.0
  0
VERTEX
  5
315
  8
BOUNDARIES
 10
-304.8000006587581
 20
952.4000419827607
 30
0.0
  0
VERTEX
  5
316
  8
BOUNDARIES
 10
-304.8000006587581
 20
647.6000419827606
 30
0.0
  0
SEQEND
  5
317
  8
BOUNDARIES
  0
ENDSEC
  0
EOF
