  0
SECTION
  2
HEADER
  9
$ACADVER
  1
AC1009
  9
$DWGCODEPAGE
  3
ansi_1252
  9
$INSBASE
 10
0.0
 20
0.0
 30
0.0
  9
$EXTMIN
 10
395.1999993412419
 20
647.6000122070313
 30
0.0
  9
$EXTMAX
 10
1004.799999341242
 20
952.4000122070313
 30
0.0
  9
$LIMMIN
 10
0.0
 20
0.0
  9
$LIMMAX
 10
12.0
 20
9.0
  9
$ORTHOMODE
 70
     0
  9
$REGENMODE
 70
     1
  9
$FILLMODE
 70
     1
  9
$QTEXTMODE
 70
     0
  9
$MIRRTEXT
 70
     1
  9
$DRAGMODE
 70
     2
  9
$LTSCALE
 40
1.0
  9
$OSMODE
 70
    37
  9
$ATTMODE
 70
     1
  9
$TEXTSIZE
 40
0.2
  9
$TRACEWID
 40
0.05
  9
$TEXTSTYLE
  7
STANDARD
  9
$CLAYER
  8
0
  9
$CELTYPE
  6
BYLAYER
  9
$CECOLOR
 62
   256
  9
$DIMSCALE
 40
1.0
  9
$DIMASZ
 40
0.18
  9
$DIMEXO
 40
0.0625
  9
$DIMDLI
 40
0.38
  9
$DIMRND
 40
0.0
  9
$DIMDLE
 40
0.0
  9
$DIMEXE
 40
0.18
  9
$DIMTP
 40
0.0
  9
$DIMTM
 40
0.0
  9
$DIMTXT
 40
0.18
  9
$DIMCEN
 40
0.09
  9
$DIMTSZ
 40
0.0
  9
$DIMTOL
 70
     0
  9
$DIMLIM
 70
     0
  9
$DIMTIH
 70
     1
  9
$DIMTOH
 70
     1
  9
$DIMSE1
 70
     0
  9
$DIMSE2
 70
     0
  9
$DIMTAD
 70
     0
  9
$DIMZIN
 70
     0
  9
$DIMBLK
  1

  9
$DIMASO
 70
     1
  9
$DIMSHO
 70
     1
  9
$DIMPOST
  1

  9
$DIMAPOST
  1

  9
$DIMALT
 70
     0
  9
$DIMALTD
 70
     2
  9
$DIMALTF
 40
25.4
  9
$DIMLFAC
 40
1.0
  9
$DIMTOFL
 70
     0
  9
$DIMTVP
 40
0.0
  9
$DIMTIX
 70
     0
  9
$DIMSOXD
 70
     0
  9
$DIMSAH
 70
     0
  9
$DIMBLK1
  1

  9
$DIMBLK2
  1

  9
$DIMSTYLE
  2
STANDARD
  9
$DIMCLRD
 70
     0
  9
$DIMCLRE
 70
     0
  9
$DIMCLRT
 70
     0
  9
$DIMTFAC
 40
1.0
  9
$DIMGAP
 40
0.09
  9
$LUNITS
 70
     2
  9
$LUPREC
 70
     3
  9
$SKETCHINC
 40
0.1
  9
$FILLETRAD
 40
0.5
  9
$AUNITS
 70
     0
  9
$AUPREC
 70
     0
  9
$MENU
  1
.
  9
$ELEVATION
 40
0.0
  9
$PELEVATION
 40
0.0
  9
$THICKNESS
 40
0.0
  9
$LIMCHECK
 70
     0
  9
$CHAMFERA
 40
0.0
  9
$CHAMFERB
 40
0.0
  9
$SKPOLY
 70
     0
  9
$TDCREATE
 40
2457280.466240984
  9
$TDUPDATE
 40
2457280.466255069
  9
$TDINDWG
 40
0.0000000116
  9
$TDUSRTIMER
 40
0.0000000116
  9
$USRTIMER
 70
     1
  9
$ANGBASE
 50
0.0
  9
$ANGDIR
 70
     0
  9
$PDMODE
 70
     0
  9
$PDSIZE
 40
0.0
  9
$PLINEWID
 40
0.0
  9
$COORDS
 70
     1
  9
$SPLFRAME
 70
     0
  9
$SPLINETYPE
 70
     6
  9
$SPLINESEGS
 70
     8
  9
$ATTDIA
 70
     0
  9
$ATTREQ
 70
     1
  9
$HANDLING
 70
     1
  9
$HANDSEED
  5
136
  9
$SURFTAB1
 70
     6
  9
$SURFTAB2
 70
     6
  9
$SURFTYPE
 70
     6
  9
$SURFU
 70
     6
  9
$SURFV
 70
     6
  9
$UCSNAME
  2

  9
$UCSORG
 10
0.0
 20
0.0
 30
0.0
  9
$UCSXDIR
 10
1.0
 20
0.0
 30
0.0
  9
$UCSYDIR
 10
0.0
 20
1.0
 30
0.0
  9
$PUCSNAME
  2

  9
$PUCSORG
 10
0.0
 20
0.0
 30
0.0
  9
$PUCSXDIR
 10
1.0
 20
0.0
 30
0.0
  9
$PUCSYDIR
 10
0.0
 20
1.0
 30
0.0
  9
$USERI1
 70
     0
  9
$USERI2
 70
     0
  9
$USERI3
 70
     0
  9
$USERI4
 70
     0
  9
$USERI5
 70
     0
  9
$USERR1
 40
0.0
  9
$USERR2
 40
0.0
  9
$USERR3
 40
0.0
  9
$USERR4
 40
0.0
  9
$USERR5
 40
0.0
  9
$WORLDVIEW
 70
     1
  9
$SHADEDGE
 70
     3
  9
$SHADEDIF
 70
    70
  9
$TILEMODE
 70
     1
  9
$MAXACTVP
 70
    64
  9
$PLIMCHECK
 70
     0
  9
$PEXTMIN
 10
1.000000000000000E+20
 20
1.000000000000000E+20
 30
1.000000000000000E+20
  9
$PEXTMAX
 10
-1.000000000000000E+20
 20
-1.000000000000000E+20
 30
-1.000000000000000E+20
  9
$PLIMMIN
 10
0.0
 20
0.0
  9
$PLIMMAX
 10
12.0
 20
9.0
  9
$UNITMODE
 70
     0
  9
$VISRETAIN
 70
     1
  9
$PLINEGEN
 70
     0
  9
$PSLTSCALE
 70
     1
  0
ENDSEC
  0
SECTION
  2
TABLES
  0
TABLE
  2
VPORT
 70
     1
  0
VPORT
  2
*ACTIVE
 70
     0
 10
0.0
 20
0.0
 11
1.0
 21
1.0
 12
699.9999993412418
 22
800.0000122070313
 13
0.0
 23
0.0
 14
0.5
 24
0.5
 15
0.5
 25
0.5
 16
0.0
 26
0.0
 36
1.0
 17
0.0
 27
0.0
 37
0.0
 40
310.896
 41
2.0
 42
50.0
 43
0.0
 44
0.0
 50
0.0
 51
0.0
 71
     0
 72
   100
 73
     1
 74
     3
 75
     0
 76
     0
 77
     0
 78
     0
  0
ENDTAB
  0
TABLE
  2
LTYPE
 70
     1
  0
LTYPE
  2
CONTINUOUS
 70
     0
  3
Solid line
 72
    65
 73
     0
 40
0.0
  0
ENDTAB
  0
TABLE
  2
LAYER
 70
     5
  0
LAYER
  2
0
 70
     0
 62
     7
  6
CONTINUOUS
  0
LAYER
  2
6_06MM_ABS_INSIDE
 70
     0
 62
    15
  6
CONTINUOUS
  0
LAYER
  2
6_06MM_ABS_OUTSIDE
 70
     0
 62
     1
  6
CONTINUOUS
  0
LAYER
  2
SCREW_HOLES
 70
     0
 62
     7
  6
CONTINUOUS
  0
LAYER
  2
BOUNDARIES
 70
     0
 62
     7
  6
CONTINUOUS
  0
ENDTAB
  0
TABLE
  2
STYLE
 70
     1
  0
STYLE
  2
STANDARD
 70
     0
 40
0.0
 41
1.0
 50
0.0
 71
     0
 42
0.2
  3
txt
  4

  0
ENDTAB
  0
TABLE
  2
VIEW
 70
     0
  0
ENDTAB
  0
TABLE
  2
UCS
 70
     0
  0
ENDTAB
  0
TABLE
  2
APPID
 70
     1
  0
APPID
  2
ACAD
 70
     0
  0
ENDTAB
  0
TABLE
  2
DIMSTYLE
 70
     1
  0
DIMSTYLE
  2
STANDARD
 70
     0
  3

  4

  5

  6

  7

 40
1.0
 41
0.18
 42
0.0625
 43
0.38
 44
0.18
 45
0.0
 46
0.0
 47
0.0
 48
0.0
140
0.18
141
0.09
142
0.0
143
25.4
144
1.0
145
0.0
146
1.0
147
0.09
 71
     0
 72
     0
 73
     1
 74
     1
 75
     0
 76
     0
 77
     0
 78
     0
170
     0
171
     2
172
     0
173
     0
174
     0
175
     0
176
     0
177
     0
178
     0
  0
ENDTAB
  0
ENDSEC
  0
SECTION
  2
BLOCKS
  0
BLOCK
  8
0
  2
$MODEL_SPACE
 70
     0
 10
0.0
 20
0.0
 30
0.0
  3
$MODEL_SPACE
  1

  0
ENDBLK
  5
21
  8
0
  0
BLOCK
 67
     1
  8
0
  2
$PAPER_SPACE
 70
     0
 10
0.0
 20
0.0
 30
0.0
  3
$PAPER_SPACE
  1

  0
ENDBLK
  5
1D
 67
     1
  8
0
  0
ENDSEC
  0
SECTION
  2
ENTITIES
  0
POLYLINE
  5
6F
  8
6_06MM_ABS_INSIDE
 66
     1
 10
0.0
 20
0.0
 30
0.0
 70
     1
  0
VERTEX
  5
70
  8
6_06MM_ABS_INSIDE
 10
571.2598735548613
 20
857.2849933170489
 30
0.0
  0
VERTEX
  5
71
  8
6_06MM_ABS_INSIDE
 10
565.1998735548618
 20
857.2849933170489
 30
0.0
  0
VERTEX
  5
72
  8
6_06MM_ABS_INSIDE
 10
565.1998735548618
 20
837.2849933170489
 30
0.0
  0
VERTEX
  5
73
  8
6_06MM_ABS_INSIDE
 10
571.2598735548613
 20
837.2849933170489
 30
0.0
  0
SEQEND
  5
74
  8
6_06MM_ABS_INSIDE
  0
POLYLINE
  5
75
  8
6_06MM_ABS_INSIDE
 66
     1
 10
0.0
 20
0.0
 30
0.0
 70
     1
  0
VERTEX
  5
76
  8
6_06MM_ABS_INSIDE
 10
565.1998735548618
 20
735.3150687759216
 30
0.0
  0
VERTEX
  5
77
  8
6_06MM_ABS_INSIDE
 10
571.2598735548613
 20
735.3150687759216
 30
0.0
  0
VERTEX
  5
78
  8
6_06MM_ABS_INSIDE
 10
571.2598735548613
 20
755.3150687759216
 30
0.0
  0
VERTEX
  5
79
  8
6_06MM_ABS_INSIDE
 10
565.1998735548618
 20
755.3150687759216
 30
0.0
  0
SEQEND
  5
7A
  8
6_06MM_ABS_INSIDE
  0
POLYLINE
  5
7B
  8
6_06MM_ABS_INSIDE
 66
     1
 10
0.0
 20
0.0
 30
0.0
 70
     1
  0
VERTEX
  5
7C
  8
6_06MM_ABS_INSIDE
 10
565.1998735548618
 20
877.2849294034459
 30
0.0
  0
VERTEX
  5
7D
  8
6_06MM_ABS_INSIDE
 10
571.2598735548613
 20
877.2849294034459
 30
0.0
  0
VERTEX
  5
7E
  8
6_06MM_ABS_INSIDE
 10
571.2598735548613
 20
897.2849294034459
 30
0.0
  0
VERTEX
  5
7F
  8
6_06MM_ABS_INSIDE
 10
565.1998735548618
 20
897.2849294034459
 30
0.0
  0
SEQEND
  5
80
  8
6_06MM_ABS_INSIDE
  0
POLYLINE
  5
81
  8
6_06MM_ABS_INSIDE
 66
     1
 10
0.0
 20
0.0
 30
0.0
 70
     1
  0
VERTEX
  5
82
  8
6_06MM_ABS_INSIDE
 10
571.2598735548613
 20
715.3151109999957
 30
0.0
  0
VERTEX
  5
83
  8
6_06MM_ABS_INSIDE
 10
565.1998735548618
 20
715.3151109999957
 30
0.0
  0
VERTEX
  5
84
  8
6_06MM_ABS_INSIDE
 10
565.1998735548618
 20
695.3151109999957
 30
0.0
  0
VERTEX
  5
85
  8
6_06MM_ABS_INSIDE
 10
571.2598735548613
 20
695.3151109999957
 30
0.0
  0
SEQEND
  5
86
  8
6_06MM_ABS_INSIDE
  0
POLYLINE
  5
87
  8
6_06MM_ABS_INSIDE
 66
     1
 10
0.0
 20
0.0
 30
0.0
 70
     1
  0
VERTEX
  5
88
  8
6_06MM_ABS_INSIDE
 10
677.3198735548617
 20
857.2849933170489
 30
0.0
  0
VERTEX
  5
89
  8
6_06MM_ABS_INSIDE
 10
671.2598735548613
 20
857.2849933170489
 30
0.0
  0
VERTEX
  5
8A
  8
6_06MM_ABS_INSIDE
 10
671.2598735548613
 20
837.2849933170489
 30
0.0
  0
VERTEX
  5
8B
  8
6_06MM_ABS_INSIDE
 10
677.3198735548617
 20
837.2849933170489
 30
0.0
  0
SEQEND
  5
8C
  8
6_06MM_ABS_INSIDE
  0
POLYLINE
  5
8D
  8
6_06MM_ABS_INSIDE
 66
     1
 10
0.0
 20
0.0
 30
0.0
 70
     1
  0
VERTEX
  5
8E
  8
6_06MM_ABS_INSIDE
 10
671.2598735548613
 20
735.3150687759216
 30
0.0
  0
VERTEX
  5
8F
  8
6_06MM_ABS_INSIDE
 10
677.3198735548617
 20
735.3150687759216
 30
0.0
  0
VERTEX
  5
90
  8
6_06MM_ABS_INSIDE
 10
677.3198735548617
 20
755.3150687759216
 30
0.0
  0
VERTEX
  5
91
  8
6_06MM_ABS_INSIDE
 10
671.2598735548613
 20
755.3150687759216
 30
0.0
  0
SEQEND
  5
92
  8
6_06MM_ABS_INSIDE
  0
POLYLINE
  5
93
  8
6_06MM_ABS_INSIDE
 66
     1
 10
0.0
 20
0.0
 30
0.0
 70
     1
  0
VERTEX
  5
94
  8
6_06MM_ABS_INSIDE
 10
671.2598735548613
 20
877.2849294034459
 30
0.0
  0
VERTEX
  5
95
  8
6_06MM_ABS_INSIDE
 10
677.3198735548617
 20
877.2849294034459
 30
0.0
  0
VERTEX
  5
96
  8
6_06MM_ABS_INSIDE
 10
677.3198735548617
 20
897.2849294034459
 30
0.0
  0
VERTEX
  5
97
  8
6_06MM_ABS_INSIDE
 10
671.2598735548613
 20
897.2849294034459
 30
0.0
  0
SEQEND
  5
98
  8
6_06MM_ABS_INSIDE
  0
POLYLINE
  5
99
  8
6_06MM_ABS_INSIDE
 66
     1
 10
0.0
 20
0.0
 30
0.0
 70
     1
  0
VERTEX
  5
9A
  8
6_06MM_ABS_INSIDE
 10
677.3198735548617
 20
715.3151109999957
 30
0.0
  0
VERTEX
  5
9B
  8
6_06MM_ABS_INSIDE
 10
671.2598735548613
 20
715.3151109999957
 30
0.0
  0
VERTEX
  5
9C
  8
6_06MM_ABS_INSIDE
 10
671.2598735548613
 20
695.3151109999957
 30
0.0
  0
VERTEX
  5
9D
  8
6_06MM_ABS_INSIDE
 10
677.3198735548617
 20
695.3151109999957
 30
0.0
  0
SEQEND
  5
9E
  8
6_06MM_ABS_INSIDE
  0
POLYLINE
  5
9F
  8
6_06MM_ABS_INSIDE
 66
     1
 10
0.0
 20
0.0
 30
0.0
 70
     1
  0
VERTEX
  5
A0
  8
6_06MM_ABS_INSIDE
 10
766.7897709426948
 20
795.6300224588783
 30
0.0
  0
VERTEX
  5
A1
  8
6_06MM_ABS_INSIDE
 10
766.7897709426948
 20
789.5700221861422
 30
0.0
  0
VERTEX
  5
A2
  8
6_06MM_ABS_INSIDE
 10
786.7897717388901
 20
789.5700221861422
 30
0.0
  0
VERTEX
  5
A3
  8
6_06MM_ABS_INSIDE
 10
786.7897717388901
 20
795.6300221861421
 30
0.0
  0
SEQEND
  5
A4
  8
6_06MM_ABS_INSIDE
  0
POLYLINE
  5
A5
  8
6_06MM_ABS_INSIDE
 66
     1
 10
0.0
 20
0.0
 30
0.0
 70
     1
  0
VERTEX
  5
A6
  8
6_06MM_ABS_INSIDE
 10
746.7898293606659
 20
789.5700221861422
 30
0.0
  0
VERTEX
  5
A7
  8
6_06MM_ABS_INSIDE
 10
746.7898293606659
 20
795.6300224588783
 30
0.0
  0
VERTEX
  5
A8
  8
6_06MM_ABS_INSIDE
 10
726.7898299194453
 20
795.6300221861421
 30
0.0
  0
VERTEX
  5
A9
  8
6_06MM_ABS_INSIDE
 10
726.7898299194453
 20
789.5700221861422
 30
0.0
  0
SEQEND
  5
AA
  8
6_06MM_ABS_INSIDE
  0
POLYLINE
  5
AB
  8
6_06MM_ABS_INSIDE
 66
     1
 10
0.0
 20
0.0
 30
0.0
 70
     1
  0
VERTEX
  5
AC
  8
6_06MM_ABS_INSIDE
 10
631.2598432876707
 20
795.6300224588783
 30
0.0
  0
VERTEX
  5
AD
  8
6_06MM_ABS_INSIDE
 10
631.2598432876707
 20
789.5700221861422
 30
0.0
  0
VERTEX
  5
AE
  8
6_06MM_ABS_INSIDE
 10
651.2598739703394
 20
789.5700221861422
 30
0.0
  0
VERTEX
  5
AF
  8
6_06MM_ABS_INSIDE
 10
651.2598739703394
 20
795.6300221861421
 30
0.0
  0
SEQEND
  5
B0
  8
6_06MM_ABS_INSIDE
  0
POLYLINE
  5
B1
  8
6_06MM_ABS_INSIDE
 66
     1
 10
0.0
 20
0.0
 30
0.0
 70
     1
  0
VERTEX
  5
B2
  8
6_06MM_ABS_INSIDE
 10
611.2599017056423
 20
789.5700221861422
 30
0.0
  0
VERTEX
  5
B3
  8
6_06MM_ABS_INSIDE
 10
611.2599017056423
 20
795.6300224588783
 30
0.0
  0
VERTEX
  5
B4
  8
6_06MM_ABS_INSIDE
 10
591.2598737329236
 20
795.6300221861421
 30
0.0
  0
VERTEX
  5
B5
  8
6_06MM_ABS_INSIDE
 10
591.2598737329236
 20
789.5700221861422
 30
0.0
  0
SEQEND
  5
B6
  8
6_06MM_ABS_INSIDE
  0
POLYLINE
  5
B7
  8
6_06MM_ABS_INSIDE
 66
     1
 10
0.0
 20
0.0
 30
0.0
 70
     1
  0
VERTEX
  5
B8
  8
6_06MM_ABS_INSIDE
 10
495.72991736834
 20
795.6300227316144
 30
0.0
  0
VERTEX
  5
B9
  8
6_06MM_ABS_INSIDE
 10
495.72991736834
 20
789.5700221861422
 30
0.0
  0
VERTEX
  5
BA
  8
6_06MM_ABS_INSIDE
 10
515.72991736834
 20
789.5700221861422
 30
0.0
  0
VERTEX
  5
BB
  8
6_06MM_ABS_INSIDE
 10
515.72991736834
 20
795.6300227316144
 30
0.0
  0
SEQEND
  5
BC
  8
6_06MM_ABS_INSIDE
  0
POLYLINE
  5
BD
  8
6_06MM_ABS_INSIDE
 66
     1
 10
0.0
 20
0.0
 30
0.0
 70
     1
  0
VERTEX
  5
BE
  8
6_06MM_ABS_INSIDE
 10
475.7299757863107
 20
789.5700221861422
 30
0.0
  0
VERTEX
  5
BF
  8
6_06MM_ABS_INSIDE
 10
475.7299757863107
 20
795.6300227316144
 30
0.0
  0
VERTEX
  5
C0
  8
6_06MM_ABS_INSIDE
 10
455.7299757863107
 20
795.6300227316144
 30
0.0
  0
VERTEX
  5
C1
  8
6_06MM_ABS_INSIDE
 10
455.7299757863107
 20
789.5700221861422
 30
0.0
  0
SEQEND
  5
C2
  8
6_06MM_ABS_INSIDE
  0
CIRCLE
  5
C3
  8
6_06MM_ABS_INSIDE
 10
621.2598738516313
 20
792.6000221861424
 30
0.0
 40
1.5
  0
CIRCLE
  5
C4
  8
6_06MM_ABS_INSIDE
 10
674.2898735548614
 20
867.2849933170494
 30
0.0
 40
1.499999999999773
  0
CIRCLE
  5
C5
  8
6_06MM_ABS_INSIDE
 10
674.2898735548612
 20
725.3150687759221
 30
0.0
 40
1.5
  0
CIRCLE
  5
C6
  8
6_06MM_ABS_INSIDE
 10
568.2298735548615
 20
725.3150687759218
 30
0.0
 40
1.499999999999886
  0
CIRCLE
  5
C7
  8
6_06MM_ABS_INSIDE
 10
568.2298735548616
 20
867.2849933170489
 30
0.0
 40
1.5
  0
CIRCLE
  5
C8
  8
6_06MM_ABS_INSIDE
 10
485.7299177490572
 20
792.6000221861424
 30
0.0
 40
1.5
  0
CIRCLE
  5
C9
  8
6_06MM_ABS_INSIDE
 10
756.789829360666
 20
792.6000221861422
 30
0.0
 40
1.499999999999773
  0
POLYLINE
  5
CB
  8
6_06MM_ABS_OUTSIDE
 66
     1
 10
0.0
 20
0.0
 30
0.0
 70
     1
  0
VERTEX
  5
CC
  8
6_06MM_ABS_OUTSIDE
 10
842.3197477684812
 20
837.2849920925516
 30
0.0
  0
VERTEX
  5
CD
  8
6_06MM_ABS_OUTSIDE
 10
836.2597477684808
 20
837.2849920925518
 30
0.0
  0
VERTEX
  5
CE
  8
6_06MM_ABS_OUTSIDE
 10
836.2597477684808
 20
751.000070061722
 30
0.0
  0
VERTEX
  5
CF
  8
6_06MM_ABS_OUTSIDE
 10
842.3197477684812
 20
751.000070061722
 30
0.0
  0
VERTEX
  5
D0
  8
6_06MM_ABS_OUTSIDE
 10
842.3197477684812
 20
731.000070061722
 30
0.0
  0
VERTEX
  5
D1
  8
6_06MM_ABS_OUTSIDE
 10
836.2597477684808
 20
731.000070061722
 30
0.0
  0
VERTEX
  5
D2
  8
6_06MM_ABS_OUTSIDE
 10
836.2597477684808
 20
711.0001137973059
 30
0.0
  0
VERTEX
  5
D3
  8
6_06MM_ABS_OUTSIDE
 10
842.3197477684812
 20
711.0001137973057
 30
0.0
  0
VERTEX
  5
D4
  8
6_06MM_ABS_OUTSIDE
 10
842.3197477684812
 20
691.0001137973057
 30
0.0
  0
VERTEX
  5
D5
  8
6_06MM_ABS_OUTSIDE
 10
836.2597477684808
 20
691.0001137973059
 30
0.0
  0
VERTEX
  5
D6
  8
6_06MM_ABS_OUTSIDE
 10
836.2597477684808
 20
655.0001447096065
 30
0.0
  0
VERTEX
  5
D7
  8
6_06MM_ABS_OUTSIDE
 10
786.7897717388901
 20
655.0001447096065
 30
0.0
  0
VERTEX
  5
D8
  8
6_06MM_ABS_OUTSIDE
 10
786.7897717388901
 20
661.0601447096064
 30
0.0
  0
VERTEX
  5
D9
  8
6_06MM_ABS_OUTSIDE
 10
726.7898299194453
 20
661.0601447096064
 30
0.0
  0
VERTEX
  5
DA
  8
6_06MM_ABS_OUTSIDE
 10
726.7898299194453
 20
655.0001447096065
 30
0.0
  0
VERTEX
  5
DB
  8
6_06MM_ABS_OUTSIDE
 10
651.2598739703394
 20
655.0001447096065
 30
0.0
  0
VERTEX
  5
DC
  8
6_06MM_ABS_OUTSIDE
 10
651.2598739703394
 20
661.0601447096064
 30
0.0
  0
VERTEX
  5
DD
  8
6_06MM_ABS_OUTSIDE
 10
591.2598737329236
 20
661.0601447096064
 30
0.0
  0
VERTEX
  5
DE
  8
6_06MM_ABS_OUTSIDE
 10
591.2598737329236
 20
655.0001447096065
 30
0.0
  0
VERTEX
  5
DF
  8
6_06MM_ABS_OUTSIDE
 10
515.72991736834
 20
655.0001447096065
 30
0.0
  0
VERTEX
  5
E0
  8
6_06MM_ABS_OUTSIDE
 10
515.72991736834
 20
661.0601452550786
 30
0.0
  0
VERTEX
  5
E1
  8
6_06MM_ABS_OUTSIDE
 10
455.7299757863107
 20
661.0601452550786
 30
0.0
  0
VERTEX
  5
E2
  8
6_06MM_ABS_OUTSIDE
 10
455.7299757863107
 20
655.0001447096065
 30
0.0
  0
VERTEX
  5
E3
  8
6_06MM_ABS_OUTSIDE
 10
406.2599993412423
 20
655.0001447096065
 30
0.0
  0
VERTEX
  5
E4
  8
6_06MM_ABS_OUTSIDE
 10
406.2599993412423
 20
691.0001137973057
 30
0.0
  0
VERTEX
  5
E5
  8
6_06MM_ABS_OUTSIDE
 10
400.1999993412419
 20
691.0001137973059
 30
0.0
  0
VERTEX
  5
E6
  8
6_06MM_ABS_OUTSIDE
 10
400.1999993412419
 20
711.0001137973059
 30
0.0
  0
VERTEX
  5
E7
  8
6_06MM_ABS_OUTSIDE
 10
406.2599993412423
 20
711.0001137973057
 30
0.0
  0
VERTEX
  5
E8
  8
6_06MM_ABS_OUTSIDE
 10
406.2599993412423
 20
731.000070061722
 30
0.0
  0
VERTEX
  5
E9
  8
6_06MM_ABS_OUTSIDE
 10
400.1999993412419
 20
731.000070061722
 30
0.0
  0
VERTEX
  5
EA
  8
6_06MM_ABS_OUTSIDE
 10
400.1999993412419
 20
751.000070061722
 30
0.0
  0
VERTEX
  5
EB
  8
6_06MM_ABS_OUTSIDE
 10
406.2599993412423
 20
751.000070061722
 30
0.0
  0
VERTEX
  5
EC
  8
6_06MM_ABS_OUTSIDE
 10
406.2599993412423
 20
837.2849920925516
 30
0.0
  0
VERTEX
  5
ED
  8
6_06MM_ABS_OUTSIDE
 10
400.1999993412419
 20
837.2849920925518
 30
0.0
  0
VERTEX
  5
EE
  8
6_06MM_ABS_OUTSIDE
 10
400.1999993412419
 20
857.2849920925518
 30
0.0
  0
VERTEX
  5
EF
  8
6_06MM_ABS_OUTSIDE
 10
406.2599993412423
 20
857.2849920925516
 30
0.0
  0
VERTEX
  5
F0
  8
6_06MM_ABS_OUTSIDE
 10
406.2599993412423
 20
877.2849264222833
 30
0.0
  0
VERTEX
  5
F1
  8
6_06MM_ABS_OUTSIDE
 10
400.1999993412419
 20
877.2849264222833
 30
0.0
  0
VERTEX
  5
F2
  8
6_06MM_ABS_OUTSIDE
 10
400.1999993412419
 20
897.2849264222833
 30
0.0
  0
VERTEX
  5
F3
  8
6_06MM_ABS_OUTSIDE
 10
406.2599993412423
 20
897.2849264222833
 30
0.0
  0
VERTEX
  5
F4
  8
6_06MM_ABS_OUTSIDE
 10
406.2599993412423
 20
944.9998796343942
 30
0.0
  0
VERTEX
  5
F5
  8
6_06MM_ABS_OUTSIDE
 10
455.7299757863107
 20
944.9998797044561
 30
0.0
  0
VERTEX
  5
F6
  8
6_06MM_ABS_OUTSIDE
 10
455.7299757863107
 20
938.9398793654138
 30
0.0
  0
VERTEX
  5
F7
  8
6_06MM_ABS_OUTSIDE
 10
515.72991736834
 20
938.9398793654138
 30
0.0
  0
VERTEX
  5
F8
  8
6_06MM_ABS_OUTSIDE
 10
515.72991736834
 20
944.9998797044561
 30
0.0
  0
VERTEX
  5
F9
  8
6_06MM_ABS_OUTSIDE
 10
591.2598737329236
 20
944.999879499904
 30
0.0
  0
VERTEX
  5
FA
  8
6_06MM_ABS_OUTSIDE
 10
591.2598737329236
 20
938.9398793654138
 30
0.0
  0
VERTEX
  5
FB
  8
6_06MM_ABS_OUTSIDE
 10
651.2598739703394
 20
938.9398793654138
 30
0.0
  0
VERTEX
  5
FC
  8
6_06MM_ABS_OUTSIDE
 10
651.2598739703394
 20
944.999879499904
 30
0.0
  0
VERTEX
  5
FD
  8
6_06MM_ABS_OUTSIDE
 10
726.7898299194453
 20
944.999879499904
 30
0.0
  0
VERTEX
  5
FE
  8
6_06MM_ABS_OUTSIDE
 10
726.7898299194453
 20
938.9398793654138
 30
0.0
  0
VERTEX
  5
FF
  8
6_06MM_ABS_OUTSIDE
 10
786.7897717388901
 20
938.9398793654138
 30
0.0
  0
VERTEX
  5
100
  8
6_06MM_ABS_OUTSIDE
 10
786.7897717388901
 20
944.999879499904
 30
0.0
  0
VERTEX
  5
101
  8
6_06MM_ABS_OUTSIDE
 10
836.2597477684808
 20
944.9998796343942
 30
0.0
  0
VERTEX
  5
102
  8
6_06MM_ABS_OUTSIDE
 10
836.2597477684808
 20
897.2849264222833
 30
0.0
  0
VERTEX
  5
103
  8
6_06MM_ABS_OUTSIDE
 10
842.3197477684812
 20
897.2849264222833
 30
0.0
  0
VERTEX
  5
104
  8
6_06MM_ABS_OUTSIDE
 10
842.3197477684812
 20
877.2849264222833
 30
0.0
  0
VERTEX
  5
105
  8
6_06MM_ABS_OUTSIDE
 10
836.2597477684808
 20
877.2849264222833
 30
0.0
  0
VERTEX
  5
106
  8
6_06MM_ABS_OUTSIDE
 10
836.2597477684808
 20
857.2849920925518
 30
0.0
  0
VERTEX
  5
107
  8
6_06MM_ABS_OUTSIDE
 10
842.3197477684812
 20
857.2849920925516
 30
0.0
  0
SEQEND
  5
108
  8
6_06MM_ABS_OUTSIDE
  0
CIRCLE
  5
10A
  8
SCREW_HOLES
 10
621.2598733641264
 20
818.7449410492464
 30
0.0
 40
1.000000000000114
  0
CIRCLE
  5
10B
  8
SCREW_HOLES
 10
621.2598733641265
 20
925.8249410492461
 30
0.0
 40
1.0
  0
CIRCLE
  5
10C
  8
SCREW_HOLES
 10
649.5098735548614
 20
686.665073138607
 30
0.0
 40
0.9999999999998863
  0
CIRCLE
  5
10D
  8
SCREW_HOLES
 10
649.5098735548612
 20
763.9650731386071
 30
0.0
 40
0.9999999999997726
  0
CIRCLE
  5
10E
  8
SCREW_HOLES
 10
593.0098735548615
 20
763.9650731386072
 30
0.0
 40
0.9999999999998863
  0
CIRCLE
  5
10F
  8
SCREW_HOLES
 10
593.0098735548618
 20
686.6650731386069
 30
0.0
 40
1.0
  0
CIRCLE
  5
110
  8
SCREW_HOLES
 10
515.7299589318742
 20
898.9398793654142
 30
0.0
 40
1.500000000000114
  0
CIRCLE
  5
111
  8
SCREW_HOLES
 10
515.7299589318741
 20
908.9398793654141
 30
0.0
 40
1.5
  0
CIRCLE
  5
112
  8
SCREW_HOLES
 10
515.729958931874
 20
918.939879365414
 30
0.0
 40
1.499999999999886
  0
CIRCLE
  5
113
  8
SCREW_HOLES
 10
515.7299589318741
 20
928.939879365414
 30
0.0
 40
1.5
  0
CIRCLE
  5
114
  8
SCREW_HOLES
 10
455.7299589318742
 20
928.9398793654137
 30
0.0
 40
1.500000000000114
  0
CIRCLE
  5
115
  8
SCREW_HOLES
 10
455.7299589318741
 20
918.9398793654138
 30
0.0
 40
1.5
  0
CIRCLE
  5
116
  8
SCREW_HOLES
 10
455.7299589318743
 20
908.939879365414
 30
0.0
 40
1.500000000000227
  0
CIRCLE
  5
117
  8
SCREW_HOLES
 10
455.7299589318743
 20
898.9398793654138
 30
0.0
 40
1.500000000000227
  0
CIRCLE
  5
118
  8
SCREW_HOLES
 10
485.7299589318741
 20
928.9398793654141
 30
0.0
 40
1.5
  0
CIRCLE
  5
119
  8
SCREW_HOLES
 10
485.7299589318739
 20
918.9398793654141
 30
0.0
 40
1.499999999999773
  0
CIRCLE
  5
11A
  8
SCREW_HOLES
 10
485.7299589318742
 20
908.9398793654138
 30
0.0
 40
1.500000000000114
  0
CIRCLE
  5
11B
  8
SCREW_HOLES
 10
485.7299589318742
 20
898.9398793654138
 30
0.0
 40
1.500000000000114
  0
CIRCLE
  5
11C
  8
SCREW_HOLES
 10
726.7897881778485
 20
898.939879365414
 30
0.0
 40
1.499999999999659
  0
CIRCLE
  5
11D
  8
SCREW_HOLES
 10
726.7897881778484
 20
908.9398793654141
 30
0.0
 40
1.499999999999773
  0
CIRCLE
  5
11E
  8
SCREW_HOLES
 10
726.7897881778482
 20
918.9398793654141
 30
0.0
 40
1.5
  0
CIRCLE
  5
11F
  8
SCREW_HOLES
 10
726.7897881778484
 20
928.9398793654138
 30
0.0
 40
1.499999999999773
  0
CIRCLE
  5
120
  8
SCREW_HOLES
 10
786.7897881778485
 20
928.9398793654138
 30
0.0
 40
1.499999999999886
  0
CIRCLE
  5
121
  8
SCREW_HOLES
 10
786.7897881778485
 20
918.9398793654137
 30
0.0
 40
1.499999999999886
  0
CIRCLE
  5
122
  8
SCREW_HOLES
 10
786.7897881778483
 20
908.9398793654143
 30
0.0
 40
1.500000000000114
  0
CIRCLE
  5
123
  8
SCREW_HOLES
 10
786.7897881778483
 20
898.9398793654141
 30
0.0
 40
1.500000000000114
  0
CIRCLE
  5
124
  8
SCREW_HOLES
 10
756.7897881778483
 20
928.9398793654142
 30
0.0
 40
1.499999999999773
  0
CIRCLE
  5
125
  8
SCREW_HOLES
 10
756.7897881778483
 20
918.9398793654141
 30
0.0
 40
1.499999999999773
  0
CIRCLE
  5
126
  8
SCREW_HOLES
 10
756.7897881778484
 20
908.9398793654143
 30
0.0
 40
1.499999999999659
  0
CIRCLE
  5
127
  8
SCREW_HOLES
 10
756.7897881778483
 20
898.9398793654142
 30
0.0
 40
1.499999999999773
  0
POLYLINE
  5
129
  8
BOUNDARIES
 66
     1
 10
0.0
 20
0.0
 30
0.0
 70
     1
  0
VERTEX
  5
12A
  8
BOUNDARIES
 10
1004.799999341242
 20
647.6000122070313
 30
0.0
  0
VERTEX
  5
12B
  8
BOUNDARIES
 10
1004.799999341242
 20
952.4000122070313
 30
0.0
  0
VERTEX
  5
12C
  8
BOUNDARIES
 10
395.1999993412419
 20
952.4000122070313
 30
0.0
  0
VERTEX
  5
12D
  8
BOUNDARIES
 10
395.1999993412419
 20
647.6000122070313
 30
0.0
  0
SEQEND
  5
12E
  8
BOUNDARIES
  0
ENDSEC
  0
EOF
