  0
SECTION
  2
HEADER
  9
$ACADVER
  1
AC1009
  9
$DWGCODEPAGE
  3
ansi_1252
  9
$INSBASE
 10
0.0
 20
0.0
 30
0.0
  9
$EXTMIN
 10
-304.8000006587581
 20
247.4881706448706
 30
0.0
  9
$EXTMAX
 10
304.7999993412423
 20
552.2881706448707
 30
0.0
  9
$LIMMIN
 10
0.0
 20
0.0
  9
$LIMMAX
 10
12.0
 20
9.0
  9
$ORTHOMODE
 70
     0
  9
$REGENMODE
 70
     1
  9
$FILLMODE
 70
     1
  9
$QTEXTMODE
 70
     0
  9
$MIRRTEXT
 70
     1
  9
$DRAGMODE
 70
     2
  9
$LTSCALE
 40
1.0
  9
$OSMODE
 70
    37
  9
$ATTMODE
 70
     1
  9
$TEXTSIZE
 40
0.2
  9
$TRACEWID
 40
0.05
  9
$TEXTSTYLE
  7
STANDARD
  9
$CLAYER
  8
0
  9
$CELTYPE
  6
BYLAYER
  9
$CECOLOR
 62
   256
  9
$DIMSCALE
 40
1.0
  9
$DIMASZ
 40
0.18
  9
$DIMEXO
 40
0.0625
  9
$DIMDLI
 40
0.38
  9
$DIMRND
 40
0.0
  9
$DIMDLE
 40
0.0
  9
$DIMEXE
 40
0.18
  9
$DIMTP
 40
0.0
  9
$DIMTM
 40
0.0
  9
$DIMTXT
 40
0.18
  9
$DIMCEN
 40
0.09
  9
$DIMTSZ
 40
0.0
  9
$DIMTOL
 70
     0
  9
$DIMLIM
 70
     0
  9
$DIMTIH
 70
     1
  9
$DIMTOH
 70
     1
  9
$DIMSE1
 70
     0
  9
$DIMSE2
 70
     0
  9
$DIMTAD
 70
     0
  9
$DIMZIN
 70
     0
  9
$DIMBLK
  1

  9
$DIMASO
 70
     1
  9
$DIMSHO
 70
     1
  9
$DIMPOST
  1

  9
$DIMAPOST
  1

  9
$DIMALT
 70
     0
  9
$DIMALTD
 70
     2
  9
$DIMALTF
 40
25.4
  9
$DIMLFAC
 40
1.0
  9
$DIMTOFL
 70
     0
  9
$DIMTVP
 40
0.0
  9
$DIMTIX
 70
     0
  9
$DIMSOXD
 70
     0
  9
$DIMSAH
 70
     0
  9
$DIMBLK1
  1

  9
$DIMBLK2
  1

  9
$DIMSTYLE
  2
STANDARD
  9
$DIMCLRD
 70
     0
  9
$DIMCLRE
 70
     0
  9
$DIMCLRT
 70
     0
  9
$DIMTFAC
 40
1.0
  9
$DIMGAP
 40
0.09
  9
$LUNITS
 70
     2
  9
$LUPREC
 70
     3
  9
$SKETCHINC
 40
0.1
  9
$FILLETRAD
 40
0.5
  9
$AUNITS
 70
     0
  9
$AUPREC
 70
     0
  9
$MENU
  1
.
  9
$ELEVATION
 40
0.0
  9
$PELEVATION
 40
0.0
  9
$THICKNESS
 40
0.0
  9
$LIMCHECK
 70
     0
  9
$CHAMFERA
 40
0.0
  9
$CHAMFERB
 40
0.0
  9
$SKPOLY
 70
     0
  9
$TDCREATE
 40
2457280.466311783
  9
$TDUPDATE
 40
2457280.46632478
  9
$TDINDWG
 40
0.0000000116
  9
$TDUSRTIMER
 40
0.0000000116
  9
$USRTIMER
 70
     1
  9
$ANGBASE
 50
0.0
  9
$ANGDIR
 70
     0
  9
$PDMODE
 70
     0
  9
$PDSIZE
 40
0.0
  9
$PLINEWID
 40
0.0
  9
$COORDS
 70
     1
  9
$SPLFRAME
 70
     0
  9
$SPLINETYPE
 70
     6
  9
$SPLINESEGS
 70
     8
  9
$ATTDIA
 70
     0
  9
$ATTREQ
 70
     1
  9
$HANDLING
 70
     1
  9
$HANDSEED
  5
207
  9
$SURFTAB1
 70
     6
  9
$SURFTAB2
 70
     6
  9
$SURFTYPE
 70
     6
  9
$SURFU
 70
     6
  9
$SURFV
 70
     6
  9
$UCSNAME
  2

  9
$UCSORG
 10
0.0
 20
0.0
 30
0.0
  9
$UCSXDIR
 10
1.0
 20
0.0
 30
0.0
  9
$UCSYDIR
 10
0.0
 20
1.0
 30
0.0
  9
$PUCSNAME
  2

  9
$PUCSORG
 10
0.0
 20
0.0
 30
0.0
  9
$PUCSXDIR
 10
1.0
 20
0.0
 30
0.0
  9
$PUCSYDIR
 10
0.0
 20
1.0
 30
0.0
  9
$USERI1
 70
     0
  9
$USERI2
 70
     0
  9
$USERI3
 70
     0
  9
$USERI4
 70
     0
  9
$USERI5
 70
     0
  9
$USERR1
 40
0.0
  9
$USERR2
 40
0.0
  9
$USERR3
 40
0.0
  9
$USERR4
 40
0.0
  9
$USERR5
 40
0.0
  9
$WORLDVIEW
 70
     1
  9
$SHADEDGE
 70
     3
  9
$SHADEDIF
 70
    70
  9
$TILEMODE
 70
     1
  9
$MAXACTVP
 70
    64
  9
$PLIMCHECK
 70
     0
  9
$PEXTMIN
 10
1.000000000000000E+20
 20
1.000000000000000E+20
 30
1.000000000000000E+20
  9
$PEXTMAX
 10
-1.000000000000000E+20
 20
-1.000000000000000E+20
 30
-1.000000000000000E+20
  9
$PLIMMIN
 10
0.0
 20
0.0
  9
$PLIMMAX
 10
12.0
 20
9.0
  9
$UNITMODE
 70
     0
  9
$VISRETAIN
 70
     1
  9
$PLINEGEN
 70
     0
  9
$PSLTSCALE
 70
     1
  0
ENDSEC
  0
SECTION
  2
TABLES
  0
TABLE
  2
VPORT
 70
     1
  0
VPORT
  2
*ACTIVE
 70
     0
 10
0.0
 20
0.0
 11
1.0
 21
1.0
 12
-0.0000006587579264
 22
399.8881706448706
 13
0.0
 23
0.0
 14
0.5
 24
0.5
 15
0.5
 25
0.5
 16
0.0
 26
0.0
 36
1.0
 17
0.0
 27
0.0
 37
0.0
 40
310.8960000000001
 41
2.000000000000001
 42
50.0
 43
0.0
 44
0.0
 50
0.0
 51
0.0
 71
     0
 72
   100
 73
     1
 74
     3
 75
     0
 76
     0
 77
     0
 78
     0
  0
ENDTAB
  0
TABLE
  2
LTYPE
 70
     1
  0
LTYPE
  2
CONTINUOUS
 70
     0
  3
Solid line
 72
    65
 73
     0
 40
0.0
  0
ENDTAB
  0
TABLE
  2
LAYER
 70
     5
  0
LAYER
  2
0
 70
     0
 62
     7
  6
CONTINUOUS
  0
LAYER
  2
6_06MM_ABS_INSIDE
 70
     0
 62
    15
  6
CONTINUOUS
  0
LAYER
  2
6_06MM_ABS_OUTSIDE
 70
     0
 62
     1
  6
CONTINUOUS
  0
LAYER
  2
SCREW_HOLES
 70
     0
 62
     7
  6
CONTINUOUS
  0
LAYER
  2
BOUNDARIES
 70
     0
 62
     7
  6
CONTINUOUS
  0
ENDTAB
  0
TABLE
  2
STYLE
 70
     1
  0
STYLE
  2
STANDARD
 70
     0
 40
0.0
 41
1.0
 50
0.0
 71
     0
 42
0.2
  3
txt
  4

  0
ENDTAB
  0
TABLE
  2
VIEW
 70
     0
  0
ENDTAB
  0
TABLE
  2
UCS
 70
     0
  0
ENDTAB
  0
TABLE
  2
APPID
 70
     1
  0
APPID
  2
ACAD
 70
     0
  0
ENDTAB
  0
TABLE
  2
DIMSTYLE
 70
     1
  0
DIMSTYLE
  2
STANDARD
 70
     0
  3

  4

  5

  6

  7

 40
1.0
 41
0.18
 42
0.0625
 43
0.38
 44
0.18
 45
0.0
 46
0.0
 47
0.0
 48
0.0
140
0.18
141
0.09
142
0.0
143
25.4
144
1.0
145
0.0
146
1.0
147
0.09
 71
     0
 72
     0
 73
     1
 74
     1
 75
     0
 76
     0
 77
     0
 78
     0
170
     0
171
     2
172
     0
173
     0
174
     0
175
     0
176
     0
177
     0
178
     0
  0
ENDTAB
  0
ENDSEC
  0
SECTION
  2
BLOCKS
  0
BLOCK
  8
0
  2
$MODEL_SPACE
 70
     0
 10
0.0
 20
0.0
 30
0.0
  3
$MODEL_SPACE
  1

  0
ENDBLK
  5
21
  8
0
  0
BLOCK
 67
     1
  8
0
  2
$PAPER_SPACE
 70
     0
 10
0.0
 20
0.0
 30
0.0
  3
$PAPER_SPACE
  1

  0
ENDBLK
  5
1D
 67
     1
  8
0
  0
ENDSEC
  0
SECTION
  2
ENTITIES
  0
POLYLINE
  5
6F
  8
6_06MM_ABS_INSIDE
 66
     1
 10
0.0
 20
0.0
 30
0.0
 70
     1
  0
VERTEX
  5
70
  8
6_06MM_ABS_INSIDE
 10
-144.8001300220694
 20
533.2881474801839
 30
0.0
  0
VERTEX
  5
71
  8
6_06MM_ABS_INSIDE
 10
-144.8001300220694
 20
513.2881474801839
 30
0.0
  0
VERTEX
  5
72
  8
6_06MM_ABS_INSIDE
 10
-138.7401300220699
 20
513.2881474801839
 30
0.0
  0
VERTEX
  5
73
  8
6_06MM_ABS_INSIDE
 10
-138.7401300220699
 20
533.2881474801839
 30
0.0
  0
SEQEND
  5
74
  8
6_06MM_ABS_INSIDE
  0
POLYLINE
  5
75
  8
6_06MM_ABS_INSIDE
 66
     1
 10
0.0
 20
0.0
 30
0.0
 70
     1
  0
VERTEX
  5
76
  8
6_06MM_ABS_INSIDE
 10
-138.7401300220699
 20
473.288114922801
 30
0.0
  0
VERTEX
  5
77
  8
6_06MM_ABS_INSIDE
 10
-138.7401300220699
 20
493.288114922801
 30
0.0
  0
VERTEX
  5
78
  8
6_06MM_ABS_INSIDE
 10
-144.8001300220694
 20
493.288114922801
 30
0.0
  0
VERTEX
  5
79
  8
6_06MM_ABS_INSIDE
 10
-144.8001300220694
 20
473.288114922801
 30
0.0
  0
SEQEND
  5
7A
  8
6_06MM_ABS_INSIDE
  0
POLYLINE
  5
7B
  8
6_06MM_ABS_INSIDE
 66
     1
 10
0.0
 20
0.0
 30
0.0
 70
     1
  0
VERTEX
  5
7C
  8
6_06MM_ABS_INSIDE
 10
-38.74013002206948
 20
513.2881474801839
 30
0.0
  0
VERTEX
  5
7D
  8
6_06MM_ABS_INSIDE
 10
-32.68013002206953
 20
513.2881474801839
 30
0.0
  0
VERTEX
  5
7E
  8
6_06MM_ABS_INSIDE
 10
-32.68013002206953
 20
533.2881474801839
 30
0.0
  0
VERTEX
  5
7F
  8
6_06MM_ABS_INSIDE
 10
-38.74013002206948
 20
533.2881474801839
 30
0.0
  0
SEQEND
  5
80
  8
6_06MM_ABS_INSIDE
  0
POLYLINE
  5
81
  8
6_06MM_ABS_INSIDE
 66
     1
 10
0.0
 20
0.0
 30
0.0
 70
     1
  0
VERTEX
  5
82
  8
6_06MM_ABS_INSIDE
 10
-32.68013002206953
 20
493.288114922801
 30
0.0
  0
VERTEX
  5
83
  8
6_06MM_ABS_INSIDE
 10
-38.74013002206948
 20
493.288114922801
 30
0.0
  0
VERTEX
  5
84
  8
6_06MM_ABS_INSIDE
 10
-38.74013002206948
 20
473.288114922801
 30
0.0
  0
VERTEX
  5
85
  8
6_06MM_ABS_INSIDE
 10
-32.68013002206953
 20
473.288114922801
 30
0.0
  0
SEQEND
  5
86
  8
6_06MM_ABS_INSIDE
  0
POLYLINE
  5
88
  8
6_06MM_ABS_OUTSIDE
 66
     1
 10
0.0
 20
0.0
 30
0.0
 70
     1
  0
VERTEX
  5
89
  8
6_06MM_ABS_OUTSIDE
 10
71.78977987822236
 20
452.2280883832009
 30
0.0
  0
VERTEX
  5
8A
  8
6_06MM_ABS_OUTSIDE
 10
11.78983429125765
 20
452.2280883832009
 30
0.0
  0
VERTEX
  5
8B
  8
6_06MM_ABS_OUTSIDE
 10
11.78983429125765
 20
458.2880883832008
 30
0.0
  0
VERTEX
  5
8C
  8
6_06MM_ABS_OUTSIDE
 10
-68.74013043195055
 20
458.2880883832008
 30
0.0
  0
VERTEX
  5
8D
  8
6_06MM_ABS_OUTSIDE
 10
-68.74013043195055
 20
452.2280883832009
 30
0.0
  0
VERTEX
  5
8E
  8
6_06MM_ABS_OUTSIDE
 10
-108.7401296121884
 20
452.2280883832009
 30
0.0
  0
VERTEX
  5
8F
  8
6_06MM_ABS_OUTSIDE
 10
-108.7401296121884
 20
458.2880883832008
 30
0.0
  0
VERTEX
  5
90
  8
6_06MM_ABS_OUTSIDE
 10
-189.2700943353966
 20
458.2880883832008
 30
0.0
  0
VERTEX
  5
91
  8
6_06MM_ABS_OUTSIDE
 10
-189.2700943353966
 20
452.2280883832009
 30
0.0
  0
VERTEX
  5
92
  8
6_06MM_ABS_OUTSIDE
 10
-249.2700399223618
 20
452.2280883832009
 30
0.0
  0
VERTEX
  5
93
  8
6_06MM_ABS_OUTSIDE
 10
-249.2700399223618
 20
458.2880883832008
 30
0.0
  0
VERTEX
  5
94
  8
6_06MM_ABS_OUTSIDE
 10
-293.7400006587577
 20
458.2880892514145
 30
0.0
  0
VERTEX
  5
95
  8
6_06MM_ABS_OUTSIDE
 10
-293.7400006587577
 20
469.3482280410617
 30
0.0
  0
VERTEX
  5
96
  8
6_06MM_ABS_OUTSIDE
 10
-299.8000006587577
 20
469.3482280410617
 30
0.0
  0
VERTEX
  5
97
  8
6_06MM_ABS_OUTSIDE
 10
-299.8000006587577
 20
489.3482605984445
 30
0.0
  0
VERTEX
  5
98
  8
6_06MM_ABS_OUTSIDE
 10
-293.7400006587577
 20
489.3482605984445
 30
0.0
  0
VERTEX
  5
99
  8
6_06MM_ABS_OUTSIDE
 10
-293.7400006587577
 20
528.2881706448707
 30
0.0
  0
VERTEX
  5
9A
  8
6_06MM_ABS_OUTSIDE
 10
-299.8000006587577
 20
528.2881706448707
 30
0.0
  0
VERTEX
  5
9B
  8
6_06MM_ABS_OUTSIDE
 10
-299.8000006587577
 20
548.2881706448707
 30
0.0
  0
VERTEX
  5
9C
  8
6_06MM_ABS_OUTSIDE
 10
-293.7400006587577
 20
548.2881706448707
 30
0.0
  0
VERTEX
  5
9D
  8
6_06MM_ABS_OUTSIDE
 10
-244.2698477617073
 20
548.2881706448707
 30
0.0
  0
VERTEX
  5
9E
  8
6_06MM_ABS_OUTSIDE
 10
-244.2698477617068
 20
542.2281706448707
 30
0.0
  0
VERTEX
  5
9F
  8
6_06MM_ABS_OUTSIDE
 10
-194.2702698085627
 20
542.2281706448707
 30
0.0
  0
VERTEX
  5
A0
  8
6_06MM_ABS_OUTSIDE
 10
-194.2702698085627
 20
548.2881706448707
 30
0.0
  0
VERTEX
  5
A1
  8
6_06MM_ABS_OUTSIDE
 10
16.79002129889432
 20
548.2881706448711
 30
0.0
  0
VERTEX
  5
A2
  8
6_06MM_ABS_OUTSIDE
 10
16.79002129889432
 20
542.2281706448716
 30
0.0
  0
VERTEX
  5
A3
  8
6_06MM_ABS_OUTSIDE
 10
66.78959925204026
 20
542.2281706448707
 30
0.0
  0
VERTEX
  5
A4
  8
6_06MM_ABS_OUTSIDE
 10
66.78959925204026
 20
548.2881706448707
 30
0.0
  0
VERTEX
  5
A5
  8
6_06MM_ABS_OUTSIDE
 10
116.2597406146187
 20
548.2881706448707
 30
0.0
  0
VERTEX
  5
A6
  8
6_06MM_ABS_OUTSIDE
 10
122.3197406146187
 20
548.2881706448707
 30
0.0
  0
VERTEX
  5
A7
  8
6_06MM_ABS_OUTSIDE
 10
122.3197406146187
 20
528.2881706448707
 30
0.0
  0
VERTEX
  5
A8
  8
6_06MM_ABS_OUTSIDE
 10
116.2597406146187
 20
528.2881706448707
 30
0.0
  0
VERTEX
  5
A9
  8
6_06MM_ABS_OUTSIDE
 10
116.2597406146187
 20
489.3482605984445
 30
0.0
  0
VERTEX
  5
AA
  8
6_06MM_ABS_OUTSIDE
 10
122.3197406146187
 20
489.3482605984445
 30
0.0
  0
VERTEX
  5
AB
  8
6_06MM_ABS_OUTSIDE
 10
122.3197406146187
 20
469.3482280410617
 30
0.0
  0
VERTEX
  5
AC
  8
6_06MM_ABS_OUTSIDE
 10
116.2597406146187
 20
469.3482280410617
 30
0.0
  0
VERTEX
  5
AD
  8
6_06MM_ABS_OUTSIDE
 10
116.2597406146187
 20
458.2880892514145
 30
0.0
  0
VERTEX
  5
AE
  8
6_06MM_ABS_OUTSIDE
 10
71.78977987822236
 20
458.2880883832008
 30
0.0
  0
SEQEND
  5
AF
  8
6_06MM_ABS_OUTSIDE
  0
CIRCLE
  5
B0
  8
6_06MM_ABS_INSIDE
 10
-219.2700671288792
 20
477.6481149228015
 30
0.0
 40
8.089999999999833
  0
CIRCLE
  5
B1
  8
6_06MM_ABS_INSIDE
 10
-219.2700671288792
 20
503.2881149228012
 30
0.0
 40
8.08999999999989
  0
CIRCLE
  5
B2
  8
6_06MM_ABS_INSIDE
 10
41.78980708473978
 20
477.6481149228008
 30
0.0
 40
8.089999999999918
  0
CIRCLE
  5
B3
  8
6_06MM_ABS_INSIDE
 10
41.78980708473983
 20
503.2881149228012
 30
0.0
 40
8.089999999999975
  0
CIRCLE
  5
B5
  8
SCREW_HOLES
 10
-266.7700494494215
 20
517.3783927100844
 30
0.0
 40
1.5
  0
CIRCLE
  5
B6
  8
SCREW_HOLES
 10
58.02949978905098
 20
537.1381708879303
 30
0.0
 40
1.499999999999993
  0
CIRCLE
  5
B7
  8
SCREW_HOLES
 10
25.55011438042903
 20
537.1381708879303
 30
0.0
 40
1.500000000000011
  0
CIRCLE
  5
B8
  8
SCREW_HOLES
 10
-235.5494525375011
 20
537.1381708879304
 30
0.0
 40
1.5
  0
CIRCLE
  5
B9
  8
SCREW_HOLES
 10
-203.0700671288792
 20
537.1381708879303
 30
0.0
 40
1.499999999999972
  0
CIRCLE
  5
BA
  8
SCREW_HOLES
 10
89.28978940528303
 20
517.3783927100844
 30
0.0
 40
1.499999999999986
  0
CIRCLE
  5
BB
  8
SCREW_HOLES
 10
-35.71013002206945
 20
503.2881149228012
 30
0.0
 40
1.500000000000192
  0
CIRCLE
  5
BC
  8
SCREW_HOLES
 10
-141.7701300220697
 20
503.288114922801
 30
0.0
 40
1.5
  0
POLYLINE
  5
BD
  8
6_06MM_ABS_INSIDE
 66
     1
 10
0.0
 20
0.0
 30
0.0
 70
     1
  0
VERTEX
  5
BE
  8
6_06MM_ABS_INSIDE
 10
-28.74014611014536
 20
422.88816980092
 30
0.0
  0
VERTEX
  5
BF
  8
6_06MM_ABS_INSIDE
 10
-28.74014611014536
 20
407.8881698009201
 30
0.0
  0
VERTEX
  5
C0
  8
6_06MM_ABS_INSIDE
 10
-22.68014611014542
 20
407.8881698009203
 30
0.0
  0
VERTEX
  5
C1
  8
6_06MM_ABS_INSIDE
 10
-22.68014611014542
 20
422.88816980092
 30
0.0
  0
SEQEND
  5
C2
  8
6_06MM_ABS_INSIDE
  0
POLYLINE
  5
C3
  8
6_06MM_ABS_INSIDE
 66
     1
 10
0.0
 20
0.0
 30
0.0
 70
     1
  0
VERTEX
  5
C4
  8
6_06MM_ABS_INSIDE
 10
-22.68014611014542
 20
372.8881044376193
 30
0.0
  0
VERTEX
  5
C5
  8
6_06MM_ABS_INSIDE
 10
-22.68014611014542
 20
387.8881044376193
 30
0.0
  0
VERTEX
  5
C6
  8
6_06MM_ABS_INSIDE
 10
-28.74014611014536
 20
387.8881044376193
 30
0.0
  0
VERTEX
  5
C7
  8
6_06MM_ABS_INSIDE
 10
-28.74014611014536
 20
372.8881044376193
 30
0.0
  0
SEQEND
  5
C8
  8
6_06MM_ABS_INSIDE
  0
POLYLINE
  5
C9
  8
6_06MM_ABS_INSIDE
 66
     1
 10
0.0
 20
0.0
 30
0.0
 70
     1
  0
VERTEX
  5
CA
  8
6_06MM_ABS_INSIDE
 10
-134.8001461101449
 20
407.8881698009203
 30
0.0
  0
VERTEX
  5
CB
  8
6_06MM_ABS_INSIDE
 10
-128.7401461101449
 20
407.8881698009201
 30
0.0
  0
VERTEX
  5
CC
  8
6_06MM_ABS_INSIDE
 10
-128.7401461101449
 20
422.88816980092
 30
0.0
  0
VERTEX
  5
CD
  8
6_06MM_ABS_INSIDE
 10
-134.8001461101449
 20
422.88816980092
 30
0.0
  0
SEQEND
  5
CE
  8
6_06MM_ABS_INSIDE
  0
POLYLINE
  5
CF
  8
6_06MM_ABS_INSIDE
 66
     1
 10
0.0
 20
0.0
 30
0.0
 70
     1
  0
VERTEX
  5
D0
  8
6_06MM_ABS_INSIDE
 10
-128.7401461101449
 20
387.8881044376193
 30
0.0
  0
VERTEX
  5
D1
  8
6_06MM_ABS_INSIDE
 10
-134.8001461101449
 20
387.8881044376193
 30
0.0
  0
VERTEX
  5
D2
  8
6_06MM_ABS_INSIDE
 10
-134.8001461101449
 20
372.8881044376193
 30
0.0
  0
VERTEX
  5
D3
  8
6_06MM_ABS_INSIDE
 10
-128.7401461101449
 20
372.8881044376193
 30
0.0
  0
SEQEND
  5
D4
  8
6_06MM_ABS_INSIDE
  0
POLYLINE
  5
D5
  8
6_06MM_ABS_OUTSIDE
 66
     1
 10
0.0
 20
0.0
 30
0.0
 70
     1
  0
VERTEX
  5
D6
  8
6_06MM_ABS_OUTSIDE
 10
-48.74014851840366
 20
438.9481768809983
 30
0.0
  0
VERTEX
  5
D7
  8
6_06MM_ABS_OUTSIDE
 10
-48.74014851840366
 20
432.8881768809983
 30
0.0
  0
VERTEX
  5
D8
  8
6_06MM_ABS_OUTSIDE
 10
31.79000109344588
 20
432.888176759468
 30
0.0
  0
VERTEX
  5
D9
  8
6_06MM_ABS_OUTSIDE
 10
31.79000109344588
 20
426.8281766379373
 30
0.0
  0
VERTEX
  5
DA
  8
6_06MM_ABS_OUTSIDE
 10
81.78957904659183
 20
426.8281766379364
 30
0.0
  0
VERTEX
  5
DB
  8
6_06MM_ABS_OUTSIDE
 10
81.78957904659137
 20
432.8881767594671
 30
0.0
  0
VERTEX
  5
DC
  8
6_06MM_ABS_OUTSIDE
 10
136.2597078449276
 20
432.8881768809983
 30
0.0
  0
VERTEX
  5
DD
  8
6_06MM_ABS_OUTSIDE
 10
136.2597078449276
 20
422.8881768809983
 30
0.0
  0
VERTEX
  5
DE
  8
6_06MM_ABS_OUTSIDE
 10
142.3197078449275
 20
422.8881768809983
 30
0.0
  0
VERTEX
  5
DF
  8
6_06MM_ABS_OUTSIDE
 10
142.3197078449275
 20
407.8881768809985
 30
0.0
  0
VERTEX
  5
E0
  8
6_06MM_ABS_OUTSIDE
 10
136.2597078449276
 20
407.8881768809985
 30
0.0
  0
VERTEX
  5
E1
  8
6_06MM_ABS_OUTSIDE
 10
136.2597078449276
 20
387.888095487542
 30
0.0
  0
VERTEX
  5
E2
  8
6_06MM_ABS_OUTSIDE
 10
142.3197078449275
 20
387.888095487542
 30
0.0
  0
VERTEX
  5
E3
  8
6_06MM_ABS_OUTSIDE
 10
142.3197078449275
 20
372.888095487542
 30
0.0
  0
VERTEX
  5
E4
  8
6_06MM_ABS_OUTSIDE
 10
136.2597078449276
 20
372.888095487542
 30
0.0
  0
VERTEX
  5
E5
  8
6_06MM_ABS_OUTSIDE
 10
136.2597078449276
 20
362.888095487542
 30
0.0
  0
VERTEX
  5
E6
  8
6_06MM_ABS_OUTSIDE
 10
86.78975165840575
 20
362.8880921996664
 30
0.0
  0
VERTEX
  5
E7
  8
6_06MM_ABS_OUTSIDE
 10
86.78975165840575
 20
356.828089628167
 30
0.0
  0
VERTEX
  5
E8
  8
6_06MM_ABS_OUTSIDE
 10
26.78981007637685
 20
356.828089628167
 30
0.0
  0
VERTEX
  5
E9
  8
6_06MM_ABS_OUTSIDE
 10
26.78981007637685
 20
362.8880917220821
 30
0.0
  0
VERTEX
  5
EA
  8
6_06MM_ABS_OUTSIDE
 10
-48.74014628820714
 20
362.8880925578545
 30
0.0
  0
VERTEX
  5
EB
  8
6_06MM_ABS_OUTSIDE
 10
-48.74014628820714
 20
356.828089628167
 30
0.0
  0
VERTEX
  5
EC
  8
6_06MM_ABS_OUTSIDE
 10
-108.740146525623
 20
356.828089628167
 30
0.0
  0
VERTEX
  5
ED
  8
6_06MM_ABS_OUTSIDE
 10
-108.740146525623
 20
362.8880925578545
 30
0.0
  0
VERTEX
  5
EE
  8
6_06MM_ABS_OUTSIDE
 10
-184.2701024747284
 20
362.8880917220821
 30
0.0
  0
VERTEX
  5
EF
  8
6_06MM_ABS_OUTSIDE
 10
-184.2701024747289
 20
356.828089628167
 30
0.0
  0
VERTEX
  5
F0
  8
6_06MM_ABS_OUTSIDE
 10
-244.2700442941737
 20
356.828089628167
 30
0.0
  0
VERTEX
  5
F1
  8
6_06MM_ABS_OUTSIDE
 10
-244.2700442941737
 20
362.8880921996664
 30
0.0
  0
VERTEX
  5
F2
  8
6_06MM_ABS_OUTSIDE
 10
-293.7400006587573
 20
362.888095487542
 30
0.0
  0
VERTEX
  5
F3
  8
6_06MM_ABS_OUTSIDE
 10
-293.7400006587573
 20
372.888095487542
 30
0.0
  0
VERTEX
  5
F4
  8
6_06MM_ABS_OUTSIDE
 10
-299.8000006587572
 20
372.888095487542
 30
0.0
  0
VERTEX
  5
F5
  8
6_06MM_ABS_OUTSIDE
 10
-299.8000006587572
 20
387.888095487542
 30
0.0
  0
VERTEX
  5
F6
  8
6_06MM_ABS_OUTSIDE
 10
-293.7400006587573
 20
387.888095487542
 30
0.0
  0
VERTEX
  5
F7
  8
6_06MM_ABS_OUTSIDE
 10
-293.7400006587573
 20
407.8881768809985
 30
0.0
  0
VERTEX
  5
F8
  8
6_06MM_ABS_OUTSIDE
 10
-299.8000006587572
 20
407.8881768809985
 30
0.0
  0
VERTEX
  5
F9
  8
6_06MM_ABS_OUTSIDE
 10
-299.8000006587572
 20
422.8881768809983
 30
0.0
  0
VERTEX
  5
FA
  8
6_06MM_ABS_OUTSIDE
 10
-293.7400006587573
 20
422.8881768809983
 30
0.0
  0
VERTEX
  5
FB
  8
6_06MM_ABS_OUTSIDE
 10
-293.7400006587573
 20
432.8881768809983
 30
0.0
  0
VERTEX
  5
FC
  8
6_06MM_ABS_OUTSIDE
 10
-239.2698545793946
 20
432.888176759468
 30
0.0
  0
VERTEX
  5
FD
  8
6_06MM_ABS_OUTSIDE
 10
-239.2698545793946
 20
426.8281766379373
 30
0.0
  0
VERTEX
  5
FE
  8
6_06MM_ABS_OUTSIDE
 10
-189.2702766262491
 20
426.8281766379364
 30
0.0
  0
VERTEX
  5
FF
  8
6_06MM_ABS_OUTSIDE
 10
-189.2702766262491
 20
432.8881767594671
 30
0.0
  0
VERTEX
  5
100
  8
6_06MM_ABS_OUTSIDE
 10
-108.740122551008
 20
432.8881768809983
 30
0.0
  0
VERTEX
  5
101
  8
6_06MM_ABS_OUTSIDE
 10
-108.740122551008
 20
438.9481768809983
 30
0.0
  0
SEQEND
  5
102
  8
6_06MM_ABS_OUTSIDE
  0
CIRCLE
  5
103
  8
SCREW_HOLES
 10
-230.5494593551875
 20
421.738176880996
 30
0.0
 40
1.5
  0
CIRCLE
  5
104
  8
SCREW_HOLES
 10
-198.0700739465651
 20
421.738176880996
 30
0.0
 40
1.5
  0
CIRCLE
  5
105
  8
SCREW_HOLES
 10
72.98978172627541
 20
421.738176880996
 30
0.0
 40
1.500000000000014
  0
CIRCLE
  5
106
  8
SCREW_HOLES
 10
40.510396317653
 20
421.738176880996
 30
0.0
 40
1.500000000000021
  0
CIRCLE
  5
107
  8
SCREW_HOLES
 10
-25.71014611014516
 20
397.8881044376193
 30
0.0
 40
1.5
  0
CIRCLE
  5
108
  8
SCREW_HOLES
 10
-131.7701461101447
 20
397.8881044376193
 30
0.0
 40
1.5
  0
CIRCLE
  5
109
  8
6_06MM_ABS_INSIDE
 10
-244.2700442941739
 20
385.1281758337356
 30
0.0
 40
8.089999999999975
  0
CIRCLE
  5
10A
  8
6_06MM_ABS_INSIDE
 10
-244.2700442941739
 20
410.7681758337355
 30
0.0
 40
8.089999999999918
  0
CIRCLE
  5
10B
  8
6_06MM_ABS_INSIDE
 10
86.78975165840552
 20
410.7681758337354
 30
0.0
 40
8.089999999999918
  0
CIRCLE
  5
10C
  8
6_06MM_ABS_INSIDE
 10
86.78975165840554
 20
385.1281758337351
 30
0.0
 40
8.089999999999932
  0
POLYLINE
  5
10D
  8
6_06MM_ABS_INSIDE
 66
     1
 10
0.0
 20
0.0
 30
0.0
 70
     1
  0
VERTEX
  5
10E
  8
6_06MM_ABS_INSIDE
 10
-72.2254244063779
 20
263.3460613572713
 30
0.0
  0
VERTEX
  5
10F
  8
6_06MM_ABS_INSIDE
 10
-49.59800740840819
 20
285.973478355241
 30
0.0
  0
VERTEX
  5
110
  8
6_06MM_ABS_INSIDE
 10
-49.59800740840819
 20
288.8019054799872
 30
0.0
  0
VERTEX
  5
111
  8
6_06MM_ABS_INSIDE
 10
-52.42643453315441
 20
291.6303326047334
 30
0.0
  0
VERTEX
  5
112
  8
6_06MM_ABS_INSIDE
 10
-55.25486165790062
 20
291.6303326047334
 30
0.0
  0
VERTEX
  5
113
  8
6_06MM_ABS_INSIDE
 10
-77.88227865587032
 20
269.0029156067637
 30
0.0
  0
VERTEX
  5
114
  8
6_06MM_ABS_INSIDE
 10
-77.88227865587032
 20
266.1744884820175
 30
0.0
  0
VERTEX
  5
115
  8
6_06MM_ABS_INSIDE
 10
-75.05385153112411
 20
263.3460613572713
 30
0.0
  0
SEQEND
  5
116
  8
6_06MM_ABS_INSIDE
  0
POLYLINE
  5
117
  8
6_06MM_ABS_INSIDE
 66
     1
 10
0.0
 20
0.0
 30
0.0
 70
     1
  0
VERTEX
  5
118
  8
6_06MM_ABS_INSIDE
 10
-99.5980096535136
 20
269.0029138804287
 30
0.0
  0
VERTEX
  5
119
  8
6_06MM_ABS_INSIDE
 10
-122.2254266514833
 20
291.6303308783984
 30
0.0
  0
VERTEX
  5
11A
  8
6_06MM_ABS_INSIDE
 10
-125.0538537762295
 20
291.6303308783984
 30
0.0
  0
VERTEX
  5
11B
  8
6_06MM_ABS_INSIDE
 10
-127.8822809009753
 20
288.8019037536521
 30
0.0
  0
VERTEX
  5
11C
  8
6_06MM_ABS_INSIDE
 10
-127.8822809009753
 20
285.9734766289059
 30
0.0
  0
VERTEX
  5
11D
  8
6_06MM_ABS_INSIDE
 10
-105.254863903006
 20
263.3460596309367
 30
0.0
  0
VERTEX
  5
11E
  8
6_06MM_ABS_INSIDE
 10
-102.4264367782598
 20
263.3460596309367
 30
0.0
  0
VERTEX
  5
11F
  8
6_06MM_ABS_INSIDE
 10
-99.5980096535136
 20
266.1744867556824
 30
0.0
  0
SEQEND
  5
120
  8
6_06MM_ABS_INSIDE
  0
POLYLINE
  5
121
  8
6_06MM_ABS_INSIDE
 66
     1
 10
0.0
 20
0.0
 30
0.0
 70
     1
  0
VERTEX
  5
122
  8
6_06MM_ABS_INSIDE
 10
-32.68013002206953
 20
267.488193809558
 30
0.0
  0
VERTEX
  5
123
  8
6_06MM_ABS_INSIDE
 10
-32.68013002206953
 20
287.488193809558
 30
0.0
  0
VERTEX
  5
124
  8
6_06MM_ABS_INSIDE
 10
-38.74013002206902
 20
287.488193809558
 30
0.0
  0
VERTEX
  5
125
  8
6_06MM_ABS_INSIDE
 10
-38.74013002206902
 20
267.488193809558
 30
0.0
  0
SEQEND
  5
126
  8
6_06MM_ABS_INSIDE
  0
POLYLINE
  5
127
  8
6_06MM_ABS_INSIDE
 66
     1
 10
0.0
 20
0.0
 30
0.0
 70
     1
  0
VERTEX
  5
128
  8
6_06MM_ABS_INSIDE
 10
-38.74013002206902
 20
327.4882263669402
 30
0.0
  0
VERTEX
  5
129
  8
6_06MM_ABS_INSIDE
 10
-38.74013002206902
 20
307.4882263669404
 30
0.0
  0
VERTEX
  5
12A
  8
6_06MM_ABS_INSIDE
 10
-32.68013002206953
 20
307.4882263669404
 30
0.0
  0
VERTEX
  5
12B
  8
6_06MM_ABS_INSIDE
 10
-32.68013002206953
 20
327.4882263669402
 30
0.0
  0
SEQEND
  5
12C
  8
6_06MM_ABS_INSIDE
  0
POLYLINE
  5
12D
  8
6_06MM_ABS_INSIDE
 66
     1
 10
0.0
 20
0.0
 30
0.0
 70
     1
  0
VERTEX
  5
12E
  8
6_06MM_ABS_INSIDE
 10
-138.7401300220695
 20
287.488193809558
 30
0.0
  0
VERTEX
  5
12F
  8
6_06MM_ABS_INSIDE
 10
-144.8001300220694
 20
287.488193809558
 30
0.0
  0
VERTEX
  5
130
  8
6_06MM_ABS_INSIDE
 10
-144.8001300220694
 20
267.488193809558
 30
0.0
  0
VERTEX
  5
131
  8
6_06MM_ABS_INSIDE
 10
-138.7401300220695
 20
267.488193809558
 30
0.0
  0
SEQEND
  5
132
  8
6_06MM_ABS_INSIDE
  0
POLYLINE
  5
133
  8
6_06MM_ABS_INSIDE
 66
     1
 10
0.0
 20
0.0
 30
0.0
 70
     1
  0
VERTEX
  5
134
  8
6_06MM_ABS_INSIDE
 10
-144.8001300220694
 20
307.4882263669404
 30
0.0
  0
VERTEX
  5
135
  8
6_06MM_ABS_INSIDE
 10
-138.7401300220695
 20
307.4882263669404
 30
0.0
  0
VERTEX
  5
136
  8
6_06MM_ABS_INSIDE
 10
-138.7401300220695
 20
327.4882263669402
 30
0.0
  0
VERTEX
  5
137
  8
6_06MM_ABS_INSIDE
 10
-144.8001300220694
 20
327.4882263669402
 30
0.0
  0
SEQEND
  5
138
  8
6_06MM_ABS_INSIDE
  0
POLYLINE
  5
139
  8
6_06MM_ABS_INSIDE
 66
     1
 10
0.0
 20
0.0
 30
0.0
 70
     1
  0
VERTEX
  5
13A
  8
6_06MM_ABS_INSIDE
 10
-82.44013064506453
 20
310.6882100882492
 30
0.0
  0
VERTEX
  5
13B
  8
6_06MM_ABS_INSIDE
 10
-82.44013064506453
 20
329.288210088249
 30
0.0
  0
VERTEX
  5
13C
  8
6_06MM_ABS_INSIDE
 10
-95.04013064506444
 20
329.288210088249
 30
0.0
  0
VERTEX
  5
13D
  8
6_06MM_ABS_INSIDE
 10
-95.04013064506444
 20
310.6882100882492
 30
0.0
  0
SEQEND
  5
13E
  8
6_06MM_ABS_INSIDE
  0
POLYLINE
  5
13F
  8
6_06MM_ABS_INSIDE
 66
     1
 10
0.0
 20
0.0
 30
0.0
 70
     1
  0
VERTEX
  5
140
  8
6_06MM_ABS_INSIDE
 10
-199.2700943353966
 20
332.4882107051063
 30
0.0
  0
VERTEX
  5
141
  8
6_06MM_ABS_INSIDE
 10
-239.2700399223613
 20
332.4882107051063
 30
0.0
  0
VERTEX
  5
142
  8
6_06MM_ABS_INSIDE
 10
-254.2700399223613
 20
317.4882107051063
 30
0.0
  0
VERTEX
  5
143
  8
6_06MM_ABS_INSIDE
 10
-254.2700399223613
 20
302.4882100882494
 30
0.0
  0
VERTEX
  5
144
  8
6_06MM_ABS_INSIDE
 10
-184.2700943353966
 20
302.4882100882494
 30
0.0
  0
VERTEX
  5
145
  8
6_06MM_ABS_INSIDE
 10
-184.2700943353966
 20
317.4882107051063
 30
0.0
  0
SEQEND
  5
146
  8
6_06MM_ABS_INSIDE
  0
POLYLINE
  5
147
  8
6_06MM_ABS_INSIDE
 66
     1
 10
0.0
 20
0.0
 30
0.0
 70
     1
  0
VERTEX
  5
148
  8
6_06MM_ABS_INSIDE
 10
-239.2700399223613
 20
262.4882107051064
 30
0.0
  0
VERTEX
  5
149
  8
6_06MM_ABS_INSIDE
 10
-199.2700943353966
 20
262.4882107051064
 30
0.0
  0
VERTEX
  5
14A
  8
6_06MM_ABS_INSIDE
 10
-184.2700943353966
 20
277.4882107051064
 30
0.0
  0
VERTEX
  5
14B
  8
6_06MM_ABS_INSIDE
 10
-184.2700943353966
 20
292.4882100882494
 30
0.0
  0
VERTEX
  5
14C
  8
6_06MM_ABS_INSIDE
 10
-254.2700399223613
 20
292.4882100882494
 30
0.0
  0
VERTEX
  5
14D
  8
6_06MM_ABS_INSIDE
 10
-254.2700399223613
 20
277.4882107051064
 30
0.0
  0
SEQEND
  5
14E
  8
6_06MM_ABS_INSIDE
  0
POLYLINE
  5
14F
  8
6_06MM_ABS_INSIDE
 66
     1
 10
0.0
 20
0.0
 30
0.0
 70
     1
  0
VERTEX
  5
150
  8
6_06MM_ABS_INSIDE
 10
61.78977987822282
 20
332.4882107051063
 30
0.0
  0
VERTEX
  5
151
  8
6_06MM_ABS_INSIDE
 10
21.7898342912581
 20
332.4882107051063
 30
0.0
  0
VERTEX
  5
152
  8
6_06MM_ABS_INSIDE
 10
6.789834291258103
 20
317.4882107051063
 30
0.0
  0
VERTEX
  5
153
  8
6_06MM_ABS_INSIDE
 10
6.789834291258103
 20
302.4882100882494
 30
0.0
  0
VERTEX
  5
154
  8
6_06MM_ABS_INSIDE
 10
76.78977987822282
 20
302.4882100882494
 30
0.0
  0
VERTEX
  5
155
  8
6_06MM_ABS_INSIDE
 10
76.78977987822282
 20
317.4882107051063
 30
0.0
  0
SEQEND
  5
156
  8
6_06MM_ABS_INSIDE
  0
POLYLINE
  5
157
  8
6_06MM_ABS_INSIDE
 66
     1
 10
0.0
 20
0.0
 30
0.0
 70
     1
  0
VERTEX
  5
158
  8
6_06MM_ABS_INSIDE
 10
21.7898342912581
 20
262.4882107051064
 30
0.0
  0
VERTEX
  5
159
  8
6_06MM_ABS_INSIDE
 10
61.78977987822282
 20
262.4882107051064
 30
0.0
  0
VERTEX
  5
15A
  8
6_06MM_ABS_INSIDE
 10
76.78977987822282
 20
277.4882107051064
 30
0.0
  0
VERTEX
  5
15B
  8
6_06MM_ABS_INSIDE
 10
76.78977987822282
 20
292.4882100882494
 30
0.0
  0
VERTEX
  5
15C
  8
6_06MM_ABS_INSIDE
 10
6.789834291258103
 20
292.4882100882494
 30
0.0
  0
VERTEX
  5
15D
  8
6_06MM_ABS_INSIDE
 10
6.789834291258103
 20
277.4882107051064
 30
0.0
  0
SEQEND
  5
15E
  8
6_06MM_ABS_INSIDE
  0
POLYLINE
  5
15F
  8
6_06MM_ABS_OUTSIDE
 66
     1
 10
0.0
 20
0.0
 30
0.0
 70
     1
  0
VERTEX
  5
160
  8
6_06MM_ABS_OUTSIDE
 10
-249.2700399223613
 20
348.5482529065404
 30
0.0
  0
VERTEX
  5
161
  8
6_06MM_ABS_OUTSIDE
 10
-189.2700943353966
 20
348.5482529065404
 30
0.0
  0
VERTEX
  5
162
  8
6_06MM_ABS_OUTSIDE
 10
-189.2700943353966
 20
342.4882529065404
 30
0.0
  0
VERTEX
  5
163
  8
6_06MM_ABS_OUTSIDE
 10
-108.7401296121884
 20
342.4882529065404
 30
0.0
  0
VERTEX
  5
164
  8
6_06MM_ABS_OUTSIDE
 10
-108.7401296121884
 20
348.5482529065404
 30
0.0
  0
VERTEX
  5
165
  8
6_06MM_ABS_OUTSIDE
 10
-68.74013043195055
 20
348.5482529065404
 30
0.0
  0
VERTEX
  5
166
  8
6_06MM_ABS_OUTSIDE
 10
-68.74013043195055
 20
342.4882529065404
 30
0.0
  0
VERTEX
  5
167
  8
6_06MM_ABS_OUTSIDE
 10
11.78983429125765
 20
342.4882529065404
 30
0.0
  0
VERTEX
  5
168
  8
6_06MM_ABS_OUTSIDE
 10
11.78983429125765
 20
348.5482529065404
 30
0.0
  0
VERTEX
  5
169
  8
6_06MM_ABS_OUTSIDE
 10
71.78977987822282
 20
348.5482529065404
 30
0.0
  0
VERTEX
  5
16A
  8
6_06MM_ABS_OUTSIDE
 10
71.78977987822282
 20
342.4882529065404
 30
0.0
  0
VERTEX
  5
16B
  8
6_06MM_ABS_OUTSIDE
 10
116.2597406146187
 20
342.4882520383272
 30
0.0
  0
VERTEX
  5
16C
  8
6_06MM_ABS_OUTSIDE
 10
116.2597406146187
 20
327.4882263669402
 30
0.0
  0
VERTEX
  5
16D
  8
6_06MM_ABS_OUTSIDE
 10
122.3197406146187
 20
327.4882263669402
 30
0.0
  0
VERTEX
  5
16E
  8
6_06MM_ABS_OUTSIDE
 10
122.3197406146187
 20
307.4882263669404
 30
0.0
  0
VERTEX
  5
16F
  8
6_06MM_ABS_OUTSIDE
 10
116.2597424030846
 20
307.4882263669404
 30
0.0
  0
VERTEX
  5
170
  8
6_06MM_ABS_OUTSIDE
 10
116.2597424030846
 20
287.488193809558
 30
0.0
  0
VERTEX
  5
171
  8
6_06MM_ABS_OUTSIDE
 10
122.3197406146187
 20
287.488193809558
 30
0.0
  0
VERTEX
  5
172
  8
6_06MM_ABS_OUTSIDE
 10
122.3197406146187
 20
267.488193809558
 30
0.0
  0
VERTEX
  5
173
  8
6_06MM_ABS_OUTSIDE
 10
116.2597406146187
 20
267.488193809558
 30
0.0
  0
VERTEX
  5
174
  8
6_06MM_ABS_OUTSIDE
 10
116.2597406146187
 20
252.4881706448707
 30
0.0
  0
VERTEX
  5
175
  8
6_06MM_ABS_OUTSIDE
 10
-293.7400006587577
 20
252.4881706448707
 30
0.0
  0
VERTEX
  5
176
  8
6_06MM_ABS_OUTSIDE
 10
-293.7400006587577
 20
267.488193809558
 30
0.0
  0
VERTEX
  5
177
  8
6_06MM_ABS_OUTSIDE
 10
-299.8000006587577
 20
267.488193809558
 30
0.0
  0
VERTEX
  5
178
  8
6_06MM_ABS_OUTSIDE
 10
-299.8000006587577
 20
287.488193809558
 30
0.0
  0
VERTEX
  5
179
  8
6_06MM_ABS_OUTSIDE
 10
-293.7400006587577
 20
287.488193809558
 30
0.0
  0
VERTEX
  5
17A
  8
6_06MM_ABS_OUTSIDE
 10
-293.7400006587577
 20
307.4882263669404
 30
0.0
  0
VERTEX
  5
17B
  8
6_06MM_ABS_OUTSIDE
 10
-299.8000006587577
 20
307.4882263669404
 30
0.0
  0
VERTEX
  5
17C
  8
6_06MM_ABS_OUTSIDE
 10
-299.8000006587577
 20
327.4882263669402
 30
0.0
  0
VERTEX
  5
17D
  8
6_06MM_ABS_OUTSIDE
 10
-293.7400006587577
 20
327.4882263669402
 30
0.0
  0
VERTEX
  5
17E
  8
6_06MM_ABS_OUTSIDE
 10
-293.7400006587577
 20
342.4882520383272
 30
0.0
  0
VERTEX
  5
17F
  8
6_06MM_ABS_OUTSIDE
 10
-249.2700399223613
 20
342.4882529065404
 30
0.0
  0
SEQEND
  5
180
  8
6_06MM_ABS_OUTSIDE
  0
CIRCLE
  5
181
  8
SCREW_HOLES
 10
-184.2700651485085
 20
262.4882113415991
 30
0.0
 40
1.499999999999943
  0
CIRCLE
  5
182
  8
SCREW_HOLES
 10
-184.2700651485083
 20
332.4882113415989
 30
0.0
 40
1.499999999999972
  0
CIRCLE
  5
183
  8
SCREW_HOLES
 10
-254.2700651485088
 20
332.4882113415989
 30
0.0
 40
1.499999999999972
  0
CIRCLE
  5
184
  8
SCREW_HOLES
 10
-254.2700651485088
 20
262.4882113415989
 30
0.0
 40
1.500000000000085
  0
CIRCLE
  5
185
  8
SCREW_HOLES
 10
6.789807084740938
 20
262.4882113415989
 30
0.0
 40
1.500000000000049
  0
CIRCLE
  5
186
  8
SCREW_HOLES
 10
6.789807084740971
 20
332.4882113415989
 30
0.0
 40
1.499999999999917
  0
CIRCLE
  5
187
  8
SCREW_HOLES
 10
76.78980708474108
 20
332.4882113415986
 30
0.0
 40
1.500000000000199
  0
CIRCLE
  5
188
  8
SCREW_HOLES
 10
76.78980708474101
 20
262.4882113415989
 30
0.0
 40
1.500000000000114
  0
CIRCLE
  5
189
  8
SCREW_HOLES
 10
-141.7701300220694
 20
297.4882263669401
 30
0.0
 40
1.500000000000227
  0
CIRCLE
  5
18A
  8
SCREW_HOLES
 10
-35.71013002206928
 20
297.4882263669404
 30
0.0
 40
1.5
  0
CIRCLE
  5
18B
  8
SCREW_HOLES
 10
209.7399993412424
 20
423.4831676623168
 30
0.0
 40
1.000000000000171
  0
CIRCLE
  5
18C
  8
SCREW_HOLES
 10
279.7399993412422
 20
423.483167662317
 30
0.0
 40
0.9999999999998863
  0
CIRCLE
  5
18D
  8
SCREW_HOLES
 10
279.7399993412422
 20
513.483167662317
 30
0.0
 40
0.9999999999998863
  0
CIRCLE
  5
18E
  8
SCREW_HOLES
 10
209.7399993412426
 20
513.4831676623169
 30
0.0
 40
1.0
  0
POLYLINE
  5
18F
  8
6_06MM_ABS_INSIDE
 66
     1
 10
0.0
 20
0.0
 30
0.0
 70
     1
  0
VERTEX
  5
190
  8
6_06MM_ABS_INSIDE
 10
239.7399341454984
 20
359.7764680077484
 30
0.0
  0
VERTEX
  5
191
  8
6_06MM_ABS_INSIDE
 10
249.7400645369862
 20
359.7764680077484
 30
0.0
 42
0.4142132661045717
  0
VERTEX
  5
192
  8
6_06MM_ABS_INSIDE
 10
259.7400645369861
 20
369.7764680077484
 30
0.0
  0
VERTEX
  5
193
  8
6_06MM_ABS_INSIDE
 10
259.7400645369862
 20
379.7765018353105
 30
0.0
 42
0.4142133648607383
  0
VERTEX
  5
194
  8
6_06MM_ABS_INSIDE
 10
249.7400645369862
 20
389.7765018353103
 30
0.0
  0
VERTEX
  5
195
  8
6_06MM_ABS_INSIDE
 10
239.7399341454984
 20
389.7765018353103
 30
0.0
 42
0.4142135623731013
  0
VERTEX
  5
196
  8
6_06MM_ABS_INSIDE
 10
229.7399341454984
 20
379.7765018353106
 30
0.0
  0
VERTEX
  5
197
  8
6_06MM_ABS_INSIDE
 10
229.7399341454984
 20
369.7764680077484
 30
0.0
 42
0.4142134636168762
  0
SEQEND
  5
198
  8
6_06MM_ABS_INSIDE
  0
POLYLINE
  5
199
  8
6_06MM_ABS_OUTSIDE
 66
     1
 10
0.0
 20
0.0
 30
0.0
 70
     1
  0
VERTEX
  5
19A
  8
6_06MM_ABS_OUTSIDE
 10
188.6799993412424
 20
414.7765033389502
 30
0.0
  0
VERTEX
  5
19B
  8
6_06MM_ABS_OUTSIDE
 10
194.7399993412423
 20
414.7765033389502
 30
0.0
  0
VERTEX
  5
19C
  8
6_06MM_ABS_OUTSIDE
 10
194.7399996455861
 20
474.8875809522507
 30
0.0
  0
VERTEX
  5
19D
  8
6_06MM_ABS_OUTSIDE
 10
199.7399993412419
 20
479.8876295003217
 30
0.0
  0
VERTEX
  5
19E
  8
6_06MM_ABS_OUTSIDE
 10
199.7399993412419
 20
489.8877265964636
 30
0.0
  0
VERTEX
  5
19F
  8
6_06MM_ABS_OUTSIDE
 10
194.7399997468474
 20
494.8877751445345
 30
0.0
  0
VERTEX
  5
1A0
  8
6_06MM_ABS_OUTSIDE
 10
194.7400006587586
 20
544.888035124711
 30
0.0
  0
VERTEX
  5
1A1
  8
6_06MM_ABS_OUTSIDE
 10
224.7399997511234
 20
544.888041089818
 30
0.0
  0
VERTEX
  5
1A2
  8
6_06MM_ABS_OUTSIDE
 10
224.7399997511234
 20
538.828047054925
 30
0.0
  0
VERTEX
  5
1A3
  8
6_06MM_ABS_OUTSIDE
 10
264.7399989313612
 20
538.828047054925
 30
0.0
  0
VERTEX
  5
1A4
  8
6_06MM_ABS_OUTSIDE
 10
264.7399989313612
 20
544.888041089818
 30
0.0
  0
VERTEX
  5
1A5
  8
6_06MM_ABS_OUTSIDE
 10
294.7399993412423
 20
544.888035124711
 30
0.0
  0
VERTEX
  5
1A6
  8
6_06MM_ABS_OUTSIDE
 10
294.7399993412423
 20
494.887775144534
 30
0.0
  0
VERTEX
  5
1A7
  8
6_06MM_ABS_OUTSIDE
 10
289.7399993412428
 20
489.8877265964636
 30
0.0
  0
VERTEX
  5
1A8
  8
6_06MM_ABS_OUTSIDE
 10
289.7399993412428
 20
479.8876295003217
 30
0.0
  0
VERTEX
  5
1A9
  8
6_06MM_ABS_OUTSIDE
 10
294.7399993412423
 20
474.8875809522507
 30
0.0
  0
VERTEX
  5
1AA
  8
6_06MM_ABS_OUTSIDE
 10
294.7399993412423
 20
414.7765033389502
 30
0.0
  0
VERTEX
  5
1AB
  8
6_06MM_ABS_OUTSIDE
 10
300.7999993412423
 20
414.7765033389502
 30
0.0
  0
VERTEX
  5
1AC
  8
6_06MM_ABS_OUTSIDE
 10
300.7999993412423
 20
384.7765033389505
 30
0.0
  0
VERTEX
  5
1AD
  8
6_06MM_ABS_OUTSIDE
 10
294.7399993412423
 20
384.7765033389505
 30
0.0
  0
VERTEX
  5
1AE
  8
6_06MM_ABS_OUTSIDE
 10
294.7399993412423
 20
364.7764943922065
 30
0.0
  0
VERTEX
  5
1AF
  8
6_06MM_ABS_OUTSIDE
 10
300.7999993412423
 20
364.7764943922065
 30
0.0
  0
VERTEX
  5
1B0
  8
6_06MM_ABS_OUTSIDE
 10
300.7999993412423
 20
334.7764943922065
 30
0.0
  0
VERTEX
  5
1B1
  8
6_06MM_ABS_OUTSIDE
 10
294.7399993412423
 20
334.7764943922065
 30
0.0
  0
VERTEX
  5
1B2
  8
6_06MM_ABS_OUTSIDE
 10
294.7399993412423
 20
304.8883795758097
 30
0.0
  0
VERTEX
  5
1B3
  8
6_06MM_ABS_OUTSIDE
 10
289.7399993412428
 20
299.8883310277392
 30
0.0
  0
VERTEX
  5
1B4
  8
6_06MM_ABS_OUTSIDE
 10
289.7399993412428
 20
289.8882339315973
 30
0.0
  0
VERTEX
  5
1B5
  8
6_06MM_ABS_OUTSIDE
 10
294.7399993412423
 20
284.8881853835264
 30
0.0
  0
VERTEX
  5
1B6
  8
6_06MM_ABS_OUTSIDE
 10
294.7399993412423
 20
254.8883001999233
 30
0.0
  0
VERTEX
  5
1B7
  8
6_06MM_ABS_OUTSIDE
 10
264.7399989313612
 20
254.8883001999233
 30
0.0
  0
VERTEX
  5
1B8
  8
6_06MM_ABS_OUTSIDE
 10
264.7399989313612
 20
260.9483001999233
 30
0.0
  0
VERTEX
  5
1B9
  8
6_06MM_ABS_OUTSIDE
 10
224.7399997511234
 20
260.9483001999233
 30
0.0
  0
VERTEX
  5
1BA
  8
6_06MM_ABS_OUTSIDE
 10
224.7399997511234
 20
254.8883001999233
 30
0.0
  0
VERTEX
  5
1BB
  8
6_06MM_ABS_OUTSIDE
 10
194.7400006587586
 20
254.8883001999233
 30
0.0
  0
VERTEX
  5
1BC
  8
6_06MM_ABS_OUTSIDE
 10
194.7399997526213
 20
284.8881853835264
 30
0.0
  0
VERTEX
  5
1BD
  8
6_06MM_ABS_OUTSIDE
 10
199.7399993412419
 20
289.8882339315973
 30
0.0
  0
VERTEX
  5
1BE
  8
6_06MM_ABS_OUTSIDE
 10
199.7399993412419
 20
299.8883310277392
 30
0.0
  0
VERTEX
  5
1BF
  8
6_06MM_ABS_OUTSIDE
 10
194.7399998341571
 20
304.8883790828899
 30
0.0
  0
VERTEX
  5
1C0
  8
6_06MM_ABS_OUTSIDE
 10
194.7399993412423
 20
334.7764943922065
 30
0.0
  0
VERTEX
  5
1C1
  8
6_06MM_ABS_OUTSIDE
 10
188.6799993412424
 20
334.7764943922065
 30
0.0
  0
VERTEX
  5
1C2
  8
6_06MM_ABS_OUTSIDE
 10
188.6799993412424
 20
364.7764943922065
 30
0.0
  0
VERTEX
  5
1C3
  8
6_06MM_ABS_OUTSIDE
 10
194.7400000000007
 20
364.7764943922065
 30
0.0
  0
VERTEX
  5
1C4
  8
6_06MM_ABS_OUTSIDE
 10
194.7400000000007
 20
384.7765033389505
 30
0.0
  0
VERTEX
  5
1C5
  8
6_06MM_ABS_OUTSIDE
 10
188.6799993412424
 20
384.7765033389505
 30
0.0
  0
SEQEND
  5
1C6
  8
6_06MM_ABS_OUTSIDE
  0
POLYLINE
  5
1C7
  8
6_06MM_ABS_OUTSIDE
 66
     1
 10
0.0
 20
0.0
 30
0.0
 70
     1
  0
VERTEX
  5
1C8
  8
6_06MM_ABS_OUTSIDE
 10
138.0296890728687
 20
436.1681706448708
 30
0.0
  0
VERTEX
  5
1C9
  8
6_06MM_ABS_OUTSIDE
 10
138.0296890728687
 20
442.2281706448707
 30
0.0
  0
VERTEX
  5
1CA
  8
6_06MM_ABS_OUTSIDE
 10
130.0498762482375
 20
442.2281706448707
 30
0.0
  0
VERTEX
  5
1CB
  8
6_06MM_ABS_OUTSIDE
 10
130.0498764031227
 20
462.2281707593506
 30
0.0
  0
VERTEX
  5
1CC
  8
6_06MM_ABS_OUTSIDE
 10
136.1098765580077
 20
462.2281707593506
 30
0.0
  0
VERTEX
  5
1CD
  8
6_06MM_ABS_OUTSIDE
 10
136.1098765580077
 20
522.2281705303908
 30
0.0
  0
VERTEX
  5
1CE
  8
6_06MM_ABS_OUTSIDE
 10
130.0498764031227
 20
522.2281705303908
 30
0.0
  0
VERTEX
  5
1CF
  8
6_06MM_ABS_OUTSIDE
 10
130.0498762482375
 20
542.2281706448707
 30
0.0
  0
VERTEX
  5
1D0
  8
6_06MM_ABS_OUTSIDE
 10
138.0296890728687
 20
542.2281706448707
 30
0.0
  0
VERTEX
  5
1D1
  8
6_06MM_ABS_OUTSIDE
 10
138.0296890728687
 20
548.2881706448707
 30
0.0
  0
VERTEX
  5
1D2
  8
6_06MM_ABS_OUTSIDE
 10
148.0296890728687
 20
548.2881706448707
 30
0.0
  0
VERTEX
  5
1D3
  8
6_06MM_ABS_OUTSIDE
 10
148.0296890728687
 20
542.2281706448707
 30
0.0
  0
VERTEX
  5
1D4
  8
6_06MM_ABS_OUTSIDE
 10
168.0300508829923
 20
542.2281706448707
 30
0.0
  0
VERTEX
  5
1D5
  8
6_06MM_ABS_OUTSIDE
 10
168.0300508829923
 20
548.2881706448707
 30
0.0
  0
VERTEX
  5
1D6
  8
6_06MM_ABS_OUTSIDE
 10
178.0300508829923
 20
548.2881706448707
 30
0.0
  0
VERTEX
  5
1D7
  8
6_06MM_ABS_OUTSIDE
 10
178.0300508829923
 20
542.2281706448707
 30
0.0
  0
VERTEX
  5
1D8
  8
6_06MM_ABS_OUTSIDE
 10
186.0098722037169
 20
542.2281706448707
 30
0.0
  0
VERTEX
  5
1D9
  8
6_06MM_ABS_OUTSIDE
 10
186.0098722037169
 20
522.2281700238655
 30
0.0
  0
VERTEX
  5
1DA
  8
6_06MM_ABS_OUTSIDE
 10
179.949872203717
 20
522.2281700238655
 30
0.0
  0
VERTEX
  5
1DB
  8
6_06MM_ABS_OUTSIDE
 10
179.949872203717
 20
462.228171265876
 30
0.0
  0
VERTEX
  5
1DC
  8
6_06MM_ABS_OUTSIDE
 10
186.0098722037169
 20
462.228171265876
 30
0.0
  0
VERTEX
  5
1DD
  8
6_06MM_ABS_OUTSIDE
 10
186.0098722037169
 20
442.2281706448707
 30
0.0
  0
VERTEX
  5
1DE
  8
6_06MM_ABS_OUTSIDE
 10
178.0300508829923
 20
442.2281706448707
 30
0.0
  0
VERTEX
  5
1DF
  8
6_06MM_ABS_OUTSIDE
 10
178.0300508829923
 20
436.1681706448708
 30
0.0
  0
VERTEX
  5
1E0
  8
6_06MM_ABS_OUTSIDE
 10
168.0300508829923
 20
436.1681706448708
 30
0.0
  0
VERTEX
  5
1E1
  8
6_06MM_ABS_OUTSIDE
 10
168.0300508829923
 20
442.2281706448707
 30
0.0
  0
VERTEX
  5
1E2
  8
6_06MM_ABS_OUTSIDE
 10
148.0296890728687
 20
442.2281706448707
 30
0.0
  0
VERTEX
  5
1E3
  8
6_06MM_ABS_OUTSIDE
 10
148.0296890728687
 20
436.1681706448708
 30
0.0
  0
SEQEND
  5
1E4
  8
6_06MM_ABS_OUTSIDE
  0
POLYLINE
  5
1E5
  8
6_06MM_ABS_INSIDE
 66
     1
 10
0.0
 20
0.0
 30
0.0
 70
     1
  0
VERTEX
  5
1E6
  8
6_06MM_ABS_INSIDE
 10
170.9771088969023
 20
508.7428762605623
 30
0.0
  0
VERTEX
  5
1E7
  8
6_06MM_ABS_INSIDE
 10
148.3496918989326
 20
531.3702932585315
 30
0.0
  0
VERTEX
  5
1E8
  8
6_06MM_ABS_INSIDE
 10
145.5212647741864
 20
531.3702932585315
 30
0.0
  0
VERTEX
  5
1E9
  8
6_06MM_ABS_INSIDE
 10
142.6928376494407
 20
528.5418661337853
 30
0.0
  0
VERTEX
  5
1EA
  8
6_06MM_ABS_INSIDE
 10
142.6928376494407
 20
525.7134390090396
 30
0.0
  0
VERTEX
  5
1EB
  8
6_06MM_ABS_INSIDE
 10
165.3202546474099
 20
503.0860220110699
 30
0.0
  0
VERTEX
  5
1EC
  8
6_06MM_ABS_INSIDE
 10
168.1486817721561
 20
503.0860220110699
 30
0.0
  0
VERTEX
  5
1ED
  8
6_06MM_ABS_INSIDE
 10
170.9771088969023
 20
505.9144491358161
 30
0.0
  0
SEQEND
  5
1EE
  8
6_06MM_ABS_INSIDE
  0
POLYLINE
  5
1EF
  8
6_06MM_ABS_INSIDE
 66
     1
 10
0.0
 20
0.0
 30
0.0
 70
     1
  0
VERTEX
  5
1F0
  8
6_06MM_ABS_INSIDE
 10
165.320256373745
 20
481.3702910134261
 30
0.0
  0
VERTEX
  5
1F1
  8
6_06MM_ABS_INSIDE
 10
142.6928393757753
 20
458.7428740154569
 30
0.0
  0
VERTEX
  5
1F2
  8
6_06MM_ABS_INSIDE
 10
142.6928393757753
 20
455.9144468907107
 30
0.0
  0
VERTEX
  5
1F3
  8
6_06MM_ABS_INSIDE
 10
145.5212665005215
 20
453.0860197659645
 30
0.0
  0
VERTEX
  5
1F4
  8
6_06MM_ABS_INSIDE
 10
148.3496936252677
 20
453.0860197659645
 30
0.0
  0
VERTEX
  5
1F5
  8
6_06MM_ABS_INSIDE
 10
170.9771106232374
 20
475.7134367639342
 30
0.0
  0
VERTEX
  5
1F6
  8
6_06MM_ABS_INSIDE
 10
170.9771106232374
 20
478.5418638886804
 30
0.0
  0
VERTEX
  5
1F7
  8
6_06MM_ABS_INSIDE
 10
168.1486834984912
 20
481.3702910134261
 30
0.0
  0
SEQEND
  5
1F8
  8
6_06MM_ABS_INSIDE
  0
POLYLINE
  5
1FA
  8
BOUNDARIES
 66
     1
 10
0.0
 20
0.0
 30
0.0
 70
     1
  0
VERTEX
  5
1FB
  8
BOUNDARIES
 10
304.7999993412423
 20
247.4881706448706
 30
0.0
  0
VERTEX
  5
1FC
  8
BOUNDARIES
 10
304.7999993412423
 20
552.2881706448707
 30
0.0
  0
VERTEX
  5
1FD
  8
BOUNDARIES
 10
-304.8000006587581
 20
552.2881706448707
 30
0.0
  0
VERTEX
  5
1FE
  8
BOUNDARIES
 10
-304.8000006587581
 20
247.4881706448706
 30
0.0
  0
SEQEND
  5
1FF
  8
BOUNDARIES
  0
ENDSEC
  0
EOF
