  0
SECTION
  2
HEADER
  9
$ACADVER
  1
AC1009
  9
$DWGCODEPAGE
  3
ansi_1252
  9
$INSBASE
 10
0.0
 20
0.0
 30
0.0
  9
$EXTMIN
 10
395.1998922749367
 20
247.6000824448312
 30
0.0
  9
$EXTMAX
 10
1004.799892274937
 20
552.4000824448312
 30
0.0
  9
$LIMMIN
 10
0.0
 20
0.0
  9
$LIMMAX
 10
12.0
 20
9.0
  9
$ORTHOMODE
 70
     0
  9
$REGENMODE
 70
     1
  9
$FILLMODE
 70
     1
  9
$QTEXTMODE
 70
     0
  9
$MIRRTEXT
 70
     1
  9
$DRAGMODE
 70
     2
  9
$LTSCALE
 40
1.0
  9
$OSMODE
 70
    37
  9
$ATTMODE
 70
     1
  9
$TEXTSIZE
 40
0.2
  9
$TRACEWID
 40
0.05
  9
$TEXTSTYLE
  7
STANDARD
  9
$CLAYER
  8
0
  9
$CELTYPE
  6
BYLAYER
  9
$CECOLOR
 62
   256
  9
$DIMSCALE
 40
1.0
  9
$DIMASZ
 40
0.18
  9
$DIMEXO
 40
0.0625
  9
$DIMDLI
 40
0.38
  9
$DIMRND
 40
0.0
  9
$DIMDLE
 40
0.0
  9
$DIMEXE
 40
0.18
  9
$DIMTP
 40
0.0
  9
$DIMTM
 40
0.0
  9
$DIMTXT
 40
0.18
  9
$DIMCEN
 40
0.09
  9
$DIMTSZ
 40
0.0
  9
$DIMTOL
 70
     0
  9
$DIMLIM
 70
     0
  9
$DIMTIH
 70
     1
  9
$DIMTOH
 70
     1
  9
$DIMSE1
 70
     0
  9
$DIMSE2
 70
     0
  9
$DIMTAD
 70
     0
  9
$DIMZIN
 70
     0
  9
$DIMBLK
  1

  9
$DIMASO
 70
     1
  9
$DIMSHO
 70
     1
  9
$DIMPOST
  1

  9
$DIMAPOST
  1

  9
$DIMALT
 70
     0
  9
$DIMALTD
 70
     2
  9
$DIMALTF
 40
25.4
  9
$DIMLFAC
 40
1.0
  9
$DIMTOFL
 70
     0
  9
$DIMTVP
 40
0.0
  9
$DIMTIX
 70
     0
  9
$DIMSOXD
 70
     0
  9
$DIMSAH
 70
     0
  9
$DIMBLK1
  1

  9
$DIMBLK2
  1

  9
$DIMSTYLE
  2
STANDARD
  9
$DIMCLRD
 70
     0
  9
$DIMCLRE
 70
     0
  9
$DIMCLRT
 70
     0
  9
$DIMTFAC
 40
1.0
  9
$DIMGAP
 40
0.09
  9
$LUNITS
 70
     2
  9
$LUPREC
 70
     3
  9
$SKETCHINC
 40
0.1
  9
$FILLETRAD
 40
0.5
  9
$AUNITS
 70
     0
  9
$AUPREC
 70
     0
  9
$MENU
  1
.
  9
$ELEVATION
 40
0.0
  9
$PELEVATION
 40
0.0
  9
$THICKNESS
 40
0.0
  9
$LIMCHECK
 70
     0
  9
$CHAMFERA
 40
0.0
  9
$CHAMFERB
 40
0.0
  9
$SKPOLY
 70
     0
  9
$TDCREATE
 40
2457280.46636706
  9
$TDUPDATE
 40
2457280.466380162
  9
$TDINDWG
 40
0.0000000116
  9
$TDUSRTIMER
 40
0.0000000116
  9
$USRTIMER
 70
     1
  9
$ANGBASE
 50
0.0
  9
$ANGDIR
 70
     0
  9
$PDMODE
 70
     0
  9
$PDSIZE
 40
0.0
  9
$PLINEWID
 40
0.0
  9
$COORDS
 70
     1
  9
$SPLFRAME
 70
     0
  9
$SPLINETYPE
 70
     6
  9
$SPLINESEGS
 70
     8
  9
$ATTDIA
 70
     0
  9
$ATTREQ
 70
     1
  9
$HANDLING
 70
     1
  9
$HANDSEED
  5
221
  9
$SURFTAB1
 70
     6
  9
$SURFTAB2
 70
     6
  9
$SURFTYPE
 70
     6
  9
$SURFU
 70
     6
  9
$SURFV
 70
     6
  9
$UCSNAME
  2

  9
$UCSORG
 10
0.0
 20
0.0
 30
0.0
  9
$UCSXDIR
 10
1.0
 20
0.0
 30
0.0
  9
$UCSYDIR
 10
0.0
 20
1.0
 30
0.0
  9
$PUCSNAME
  2

  9
$PUCSORG
 10
0.0
 20
0.0
 30
0.0
  9
$PUCSXDIR
 10
1.0
 20
0.0
 30
0.0
  9
$PUCSYDIR
 10
0.0
 20
1.0
 30
0.0
  9
$USERI1
 70
     0
  9
$USERI2
 70
     0
  9
$USERI3
 70
     0
  9
$USERI4
 70
     0
  9
$USERI5
 70
     0
  9
$USERR1
 40
0.0
  9
$USERR2
 40
0.0
  9
$USERR3
 40
0.0
  9
$USERR4
 40
0.0
  9
$USERR5
 40
0.0
  9
$WORLDVIEW
 70
     1
  9
$SHADEDGE
 70
     3
  9
$SHADEDIF
 70
    70
  9
$TILEMODE
 70
     1
  9
$MAXACTVP
 70
    64
  9
$PLIMCHECK
 70
     0
  9
$PEXTMIN
 10
1.000000000000000E+20
 20
1.000000000000000E+20
 30
1.000000000000000E+20
  9
$PEXTMAX
 10
-1.000000000000000E+20
 20
-1.000000000000000E+20
 30
-1.000000000000000E+20
  9
$PLIMMIN
 10
0.0
 20
0.0
  9
$PLIMMAX
 10
12.0
 20
9.0
  9
$UNITMODE
 70
     0
  9
$VISRETAIN
 70
     1
  9
$PLINEGEN
 70
     0
  9
$PSLTSCALE
 70
     1
  0
ENDSEC
  0
SECTION
  2
TABLES
  0
TABLE
  2
VPORT
 70
     1
  0
VPORT
  2
*ACTIVE
 70
     0
 10
0.0
 20
0.0
 11
1.0
 21
1.0
 12
699.9998922749369
 22
400.0000824448312
 13
0.0
 23
0.0
 14
0.5
 24
0.5
 15
0.5
 25
0.5
 16
0.0
 26
0.0
 36
1.0
 17
0.0
 27
0.0
 37
0.0
 40
310.8960000000001
 41
2.000000000000001
 42
50.0
 43
0.0
 44
0.0
 50
0.0
 51
0.0
 71
     0
 72
   100
 73
     1
 74
     3
 75
     0
 76
     0
 77
     0
 78
     0
  0
ENDTAB
  0
TABLE
  2
LTYPE
 70
     1
  0
LTYPE
  2
CONTINUOUS
 70
     0
  3
Solid line
 72
    65
 73
     0
 40
0.0
  0
ENDTAB
  0
TABLE
  2
LAYER
 70
     5
  0
LAYER
  2
0
 70
     0
 62
     7
  6
CONTINUOUS
  0
LAYER
  2
6_06MM_ABS_INSIDE
 70
     0
 62
    15
  6
CONTINUOUS
  0
LAYER
  2
6_06MM_ABS_OUTSIDE
 70
     0
 62
     1
  6
CONTINUOUS
  0
LAYER
  2
SCREW_HOLES
 70
     0
 62
     7
  6
CONTINUOUS
  0
LAYER
  2
BOUNDARIES
 70
     0
 62
     7
  6
CONTINUOUS
  0
ENDTAB
  0
TABLE
  2
STYLE
 70
     1
  0
STYLE
  2
STANDARD
 70
     0
 40
0.0
 41
1.0
 50
0.0
 71
     0
 42
0.2
  3
txt
  4

  0
ENDTAB
  0
TABLE
  2
VIEW
 70
     0
  0
ENDTAB
  0
TABLE
  2
UCS
 70
     0
  0
ENDTAB
  0
TABLE
  2
APPID
 70
     1
  0
APPID
  2
ACAD
 70
     0
  0
ENDTAB
  0
TABLE
  2
DIMSTYLE
 70
     1
  0
DIMSTYLE
  2
STANDARD
 70
     0
  3

  4

  5

  6

  7

 40
1.0
 41
0.18
 42
0.0625
 43
0.38
 44
0.18
 45
0.0
 46
0.0
 47
0.0
 48
0.0
140
0.18
141
0.09
142
0.0
143
25.4
144
1.0
145
0.0
146
1.0
147
0.09
 71
     0
 72
     0
 73
     1
 74
     1
 75
     0
 76
     0
 77
     0
 78
     0
170
     0
171
     2
172
     0
173
     0
174
     0
175
     0
176
     0
177
     0
178
     0
  0
ENDTAB
  0
ENDSEC
  0
SECTION
  2
BLOCKS
  0
BLOCK
  8
0
  2
$MODEL_SPACE
 70
     0
 10
0.0
 20
0.0
 30
0.0
  3
$MODEL_SPACE
  1

  0
ENDBLK
  5
21
  8
0
  0
BLOCK
 67
     1
  8
0
  2
$PAPER_SPACE
 70
     0
 10
0.0
 20
0.0
 30
0.0
  3
$PAPER_SPACE
  1

  0
ENDBLK
  5
1D
 67
     1
  8
0
  0
ENDSEC
  0
SECTION
  2
ENTITIES
  0
POLYLINE
  5
6F
  8
6_06MM_ABS_INSIDE
 66
     1
 10
0.0
 20
0.0
 30
0.0
 70
     1
  0
VERTEX
  5
70
  8
6_06MM_ABS_INSIDE
 10
688.1996269307438
 20
318.6600601459409
 30
0.0
  0
VERTEX
  5
71
  8
6_06MM_ABS_INSIDE
 10
688.1996269307438
 20
338.6600601459409
 30
0.0
  0
VERTEX
  5
72
  8
6_06MM_ABS_INSIDE
 10
682.1396269307443
 20
338.6600601459409
 30
0.0
  0
VERTEX
  5
73
  8
6_06MM_ABS_INSIDE
 10
682.1396269307443
 20
318.6600601459409
 30
0.0
  0
SEQEND
  5
74
  8
6_06MM_ABS_INSIDE
  0
POLYLINE
  5
75
  8
6_06MM_ABS_INSIDE
 66
     1
 10
0.0
 20
0.0
 30
0.0
 70
     1
  0
VERTEX
  5
76
  8
6_06MM_ABS_INSIDE
 10
642.76978430903
 20
318.6600325221667
 30
0.0
  0
VERTEX
  5
77
  8
6_06MM_ABS_INSIDE
 10
648.829784581766
 20
318.6600325221667
 30
0.0
  0
VERTEX
  5
78
  8
6_06MM_ABS_INSIDE
 10
648.8297844279587
 20
338.6600601459409
 30
0.0
  0
VERTEX
  5
79
  8
6_06MM_ABS_INSIDE
 10
642.7697844279583
 20
338.6600601459409
 30
0.0
  0
SEQEND
  5
7A
  8
6_06MM_ABS_INSIDE
  0
POLYLINE
  5
7B
  8
6_06MM_ABS_INSIDE
 66
     1
 10
0.0
 20
0.0
 30
0.0
 70
     1
  0
VERTEX
  5
7C
  8
6_06MM_ABS_INSIDE
 10
648.829784581766
 20
298.6600909401378
 30
0.0
  0
VERTEX
  5
7D
  8
6_06MM_ABS_INSIDE
 10
642.76978430903
 20
298.6600909401378
 30
0.0
  0
VERTEX
  5
7E
  8
6_06MM_ABS_INSIDE
 10
642.7697844279583
 20
278.6600606729472
 30
0.0
  0
VERTEX
  5
7F
  8
6_06MM_ABS_INSIDE
 10
648.8297844279587
 20
278.6600606729472
 30
0.0
  0
SEQEND
  5
80
  8
6_06MM_ABS_INSIDE
  0
POLYLINE
  5
81
  8
6_06MM_ABS_INSIDE
 66
     1
 10
0.0
 20
0.0
 30
0.0
 70
     1
  0
VERTEX
  5
82
  8
6_06MM_ABS_INSIDE
 10
538.8297700242083
 20
298.6600909401378
 30
0.0
  0
VERTEX
  5
83
  8
6_06MM_ABS_INSIDE
 10
532.7697697514723
 20
298.6600909401378
 30
0.0
  0
VERTEX
  5
84
  8
6_06MM_ABS_INSIDE
 10
532.7697697514723
 20
278.6600606729472
 30
0.0
  0
VERTEX
  5
85
  8
6_06MM_ABS_INSIDE
 10
538.8297697514727
 20
278.6600606729472
 30
0.0
  0
SEQEND
  5
86
  8
6_06MM_ABS_INSIDE
  0
POLYLINE
  5
87
  8
6_06MM_ABS_INSIDE
 66
     1
 10
0.0
 20
0.0
 30
0.0
 70
     1
  0
VERTEX
  5
88
  8
6_06MM_ABS_INSIDE
 10
532.7697697514723
 20
318.6600325221667
 30
0.0
  0
VERTEX
  5
89
  8
6_06MM_ABS_INSIDE
 10
538.8297700242083
 20
318.6600325221667
 30
0.0
  0
VERTEX
  5
8A
  8
6_06MM_ABS_INSIDE
 10
538.8297697514727
 20
338.6600606729472
 30
0.0
  0
VERTEX
  5
8B
  8
6_06MM_ABS_INSIDE
 10
532.7697697514723
 20
338.6600606729472
 30
0.0
  0
SEQEND
  5
8C
  8
6_06MM_ABS_INSIDE
  0
POLYLINE
  5
8D
  8
6_06MM_ABS_INSIDE
 66
     1
 10
0.0
 20
0.0
 30
0.0
 70
     1
  0
VERTEX
  5
8E
  8
6_06MM_ABS_INSIDE
 10
462.8786866890268
 20
343.6600331696598
 30
0.0
  0
VERTEX
  5
8F
  8
6_06MM_ABS_INSIDE
 10
462.8786866890268
 20
273.6600875826949
 30
0.0
  0
VERTEX
  5
90
  8
6_06MM_ABS_INSIDE
 10
477.8786873058834
 20
273.6600875826949
 30
0.0
  0
VERTEX
  5
91
  8
6_06MM_ABS_INSIDE
 10
492.8786873058834
 20
288.6600875826949
 30
0.0
  0
VERTEX
  5
92
  8
6_06MM_ABS_INSIDE
 10
492.8786873058834
 20
328.6600331696598
 30
0.0
  0
VERTEX
  5
93
  8
6_06MM_ABS_INSIDE
 10
477.8786873058834
 20
343.6600331696598
 30
0.0
  0
SEQEND
  5
94
  8
6_06MM_ABS_INSIDE
  0
POLYLINE
  5
95
  8
6_06MM_ABS_INSIDE
 66
     1
 10
0.0
 20
0.0
 30
0.0
 70
     1
  0
VERTEX
  5
96
  8
6_06MM_ABS_INSIDE
 10
452.8786866890268
 20
273.6600875826949
 30
0.0
  0
VERTEX
  5
97
  8
6_06MM_ABS_INSIDE
 10
452.8786866890268
 20
343.6600331696598
 30
0.0
  0
VERTEX
  5
98
  8
6_06MM_ABS_INSIDE
 10
437.8786873058834
 20
343.6600331696598
 30
0.0
  0
VERTEX
  5
99
  8
6_06MM_ABS_INSIDE
 10
422.8786873058834
 20
328.6600331696598
 30
0.0
  0
VERTEX
  5
9A
  8
6_06MM_ABS_INSIDE
 10
422.8786873058834
 20
288.6600875826949
 30
0.0
  0
VERTEX
  5
9B
  8
6_06MM_ABS_INSIDE
 10
437.8786873058834
 20
273.6600875826949
 30
0.0
  0
SEQEND
  5
9C
  8
6_06MM_ABS_INSIDE
  0
POLYLINE
  5
9D
  8
6_06MM_ABS_INSIDE
 66
     1
 10
0.0
 20
0.0
 30
0.0
 70
     1
  0
VERTEX
  5
9E
  8
6_06MM_ABS_INSIDE
 10
682.1396269307443
 20
298.6600611999539
 30
0.0
  0
VERTEX
  5
9F
  8
6_06MM_ABS_INSIDE
 10
682.1396269307443
 20
278.6600611999539
 30
0.0
  0
VERTEX
  5
A0
  8
6_06MM_ABS_INSIDE
 10
688.1996269307438
 20
278.6600611999539
 30
0.0
  0
VERTEX
  5
A1
  8
6_06MM_ABS_INSIDE
 10
688.1996269307438
 20
298.6600611999539
 30
0.0
  0
SEQEND
  5
A2
  8
6_06MM_ABS_INSIDE
  0
POLYLINE
  5
A3
  8
6_06MM_ABS_INSIDE
 66
     1
 10
0.0
 20
0.0
 30
0.0
 70
     1
  0
VERTEX
  5
A4
  8
6_06MM_ABS_INSIDE
 10
575.7997678118336
 20
313.6601258686908
 30
0.0
  0
VERTEX
  5
A5
  8
6_06MM_ABS_INSIDE
 10
575.7997678118336
 20
303.6599954772036
 30
0.0
 42
0.4142131673484038
  0
VERTEX
  5
A6
  8
6_06MM_ABS_INSIDE
 10
585.799767811834
 20
293.6599954772034
 30
0.0
  0
VERTEX
  5
A7
  8
6_06MM_ABS_INSIDE
 10
595.7998016393964
 20
293.6599954772034
 30
0.0
 42
0.4142134636168916
  0
VERTEX
  5
A8
  8
6_06MM_ABS_INSIDE
 10
605.7998016393958
 20
303.6599954772035
 30
0.0
  0
VERTEX
  5
A9
  8
6_06MM_ABS_INSIDE
 10
605.7998016393958
 20
313.6601258686909
 30
0.0
 42
0.4142135623730922
  0
VERTEX
  5
AA
  8
6_06MM_ABS_INSIDE
 10
595.7998016393958
 20
323.6601258686908
 30
0.0
  0
VERTEX
  5
AB
  8
6_06MM_ABS_INSIDE
 10
585.7997678118335
 20
323.6601258686909
 30
0.0
 42
0.4142134636168063
  0
SEQEND
  5
AC
  8
6_06MM_ABS_INSIDE
  0
POLYLINE
  5
AE
  8
6_06MM_ABS_OUTSIDE
 66
     1
 10
0.0
 20
0.0
 30
0.0
 70
     1
  0
VERTEX
  5
AF
  8
6_06MM_ABS_OUTSIDE
 10
808.1988373740496
 20
278.6600607874271
 30
0.0
  0
VERTEX
  5
B0
  8
6_06MM_ABS_OUTSIDE
 10
802.1388373740492
 20
278.6600607874271
 30
0.0
  0
VERTEX
  5
B1
  8
6_06MM_ABS_OUTSIDE
 10
802.1388373740492
 20
258.6600607874271
 30
0.0
  0
VERTEX
  5
B2
  8
6_06MM_ABS_OUTSIDE
 10
778.1991728843032
 20
258.6600609834501
 30
0.0
  0
VERTEX
  5
B3
  8
6_06MM_ABS_OUTSIDE
 10
778.1991728843032
 20
252.6000612939525
 30
0.0
  0
VERTEX
  5
B4
  8
6_06MM_ABS_OUTSIDE
 10
758.1991728843032
 20
252.6000612939525
 30
0.0
  0
VERTEX
  5
B5
  8
6_06MM_ABS_OUTSIDE
 10
758.1991728843032
 20
258.6600611387013
 30
0.0
  0
VERTEX
  5
B6
  8
6_06MM_ABS_OUTSIDE
 10
738.1992855817762
 20
258.6600611387013
 30
0.0
  0
VERTEX
  5
B7
  8
6_06MM_ABS_OUTSIDE
 10
738.1992855817762
 20
252.6000612939525
 30
0.0
  0
VERTEX
  5
B8
  8
6_06MM_ABS_OUTSIDE
 10
718.1992855817762
 20
252.6000612939525
 30
0.0
  0
VERTEX
  5
B9
  8
6_06MM_ABS_OUTSIDE
 10
718.1992855817762
 20
258.6600609834501
 30
0.0
  0
VERTEX
  5
BA
  8
6_06MM_ABS_OUTSIDE
 10
640.4846769687765
 20
258.6600610994775
 30
0.0
  0
VERTEX
  5
BB
  8
6_06MM_ABS_OUTSIDE
 10
640.4846769687765
 20
252.6000612939525
 30
0.0
  0
VERTEX
  5
BC
  8
6_06MM_ABS_OUTSIDE
 10
620.4846769687765
 20
252.6000612939525
 30
0.0
  0
VERTEX
  5
BD
  8
6_06MM_ABS_OUTSIDE
 10
620.4846769687765
 20
258.6600611924829
 30
0.0
  0
VERTEX
  5
BE
  8
6_06MM_ABS_OUTSIDE
 10
600.4847408823789
 20
258.6600611868404
 30
0.0
  0
VERTEX
  5
BF
  8
6_06MM_ABS_OUTSIDE
 10
600.4847408823789
 20
252.6000612939525
 30
0.0
  0
VERTEX
  5
C0
  8
6_06MM_ABS_OUTSIDE
 10
580.4847408823789
 20
252.6000612939525
 30
0.0
  0
VERTEX
  5
C1
  8
6_06MM_ABS_OUTSIDE
 10
580.4847408823789
 20
258.6600610712641
 30
0.0
  0
VERTEX
  5
C2
  8
6_06MM_ABS_OUTSIDE
 10
498.5148163412523
 20
258.6600610865627
 30
0.0
  0
VERTEX
  5
C3
  8
6_06MM_ABS_OUTSIDE
 10
498.5148163412523
 20
252.6000612939525
 30
0.0
  0
VERTEX
  5
C4
  8
6_06MM_ABS_OUTSIDE
 10
478.5148163412523
 20
252.6000612939525
 30
0.0
  0
VERTEX
  5
C5
  8
6_06MM_ABS_OUTSIDE
 10
478.5148163412523
 20
258.6600611819991
 30
0.0
  0
VERTEX
  5
C6
  8
6_06MM_ABS_OUTSIDE
 10
458.514858565326
 20
258.6600611709879
 30
0.0
  0
VERTEX
  5
C7
  8
6_06MM_ABS_OUTSIDE
 10
458.514858565326
 20
252.6000612939525
 30
0.0
  0
VERTEX
  5
C8
  8
6_06MM_ABS_OUTSIDE
 10
438.514858565326
 20
252.6000612939525
 30
0.0
  0
VERTEX
  5
C9
  8
6_06MM_ABS_OUTSIDE
 10
438.514858565326
 20
258.6600610315064
 30
0.0
  0
VERTEX
  5
CA
  8
6_06MM_ABS_OUTSIDE
 10
398.1998922749372
 20
258.6600606729472
 30
0.0
  0
VERTEX
  5
CB
  8
6_06MM_ABS_OUTSIDE
 10
398.1998922749372
 20
278.6600842320846
 30
0.0
  0
VERTEX
  5
CC
  8
6_06MM_ABS_OUTSIDE
 10
404.2598922749366
 20
278.6600842320846
 30
0.0
  0
VERTEX
  5
CD
  8
6_06MM_ABS_OUTSIDE
 10
404.2598922749366
 20
338.6600582646884
 30
0.0
  0
VERTEX
  5
CE
  8
6_06MM_ABS_OUTSIDE
 10
398.1998922749372
 20
338.6600582646884
 30
0.0
  0
VERTEX
  5
CF
  8
6_06MM_ABS_OUTSIDE
 10
398.1998922749372
 20
358.6600606729471
 30
0.0
  0
VERTEX
  5
D0
  8
6_06MM_ABS_OUTSIDE
 10
438.514858565326
 20
358.6600603143884
 30
0.0
  0
VERTEX
  5
D1
  8
6_06MM_ABS_OUTSIDE
 10
438.514858565326
 20
364.7200600519418
 30
0.0
  0
VERTEX
  5
D2
  8
6_06MM_ABS_OUTSIDE
 10
458.514858565326
 20
364.7200600519418
 30
0.0
  0
VERTEX
  5
D3
  8
6_06MM_ABS_OUTSIDE
 10
458.514858565326
 20
358.6600604854093
 30
0.0
  0
VERTEX
  5
D4
  8
6_06MM_ABS_OUTSIDE
 10
478.5148163412523
 20
358.6600604743981
 30
0.0
  0
VERTEX
  5
D5
  8
6_06MM_ABS_OUTSIDE
 10
478.5148163412523
 20
364.7200600519418
 30
0.0
  0
VERTEX
  5
D6
  8
6_06MM_ABS_OUTSIDE
 10
498.5148163412523
 20
364.7200600519418
 30
0.0
  0
VERTEX
  5
D7
  8
6_06MM_ABS_OUTSIDE
 10
498.5148163412523
 20
358.6600602593321
 30
0.0
  0
VERTEX
  5
D8
  8
6_06MM_ABS_OUTSIDE
 10
580.4847408823789
 20
358.6600602746303
 30
0.0
  0
VERTEX
  5
D9
  8
6_06MM_ABS_OUTSIDE
 10
580.4847408823789
 20
364.7200600519418
 30
0.0
  0
VERTEX
  5
DA
  8
6_06MM_ABS_OUTSIDE
 10
600.4847408823789
 20
364.7200600519418
 30
0.0
  0
VERTEX
  5
DB
  8
6_06MM_ABS_OUTSIDE
 10
600.4847408823789
 20
358.6600604695568
 30
0.0
  0
VERTEX
  5
DC
  8
6_06MM_ABS_OUTSIDE
 10
620.4846769687765
 20
358.6600604639141
 30
0.0
  0
VERTEX
  5
DD
  8
6_06MM_ABS_OUTSIDE
 10
620.4846769687765
 20
364.7200600519418
 30
0.0
  0
VERTEX
  5
DE
  8
6_06MM_ABS_OUTSIDE
 10
640.4846769687765
 20
364.7200600519418
 30
0.0
  0
VERTEX
  5
DF
  8
6_06MM_ABS_OUTSIDE
 10
640.4846769687765
 20
358.6600602464168
 30
0.0
  0
VERTEX
  5
E0
  8
6_06MM_ABS_OUTSIDE
 10
718.1992855817762
 20
358.6600603624447
 30
0.0
  0
VERTEX
  5
E1
  8
6_06MM_ABS_OUTSIDE
 10
718.1992855817762
 20
364.7200600519418
 30
0.0
  0
VERTEX
  5
E2
  8
6_06MM_ABS_OUTSIDE
 10
738.1992855817762
 20
364.7200600519418
 30
0.0
  0
VERTEX
  5
E3
  8
6_06MM_ABS_OUTSIDE
 10
738.1992855817762
 20
358.6600602071933
 30
0.0
  0
VERTEX
  5
E4
  8
6_06MM_ABS_OUTSIDE
 10
758.1991728843032
 20
358.6600602071933
 30
0.0
  0
VERTEX
  5
E5
  8
6_06MM_ABS_OUTSIDE
 10
758.1991728843032
 20
364.7200600519418
 30
0.0
  0
VERTEX
  5
E6
  8
6_06MM_ABS_OUTSIDE
 10
778.1991728843032
 20
364.7200600519418
 30
0.0
  0
VERTEX
  5
E7
  8
6_06MM_ABS_OUTSIDE
 10
778.1991728843032
 20
358.6600603624447
 30
0.0
  0
VERTEX
  5
E8
  8
6_06MM_ABS_OUTSIDE
 10
802.1388373740492
 20
358.6600605584674
 30
0.0
  0
VERTEX
  5
E9
  8
6_06MM_ABS_OUTSIDE
 10
802.1388373740492
 20
338.6600605584675
 30
0.0
  0
VERTEX
  5
EA
  8
6_06MM_ABS_OUTSIDE
 10
808.1988373740496
 20
338.6600605584675
 30
0.0
  0
SEQEND
  5
EB
  8
6_06MM_ABS_OUTSIDE
  0
CIRCLE
  5
ED
  8
SCREW_HOLES
 10
492.8786873058835
 20
273.6600407897086
 30
0.0
 40
1.499999999999943
  0
CIRCLE
  5
EE
  8
SCREW_HOLES
 10
422.8786873058834
 20
273.6600407897087
 30
0.0
 40
1.500000000000057
  0
CIRCLE
  5
EF
  8
SCREW_HOLES
 10
422.8786873058835
 20
343.6600407897086
 30
0.0
 40
1.5
  0
CIRCLE
  5
F0
  8
SCREW_HOLES
 10
492.8786873058834
 20
343.6600407897085
 30
0.0
 40
1.499999999999943
  0
CIRCLE
  5
F1
  8
SCREW_HOLES
 10
665.7997844453987
 20
268.6600539972272
 30
0.0
 40
1.499999999999943
  0
CIRCLE
  5
F2
  8
SCREW_HOLES
 10
665.7997844453987
 20
348.6600539972272
 30
0.0
 40
1.5
  0
CIRCLE
  5
F3
  8
SCREW_HOLES
 10
625.7997844453976
 20
268.6600539972272
 30
0.0
 40
1.5
  0
CIRCLE
  5
F4
  8
SCREW_HOLES
 10
625.7997844453976
 20
348.6600539972271
 30
0.0
 40
1.499999999999886
  0
CIRCLE
  5
F5
  8
SCREW_HOLES
 10
555.7997912085831
 20
268.6600539972272
 30
0.0
 40
1.499999999999943
  0
CIRCLE
  5
F6
  8
SCREW_HOLES
 10
555.799791208583
 20
348.660053997227
 30
0.0
 40
1.499999999999829
  0
CIRCLE
  5
F7
  8
SCREW_HOLES
 10
515.7997912085831
 20
268.660053997227
 30
0.0
 40
1.499999999999773
  0
CIRCLE
  5
F8
  8
SCREW_HOLES
 10
515.799791208583
 20
348.6600539972271
 30
0.0
 40
1.499999999999886
  0
CIRCLE
  5
F9
  8
SCREW_HOLES
 10
685.1696269307442
 20
308.660060145941
 30
0.0
 40
1.500000000000057
  0
CIRCLE
  5
FA
  8
SCREW_HOLES
 10
645.7997844453985
 20
308.6600325221666
 30
0.0
 40
1.499999999999943
  0
CIRCLE
  5
FB
  8
SCREW_HOLES
 10
535.799769751472
 20
308.6600325221667
 30
0.0
 40
1.499999999999943
  0
CIRCLE
  5
FC
  8
6_06MM_ABS_INSIDE
 10
748.1994344023115
 20
308.660063345817
 30
0.0
 40
9.999999999999943
  0
POLYLINE
  5
FD
  8
6_06MM_ABS_INSIDE
 66
     1
 10
0.0
 20
0.0
 30
0.0
 70
     1
  0
VERTEX
  5
FE
  8
6_06MM_ABS_INSIDE
 10
939.7398257616774
 20
322.6000590480816
 30
0.0
  0
VERTEX
  5
FF
  8
6_06MM_ABS_INSIDE
 10
949.7399561531647
 20
322.6000590480814
 30
0.0
 42
0.4142132661045662
  0
VERTEX
  5
100
  8
6_06MM_ABS_INSIDE
 10
959.7399561531645
 20
332.6000590480815
 30
0.0
  0
VERTEX
  5
101
  8
6_06MM_ABS_INSIDE
 10
959.7399561531647
 20
342.6000928756438
 30
0.0
 42
0.414213463616902
  0
VERTEX
  5
102
  8
6_06MM_ABS_INSIDE
 10
949.7399561531647
 20
352.6000928756438
 30
0.0
  0
VERTEX
  5
103
  8
6_06MM_ABS_INSIDE
 10
939.7398257616774
 20
352.6000928756437
 30
0.0
 42
0.4142135623731265
  0
VERTEX
  5
104
  8
6_06MM_ABS_INSIDE
 10
929.7398257616776
 20
342.6000928756438
 30
0.0
  0
VERTEX
  5
105
  8
6_06MM_ABS_INSIDE
 10
929.7398257616776
 20
332.6000590480813
 30
0.0
 42
0.4142134636168458
  0
SEQEND
  5
106
  8
6_06MM_ABS_INSIDE
  0
CIRCLE
  5
107
  8
SCREW_HOLES
 10
984.7398976331874
 20
412.6000756816454
 30
0.0
 40
1.500000000000455
  0
CIRCLE
  5
108
  8
SCREW_HOLES
 10
904.739897633187
 20
412.6000756816459
 30
0.0
 40
1.5
  0
CIRCLE
  5
109
  8
SCREW_HOLES
 10
984.7398976331874
 20
372.6000756816455
 30
0.0
 40
1.500000000000455
  0
CIRCLE
  5
10A
  8
SCREW_HOLES
 10
904.739897633187
 20
372.6000756816459
 30
0.0
 40
1.5
  0
CIRCLE
  5
10B
  8
SCREW_HOLES
 10
984.7398976331873
 20
302.6000824448305
 30
0.0
 40
1.500000000000568
  0
CIRCLE
  5
10C
  8
SCREW_HOLES
 10
904.739897633187
 20
302.6000824448311
 30
0.0
 40
1.5
  0
CIRCLE
  5
10D
  8
SCREW_HOLES
 10
984.7398976331874
 20
262.6000824448305
 30
0.0
 40
1.500000000000455
  0
CIRCLE
  5
10E
  8
SCREW_HOLES
 10
904.739897633187
 20
262.6000824448311
 30
0.0
 40
1.5
  0
POLYLINE
  5
10F
  8
6_06MM_ABS_OUTSIDE
 66
     1
 10
0.0
 20
0.0
 30
0.0
 70
     1
  0
VERTEX
  5
110
  8
6_06MM_ABS_OUTSIDE
 10
894.7398909574208
 20
252.6000824448309
 30
0.0
  0
VERTEX
  5
111
  8
6_06MM_ABS_OUTSIDE
 10
894.7398909574208
 20
297.6000854325401
 30
0.0
  0
VERTEX
  5
112
  8
6_06MM_ABS_OUTSIDE
 10
888.6798909574209
 20
297.6000854325401
 30
0.0
  0
VERTEX
  5
113
  8
6_06MM_ABS_OUTSIDE
 10
888.6798909574209
 20
327.6000854325401
 30
0.0
  0
VERTEX
  5
114
  8
6_06MM_ABS_OUTSIDE
 10
894.7398916161787
 20
327.6000854325401
 30
0.0
  0
VERTEX
  5
115
  8
6_06MM_ABS_OUTSIDE
 10
894.7398916161787
 20
347.6000943792836
 30
0.0
  0
VERTEX
  5
116
  8
6_06MM_ABS_OUTSIDE
 10
888.6798909574209
 20
347.6000943792836
 30
0.0
  0
VERTEX
  5
117
  8
6_06MM_ABS_OUTSIDE
 10
888.6798909574209
 20
377.6000943792835
 30
0.0
  0
VERTEX
  5
118
  8
6_06MM_ABS_OUTSIDE
 10
894.7398909574208
 20
377.6000943792835
 30
0.0
  0
VERTEX
  5
119
  8
6_06MM_ABS_OUTSIDE
 10
894.7398909574208
 20
422.6000866168067
 30
0.0
  0
VERTEX
  5
11A
  8
6_06MM_ABS_OUTSIDE
 10
994.7398896399045
 20
422.6000866168067
 30
0.0
  0
VERTEX
  5
11B
  8
6_06MM_ABS_OUTSIDE
 10
994.7398902986624
 20
377.6000943792835
 30
0.0
  0
VERTEX
  5
11C
  8
6_06MM_ABS_OUTSIDE
 10
1000.799890957421
 20
377.6000943792835
 30
0.0
  0
VERTEX
  5
11D
  8
6_06MM_ABS_OUTSIDE
 10
1000.799890957421
 20
347.6000943792836
 30
0.0
  0
VERTEX
  5
11E
  8
6_06MM_ABS_OUTSIDE
 10
994.7398906280418
 20
347.6000943792836
 30
0.0
  0
VERTEX
  5
11F
  8
6_06MM_ABS_OUTSIDE
 10
994.7398906280418
 20
327.6000854325401
 30
0.0
  0
VERTEX
  5
120
  8
6_06MM_ABS_OUTSIDE
 10
1000.799890957421
 20
327.6000854325401
 30
0.0
  0
VERTEX
  5
121
  8
6_06MM_ABS_OUTSIDE
 10
1000.799890957421
 20
297.6000854325401
 30
0.0
  0
VERTEX
  5
122
  8
6_06MM_ABS_OUTSIDE
 10
994.7398902986624
 20
297.6000854325401
 30
0.0
  0
VERTEX
  5
123
  8
6_06MM_ABS_OUTSIDE
 10
994.7398896399045
 20
252.6000824448309
 30
0.0
  0
SEQEND
  5
124
  8
6_06MM_ABS_OUTSIDE
  0
POLYLINE
  5
125
  8
6_06MM_ABS_OUTSIDE
 66
     1
 10
0.0
 20
0.0
 30
0.0
 70
     1
  0
VERTEX
  5
126
  8
6_06MM_ABS_OUTSIDE
 10
859.7093814599275
 20
252.6000824448312
 30
0.0
  0
VERTEX
  5
127
  8
6_06MM_ABS_OUTSIDE
 10
828.1093490747876
 20
252.6000824448312
 30
0.0
  0
VERTEX
  5
128
  8
6_06MM_ABS_OUTSIDE
 10
828.1093490747876
 20
258.6600824448311
 30
0.0
  0
VERTEX
  5
129
  8
6_06MM_ABS_OUTSIDE
 10
808.9093284928958
 20
258.6600824448311
 30
0.0
  0
VERTEX
  5
12A
  8
6_06MM_ABS_OUTSIDE
 10
808.9093284928958
 20
278.6600819178244
 30
0.0
  0
VERTEX
  5
12B
  8
6_06MM_ABS_OUTSIDE
 10
830.9093770706058
 20
278.6600819178249
 30
0.0
 42
0.4142135623730946
  0
VERTEX
  5
12C
  8
6_06MM_ABS_OUTSIDE
 10
850.9093770706058
 20
298.6600819178249
 30
0.0
  0
VERTEX
  5
12D
  8
6_06MM_ABS_OUTSIDE
 10
850.9093770706058
 20
318.6600811273148
 30
0.0
 42
0.4142135623731023
  0
VERTEX
  5
12E
  8
6_06MM_ABS_OUTSIDE
 10
830.9093770706058
 20
338.6600811273152
 30
0.0
  0
VERTEX
  5
12F
  8
6_06MM_ABS_OUTSIDE
 10
808.9093284928958
 20
338.6600811273148
 30
0.0
  0
VERTEX
  5
130
  8
6_06MM_ABS_OUTSIDE
 10
808.9093284928958
 20
358.6600811273144
 30
0.0
  0
VERTEX
  5
131
  8
6_06MM_ABS_OUTSIDE
 10
828.1093490747876
 20
358.6600811273144
 30
0.0
  0
VERTEX
  5
132
  8
6_06MM_ABS_OUTSIDE
 10
828.1093490747876
 20
364.7200811273148
 30
0.0
  0
VERTEX
  5
133
  8
6_06MM_ABS_OUTSIDE
 10
859.7093814599275
 20
364.7200811273148
 30
0.0
  0
VERTEX
  5
134
  8
6_06MM_ABS_OUTSIDE
 10
859.7093814599275
 20
358.6600811273144
 30
0.0
  0
VERTEX
  5
135
  8
6_06MM_ABS_OUTSIDE
 10
878.9094094557454
 20
358.6600811273144
 30
0.0
  0
VERTEX
  5
136
  8
6_06MM_ABS_OUTSIDE
 10
878.9094094557454
 20
338.6600811273148
 30
0.0
  0
VERTEX
  5
137
  8
6_06MM_ABS_OUTSIDE
 10
884.9694094557453
 20
338.6600811273148
 30
0.0
  0
VERTEX
  5
138
  8
6_06MM_ABS_OUTSIDE
 10
884.9694094557453
 20
318.6600508601242
 30
0.0
  0
VERTEX
  5
139
  8
6_06MM_ABS_OUTSIDE
 10
878.9094095633973
 20
318.6600508601242
 30
0.0
  0
VERTEX
  5
13A
  8
6_06MM_ABS_OUTSIDE
 10
878.9094095633973
 20
298.6601092780953
 30
0.0
  0
VERTEX
  5
13B
  8
6_06MM_ABS_OUTSIDE
 10
884.9694094557453
 20
298.6601092780953
 30
0.0
  0
VERTEX
  5
13C
  8
6_06MM_ABS_OUTSIDE
 10
884.9694094557453
 20
278.6600816543211
 30
0.0
  0
VERTEX
  5
13D
  8
6_06MM_ABS_OUTSIDE
 10
878.9094094557454
 20
278.6600816543211
 30
0.0
  0
VERTEX
  5
13E
  8
6_06MM_ABS_OUTSIDE
 10
878.9094094557454
 20
258.6600824448311
 30
0.0
  0
VERTEX
  5
13F
  8
6_06MM_ABS_OUTSIDE
 10
859.7093814599275
 20
258.6600824448311
 30
0.0
  0
SEQEND
  5
140
  8
6_06MM_ABS_OUTSIDE
  0
CIRCLE
  5
141
  8
SCREW_HOLES
 10
641.2597462300082
 20
517.209991147479
 30
0.0
 40
1.5
  0
CIRCLE
  5
142
  8
SCREW_HOLES
 10
775.0896807005864
 20
477.5149950894278
 30
0.0
 40
1.000000000000114
  0
CIRCLE
  5
143
  8
SCREW_HOLES
 10
738.4896894460443
 20
477.5149950894278
 30
0.0
 40
1.000000000000114
  0
CIRCLE
  5
144
  8
SCREW_HOLES
 10
504.029803013973
 20
477.514995089428
 30
0.0
 40
1.000000000000057
  0
CIRCLE
  5
145
  8
SCREW_HOLES
 10
467.4298117594299
 20
477.5149950894279
 30
0.0
 40
1.0
  0
CIRCLE
  5
146
  8
SCREW_HOLES
 10
601.2597462300083
 20
517.2099911474786
 30
0.0
 40
1.500000000000341
  0
POLYLINE
  5
147
  8
6_06MM_ABS_INSIDE
 66
     1
 10
0.0
 20
0.0
 30
0.0
 70
     1
  0
VERTEX
  5
148
  8
6_06MM_ABS_INSIDE
 10
795.9318102505986
 20
513.8253181261343
 30
0.0
  0
VERTEX
  5
149
  8
6_06MM_ABS_INSIDE
 10
795.9318102505986
 20
516.6537452508805
 30
0.0
  0
VERTEX
  5
14A
  8
6_06MM_ABS_INSIDE
 10
793.1033831258528
 20
519.4821723756266
 30
0.0
  0
VERTEX
  5
14B
  8
6_06MM_ABS_INSIDE
 10
790.2749560011061
 20
519.4821723756266
 30
0.0
  0
VERTEX
  5
14C
  8
6_06MM_ABS_INSIDE
 10
767.6475390031364
 20
496.8547553776571
 30
0.0
  0
VERTEX
  5
14D
  8
6_06MM_ABS_INSIDE
 10
767.6475390031364
 20
494.0263282529108
 30
0.0
  0
VERTEX
  5
14E
  8
6_06MM_ABS_INSIDE
 10
770.4759661278831
 20
491.1979011281649
 30
0.0
  0
VERTEX
  5
14F
  8
6_06MM_ABS_INSIDE
 10
773.3043932526289
 20
491.1979011281649
 30
0.0
  0
SEQEND
  5
150
  8
6_06MM_ABS_INSIDE
  0
POLYLINE
  5
151
  8
6_06MM_ABS_INSIDE
 66
     1
 10
0.0
 20
0.0
 30
0.0
 70
     1
  0
VERTEX
  5
152
  8
6_06MM_ABS_INSIDE
 10
723.3043910075239
 20
519.4821706492917
 30
0.0
  0
VERTEX
  5
153
  8
6_06MM_ABS_INSIDE
 10
720.4759638827773
 20
519.4821706492917
 30
0.0
  0
VERTEX
  5
154
  8
6_06MM_ABS_INSIDE
 10
717.6475367580315
 20
516.6537435245456
 30
0.0
  0
VERTEX
  5
155
  8
6_06MM_ABS_INSIDE
 10
717.6475367580315
 20
513.8253163997994
 30
0.0
  0
VERTEX
  5
156
  8
6_06MM_ABS_INSIDE
 10
740.2749537560012
 20
491.1978994018298
 30
0.0
  0
VERTEX
  5
157
  8
6_06MM_ABS_INSIDE
 10
743.103380880747
 20
491.1978994018298
 30
0.0
  0
VERTEX
  5
158
  8
6_06MM_ABS_INSIDE
 10
745.9318080054936
 20
494.026326526576
 30
0.0
  0
VERTEX
  5
159
  8
6_06MM_ABS_INSIDE
 10
745.9318080054936
 20
496.8547536513222
 30
0.0
  0
SEQEND
  5
15A
  8
6_06MM_ABS_INSIDE
  0
POLYLINE
  5
15B
  8
6_06MM_ABS_OUTSIDE
 66
     1
 10
0.0
 20
0.0
 30
0.0
 70
     1
  0
VERTEX
  5
15C
  8
6_06MM_ABS_OUTSIDE
 10
400.1998922749362
 20
480.3399951919998
 30
0.0
  0
VERTEX
  5
15D
  8
6_06MM_ABS_OUTSIDE
 10
400.1998922749362
 20
495.3399951919998
 30
0.0
  0
VERTEX
  5
15E
  8
6_06MM_ABS_OUTSIDE
 10
406.2598922749357
 20
495.3399951919998
 30
0.0
  0
VERTEX
  5
15F
  8
6_06MM_ABS_OUTSIDE
 10
406.2598922749357
 20
515.3400765854562
 30
0.0
  0
VERTEX
  5
160
  8
6_06MM_ABS_OUTSIDE
 10
400.1998922749362
 20
515.3400765854562
 30
0.0
  0
VERTEX
  5
161
  8
6_06MM_ABS_OUTSIDE
 10
400.1998922749362
 20
530.3400765854561
 30
0.0
  0
VERTEX
  5
162
  8
6_06MM_ABS_OUTSIDE
 10
406.2598922749357
 20
530.3400765854561
 30
0.0
  0
VERTEX
  5
163
  8
6_06MM_ABS_OUTSIDE
 10
406.2598922749357
 20
540.3400765854562
 30
0.0
  0
VERTEX
  5
164
  8
6_06MM_ABS_OUTSIDE
 10
455.7298484614576
 20
540.3400798733319
 30
0.0
  0
VERTEX
  5
165
  8
6_06MM_ABS_OUTSIDE
 10
455.7298484614576
 20
546.4000824448314
 30
0.0
  0
VERTEX
  5
166
  8
6_06MM_ABS_OUTSIDE
 10
515.7297900434869
 20
546.4000824448314
 30
0.0
  0
VERTEX
  5
167
  8
6_06MM_ABS_OUTSIDE
 10
515.7297900434869
 20
540.340080350916
 30
0.0
  0
VERTEX
  5
168
  8
6_06MM_ABS_OUTSIDE
 10
591.2597464080709
 20
540.3400795151438
 30
0.0
  0
VERTEX
  5
169
  8
6_06MM_ABS_OUTSIDE
 10
591.2597464080709
 20
546.4000824448314
 30
0.0
  0
VERTEX
  5
16A
  8
6_06MM_ABS_OUTSIDE
 10
651.2597466454863
 20
546.4000824448314
 30
0.0
  0
VERTEX
  5
16B
  8
6_06MM_ABS_OUTSIDE
 10
651.2597466454863
 20
540.3400795151438
 30
0.0
  0
VERTEX
  5
16C
  8
6_06MM_ABS_OUTSIDE
 10
726.7897025945922
 20
540.340080350916
 30
0.0
  0
VERTEX
  5
16D
  8
6_06MM_ABS_OUTSIDE
 10
726.7897025945922
 20
546.4000824448314
 30
0.0
  0
VERTEX
  5
16E
  8
6_06MM_ABS_OUTSIDE
 10
786.789644414037
 20
546.4000824448314
 30
0.0
  0
VERTEX
  5
16F
  8
6_06MM_ABS_OUTSIDE
 10
786.789644414037
 20
540.3400798733319
 30
0.0
  0
VERTEX
  5
170
  8
6_06MM_ABS_OUTSIDE
 10
836.2596007786206
 20
540.3400765854562
 30
0.0
  0
VERTEX
  5
171
  8
6_06MM_ABS_OUTSIDE
 10
836.2596007786206
 20
530.3400765854561
 30
0.0
  0
VERTEX
  5
172
  8
6_06MM_ABS_OUTSIDE
 10
842.319600778621
 20
530.3400765854561
 30
0.0
  0
VERTEX
  5
173
  8
6_06MM_ABS_OUTSIDE
 10
842.319600778621
 20
515.3400765854562
 30
0.0
  0
VERTEX
  5
174
  8
6_06MM_ABS_OUTSIDE
 10
836.2596007786206
 20
515.3400765854562
 30
0.0
  0
VERTEX
  5
175
  8
6_06MM_ABS_OUTSIDE
 10
836.2596007786206
 20
495.3399951919998
 30
0.0
  0
VERTEX
  5
176
  8
6_06MM_ABS_OUTSIDE
 10
842.319600778621
 20
495.3399951919998
 30
0.0
  0
VERTEX
  5
177
  8
6_06MM_ABS_OUTSIDE
 10
842.319600778621
 20
480.3399951919998
 30
0.0
  0
VERTEX
  5
178
  8
6_06MM_ABS_OUTSIDE
 10
836.2596007786206
 20
480.3399951919998
 30
0.0
  0
VERTEX
  5
179
  8
6_06MM_ABS_OUTSIDE
 10
836.2596007786206
 20
470.3399951919998
 30
0.0
  0
VERTEX
  5
17A
  8
6_06MM_ABS_OUTSIDE
 10
677.3197462300086
 20
470.3399951919998
 30
0.0
  0
VERTEX
  5
17B
  8
6_06MM_ABS_OUTSIDE
 10
677.3197462300086
 20
505.3399951919998
 30
0.0
  0
VERTEX
  5
17C
  8
6_06MM_ABS_OUTSIDE
 10
671.2597462300082
 20
505.3399951919998
 30
0.0
  0
VERTEX
  5
17D
  8
6_06MM_ABS_OUTSIDE
 10
671.2597462300082
 20
470.3399951919997
 30
0.0
  0
VERTEX
  5
17E
  8
6_06MM_ABS_OUTSIDE
 10
651.2597457030024
 20
470.3399951919998
 30
0.0
  0
VERTEX
  5
17F
  8
6_06MM_ABS_OUTSIDE
 10
651.2597457030024
 20
464.2799951919998
 30
0.0
  0
VERTEX
  5
180
  8
6_06MM_ABS_OUTSIDE
 10
631.2597457030024
 20
464.2799951919998
 30
0.0
  0
VERTEX
  5
181
  8
6_06MM_ABS_OUTSIDE
 10
631.2597457030024
 20
470.3399951919998
 30
0.0
  0
VERTEX
  5
182
  8
6_06MM_ABS_OUTSIDE
 10
611.2597467570149
 20
470.3399951919998
 30
0.0
  0
VERTEX
  5
183
  8
6_06MM_ABS_OUTSIDE
 10
611.2597467570149
 20
464.2799951919998
 30
0.0
  0
VERTEX
  5
184
  8
6_06MM_ABS_OUTSIDE
 10
591.2597467570149
 20
464.2799951919999
 30
0.0
  0
VERTEX
  5
185
  8
6_06MM_ABS_OUTSIDE
 10
591.2597467570149
 20
470.3399951919998
 30
0.0
  0
VERTEX
  5
186
  8
6_06MM_ABS_OUTSIDE
 10
571.2597462300082
 20
470.3399951919998
 30
0.0
  0
VERTEX
  5
187
  8
6_06MM_ABS_OUTSIDE
 10
571.2597462300082
 20
505.3399951919998
 30
0.0
  0
VERTEX
  5
188
  8
6_06MM_ABS_OUTSIDE
 10
565.1997462300087
 20
505.3399951919998
 30
0.0
  0
VERTEX
  5
189
  8
6_06MM_ABS_OUTSIDE
 10
565.1997462300087
 20
470.3399951919998
 30
0.0
  0
VERTEX
  5
18A
  8
6_06MM_ABS_OUTSIDE
 10
406.2598922749357
 20
470.3399951919998
 30
0.0
  0
VERTEX
  5
18B
  8
6_06MM_ABS_OUTSIDE
 10
406.2598922749357
 20
480.3399951919998
 30
0.0
  0
SEQEND
  5
18C
  8
6_06MM_ABS_OUTSIDE
  0
POLYLINE
  5
18D
  8
6_06MM_ABS_INSIDE
 66
     1
 10
0.0
 20
0.0
 30
0.0
 70
     1
  0
VERTEX
  5
18E
  8
6_06MM_ABS_INSIDE
 10
452.2445367556811
 20
519.4821706492917
 30
0.0
  0
VERTEX
  5
18F
  8
6_06MM_ABS_INSIDE
 10
449.4161096309354
 20
519.4821706492917
 30
0.0
  0
VERTEX
  5
190
  8
6_06MM_ABS_INSIDE
 10
446.5876825061887
 20
516.6537435245456
 30
0.0
  0
VERTEX
  5
191
  8
6_06MM_ABS_INSIDE
 10
446.5876825061887
 20
513.8253163997994
 30
0.0
  0
VERTEX
  5
192
  8
6_06MM_ABS_INSIDE
 10
469.2150995041584
 20
491.1978994018298
 30
0.0
  0
VERTEX
  5
193
  8
6_06MM_ABS_INSIDE
 10
472.0435266289051
 20
491.1978994018298
 30
0.0
  0
VERTEX
  5
194
  8
6_06MM_ABS_INSIDE
 10
474.8719537536508
 20
494.026326526576
 30
0.0
  0
VERTEX
  5
195
  8
6_06MM_ABS_INSIDE
 10
474.8719537536508
 20
496.8547536513222
 30
0.0
  0
SEQEND
  5
196
  8
6_06MM_ABS_INSIDE
  0
POLYLINE
  5
197
  8
6_06MM_ABS_INSIDE
 66
     1
 10
0.0
 20
0.0
 30
0.0
 70
     1
  0
VERTEX
  5
198
  8
6_06MM_ABS_INSIDE
 10
524.8719559987558
 20
513.8253181261343
 30
0.0
  0
VERTEX
  5
199
  8
6_06MM_ABS_INSIDE
 10
524.8719559987558
 20
516.6537452508805
 30
0.0
  0
VERTEX
  5
19A
  8
6_06MM_ABS_INSIDE
 10
522.04352887401
 20
519.4821723756266
 30
0.0
  0
VERTEX
  5
19B
  8
6_06MM_ABS_INSIDE
 10
519.2151017492633
 20
519.4821723756266
 30
0.0
  0
VERTEX
  5
19C
  8
6_06MM_ABS_INSIDE
 10
496.5876847512945
 20
496.8547553776571
 30
0.0
  0
VERTEX
  5
19D
  8
6_06MM_ABS_INSIDE
 10
496.5876847512945
 20
494.0263282529108
 30
0.0
  0
VERTEX
  5
19E
  8
6_06MM_ABS_INSIDE
 10
499.4161118760403
 20
491.1979011281649
 30
0.0
  0
VERTEX
  5
19F
  8
6_06MM_ABS_INSIDE
 10
502.2445390007861
 20
491.1979011281649
 30
0.0
  0
SEQEND
  5
1A0
  8
6_06MM_ABS_INSIDE
  0
POLYLINE
  5
1A1
  8
6_06MM_ABS_INSIDE
 66
     1
 10
0.0
 20
0.0
 30
0.0
 70
     1
  0
VERTEX
  5
1A2
  8
6_06MM_ABS_INSIDE
 10
606.2597462300082
 20
497.2599931697393
 30
0.0
  0
VERTEX
  5
1A3
  8
6_06MM_ABS_INSIDE
 10
606.2597462300087
 20
492.2599931697395
 30
0.0
 42
0.4142132661045174
  0
VERTEX
  5
1A4
  8
6_06MM_ABS_INSIDE
 10
611.2597462300081
 20
487.2599931697392
 30
0.0
  0
VERTEX
  5
1A5
  8
6_06MM_ABS_INSIDE
 10
631.2597462300085
 20
487.2599931697393
 30
0.0
 42
0.4142133648607744
  0
VERTEX
  5
1A6
  8
6_06MM_ABS_INSIDE
 10
636.2597462300081
 20
492.2599931697393
 30
0.0
  0
VERTEX
  5
1A7
  8
6_06MM_ABS_INSIDE
 10
636.2597462300081
 20
497.2599931697395
 30
0.0
 42
0.4142133648607851
  0
VERTEX
  5
1A8
  8
6_06MM_ABS_INSIDE
 10
631.2597462300082
 20
502.2599931697393
 30
0.0
  0
VERTEX
  5
1A9
  8
6_06MM_ABS_INSIDE
 10
611.2597462300085
 20
502.2599931697395
 30
0.0
 42
0.4142130685922545
  0
SEQEND
  5
1AA
  8
6_06MM_ABS_INSIDE
  0
POLYLINE
  5
1AB
  8
6_06MM_ABS_INSIDE
 66
     1
 10
0.0
 20
0.0
 30
0.0
 70
     1
  0
VERTEX
  5
1AC
  8
6_06MM_ABS_INSIDE
 10
641.2597466454872
 20
407.9999799348248
 30
0.0
  0
VERTEX
  5
1AD
  8
6_06MM_ABS_INSIDE
 10
641.2597466454872
 20
417.9999828645126
 30
0.0
 42
0.4142132661045864
  0
VERTEX
  5
1AE
  8
6_06MM_ABS_INSIDE
 10
631.2597466454871
 20
427.9999828645121
 30
0.0
  0
VERTEX
  5
1AF
  8
6_06MM_ABS_INSIDE
 10
611.2597464080717
 20
427.9999828645123
 30
0.0
 42
0.4142134636169202
  0
VERTEX
  5
1B0
  8
6_06MM_ABS_INSIDE
 10
601.2597464080718
 20
417.9999828645126
 30
0.0
  0
VERTEX
  5
1B1
  8
6_06MM_ABS_INSIDE
 10
601.2597464080718
 20
407.9999799348248
 30
0.0
 42
0.4142133648607927
  0
VERTEX
  5
1B2
  8
6_06MM_ABS_INSIDE
 10
611.2597464080715
 20
397.9999799348249
 30
0.0
  0
VERTEX
  5
1B3
  8
6_06MM_ABS_INSIDE
 10
631.2597466454873
 20
397.9999799348246
 30
0.0
 42
0.4142134636169054
  0
SEQEND
  5
1B4
  8
6_06MM_ABS_INSIDE
  0
POLYLINE
  5
1B5
  8
6_06MM_ABS_OUTSIDE
 66
     1
 10
0.0
 20
0.0
 30
0.0
 70
     1
  0
VERTEX
  5
1B6
  8
6_06MM_ABS_OUTSIDE
 10
651.2597462300096
 20
377.9999807469708
 30
0.0
  0
VERTEX
  5
1B7
  8
6_06MM_ABS_OUTSIDE
 10
651.2597462300096
 20
371.9399807469708
 30
0.0
  0
VERTEX
  5
1B8
  8
6_06MM_ABS_OUTSIDE
 10
631.2597159628194
 20
371.9399807469708
 30
0.0
  0
VERTEX
  5
1B9
  8
6_06MM_ABS_OUTSIDE
 10
631.2597159628194
 20
377.9999807469707
 30
0.0
  0
VERTEX
  5
1BA
  8
6_06MM_ABS_OUTSIDE
 10
611.2597743807901
 20
377.9999807469707
 30
0.0
  0
VERTEX
  5
1BB
  8
6_06MM_ABS_OUTSIDE
 10
611.2597743807901
 20
371.9399807469708
 30
0.0
  0
VERTEX
  5
1BC
  8
6_06MM_ABS_OUTSIDE
 10
591.2597462300096
 20
371.9399807469708
 30
0.0
  0
VERTEX
  5
1BD
  8
6_06MM_ABS_OUTSIDE
 10
591.2597462300096
 20
377.9999807469708
 30
0.0
  0
VERTEX
  5
1BE
  8
6_06MM_ABS_OUTSIDE
 10
571.2597462300096
 20
377.9999807469708
 30
0.0
  0
VERTEX
  5
1BF
  8
6_06MM_ABS_OUTSIDE
 10
571.2597462300096
 20
412.9999807469708
 30
0.0
  0
VERTEX
  5
1C0
  8
6_06MM_ABS_OUTSIDE
 10
565.1997462300096
 20
412.9999807469708
 30
0.0
  0
VERTEX
  5
1C1
  8
6_06MM_ABS_OUTSIDE
 10
565.1997462300096
 20
377.9999807469708
 30
0.0
  0
VERTEX
  5
1C2
  8
6_06MM_ABS_OUTSIDE
 10
406.2598922749371
 20
377.9999807469708
 30
0.0
  0
VERTEX
  5
1C3
  8
6_06MM_ABS_OUTSIDE
 10
406.2598922749371
 20
387.9999807469708
 30
0.0
  0
VERTEX
  5
1C4
  8
6_06MM_ABS_OUTSIDE
 10
400.1998922749372
 20
387.9999807469708
 30
0.0
  0
VERTEX
  5
1C5
  8
6_06MM_ABS_OUTSIDE
 10
400.1998922749372
 20
402.9999807469708
 30
0.0
  0
VERTEX
  5
1C6
  8
6_06MM_ABS_OUTSIDE
 10
406.2598922749371
 20
402.9999807469708
 30
0.0
  0
VERTEX
  5
1C7
  8
6_06MM_ABS_OUTSIDE
 10
406.2598922749371
 20
423.0000621404272
 30
0.0
  0
VERTEX
  5
1C8
  8
6_06MM_ABS_OUTSIDE
 10
400.1998922749372
 20
423.0000621404272
 30
0.0
  0
VERTEX
  5
1C9
  8
6_06MM_ABS_OUTSIDE
 10
400.1998922749372
 20
438.0000621404272
 30
0.0
  0
VERTEX
  5
1CA
  8
6_06MM_ABS_OUTSIDE
 10
406.2598922749371
 20
438.0000621404272
 30
0.0
  0
VERTEX
  5
1CB
  8
6_06MM_ABS_OUTSIDE
 10
406.2598922749371
 20
448.0000621404272
 30
0.0
  0
VERTEX
  5
1CC
  8
6_06MM_ABS_OUTSIDE
 10
455.7298484614589
 20
448.0000654283028
 30
0.0
  0
VERTEX
  5
1CD
  8
6_06MM_ABS_OUTSIDE
 10
455.7298484614589
 20
454.0600679998023
 30
0.0
  0
VERTEX
  5
1CE
  8
6_06MM_ABS_OUTSIDE
 10
475.7298484614589
 20
454.0600679998024
 30
0.0
  0
VERTEX
  5
1CF
  8
6_06MM_ABS_OUTSIDE
 10
475.7298484614589
 20
448.00006679365
 30
0.0
  0
VERTEX
  5
1D0
  8
6_06MM_ABS_OUTSIDE
 10
495.7297900434878
 20
448.0000668732472
 30
0.0
  0
VERTEX
  5
1D1
  8
6_06MM_ABS_OUTSIDE
 10
495.7297900434878
 20
454.0600679998023
 30
0.0
  0
VERTEX
  5
1D2
  8
6_06MM_ABS_OUTSIDE
 10
515.7297900434878
 20
454.0600679998023
 30
0.0
  0
VERTEX
  5
1D3
  8
6_06MM_ABS_OUTSIDE
 10
515.7297900434878
 20
448.0000659058869
 30
0.0
  0
VERTEX
  5
1D4
  8
6_06MM_ABS_OUTSIDE
 10
591.2597464080718
 20
448.0000650701147
 30
0.0
  0
VERTEX
  5
1D5
  8
6_06MM_ABS_OUTSIDE
 10
591.2597464080718
 20
454.0600679998023
 30
0.0
  0
VERTEX
  5
1D6
  8
6_06MM_ABS_OUTSIDE
 10
611.2597743807901
 20
454.0600679998024
 30
0.0
  0
VERTEX
  5
1D7
  8
6_06MM_ABS_OUTSIDE
 10
611.2597743807901
 20
448.0000665349585
 30
0.0
  0
VERTEX
  5
1D8
  8
6_06MM_ABS_OUTSIDE
 10
631.2597159628194
 20
448.0000665349585
 30
0.0
  0
VERTEX
  5
1D9
  8
6_06MM_ABS_OUTSIDE
 10
631.2597159628194
 20
454.0600679998023
 30
0.0
  0
VERTEX
  5
1DA
  8
6_06MM_ABS_OUTSIDE
 10
651.2597466454877
 20
454.0600679998023
 30
0.0
  0
VERTEX
  5
1DB
  8
6_06MM_ABS_OUTSIDE
 10
651.2597466454877
 20
448.0000650701147
 30
0.0
  0
VERTEX
  5
1DC
  8
6_06MM_ABS_OUTSIDE
 10
726.7897025945931
 20
448.0000659058869
 30
0.0
  0
VERTEX
  5
1DD
  8
6_06MM_ABS_OUTSIDE
 10
726.7897025945936
 20
454.0600679998023
 30
0.0
  0
VERTEX
  5
1DE
  8
6_06MM_ABS_OUTSIDE
 10
746.7897020358141
 20
454.0600679998024
 30
0.0
  0
VERTEX
  5
1DF
  8
6_06MM_ABS_OUTSIDE
 10
746.7897020358141
 20
448.0000668732473
 30
0.0
  0
VERTEX
  5
1E0
  8
6_06MM_ABS_OUTSIDE
 10
766.789643617843
 20
448.00006679365
 30
0.0
  0
VERTEX
  5
1E1
  8
6_06MM_ABS_OUTSIDE
 10
766.789643617843
 20
454.0600679998023
 30
0.0
  0
VERTEX
  5
1E2
  8
6_06MM_ABS_OUTSIDE
 10
786.7896444140383
 20
454.0600679998023
 30
0.0
  0
VERTEX
  5
1E3
  8
6_06MM_ABS_OUTSIDE
 10
786.7896444140383
 20
448.0000654283028
 30
0.0
  0
VERTEX
  5
1E4
  8
6_06MM_ABS_OUTSIDE
 10
836.2596007786219
 20
448.0000621404272
 30
0.0
  0
VERTEX
  5
1E5
  8
6_06MM_ABS_OUTSIDE
 10
836.2596007786219
 20
438.0000621404272
 30
0.0
  0
VERTEX
  5
1E6
  8
6_06MM_ABS_OUTSIDE
 10
842.3196007786219
 20
438.0000621404272
 30
0.0
  0
VERTEX
  5
1E7
  8
6_06MM_ABS_OUTSIDE
 10
842.3196007786219
 20
423.0000621404272
 30
0.0
  0
VERTEX
  5
1E8
  8
6_06MM_ABS_OUTSIDE
 10
836.2596007786219
 20
423.0000621404272
 30
0.0
  0
VERTEX
  5
1E9
  8
6_06MM_ABS_OUTSIDE
 10
836.2596007786219
 20
402.9999807469708
 30
0.0
  0
VERTEX
  5
1EA
  8
6_06MM_ABS_OUTSIDE
 10
842.3196007786219
 20
402.9999807469708
 30
0.0
  0
VERTEX
  5
1EB
  8
6_06MM_ABS_OUTSIDE
 10
842.3196007786219
 20
387.9999807469708
 30
0.0
  0
VERTEX
  5
1EC
  8
6_06MM_ABS_OUTSIDE
 10
836.2596007786219
 20
387.9999807469708
 30
0.0
  0
VERTEX
  5
1ED
  8
6_06MM_ABS_OUTSIDE
 10
836.2596007786219
 20
377.9999807469708
 30
0.0
  0
VERTEX
  5
1EE
  8
6_06MM_ABS_OUTSIDE
 10
677.3197462300095
 20
377.9999807469708
 30
0.0
  0
VERTEX
  5
1EF
  8
6_06MM_ABS_OUTSIDE
 10
677.3197462300095
 20
412.9999807469708
 30
0.0
  0
VERTEX
  5
1F0
  8
6_06MM_ABS_OUTSIDE
 10
671.2597462300096
 20
412.9999807469708
 30
0.0
  0
VERTEX
  5
1F1
  8
6_06MM_ABS_OUTSIDE
 10
671.2597462300096
 20
377.9999807469708
 30
0.0
  0
SEQEND
  5
1F2
  8
6_06MM_ABS_OUTSIDE
  0
POLYLINE
  5
1F3
  8
6_06MM_ABS_OUTSIDE
 66
     1
 10
0.0
 20
0.0
 30
0.0
 70
     1
  0
VERTEX
  5
1F4
  8
6_06MM_ABS_OUTSIDE
 10
894.7398935169481
 20
518.4004159807876
 30
0.0
  0
VERTEX
  5
1F5
  8
6_06MM_ABS_OUTSIDE
 10
894.7398935169481
 20
548.4000824448315
 30
0.0
  0
VERTEX
  5
1F6
  8
6_06MM_ABS_OUTSIDE
 10
924.7398928959428
 20
548.4000824448315
 30
0.0
  0
VERTEX
  5
1F7
  8
6_06MM_ABS_OUTSIDE
 10
964.7398928959428
 20
548.4000824448315
 30
0.0
  0
VERTEX
  5
1F8
  8
6_06MM_ABS_OUTSIDE
 10
994.7398922749376
 20
548.4000824448315
 30
0.0
  0
VERTEX
  5
1F9
  8
6_06MM_ABS_OUTSIDE
 10
994.7398922749376
 20
518.4004159807876
 30
0.0
  0
VERTEX
  5
1FA
  8
6_06MM_ABS_OUTSIDE
 10
1000.799892274938
 20
518.4004159807877
 30
0.0
  0
VERTEX
  5
1FB
  8
6_06MM_ABS_OUTSIDE
 10
1000.799892274938
 20
498.4004159807877
 30
0.0
  0
VERTEX
  5
1FC
  8
6_06MM_ABS_OUTSIDE
 10
994.7398922749376
 20
498.4004159807877
 30
0.0
  0
VERTEX
  5
1FD
  8
6_06MM_ABS_OUTSIDE
 10
994.7398922749376
 20
478.4005286782609
 30
0.0
  0
VERTEX
  5
1FE
  8
6_06MM_ABS_OUTSIDE
 10
1000.799892274938
 20
478.4005286782609
 30
0.0
  0
VERTEX
  5
1FF
  8
6_06MM_ABS_OUTSIDE
 10
1000.799892274938
 20
458.4005286782609
 30
0.0
  0
VERTEX
  5
200
  8
6_06MM_ABS_OUTSIDE
 10
994.7398922749376
 20
458.4005286782609
 30
0.0
  0
VERTEX
  5
201
  8
6_06MM_ABS_OUTSIDE
 10
994.7398922749376
 20
434.4608641885148
 30
0.0
  0
VERTEX
  5
202
  8
6_06MM_ABS_OUTSIDE
 10
974.7398922749376
 20
434.4608641885148
 30
0.0
  0
VERTEX
  5
203
  8
6_06MM_ABS_OUTSIDE
 10
974.7398922749376
 20
428.4008641885149
 30
0.0
  0
VERTEX
  5
204
  8
6_06MM_ABS_OUTSIDE
 10
914.7398935169481
 20
428.4008641885149
 30
0.0
  0
VERTEX
  5
205
  8
6_06MM_ABS_OUTSIDE
 10
914.7398935169481
 20
434.4608641885148
 30
0.0
  0
VERTEX
  5
206
  8
6_06MM_ABS_OUTSIDE
 10
894.7398935169481
 20
434.4608641885148
 30
0.0
  0
VERTEX
  5
207
  8
6_06MM_ABS_OUTSIDE
 10
894.7398935169481
 20
458.4005286782609
 30
0.0
  0
VERTEX
  5
208
  8
6_06MM_ABS_OUTSIDE
 10
888.6798935169477
 20
458.4005286782609
 30
0.0
  0
VERTEX
  5
209
  8
6_06MM_ABS_OUTSIDE
 10
888.6798935169477
 20
478.4005286782609
 30
0.0
  0
VERTEX
  5
20A
  8
6_06MM_ABS_OUTSIDE
 10
894.7398935169481
 20
478.4005286782609
 30
0.0
  0
VERTEX
  5
20B
  8
6_06MM_ABS_OUTSIDE
 10
894.7398935169481
 20
498.4004159807877
 30
0.0
  0
VERTEX
  5
20C
  8
6_06MM_ABS_OUTSIDE
 10
888.6798935169477
 20
498.4004159807877
 30
0.0
  0
VERTEX
  5
20D
  8
6_06MM_ABS_OUTSIDE
 10
888.6798935169477
 20
518.4004159807877
 30
0.0
  0
SEQEND
  5
20E
  8
6_06MM_ABS_OUTSIDE
  0
CIRCLE
  5
20F
  8
SCREW_HOLES
 10
932.8336428959428
 20
461.4129723295242
 30
0.0
 40
1.5
  0
CIRCLE
  5
210
  8
SCREW_HOLES
 10
956.6461428959428
 20
461.4129723295242
 30
0.0
 40
1.5
  0
CIRCLE
  5
211
  8
SCREW_HOLES
 10
932.8336428959428
 20
515.3879723295242
 30
0.0
 40
1.5
  0
CIRCLE
  5
212
  8
SCREW_HOLES
 10
956.6461428959428
 20
515.3879723295242
 30
0.0
 40
1.5
  0
POLYLINE
  5
214
  8
BOUNDARIES
 66
     1
 10
0.0
 20
0.0
 30
0.0
 70
     1
  0
VERTEX
  5
215
  8
BOUNDARIES
 10
1004.799892274937
 20
247.6000824448312
 30
0.0
  0
VERTEX
  5
216
  8
BOUNDARIES
 10
1004.799892274937
 20
552.4000824448312
 30
0.0
  0
VERTEX
  5
217
  8
BOUNDARIES
 10
395.1998922749367
 20
552.4000824448312
 30
0.0
  0
VERTEX
  5
218
  8
BOUNDARIES
 10
395.1998922749367
 20
247.6000824448312
 30
0.0
  0
SEQEND
  5
219
  8
BOUNDARIES
  0
ENDSEC
  0
EOF
