  0
SECTION
  2
HEADER
  9
$ACADVER
  1
AC1009
  9
$DWGCODEPAGE
  3
ansi_1252
  9
$INSBASE
 10
0.0
 20
0.0
 30
0.0
  9
$EXTMIN
 10
-304.8000461004892
 20
-552.400130267831
 30
0.0
  9
$EXTMAX
 10
304.7999538995107
 20
-247.6001302678308
 30
0.0
  9
$LIMMIN
 10
0.0
 20
0.0
  9
$LIMMAX
 10
12.0
 20
9.0
  9
$ORTHOMODE
 70
     0
  9
$REGENMODE
 70
     1
  9
$FILLMODE
 70
     1
  9
$QTEXTMODE
 70
     0
  9
$MIRRTEXT
 70
     1
  9
$DRAGMODE
 70
     2
  9
$LTSCALE
 40
1.0
  9
$OSMODE
 70
    37
  9
$ATTMODE
 70
     1
  9
$TEXTSIZE
 40
0.2
  9
$TRACEWID
 40
0.05
  9
$TEXTSTYLE
  7
STANDARD
  9
$CLAYER
  8
0
  9
$CELTYPE
  6
BYLAYER
  9
$CECOLOR
 62
   256
  9
$DIMSCALE
 40
1.0
  9
$DIMASZ
 40
0.18
  9
$DIMEXO
 40
0.0625
  9
$DIMDLI
 40
0.38
  9
$DIMRND
 40
0.0
  9
$DIMDLE
 40
0.0
  9
$DIMEXE
 40
0.18
  9
$DIMTP
 40
0.0
  9
$DIMTM
 40
0.0
  9
$DIMTXT
 40
0.18
  9
$DIMCEN
 40
0.09
  9
$DIMTSZ
 40
0.0
  9
$DIMTOL
 70
     0
  9
$DIMLIM
 70
     0
  9
$DIMTIH
 70
     1
  9
$DIMTOH
 70
     1
  9
$DIMSE1
 70
     0
  9
$DIMSE2
 70
     0
  9
$DIMTAD
 70
     0
  9
$DIMZIN
 70
     0
  9
$DIMBLK
  1

  9
$DIMASO
 70
     1
  9
$DIMSHO
 70
     1
  9
$DIMPOST
  1

  9
$DIMAPOST
  1

  9
$DIMALT
 70
     0
  9
$DIMALTD
 70
     2
  9
$DIMALTF
 40
25.4
  9
$DIMLFAC
 40
1.0
  9
$DIMTOFL
 70
     0
  9
$DIMTVP
 40
0.0
  9
$DIMTIX
 70
     0
  9
$DIMSOXD
 70
     0
  9
$DIMSAH
 70
     0
  9
$DIMBLK1
  1

  9
$DIMBLK2
  1

  9
$DIMSTYLE
  2
STANDARD
  9
$DIMCLRD
 70
     0
  9
$DIMCLRE
 70
     0
  9
$DIMCLRT
 70
     0
  9
$DIMTFAC
 40
1.0
  9
$DIMGAP
 40
0.09
  9
$LUNITS
 70
     2
  9
$LUPREC
 70
     3
  9
$SKETCHINC
 40
0.1
  9
$FILLETRAD
 40
0.5
  9
$AUNITS
 70
     0
  9
$AUPREC
 70
     0
  9
$MENU
  1
.
  9
$ELEVATION
 40
0.0
  9
$PELEVATION
 40
0.0
  9
$THICKNESS
 40
0.0
  9
$LIMCHECK
 70
     0
  9
$CHAMFERA
 40
0.0
  9
$CHAMFERB
 40
0.0
  9
$SKPOLY
 70
     0
  9
$TDCREATE
 40
2457280.46652853
  9
$TDUPDATE
 40
2457280.466540104
  9
$TDINDWG
 40
0.0000000116
  9
$TDUSRTIMER
 40
0.0000000116
  9
$USRTIMER
 70
     1
  9
$ANGBASE
 50
0.0
  9
$ANGDIR
 70
     0
  9
$PDMODE
 70
     0
  9
$PDSIZE
 40
0.0
  9
$PLINEWID
 40
0.0
  9
$COORDS
 70
     1
  9
$SPLFRAME
 70
     0
  9
$SPLINETYPE
 70
     6
  9
$SPLINESEGS
 70
     8
  9
$ATTDIA
 70
     0
  9
$ATTREQ
 70
     1
  9
$HANDLING
 70
     1
  9
$HANDSEED
  5
1A9
  9
$SURFTAB1
 70
     6
  9
$SURFTAB2
 70
     6
  9
$SURFTYPE
 70
     6
  9
$SURFU
 70
     6
  9
$SURFV
 70
     6
  9
$UCSNAME
  2

  9
$UCSORG
 10
0.0
 20
0.0
 30
0.0
  9
$UCSXDIR
 10
1.0
 20
0.0
 30
0.0
  9
$UCSYDIR
 10
0.0
 20
1.0
 30
0.0
  9
$PUCSNAME
  2

  9
$PUCSORG
 10
0.0
 20
0.0
 30
0.0
  9
$PUCSXDIR
 10
1.0
 20
0.0
 30
0.0
  9
$PUCSYDIR
 10
0.0
 20
1.0
 30
0.0
  9
$USERI1
 70
     0
  9
$USERI2
 70
     0
  9
$USERI3
 70
     0
  9
$USERI4
 70
     0
  9
$USERI5
 70
     0
  9
$USERR1
 40
0.0
  9
$USERR2
 40
0.0
  9
$USERR3
 40
0.0
  9
$USERR4
 40
0.0
  9
$USERR5
 40
0.0
  9
$WORLDVIEW
 70
     1
  9
$SHADEDGE
 70
     3
  9
$SHADEDIF
 70
    70
  9
$TILEMODE
 70
     1
  9
$MAXACTVP
 70
    64
  9
$PLIMCHECK
 70
     0
  9
$PEXTMIN
 10
1.000000000000000E+20
 20
1.000000000000000E+20
 30
1.000000000000000E+20
  9
$PEXTMAX
 10
-1.000000000000000E+20
 20
-1.000000000000000E+20
 30
-1.000000000000000E+20
  9
$PLIMMIN
 10
0.0
 20
0.0
  9
$PLIMMAX
 10
12.0
 20
9.0
  9
$UNITMODE
 70
     0
  9
$VISRETAIN
 70
     1
  9
$PLINEGEN
 70
     0
  9
$PSLTSCALE
 70
     1
  0
ENDSEC
  0
SECTION
  2
TABLES
  0
TABLE
  2
VPORT
 70
     1
  0
VPORT
  2
*ACTIVE
 70
     0
 10
0.0
 20
0.0
 11
1.0
 21
1.0
 12
-0.0000461004892713
 22
-400.0001302678309
 13
0.0
 23
0.0
 14
0.5
 24
0.5
 15
0.5
 25
0.5
 16
0.0
 26
0.0
 36
1.0
 17
0.0
 27
0.0
 37
0.0
 40
310.8960000000002
 41
1.999999999999998
 42
50.0
 43
0.0
 44
0.0
 50
0.0
 51
0.0
 71
     0
 72
   100
 73
     1
 74
     3
 75
     0
 76
     0
 77
     0
 78
     0
  0
ENDTAB
  0
TABLE
  2
LTYPE
 70
     1
  0
LTYPE
  2
CONTINUOUS
 70
     0
  3
Solid line
 72
    65
 73
     0
 40
0.0
  0
ENDTAB
  0
TABLE
  2
LAYER
 70
     5
  0
LAYER
  2
0
 70
     0
 62
     7
  6
CONTINUOUS
  0
LAYER
  2
SCREW_HOLES
 70
     0
 62
     7
  6
CONTINUOUS
  0
LAYER
  2
6_06MM_ABS_INSIDE
 70
     0
 62
    15
  6
CONTINUOUS
  0
LAYER
  2
6_06MM_ABS_OUTSIDE
 70
     0
 62
     1
  6
CONTINUOUS
  0
LAYER
  2
BOUNDARIES
 70
     0
 62
     7
  6
CONTINUOUS
  0
ENDTAB
  0
TABLE
  2
STYLE
 70
     1
  0
STYLE
  2
STANDARD
 70
     0
 40
0.0
 41
1.0
 50
0.0
 71
     0
 42
0.2
  3
txt
  4

  0
ENDTAB
  0
TABLE
  2
VIEW
 70
     0
  0
ENDTAB
  0
TABLE
  2
UCS
 70
     0
  0
ENDTAB
  0
TABLE
  2
APPID
 70
     1
  0
APPID
  2
ACAD
 70
     0
  0
ENDTAB
  0
TABLE
  2
DIMSTYLE
 70
     1
  0
DIMSTYLE
  2
STANDARD
 70
     0
  3

  4

  5

  6

  7

 40
1.0
 41
0.18
 42
0.0625
 43
0.38
 44
0.18
 45
0.0
 46
0.0
 47
0.0
 48
0.0
140
0.18
141
0.09
142
0.0
143
25.4
144
1.0
145
0.0
146
1.0
147
0.09
 71
     0
 72
     0
 73
     1
 74
     1
 75
     0
 76
     0
 77
     0
 78
     0
170
     0
171
     2
172
     0
173
     0
174
     0
175
     0
176
     0
177
     0
178
     0
  0
ENDTAB
  0
ENDSEC
  0
SECTION
  2
BLOCKS
  0
BLOCK
  8
0
  2
$MODEL_SPACE
 70
     0
 10
0.0
 20
0.0
 30
0.0
  3
$MODEL_SPACE
  1

  0
ENDBLK
  5
21
  8
0
  0
BLOCK
 67
     1
  8
0
  2
$PAPER_SPACE
 70
     0
 10
0.0
 20
0.0
 30
0.0
  3
$PAPER_SPACE
  1

  0
ENDBLK
  5
1D
 67
     1
  8
0
  0
ENDSEC
  0
SECTION
  2
ENTITIES
  0
CIRCLE
  5
6F
  8
SCREW_HOLES
 10
-49.88502490921246
 20
-310.6301117889163
 30
0.0
 40
1.499999999999943
  0
CIRCLE
  5
70
  8
SCREW_HOLES
 10
92.08482545103946
 20
-310.6301117889162
 30
0.0
 40
1.5
  0
CIRCLE
  5
71
  8
SCREW_HOLES
 10
229.7992894097649
 20
-310.6301117889163
 30
0.0
 40
1.499999999999943
  0
CIRCLE
  5
72
  8
SCREW_HOLES
 10
229.7992894097649
 20
-360.5301060640211
 30
0.0
 40
1.5
  0
CIRCLE
  5
73
  8
SCREW_HOLES
 10
286.7689538995112
 20
-335.5802847432968
 30
0.0
 40
1.499999999999943
  0
CIRCLE
  5
74
  8
SCREW_HOLES
 10
17.39988641330245
 20
-257.6001101085418
 30
0.0
 40
1.499999999999943
  0
CIRCLE
  5
75
  8
SCREW_HOLES
 10
17.3998864133024
 20
-277.6001101085419
 30
0.0
 40
1.499999999999886
  0
CIRCLE
  5
76
  8
SCREW_HOLES
 10
17.39988641330234
 20
-297.600110108542
 30
0.0
 40
1.499999999999886
  0
CIRCLE
  5
77
  8
SCREW_HOLES
 10
17.39988641330229
 20
-267.6001101085419
 30
0.0
 40
1.5
  0
CIRCLE
  5
78
  8
SCREW_HOLES
 10
17.39988641330234
 20
-287.6001101085419
 30
0.0
 40
1.499999999999943
  0
CIRCLE
  5
79
  8
SCREW_HOLES
 10
127.3999009708598
 20
-297.6001101085419
 30
0.0
 40
1.5
  0
CIRCLE
  5
7A
  8
SCREW_HOLES
 10
127.3999009708598
 20
-287.6001101085419
 30
0.0
 40
1.5
  0
CIRCLE
  5
7B
  8
SCREW_HOLES
 10
127.3999009708598
 20
-277.6001101085419
 30
0.0
 40
1.5
  0
CIRCLE
  5
7C
  8
SCREW_HOLES
 10
127.3999009708598
 20
-267.6001101085419
 30
0.0
 40
1.5
  0
CIRCLE
  5
7D
  8
SCREW_HOLES
 10
127.3999009708598
 20
-257.6001101085419
 30
0.0
 40
1.5
  0
CIRCLE
  5
7E
  8
SCREW_HOLES
 10
22.940218974722
 20
-489.5002021590903
 30
0.0
 40
1.0
  0
CIRCLE
  5
7F
  8
SCREW_HOLES
 10
22.940218974722
 20
-456.4280959201687
 30
0.0
 40
1.0
  0
CIRCLE
  5
80
  8
SCREW_HOLES
 10
289.6499538995087
 20
-456.7302024314104
 30
0.0
 40
1.5
  0
CIRCLE
  5
81
  8
SCREW_HOLES
 10
289.6499538995088
 20
-489.2095878400328
 30
0.0
 40
1.5
  0
POLYLINE
  5
83
  8
6_06MM_ABS_INSIDE
 66
     1
 10
0.0
 20
0.0
 30
0.0
 70
     1
  0
VERTEX
  5
84
  8
6_06MM_ABS_INSIDE
 10
124.3699009534205
 20
-332.8601383196631
 30
0.0
  0
VERTEX
  5
85
  8
6_06MM_ABS_INSIDE
 10
124.3699009534205
 20
-364.4601707048027
 30
0.0
  0
VERTEX
  5
86
  8
6_06MM_ABS_INSIDE
 10
130.4299009534204
 20
-364.4601707048027
 30
0.0
  0
VERTEX
  5
87
  8
6_06MM_ABS_INSIDE
 10
130.4299009534204
 20
-332.8601383196631
 30
0.0
  0
SEQEND
  5
88
  8
6_06MM_ABS_INSIDE
  0
POLYLINE
  5
89
  8
6_06MM_ABS_INSIDE
 66
     1
 10
0.0
 20
0.0
 30
0.0
 70
     1
  0
VERTEX
  5
8A
  8
6_06MM_ABS_INSIDE
 10
148.0847902481215
 20
-363.6601734470887
 30
0.0
 42
0.4142134636168787
  0
VERTEX
  5
8B
  8
6_06MM_ABS_INSIDE
 10
152.0847902481216
 20
-359.6601734470885
 30
0.0
  0
VERTEX
  5
8C
  8
6_06MM_ABS_INSIDE
 10
152.0847902481216
 20
-337.6601734470887
 30
0.0
 42
0.4142133648607503
  0
VERTEX
  5
8D
  8
6_06MM_ABS_INSIDE
 10
148.0847902481216
 20
-333.6601734470888
 30
0.0
  0
VERTEX
  5
8E
  8
6_06MM_ABS_INSIDE
 10
146.0848541617243
 20
-333.6601734470888
 30
0.0
 42
0.4142133648607044
  0
VERTEX
  5
8F
  8
6_06MM_ABS_INSIDE
 10
142.0848541617243
 20
-337.6601734470887
 30
0.0
  0
VERTEX
  5
90
  8
6_06MM_ABS_INSIDE
 10
142.0848541617245
 20
-359.6601734470885
 30
0.0
 42
0.4142134636168402
  0
VERTEX
  5
91
  8
6_06MM_ABS_INSIDE
 10
146.0848541617245
 20
-363.6601734470887
 30
0.0
  0
SEQEND
  5
92
  8
6_06MM_ABS_INSIDE
  0
POLYLINE
  5
93
  8
6_06MM_ABS_INSIDE
 66
     1
 10
0.0
 20
0.0
 30
0.0
 70
     1
  0
VERTEX
  5
94
  8
6_06MM_ABS_INSIDE
 10
-74.88503806365634
 20
-363.6601418703082
 30
0.0
  0
VERTEX
  5
95
  8
6_06MM_ABS_INSIDE
 10
-64.88503806365634
 20
-363.6601418703082
 30
0.0
 42
0.4142134636168898
  0
VERTEX
  5
96
  8
6_06MM_ABS_INSIDE
 10
-59.88503806365549
 20
-358.6601418703081
 30
0.0
  0
VERTEX
  5
97
  8
6_06MM_ABS_INSIDE
 10
-59.88503806365634
 20
-338.6601840943823
 30
0.0
 42
0.4142135623730918
  0
VERTEX
  5
98
  8
6_06MM_ABS_INSIDE
 10
-64.88503806365634
 20
-333.6601840943823
 30
0.0
  0
VERTEX
  5
99
  8
6_06MM_ABS_INSIDE
 10
-74.88503806365634
 20
-333.6601840943822
 30
0.0
 42
0.4142133648606575
  0
VERTEX
  5
9A
  8
6_06MM_ABS_INSIDE
 10
-79.88503806365627
 20
-338.6601840943822
 30
0.0
  0
VERTEX
  5
9B
  8
6_06MM_ABS_INSIDE
 10
-79.88503806365631
 20
-358.6601418703081
 30
0.0
 42
0.4142132661045087
  0
SEQEND
  5
9C
  8
6_06MM_ABS_INSIDE
  0
POLYLINE
  5
9D
  8
6_06MM_ABS_INSIDE
 66
     1
 10
0.0
 20
0.0
 30
0.0
 70
     1
  0
VERTEX
  5
9E
  8
6_06MM_ABS_INSIDE
 10
-34.88503806365634
 20
-363.6601418703082
 30
0.0
  0
VERTEX
  5
9F
  8
6_06MM_ABS_INSIDE
 10
-24.88503806365634
 20
-363.6601418703082
 30
0.0
 42
0.414213463616904
  0
VERTEX
  5
A0
  8
6_06MM_ABS_INSIDE
 10
-19.88503806365591
 20
-358.6601418703082
 30
0.0
  0
VERTEX
  5
A1
  8
6_06MM_ABS_INSIDE
 10
-19.88503806365634
 20
-338.6601840943823
 30
0.0
 42
0.4142135623731025
  0
VERTEX
  5
A2
  8
6_06MM_ABS_INSIDE
 10
-24.88503806365634
 20
-333.6601840943823
 30
0.0
  0
VERTEX
  5
A3
  8
6_06MM_ABS_INSIDE
 10
-34.88503806365634
 20
-333.6601840943822
 30
0.0
 42
0.4142133648606879
  0
VERTEX
  5
A4
  8
6_06MM_ABS_INSIDE
 10
-39.88503806365629
 20
-338.6601840943822
 30
0.0
  0
VERTEX
  5
A5
  8
6_06MM_ABS_INSIDE
 10
-39.88503806365638
 20
-358.6601418703081
 30
0.0
 42
0.4142130685922566
  0
SEQEND
  5
A6
  8
6_06MM_ABS_INSIDE
  0
POLYLINE
  5
A7
  8
6_06MM_ABS_INSIDE
 66
     1
 10
0.0
 20
0.0
 30
0.0
 70
     1
  0
VERTEX
  5
A8
  8
6_06MM_ABS_INSIDE
 10
283.738953899511
 20
-345.5802847432967
 30
0.0
  0
VERTEX
  5
A9
  8
6_06MM_ABS_INSIDE
 10
283.738953899511
 20
-355.5802847432967
 30
0.0
  0
VERTEX
  5
AA
  8
6_06MM_ABS_INSIDE
 10
289.7989538995109
 20
-355.5802847432967
 30
0.0
  0
VERTEX
  5
AB
  8
6_06MM_ABS_INSIDE
 10
289.7989538995109
 20
-345.5802847432967
 30
0.0
  0
SEQEND
  5
AC
  8
6_06MM_ABS_INSIDE
  0
POLYLINE
  5
AD
  8
6_06MM_ABS_INSIDE
 66
     1
 10
0.0
 20
0.0
 30
0.0
 70
     1
  0
VERTEX
  5
AE
  8
6_06MM_ABS_INSIDE
 10
219.7994021072384
 20
-357.5001060640212
 30
0.0
  0
VERTEX
  5
AF
  8
6_06MM_ABS_INSIDE
 10
199.7994021072384
 20
-357.5001060640211
 30
0.0
  0
VERTEX
  5
B0
  8
6_06MM_ABS_INSIDE
 10
199.7994021072384
 20
-363.5601060640212
 30
0.0
  0
VERTEX
  5
B1
  8
6_06MM_ABS_INSIDE
 10
219.7994021072384
 20
-363.5601060640212
 30
0.0
  0
SEQEND
  5
B2
  8
6_06MM_ABS_INSIDE
  0
POLYLINE
  5
B3
  8
6_06MM_ABS_INSIDE
 66
     1
 10
0.0
 20
0.0
 30
0.0
 70
     1
  0
VERTEX
  5
B4
  8
6_06MM_ABS_INSIDE
 10
239.7992894097649
 20
-363.5601060640212
 30
0.0
  0
VERTEX
  5
B5
  8
6_06MM_ABS_INSIDE
 10
259.7992894097649
 20
-363.5601060640212
 30
0.0
  0
VERTEX
  5
B6
  8
6_06MM_ABS_INSIDE
 10
259.7992894097649
 20
-357.5001060640212
 30
0.0
  0
VERTEX
  5
B7
  8
6_06MM_ABS_INSIDE
 10
239.7992894097649
 20
-357.5001060640212
 30
0.0
  0
SEQEND
  5
B8
  8
6_06MM_ABS_INSIDE
  0
POLYLINE
  5
B9
  8
6_06MM_ABS_INSIDE
 66
     1
 10
0.0
 20
0.0
 30
0.0
 70
     1
  0
VERTEX
  5
BA
  8
6_06MM_ABS_INSIDE
 10
-59.88502490921246
 20
-307.6001117889164
 30
0.0
  0
VERTEX
  5
BB
  8
6_06MM_ABS_INSIDE
 10
-79.88502490921246
 20
-307.6001117889164
 30
0.0
  0
VERTEX
  5
BC
  8
6_06MM_ABS_INSIDE
 10
-79.88502490921246
 20
-313.6601117889163
 30
0.0
  0
VERTEX
  5
BD
  8
6_06MM_ABS_INSIDE
 10
-59.88502490921246
 20
-313.6601117889163
 30
0.0
  0
SEQEND
  5
BE
  8
6_06MM_ABS_INSIDE
  0
POLYLINE
  5
BF
  8
6_06MM_ABS_INSIDE
 66
     1
 10
0.0
 20
0.0
 30
0.0
 70
     1
  0
VERTEX
  5
C0
  8
6_06MM_ABS_INSIDE
 10
-39.88506713328616
 20
-313.6601117889163
 30
0.0
  0
VERTEX
  5
C1
  8
6_06MM_ABS_INSIDE
 10
-19.88506713328616
 20
-313.6601117889163
 30
0.0
  0
VERTEX
  5
C2
  8
6_06MM_ABS_INSIDE
 10
-19.88506713328616
 20
-307.6001117889164
 30
0.0
  0
VERTEX
  5
C3
  8
6_06MM_ABS_INSIDE
 10
-39.88506713328616
 20
-307.6001117889164
 30
0.0
  0
SEQEND
  5
C4
  8
6_06MM_ABS_INSIDE
  0
POLYLINE
  5
C5
  8
6_06MM_ABS_INSIDE
 66
     1
 10
0.0
 20
0.0
 30
0.0
 70
     1
  0
VERTEX
  5
C6
  8
6_06MM_ABS_INSIDE
 10
82.08485740784067
 20
-307.6001117889164
 30
0.0
  0
VERTEX
  5
C7
  8
6_06MM_ABS_INSIDE
 10
62.08485740784067
 20
-307.6001117889164
 30
0.0
  0
VERTEX
  5
C8
  8
6_06MM_ABS_INSIDE
 10
62.08485740784067
 20
-313.6601117889163
 30
0.0
  0
VERTEX
  5
C9
  8
6_06MM_ABS_INSIDE
 10
82.08485740784067
 20
-313.6601117889163
 30
0.0
  0
SEQEND
  5
CA
  8
6_06MM_ABS_INSIDE
  0
POLYLINE
  5
CB
  8
6_06MM_ABS_INSIDE
 66
     1
 10
0.0
 20
0.0
 30
0.0
 70
     1
  0
VERTEX
  5
CC
  8
6_06MM_ABS_INSIDE
 10
102.0847934942378
 20
-313.6601117889163
 30
0.0
  0
VERTEX
  5
CD
  8
6_06MM_ABS_INSIDE
 10
122.0847934942378
 20
-313.6601117889163
 30
0.0
  0
VERTEX
  5
CE
  8
6_06MM_ABS_INSIDE
 10
122.0847934942378
 20
-307.6001117889164
 30
0.0
  0
VERTEX
  5
CF
  8
6_06MM_ABS_INSIDE
 10
102.0847934942378
 20
-307.6001117889164
 30
0.0
  0
SEQEND
  5
D0
  8
6_06MM_ABS_INSIDE
  0
POLYLINE
  5
D1
  8
6_06MM_ABS_INSIDE
 66
     1
 10
0.0
 20
0.0
 30
0.0
 70
     1
  0
VERTEX
  5
D2
  8
6_06MM_ABS_INSIDE
 10
219.7994021072384
 20
-307.6001117889164
 30
0.0
  0
VERTEX
  5
D3
  8
6_06MM_ABS_INSIDE
 10
199.7994021072384
 20
-307.6001117889164
 30
0.0
  0
VERTEX
  5
D4
  8
6_06MM_ABS_INSIDE
 10
199.7994021072384
 20
-313.6601117889163
 30
0.0
  0
VERTEX
  5
D5
  8
6_06MM_ABS_INSIDE
 10
219.7994021072384
 20
-313.6601117889163
 30
0.0
  0
SEQEND
  5
D6
  8
6_06MM_ABS_INSIDE
  0
POLYLINE
  5
D7
  8
6_06MM_ABS_INSIDE
 66
     1
 10
0.0
 20
0.0
 30
0.0
 70
     1
  0
VERTEX
  5
D8
  8
6_06MM_ABS_INSIDE
 10
239.7992894097649
 20
-313.6601117889163
 30
0.0
  0
VERTEX
  5
D9
  8
6_06MM_ABS_INSIDE
 10
259.7992894097649
 20
-313.6601117889163
 30
0.0
  0
VERTEX
  5
DA
  8
6_06MM_ABS_INSIDE
 10
259.7992894097649
 20
-307.6001117889164
 30
0.0
  0
VERTEX
  5
DB
  8
6_06MM_ABS_INSIDE
 10
239.7992894097649
 20
-307.6001117889164
 30
0.0
  0
SEQEND
  5
DC
  8
6_06MM_ABS_INSIDE
  0
POLYLINE
  5
DE
  8
6_06MM_ABS_OUTSIDE
 66
     1
 10
0.0
 20
0.0
 30
0.0
 70
     1
  0
VERTEX
  5
DF
  8
6_06MM_ABS_OUTSIDE
 10
7.399901058324303
 20
-247.6001302678308
 30
0.0
  0
VERTEX
  5
E0
  8
6_06MM_ABS_OUTSIDE
 10
137.3999077340447
 20
-247.6001302678308
 30
0.0
  0
VERTEX
  5
E1
  8
6_06MM_ABS_OUTSIDE
 10
289.2137200483342
 20
-294.3408038974554
 30
0.0
 42
-0.3292057374732209
  0
VERTEX
  5
E2
  8
6_06MM_ABS_OUTSIDE
 10
299.7999538995111
 20
-308.6767262041468
 30
0.0
  0
VERTEX
  5
E3
  8
6_06MM_ABS_OUTSIDE
 10
299.7999538995111
 20
-360.0936712632381
 30
0.0
 42
-0.3927024537623391
  0
VERTEX
  5
E4
  8
6_06MM_ABS_OUTSIDE
 10
285.9089099814144
 20
-375.0526223096313
 30
0.0
  0
VERTEX
  5
E5
  8
6_06MM_ABS_OUTSIDE
 10
169.7997434562055
 20
-383.6601754718426
 30
0.0
  0
VERTEX
  5
E6
  8
6_06MM_ABS_OUTSIDE
 10
169.7997434562055
 20
-348.6601754718426
 30
0.0
  0
VERTEX
  5
E7
  8
6_06MM_ABS_OUTSIDE
 10
163.7397434562056
 20
-348.6601754718426
 30
0.0
  0
VERTEX
  5
E8
  8
6_06MM_ABS_OUTSIDE
 10
163.7397434562056
 20
-383.6601754718425
 30
0.0
  0
VERTEX
  5
E9
  8
6_06MM_ABS_OUTSIDE
 10
137.3999077340447
 20
-383.6601754718428
 30
0.0
  0
VERTEX
  5
EA
  8
6_06MM_ABS_OUTSIDE
 10
122.0847934942378
 20
-383.6601754718426
 30
0.0
  0
VERTEX
  5
EB
  8
6_06MM_ABS_OUTSIDE
 10
122.0847934942378
 20
-389.7201754718426
 30
0.0
  0
VERTEX
  5
EC
  8
6_06MM_ABS_OUTSIDE
 10
102.0847934942378
 20
-389.7201754718426
 30
0.0
  0
VERTEX
  5
ED
  8
6_06MM_ABS_OUTSIDE
 10
102.0847934942378
 20
-383.6601754718426
 30
0.0
  0
VERTEX
  5
EE
  8
6_06MM_ABS_OUTSIDE
 10
82.08485740784067
 20
-383.6601754718426
 30
0.0
  0
VERTEX
  5
EF
  8
6_06MM_ABS_OUTSIDE
 10
82.08485740784067
 20
-389.7201754718426
 30
0.0
  0
VERTEX
  5
F0
  8
6_06MM_ABS_OUTSIDE
 10
62.08485740784067
 20
-389.7201754718426
 30
0.0
  0
VERTEX
  5
F1
  8
6_06MM_ABS_OUTSIDE
 10
62.08485740784067
 20
-383.6601754718426
 30
0.0
  0
VERTEX
  5
F2
  8
6_06MM_ABS_OUTSIDE
 10
20.42990324021366
 20
-383.6601754718426
 30
0.0
  0
VERTEX
  5
F3
  8
6_06MM_ABS_OUTSIDE
 10
20.42990324021366
 20
-348.6601754718426
 30
0.0
  0
VERTEX
  5
F4
  8
6_06MM_ABS_OUTSIDE
 10
14.36990324021326
 20
-348.6601754718426
 30
0.0
  0
VERTEX
  5
F5
  8
6_06MM_ABS_OUTSIDE
 10
14.36990324021326
 20
-383.6601754718426
 30
0.0
  0
VERTEX
  5
F6
  8
6_06MM_ABS_OUTSIDE
 10
7.399901058324303
 20
-383.6601754718426
 30
0.0
  0
VERTEX
  5
F7
  8
6_06MM_ABS_OUTSIDE
 10
-19.88506713328616
 20
-383.6601754718426
 30
0.0
  0
VERTEX
  5
F8
  8
6_06MM_ABS_OUTSIDE
 10
-19.88506713328616
 20
-389.7201754718426
 30
0.0
  0
VERTEX
  5
F9
  8
6_06MM_ABS_OUTSIDE
 10
-39.88506713328616
 20
-389.7201754718426
 30
0.0
  0
VERTEX
  5
FA
  8
6_06MM_ABS_OUTSIDE
 10
-39.88506713328616
 20
-383.6601754718426
 30
0.0
  0
VERTEX
  5
FB
  8
6_06MM_ABS_OUTSIDE
 10
-59.88502490921246
 20
-383.6601754718426
 30
0.0
  0
VERTEX
  5
FC
  8
6_06MM_ABS_OUTSIDE
 10
-59.88502490921246
 20
-389.7201754718426
 30
0.0
  0
VERTEX
  5
FD
  8
6_06MM_ABS_OUTSIDE
 10
-79.88502490921246
 20
-389.7201754718426
 30
0.0
  0
VERTEX
  5
FE
  8
6_06MM_ABS_OUTSIDE
 10
-79.88502490921246
 20
-383.6601754718426
 30
0.0
  0
VERTEX
  5
FF
  8
6_06MM_ABS_OUTSIDE
 10
-114.1399901086575
 20
-383.6601754718426
 30
0.0
  0
VERTEX
  5
100
  8
6_06MM_ABS_OUTSIDE
 10
-114.1399892904487
 20
-373.6601825519211
 30
0.0
  0
VERTEX
  5
101
  8
6_06MM_ABS_OUTSIDE
 10
-120.1999862903517
 20
-373.6601825519211
 30
0.0
  0
VERTEX
  5
102
  8
6_06MM_ABS_OUTSIDE
 10
-120.1999862903517
 20
-358.6601825519211
 30
0.0
  0
VERTEX
  5
103
  8
6_06MM_ABS_OUTSIDE
 10
-114.1399877904
 20
-358.6601825519213
 30
0.0
  0
VERTEX
  5
104
  8
6_06MM_ABS_OUTSIDE
 10
-114.1399877904
 20
-338.6601171886205
 30
0.0
  0
VERTEX
  5
105
  8
6_06MM_ABS_OUTSIDE
 10
-120.1999862903517
 20
-338.6601171886202
 30
0.0
  0
VERTEX
  5
106
  8
6_06MM_ABS_OUTSIDE
 10
-120.1999862903517
 20
-323.6601171886203
 30
0.0
  0
VERTEX
  5
107
  8
6_06MM_ABS_OUTSIDE
 10
-114.1399892904487
 20
-323.6601171886203
 30
0.0
  0
VERTEX
  5
108
  8
6_06MM_ABS_OUTSIDE
 10
-114.1399901086575
 20
-313.6601101085414
 30
0.0
  0
VERTEX
  5
109
  8
6_06MM_ABS_OUTSIDE
 10
-120.1999890177126
 20
-313.6601101085414
 30
0.0
  0
VERTEX
  5
10A
  8
6_06MM_ABS_OUTSIDE
 10
-120.1999890177126
 20
-307.6759178871014
 30
0.0
 42
-0.3046819791433765
  0
VERTEX
  5
10B
  8
6_06MM_ABS_OUTSIDE
 10
-110.8724154325505
 20
-293.7898248956132
 30
0.0
  0
SEQEND
  5
10C
  8
6_06MM_ABS_OUTSIDE
  0
POLYLINE
  5
10D
  8
6_06MM_ABS_INSIDE
 66
     1
 10
0.0
 20
0.0
 30
0.0
 70
     1
  0
VERTEX
  5
10E
  8
6_06MM_ABS_INSIDE
 10
289.7989538995109
 20
-325.5799229331728
 30
0.0
  0
VERTEX
  5
10F
  8
6_06MM_ABS_INSIDE
 10
289.7989538995109
 20
-315.5799229331728
 30
0.0
  0
VERTEX
  5
110
  8
6_06MM_ABS_INSIDE
 10
283.738953899511
 20
-315.5799229331728
 30
0.0
  0
VERTEX
  5
111
  8
6_06MM_ABS_INSIDE
 10
283.738953899511
 20
-325.5799229331728
 30
0.0
  0
SEQEND
  5
112
  8
6_06MM_ABS_INSIDE
  0
POLYLINE
  5
113
  8
6_06MM_ABS_OUTSIDE
 66
     1
 10
0.0
 20
0.0
 30
0.0
 70
     1
  0
VERTEX
  5
114
  8
6_06MM_ABS_OUTSIDE
 10
299.7999538995102
 20
-497.9299830642399
 30
0.0
  0
VERTEX
  5
115
  8
6_06MM_ABS_OUTSIDE
 10
299.7999538995102
 20
-552.400130267831
 30
0.0
  0
VERTEX
  5
116
  8
6_06MM_ABS_OUTSIDE
 10
9.800218974722611
 20
-552.400130267831
 30
0.0
  0
VERTEX
  5
117
  8
6_06MM_ABS_OUTSIDE
 10
9.800218974722611
 20
-502.9301727986472
 30
0.0
  0
VERTEX
  5
118
  8
6_06MM_ABS_OUTSIDE
 10
4.193617256924444
 20
-497.3235710808494
 30
0.0
 42
-0.1989123673796516
  0
VERTEX
  5
119
  8
6_06MM_ABS_OUTSIDE
 10
-0.1997810252773693
 20
-486.7169693630508
 30
0.0
  0
VERTEX
  5
11A
  8
6_06MM_ABS_OUTSIDE
 10
-0.1997810252774306
 20
-459.1434339651073
 30
0.0
 42
-0.1989123673796308
  0
VERTEX
  5
11B
  8
6_06MM_ABS_OUTSIDE
 10
4.193617256923527
 20
-448.5368322473096
 30
0.0
  0
VERTEX
  5
11C
  8
6_06MM_ABS_OUTSIDE
 10
9.800218974722611
 20
-442.9302305295109
 30
0.0
  0
VERTEX
  5
11D
  8
6_06MM_ABS_OUTSIDE
 10
9.800218974722611
 20
-393.4602745949901
 30
0.0
  0
VERTEX
  5
11E
  8
6_06MM_ABS_OUTSIDE
 10
77.51512594723977
 20
-393.460274233722
 30
0.0
  0
VERTEX
  5
11F
  8
6_06MM_ABS_OUTSIDE
 10
82.51512594723977
 20
-398.4602739739853
 30
0.0
  0
VERTEX
  5
120
  8
6_06MM_ABS_OUTSIDE
 10
92.51512594723977
 20
-398.4602739739853
 30
0.0
  0
VERTEX
  5
121
  8
6_06MM_ABS_OUTSIDE
 10
97.51512594723977
 20
-393.460274218728
 30
0.0
  0
VERTEX
  5
122
  8
6_06MM_ABS_OUTSIDE
 10
219.4850298331951
 20
-393.4602742844877
 30
0.0
  0
VERTEX
  5
123
  8
6_06MM_ABS_OUTSIDE
 10
224.4850298331951
 20
-398.4602739739853
 30
0.0
  0
VERTEX
  5
124
  8
6_06MM_ABS_OUTSIDE
 10
234.4850298331951
 20
-398.4602739739853
 30
0.0
  0
VERTEX
  5
125
  8
6_06MM_ABS_OUTSIDE
 10
239.4850298331951
 20
-393.4602742844877
 30
0.0
  0
VERTEX
  5
126
  8
6_06MM_ABS_OUTSIDE
 10
299.7999538995102
 20
-393.4602745949901
 30
0.0
  0
VERTEX
  5
127
  8
6_06MM_ABS_OUTSIDE
 10
299.7999538995102
 20
-447.9304051110944
 30
0.0
  0
VERTEX
  5
128
  8
6_06MM_ABS_OUTSIDE
 10
293.7399538995103
 20
-447.9304051110944
 30
0.0
  0
VERTEX
  5
129
  8
6_06MM_ABS_OUTSIDE
 10
293.7399538995103
 20
-497.9299830642399
 30
0.0
  0
SEQEND
  5
12A
  8
6_06MM_ABS_OUTSIDE
  0
POLYLINE
  5
12B
  8
6_06MM_ABS_INSIDE
 66
     1
 10
0.0
 20
0.0
 30
0.0
 70
     1
  0
VERTEX
  5
12C
  8
6_06MM_ABS_INSIDE
 10
139.7998779636002
 20
-437.9304235314803
 30
0.0
  0
VERTEX
  5
12D
  8
6_06MM_ABS_INSIDE
 10
139.7998779636002
 20
-507.9300014846258
 30
0.0
  0
VERTEX
  5
12E
  8
6_06MM_ABS_INSIDE
 10
149.7998779636007
 20
-517.9300014846258
 30
0.0
  0
VERTEX
  5
12F
  8
6_06MM_ABS_INSIDE
 10
159.8002985552669
 20
-517.9300014846258
 30
0.0
  0
VERTEX
  5
130
  8
6_06MM_ABS_INSIDE
 10
169.8002985552669
 20
-507.9300014846258
 30
0.0
  0
VERTEX
  5
131
  8
6_06MM_ABS_INSIDE
 10
169.8002985552669
 20
-437.9304235314803
 30
0.0
  0
VERTEX
  5
132
  8
6_06MM_ABS_INSIDE
 10
159.8002985552669
 20
-427.9304235314803
 30
0.0
  0
VERTEX
  5
133
  8
6_06MM_ABS_INSIDE
 10
149.7998779636007
 20
-427.9304235314803
 30
0.0
  0
SEQEND
  5
134
  8
6_06MM_ABS_INSIDE
  0
POLYLINE
  5
135
  8
6_06MM_ABS_INSIDE
 66
     1
 10
0.0
 20
0.0
 30
0.0
 70
     1
  0
VERTEX
  5
136
  8
6_06MM_ABS_INSIDE
 10
94.79987796360024
 20
-437.9304235314803
 30
0.0
  0
VERTEX
  5
137
  8
6_06MM_ABS_INSIDE
 10
94.79987796360024
 20
-507.9300014846258
 30
0.0
  0
VERTEX
  5
138
  8
6_06MM_ABS_INSIDE
 10
104.7998779636007
 20
-517.9300014846258
 30
0.0
  0
VERTEX
  5
139
  8
6_06MM_ABS_INSIDE
 10
114.8002985552669
 20
-517.9300014846258
 30
0.0
  0
VERTEX
  5
13A
  8
6_06MM_ABS_INSIDE
 10
124.8002985552669
 20
-507.9300014846258
 30
0.0
  0
VERTEX
  5
13B
  8
6_06MM_ABS_INSIDE
 10
124.8002985552669
 20
-437.9304235314803
 30
0.0
  0
VERTEX
  5
13C
  8
6_06MM_ABS_INSIDE
 10
114.8002985552669
 20
-427.9304235314803
 30
0.0
  0
VERTEX
  5
13D
  8
6_06MM_ABS_INSIDE
 10
104.7998779636007
 20
-427.9304235314803
 30
0.0
  0
SEQEND
  5
13E
  8
6_06MM_ABS_INSIDE
  0
POLYLINE
  5
13F
  8
6_06MM_ABS_INSIDE
 66
     1
 10
0.0
 20
0.0
 30
0.0
 70
     1
  0
VERTEX
  5
140
  8
6_06MM_ABS_INSIDE
 10
184.7998779636002
 20
-437.9304235314803
 30
0.0
  0
VERTEX
  5
141
  8
6_06MM_ABS_INSIDE
 10
184.7998779636002
 20
-507.9300014846258
 30
0.0
  0
VERTEX
  5
142
  8
6_06MM_ABS_INSIDE
 10
194.7998779636007
 20
-517.9300014846258
 30
0.0
  0
VERTEX
  5
143
  8
6_06MM_ABS_INSIDE
 10
204.8002985552669
 20
-517.9300014846258
 30
0.0
  0
VERTEX
  5
144
  8
6_06MM_ABS_INSIDE
 10
214.8002985552669
 20
-507.9300014846258
 30
0.0
  0
VERTEX
  5
145
  8
6_06MM_ABS_INSIDE
 10
214.8002985552669
 20
-437.9304235314803
 30
0.0
  0
VERTEX
  5
146
  8
6_06MM_ABS_INSIDE
 10
204.8002985552669
 20
-427.9304235314803
 30
0.0
  0
VERTEX
  5
147
  8
6_06MM_ABS_INSIDE
 10
194.7998779636007
 20
-427.9304235314803
 30
0.0
  0
SEQEND
  5
148
  8
6_06MM_ABS_INSIDE
  0
POLYLINE
  5
149
  8
6_06MM_ABS_INSIDE
 66
     1
 10
0.0
 20
0.0
 30
0.0
 70
     1
  0
VERTEX
  5
14A
  8
6_06MM_ABS_INSIDE
 10
229.7998779636002
 20
-437.9304235314803
 30
0.0
  0
VERTEX
  5
14B
  8
6_06MM_ABS_INSIDE
 10
229.7998779636002
 20
-507.9300014846258
 30
0.0
  0
VERTEX
  5
14C
  8
6_06MM_ABS_INSIDE
 10
239.7998779636007
 20
-517.9300014846258
 30
0.0
  0
VERTEX
  5
14D
  8
6_06MM_ABS_INSIDE
 10
249.8002985552669
 20
-517.9300014846258
 30
0.0
  0
VERTEX
  5
14E
  8
6_06MM_ABS_INSIDE
 10
259.8002985552669
 20
-507.9300014846258
 30
0.0
  0
VERTEX
  5
14F
  8
6_06MM_ABS_INSIDE
 10
259.8002985552669
 20
-437.9304235314803
 30
0.0
  0
VERTEX
  5
150
  8
6_06MM_ABS_INSIDE
 10
249.8002985552669
 20
-427.9304235314803
 30
0.0
  0
VERTEX
  5
151
  8
6_06MM_ABS_INSIDE
 10
239.7998779636007
 20
-427.9304235314803
 30
0.0
  0
SEQEND
  5
152
  8
6_06MM_ABS_INSIDE
  0
POLYLINE
  5
153
  8
6_06MM_ABS_INSIDE
 66
     1
 10
0.0
 20
0.0
 30
0.0
 70
     1
  0
VERTEX
  5
154
  8
6_06MM_ABS_INSIDE
 10
49.79987796360024
 20
-437.9304235314803
 30
0.0
  0
VERTEX
  5
155
  8
6_06MM_ABS_INSIDE
 10
49.79987796360024
 20
-507.9300014846258
 30
0.0
  0
VERTEX
  5
156
  8
6_06MM_ABS_INSIDE
 10
59.79987796360069
 20
-517.9300014846258
 30
0.0
  0
VERTEX
  5
157
  8
6_06MM_ABS_INSIDE
 10
69.80029855526686
 20
-517.9300014846258
 30
0.0
  0
VERTEX
  5
158
  8
6_06MM_ABS_INSIDE
 10
79.80029855526686
 20
-507.9300014846258
 30
0.0
  0
VERTEX
  5
159
  8
6_06MM_ABS_INSIDE
 10
79.80029855526686
 20
-437.9304235314803
 30
0.0
  0
VERTEX
  5
15A
  8
6_06MM_ABS_INSIDE
 10
69.80029855526686
 20
-427.9304235314803
 30
0.0
  0
VERTEX
  5
15B
  8
6_06MM_ABS_INSIDE
 10
59.79987796360069
 20
-427.9304235314803
 30
0.0
  0
SEQEND
  5
15C
  8
6_06MM_ABS_INSIDE
  0
CIRCLE
  5
15D
  8
SCREW_HOLES
 10
-236.7601718868696
 20
-444.6926823955596
 30
0.0
 40
0.9999999999999432
  0
CIRCLE
  5
15E
  8
SCREW_HOLES
 10
-237.4601718868694
 20
-493.0118060605692
 30
0.0
 40
0.9999999999999716
  0
CIRCLE
  5
15F
  8
SCREW_HOLES
 10
-188.4901718868692
 20
-486.0423588647996
 30
0.0
 40
0.9999999999999432
  0
CIRCLE
  5
160
  8
SCREW_HOLES
 10
-188.4901718868692
 20
-460.3426823955597
 30
0.0
 40
0.9999999999999432
  0
CIRCLE
  5
161
  8
SCREW_HOLES
 10
-154.9401718868699
 20
-493.0118060605691
 30
0.0
 40
0.9999999999999716
  0
CIRCLE
  5
162
  8
SCREW_HOLES
 10
-161.32017188687
 20
-444.6926823955595
 30
0.0
 40
1.0
  0
CIRCLE
  5
163
  8
SCREW_HOLES
 10
-246.7400461004887
 20
-500.3751302678302
 30
0.0
 40
1.000000000000171
  0
CIRCLE
  5
164
  8
SCREW_HOLES
 10
-246.7400461004886
 20
-406.9051302678304
 30
0.0
 40
1.0
  0
CIRCLE
  5
165
  8
SCREW_HOLES
 10
-188.7401718868697
 20
-372.4003615486763
 30
0.0
 40
1.499999999999716
  0
CIRCLE
  5
166
  8
SCREW_HOLES
 10
-188.7401718868698
 20
-273.4603953430428
 30
0.0
 40
1.499999999999659
  0
POLYLINE
  5
167
  8
6_06MM_ABS_OUTSIDE
 66
     1
 10
0.0
 20
0.0
 30
0.0
 70
     1
  0
VERTEX
  5
168
  8
6_06MM_ABS_OUTSIDE
 10
-138.7401718868691
 20
-487.3996664500482
 30
0.0
  0
VERTEX
  5
169
  8
6_06MM_ABS_OUTSIDE
 10
-138.7401718868691
 20
-517.3996664500482
 30
0.0
  0
VERTEX
  5
16A
  8
6_06MM_ABS_OUTSIDE
 10
-144.8001718868695
 20
-517.3996664500482
 30
0.0
  0
VERTEX
  5
16B
  8
6_06MM_ABS_OUTSIDE
 10
-144.8001718868695
 20
-547.4001302678307
 30
0.0
  0
VERTEX
  5
16C
  8
6_06MM_ABS_OUTSIDE
 10
-189.2701362001967
 20
-547.4001362329377
 30
0.0
  0
VERTEX
  5
16D
  8
6_06MM_ABS_OUTSIDE
 10
-189.2701362001967
 20
-541.3401421980448
 30
0.0
  0
VERTEX
  5
16E
  8
6_06MM_ABS_OUTSIDE
 10
-249.2700817871614
 20
-541.3401421980448
 30
0.0
  0
VERTEX
  5
16F
  8
6_06MM_ABS_OUTSIDE
 10
-249.2700817871614
 20
-547.4001362329377
 30
0.0
  0
VERTEX
  5
170
  8
6_06MM_ABS_OUTSIDE
 10
-293.7400461004886
 20
-547.4001302678307
 30
0.0
  0
VERTEX
  5
171
  8
6_06MM_ABS_OUTSIDE
 10
-293.7400461004886
 20
-527.4001302678307
 30
0.0
  0
VERTEX
  5
172
  8
6_06MM_ABS_OUTSIDE
 10
-299.800046100489
 20
-527.4001302678307
 30
0.0
  0
VERTEX
  5
173
  8
6_06MM_ABS_OUTSIDE
 10
-299.800046100489
 20
-497.4001302678307
 30
0.0
  0
VERTEX
  5
174
  8
6_06MM_ABS_OUTSIDE
 10
-293.7400461004886
 20
-497.4001302678307
 30
0.0
  0
VERTEX
  5
175
  8
6_06MM_ABS_OUTSIDE
 10
-293.7400461004886
 20
-477.3997965034832
 30
0.0
  0
VERTEX
  5
176
  8
6_06MM_ABS_OUTSIDE
 10
-299.800046100489
 20
-477.3997965034832
 30
0.0
  0
VERTEX
  5
177
  8
6_06MM_ABS_OUTSIDE
 10
-299.800046100489
 20
-447.3997965034832
 30
0.0
  0
VERTEX
  5
178
  8
6_06MM_ABS_OUTSIDE
 10
-293.7400461004886
 20
-447.3997965034832
 30
0.0
  0
VERTEX
  5
179
  8
6_06MM_ABS_OUTSIDE
 10
-293.7400461004886
 20
-387.2887827310867
 30
0.0
  0
VERTEX
  5
17A
  8
6_06MM_ABS_OUTSIDE
 10
-288.7400461004886
 20
-382.2886838389052
 30
0.0
  0
VERTEX
  5
17B
  8
6_06MM_ABS_OUTSIDE
 10
-288.7400461004886
 20
-372.2884860545421
 30
0.0
  0
VERTEX
  5
17C
  8
6_06MM_ABS_OUTSIDE
 10
-293.7400461004886
 20
-367.288387162361
 30
0.0
  0
VERTEX
  5
17D
  8
6_06MM_ABS_OUTSIDE
 10
-293.7400461004886
 20
-322.400400934758
 30
0.0
  0
VERTEX
  5
17E
  8
6_06MM_ABS_OUTSIDE
 10
-299.800046100489
 20
-322.400400934758
 30
0.0
  0
VERTEX
  5
17F
  8
6_06MM_ABS_OUTSIDE
 10
-299.800046100489
 20
-307.400400934758
 30
0.0
  0
VERTEX
  5
180
  8
6_06MM_ABS_OUTSIDE
 10
-293.7400461004886
 20
-307.400400934758
 30
0.0
  0
VERTEX
  5
181
  8
6_06MM_ABS_OUTSIDE
 10
-293.7400461004886
 20
-287.4003953430431
 30
0.0
  0
VERTEX
  5
182
  8
6_06MM_ABS_OUTSIDE
 10
-299.800046100489
 20
-287.4003953430431
 30
0.0
  0
VERTEX
  5
183
  8
6_06MM_ABS_OUTSIDE
 10
-299.800046100489
 20
-272.4003953430431
 30
0.0
  0
VERTEX
  5
184
  8
6_06MM_ABS_OUTSIDE
 10
-293.7400461004886
 20
-272.4003953430431
 30
0.0
  0
VERTEX
  5
185
  8
6_06MM_ABS_OUTSIDE
 10
-293.7400461004886
 20
-257.4003953430431
 30
0.0
  0
VERTEX
  5
186
  8
6_06MM_ABS_OUTSIDE
 10
-249.2700817871614
 20
-257.4003953430431
 30
0.0
  0
VERTEX
  5
187
  8
6_06MM_ABS_OUTSIDE
 10
-249.2700817871614
 20
-263.460395343043
 30
0.0
  0
VERTEX
  5
188
  8
6_06MM_ABS_OUTSIDE
 10
-189.2701362001967
 20
-263.460395343043
 30
0.0
  0
VERTEX
  5
189
  8
6_06MM_ABS_OUTSIDE
 10
-189.2701362001967
 20
-257.4003953430431
 30
0.0
  0
VERTEX
  5
18A
  8
6_06MM_ABS_OUTSIDE
 10
-144.8001718868695
 20
-257.4003953430431
 30
0.0
  0
VERTEX
  5
18B
  8
6_06MM_ABS_OUTSIDE
 10
-144.8001718868695
 20
-437.3997194650906
 30
0.0
  0
VERTEX
  5
18C
  8
6_06MM_ABS_OUTSIDE
 10
-138.7401718868691
 20
-437.3997194650906
 30
0.0
  0
VERTEX
  5
18D
  8
6_06MM_ABS_OUTSIDE
 10
-138.7401718868691
 20
-467.3997194650906
 30
0.0
  0
VERTEX
  5
18E
  8
6_06MM_ABS_OUTSIDE
 10
-144.8001718868695
 20
-467.3997194650906
 30
0.0
  0
VERTEX
  5
18F
  8
6_06MM_ABS_OUTSIDE
 10
-144.8001718868695
 20
-487.3996664500482
 30
0.0
  0
SEQEND
  5
190
  8
6_06MM_ABS_OUTSIDE
  0
POLYLINE
  5
191
  8
6_06MM_ABS_INSIDE
 66
     1
 10
0.0
 20
0.0
 30
0.0
 70
     1
  0
VERTEX
  5
192
  8
6_06MM_ABS_INSIDE
 10
-203.7401467295927
 20
-301.4603784458593
 30
0.0
  0
VERTEX
  5
193
  8
6_06MM_ABS_INSIDE
 10
-203.7401467295927
 20
-280.4603953430426
 30
0.0
  0
VERTEX
  5
194
  8
6_06MM_ABS_INSIDE
 10
-210.7401467295927
 20
-273.4603953430426
 30
0.0
  0
VERTEX
  5
195
  8
6_06MM_ABS_INSIDE
 10
-266.7400461004886
 20
-273.4603953430426
 30
0.0
  0
VERTEX
  5
196
  8
6_06MM_ABS_INSIDE
 10
-273.7400461004886
 20
-280.4603953430426
 30
0.0
  0
VERTEX
  5
197
  8
6_06MM_ABS_INSIDE
 10
-273.7400461004886
 20
-301.4603784458593
 30
0.0
  0
VERTEX
  5
198
  8
6_06MM_ABS_INSIDE
 10
-266.7400461004886
 20
-308.4603784458593
 30
0.0
  0
VERTEX
  5
199
  8
6_06MM_ABS_INSIDE
 10
-210.7401467295927
 20
-308.4603784458593
 30
0.0
  0
SEQEND
  5
19A
  8
6_06MM_ABS_INSIDE
  0
POLYLINE
  5
19C
  8
BOUNDARIES
 66
     1
 10
0.0
 20
0.0
 30
0.0
 70
     1
  0
VERTEX
  5
19D
  8
BOUNDARIES
 10
-304.8000461004892
 20
-247.6001302678308
 30
0.0
  0
VERTEX
  5
19E
  8
BOUNDARIES
 10
-304.8000461004892
 20
-552.4001302678307
 30
0.0
  0
VERTEX
  5
19F
  8
BOUNDARIES
 10
304.7999538995107
 20
-552.4001302678307
 30
0.0
  0
VERTEX
  5
1A0
  8
BOUNDARIES
 10
304.7999538995107
 20
-247.6001302678308
 30
0.0
  0
SEQEND
  5
1A1
  8
BOUNDARIES
  0
ENDSEC
  0
EOF
