  0
SECTION
  2
HEADER
  9
$ACADVER
  1
AC1009
  9
$DWGCODEPAGE
  3
ansi_1252
  9
$INSBASE
 10
0.0
 20
0.0
 30
0.0
  9
$EXTMIN
 10
-304.7999610263751
 20
-952.4000000000001
 30
0.0
  9
$EXTMAX
 10
304.8000389736253
 20
-647.5999999999999
 30
0.0
  9
$LIMMIN
 10
0.0
 20
0.0
  9
$LIMMAX
 10
12.0
 20
9.0
  9
$ORTHOMODE
 70
     0
  9
$REGENMODE
 70
     1
  9
$FILLMODE
 70
     1
  9
$QTEXTMODE
 70
     0
  9
$MIRRTEXT
 70
     1
  9
$DRAGMODE
 70
     2
  9
$LTSCALE
 40
1.0
  9
$OSMODE
 70
    37
  9
$ATTMODE
 70
     1
  9
$TEXTSIZE
 40
0.2
  9
$TRACEWID
 40
0.05
  9
$TEXTSTYLE
  7
STANDARD
  9
$CLAYER
  8
0
  9
$CELTYPE
  6
BYLAYER
  9
$CECOLOR
 62
   256
  9
$DIMSCALE
 40
1.0
  9
$DIMASZ
 40
0.18
  9
$DIMEXO
 40
0.0625
  9
$DIMDLI
 40
0.38
  9
$DIMRND
 40
0.0
  9
$DIMDLE
 40
0.0
  9
$DIMEXE
 40
0.18
  9
$DIMTP
 40
0.0
  9
$DIMTM
 40
0.0
  9
$DIMTXT
 40
0.18
  9
$DIMCEN
 40
0.09
  9
$DIMTSZ
 40
0.0
  9
$DIMTOL
 70
     0
  9
$DIMLIM
 70
     0
  9
$DIMTIH
 70
     1
  9
$DIMTOH
 70
     1
  9
$DIMSE1
 70
     0
  9
$DIMSE2
 70
     0
  9
$DIMTAD
 70
     0
  9
$DIMZIN
 70
     0
  9
$DIMBLK
  1

  9
$DIMASO
 70
     1
  9
$DIMSHO
 70
     1
  9
$DIMPOST
  1

  9
$DIMAPOST
  1

  9
$DIMALT
 70
     0
  9
$DIMALTD
 70
     2
  9
$DIMALTF
 40
25.4
  9
$DIMLFAC
 40
1.0
  9
$DIMTOFL
 70
     0
  9
$DIMTVP
 40
0.0
  9
$DIMTIX
 70
     0
  9
$DIMSOXD
 70
     0
  9
$DIMSAH
 70
     0
  9
$DIMBLK1
  1

  9
$DIMBLK2
  1

  9
$DIMSTYLE
  2
STANDARD
  9
$DIMCLRD
 70
     0
  9
$DIMCLRE
 70
     0
  9
$DIMCLRT
 70
     0
  9
$DIMTFAC
 40
1.0
  9
$DIMGAP
 40
0.09
  9
$LUNITS
 70
     2
  9
$LUPREC
 70
     3
  9
$SKETCHINC
 40
0.1
  9
$FILLETRAD
 40
0.5
  9
$AUNITS
 70
     0
  9
$AUPREC
 70
     0
  9
$MENU
  1
.
  9
$ELEVATION
 40
0.0
  9
$PELEVATION
 40
0.0
  9
$THICKNESS
 40
0.0
  9
$LIMCHECK
 70
     0
  9
$CHAMFERA
 40
0.0
  9
$CHAMFERB
 40
0.0
  9
$SKPOLY
 70
     0
  9
$TDCREATE
 40
2457280.466619387
  9
$TDUPDATE
 40
2457280.466632234
  9
$TDINDWG
 40
0.0000000116
  9
$TDUSRTIMER
 40
0.0000000116
  9
$USRTIMER
 70
     1
  9
$ANGBASE
 50
0.0
  9
$ANGDIR
 70
     0
  9
$PDMODE
 70
     0
  9
$PDSIZE
 40
0.0
  9
$PLINEWID
 40
0.0
  9
$COORDS
 70
     1
  9
$SPLFRAME
 70
     0
  9
$SPLINETYPE
 70
     6
  9
$SPLINESEGS
 70
     8
  9
$ATTDIA
 70
     0
  9
$ATTREQ
 70
     1
  9
$HANDLING
 70
     1
  9
$HANDSEED
  5
359
  9
$SURFTAB1
 70
     6
  9
$SURFTAB2
 70
     6
  9
$SURFTYPE
 70
     6
  9
$SURFU
 70
     6
  9
$SURFV
 70
     6
  9
$UCSNAME
  2

  9
$UCSORG
 10
0.0
 20
0.0
 30
0.0
  9
$UCSXDIR
 10
1.0
 20
0.0
 30
0.0
  9
$UCSYDIR
 10
0.0
 20
1.0
 30
0.0
  9
$PUCSNAME
  2

  9
$PUCSORG
 10
0.0
 20
0.0
 30
0.0
  9
$PUCSXDIR
 10
1.0
 20
0.0
 30
0.0
  9
$PUCSYDIR
 10
0.0
 20
1.0
 30
0.0
  9
$USERI1
 70
     0
  9
$USERI2
 70
     0
  9
$USERI3
 70
     0
  9
$USERI4
 70
     0
  9
$USERI5
 70
     0
  9
$USERR1
 40
0.0
  9
$USERR2
 40
0.0
  9
$USERR3
 40
0.0
  9
$USERR4
 40
0.0
  9
$USERR5
 40
0.0
  9
$WORLDVIEW
 70
     1
  9
$SHADEDGE
 70
     3
  9
$SHADEDIF
 70
    70
  9
$TILEMODE
 70
     1
  9
$MAXACTVP
 70
    64
  9
$PLIMCHECK
 70
     0
  9
$PEXTMIN
 10
1.000000000000000E+20
 20
1.000000000000000E+20
 30
1.000000000000000E+20
  9
$PEXTMAX
 10
-1.000000000000000E+20
 20
-1.000000000000000E+20
 30
-1.000000000000000E+20
  9
$PLIMMIN
 10
0.0
 20
0.0
  9
$PLIMMAX
 10
12.0
 20
9.0
  9
$UNITMODE
 70
     0
  9
$VISRETAIN
 70
     1
  9
$PLINEGEN
 70
     0
  9
$PSLTSCALE
 70
     1
  0
ENDSEC
  0
SECTION
  2
TABLES
  0
TABLE
  2
VPORT
 70
     1
  0
VPORT
  2
*ACTIVE
 70
     0
 10
0.0
 20
0.0
 11
1.0
 21
1.0
 12
0.0000389736251236
 22
-800.0
 13
0.0
 23
0.0
 14
0.5
 24
0.5
 15
0.5
 25
0.5
 16
0.0
 26
0.0
 36
1.0
 17
0.0
 27
0.0
 37
0.0
 40
310.8960000000002
 41
2.0
 42
50.0
 43
0.0
 44
0.0
 50
0.0
 51
0.0
 71
     0
 72
   100
 73
     1
 74
     3
 75
     0
 76
     0
 77
     0
 78
     0
  0
ENDTAB
  0
TABLE
  2
LTYPE
 70
     1
  0
LTYPE
  2
CONTINUOUS
 70
     0
  3
Solid line
 72
    65
 73
     0
 40
0.0
  0
ENDTAB
  0
TABLE
  2
LAYER
 70
     5
  0
LAYER
  2
0
 70
     0
 62
     7
  6
CONTINUOUS
  0
LAYER
  2
6_06MM_ABS_INSIDE
 70
     0
 62
    15
  6
CONTINUOUS
  0
LAYER
  2
6_06MM_ABS_OUTSIDE
 70
     0
 62
     1
  6
CONTINUOUS
  0
LAYER
  2
SCREW_HOLES
 70
     0
 62
     7
  6
CONTINUOUS
  0
LAYER
  2
BOUNDARIES
 70
     0
 62
     7
  6
CONTINUOUS
  0
ENDTAB
  0
TABLE
  2
STYLE
 70
     1
  0
STYLE
  2
STANDARD
 70
     0
 40
0.0
 41
1.0
 50
0.0
 71
     0
 42
0.2
  3
txt
  4

  0
ENDTAB
  0
TABLE
  2
VIEW
 70
     0
  0
ENDTAB
  0
TABLE
  2
UCS
 70
     0
  0
ENDTAB
  0
TABLE
  2
APPID
 70
     1
  0
APPID
  2
ACAD
 70
     0
  0
ENDTAB
  0
TABLE
  2
DIMSTYLE
 70
     1
  0
DIMSTYLE
  2
STANDARD
 70
     0
  3

  4

  5

  6

  7

 40
1.0
 41
0.18
 42
0.0625
 43
0.38
 44
0.18
 45
0.0
 46
0.0
 47
0.0
 48
0.0
140
0.18
141
0.09
142
0.0
143
25.4
144
1.0
145
0.0
146
1.0
147
0.09
 71
     0
 72
     0
 73
     1
 74
     1
 75
     0
 76
     0
 77
     0
 78
     0
170
     0
171
     2
172
     0
173
     0
174
     0
175
     0
176
     0
177
     0
178
     0
  0
ENDTAB
  0
ENDSEC
  0
SECTION
  2
BLOCKS
  0
BLOCK
  8
0
  2
$MODEL_SPACE
 70
     0
 10
0.0
 20
0.0
 30
0.0
  3
$MODEL_SPACE
  1

  0
ENDBLK
  5
21
  8
0
  0
BLOCK
 67
     1
  8
0
  2
$PAPER_SPACE
 70
     0
 10
0.0
 20
0.0
 30
0.0
  3
$PAPER_SPACE
  1

  0
ENDBLK
  5
1D
 67
     1
  8
0
  0
ENDSEC
  0
SECTION
  2
ENTITIES
  0
POLYLINE
  5
6F
  8
6_06MM_ABS_INSIDE
 66
     1
 10
0.0
 20
0.0
 30
0.0
 70
     1
  0
VERTEX
  5
70
  8
6_06MM_ABS_INSIDE
 10
152.2996291163703
 20
-889.8399817240717
 30
0.0
 42
-0.414213251903128
  0
VERTEX
  5
71
  8
6_06MM_ABS_INSIDE
 10
155.2996291163702
 20
-886.8399818695307
 30
0.0
  0
VERTEX
  5
72
  8
6_06MM_ABS_INSIDE
 10
158.2996291163699
 20
-886.8399818695309
 30
0.0
 42
-0.4142135765744423
  0
VERTEX
  5
73
  8
6_06MM_ABS_INSIDE
 10
161.29962911637
 20
-889.8399820149903
 30
0.0
  0
VERTEX
  5
74
  8
6_06MM_ABS_INSIDE
 10
161.2996272253994
 20
-919.83998201499
 30
0.0
 42
-0.4142133506593313
  0
VERTEX
  5
75
  8
6_06MM_ABS_INSIDE
 10
158.2996272253995
 20
-922.8399818695308
 30
0.0
  0
VERTEX
  5
76
  8
6_06MM_ABS_INSIDE
 10
155.2996272253995
 20
-922.839981869531
 30
0.0
 42
-0.4142134778180583
  0
VERTEX
  5
77
  8
6_06MM_ABS_INSIDE
 10
152.2996272253992
 20
-919.8399817240717
 30
0.0
  0
SEQEND
  5
78
  8
6_06MM_ABS_INSIDE
  0
POLYLINE
  5
79
  8
6_06MM_ABS_INSIDE
 66
     1
 10
0.0
 20
0.0
 30
0.0
 70
     1
  0
VERTEX
  5
7A
  8
6_06MM_ABS_INSIDE
 10
242.2996291163702
 20
-889.8399817240717
 30
0.0
 42
-0.4142134494154349
  0
VERTEX
  5
7B
  8
6_06MM_ABS_INSIDE
 10
245.2996291163709
 20
-886.8399818695309
 30
0.0
  0
VERTEX
  5
7C
  8
6_06MM_ABS_INSIDE
 10
248.2996291163697
 20
-886.839981869531
 30
0.0
 42
-0.4142133790619964
  0
VERTEX
  5
7D
  8
6_06MM_ABS_INSIDE
 10
251.2996291163699
 20
-889.8399820149903
 30
0.0
  0
VERTEX
  5
7E
  8
6_06MM_ABS_INSIDE
 10
251.2996272253994
 20
-919.83998201499
 30
0.0
 42
-0.4142132519034062
  0
VERTEX
  5
7F
  8
6_06MM_ABS_INSIDE
 10
248.2996272253994
 20
-922.8399818695307
 30
0.0
  0
VERTEX
  5
80
  8
6_06MM_ABS_INSIDE
 10
245.2996272254004
 20
-922.8399818695308
 30
0.0
 42
-0.4142134778182272
  0
VERTEX
  5
81
  8
6_06MM_ABS_INSIDE
 10
242.2996272253993
 20
-919.8399817240717
 30
0.0
  0
SEQEND
  5
82
  8
6_06MM_ABS_INSIDE
  0
POLYLINE
  5
83
  8
6_06MM_ABS_INSIDE
 66
     1
 10
0.0
 20
0.0
 30
0.0
 70
     1
  0
VERTEX
  5
84
  8
6_06MM_ABS_INSIDE
 10
260.2996291163708
 20
-889.8399817240718
 30
0.0
 42
-0.4142134494155537
  0
VERTEX
  5
85
  8
6_06MM_ABS_INSIDE
 10
263.2996291163709
 20
-886.8399818695308
 30
0.0
  0
VERTEX
  5
86
  8
6_06MM_ABS_INSIDE
 10
266.2996291163695
 20
-886.8399818695309
 30
0.0
 42
-0.414213379062055
  0
VERTEX
  5
87
  8
6_06MM_ABS_INSIDE
 10
269.29962911637
 20
-889.8399820149903
 30
0.0
  0
VERTEX
  5
88
  8
6_06MM_ABS_INSIDE
 10
269.2996272253993
 20
-919.8399820149901
 30
0.0
 42
-0.4142133506593782
  0
VERTEX
  5
89
  8
6_06MM_ABS_INSIDE
 10
266.2996272253996
 20
-922.8399818695308
 30
0.0
  0
VERTEX
  5
8A
  8
6_06MM_ABS_INSIDE
 10
263.2996272254004
 20
-922.8399818695308
 30
0.0
 42
-0.4142134778180416
  0
VERTEX
  5
8B
  8
6_06MM_ABS_INSIDE
 10
260.2996272253993
 20
-919.8399817240717
 30
0.0
  0
SEQEND
  5
8C
  8
6_06MM_ABS_INSIDE
  0
POLYLINE
  5
8D
  8
6_06MM_ABS_INSIDE
 66
     1
 10
0.0
 20
0.0
 30
0.0
 70
     1
  0
VERTEX
  5
8E
  8
6_06MM_ABS_INSIDE
 10
224.2996291163699
 20
-889.8399817240718
 30
0.0
 42
-0.4142135481717864
  0
VERTEX
  5
8F
  8
6_06MM_ABS_INSIDE
 10
227.2996291163709
 20
-886.8399818695308
 30
0.0
  0
VERTEX
  5
90
  8
6_06MM_ABS_INSIDE
 10
230.2996291163699
 20
-886.839981869531
 30
0.0
 42
-0.4142135765744139
  0
VERTEX
  5
91
  8
6_06MM_ABS_INSIDE
 10
233.29962911637
 20
-889.8399820149903
 30
0.0
  0
VERTEX
  5
92
  8
6_06MM_ABS_INSIDE
 10
233.2996272253995
 20
-919.83998201499
 30
0.0
 42
-0.4142134494156267
  0
VERTEX
  5
93
  8
6_06MM_ABS_INSIDE
 10
230.2996272253995
 20
-922.8399818695309
 30
0.0
  0
VERTEX
  5
94
  8
6_06MM_ABS_INSIDE
 10
227.2996272254004
 20
-922.8399818695311
 30
0.0
 42
-0.4142134778181338
  0
VERTEX
  5
95
  8
6_06MM_ABS_INSIDE
 10
224.2996272253989
 20
-919.8399817240717
 30
0.0
  0
SEQEND
  5
96
  8
6_06MM_ABS_INSIDE
  0
POLYLINE
  5
97
  8
6_06MM_ABS_INSIDE
 66
     1
 10
0.0
 20
0.0
 30
0.0
 70
     1
  0
VERTEX
  5
98
  8
6_06MM_ABS_INSIDE
 10
210.7996281708847
 20
-940.4000000000001
 30
0.0
  0
VERTEX
  5
99
  8
6_06MM_ABS_INSIDE
 10
180.7996281708847
 20
-940.4000000000001
 30
0.0
  0
VERTEX
  5
9A
  8
6_06MM_ABS_INSIDE
 10
180.7996281708847
 20
-934.3400000000001
 30
0.0
  0
VERTEX
  5
9B
  8
6_06MM_ABS_INSIDE
 10
210.7996281708847
 20
-934.3400000000001
 30
0.0
  0
SEQEND
  5
9C
  8
6_06MM_ABS_INSIDE
  0
POLYLINE
  5
9D
  8
6_06MM_ABS_INSIDE
 66
     1
 10
0.0
 20
0.0
 30
0.0
 70
     1
  0
VERTEX
  5
9E
  8
6_06MM_ABS_INSIDE
 10
21.86030486681011
 20
-849.3399186065437
 30
0.0
  0
VERTEX
  5
9F
  8
6_06MM_ABS_INSIDE
 10
26.86030486681011
 20
-844.3399186065437
 30
0.0
  0
VERTEX
  5
A0
  8
6_06MM_ABS_INSIDE
 10
101.860304866811
 20
-844.3399186065435
 30
0.0
  0
VERTEX
  5
A1
  8
6_06MM_ABS_INSIDE
 10
106.860304866811
 20
-849.3399186065433
 30
0.0
  0
VERTEX
  5
A2
  8
6_06MM_ABS_INSIDE
 10
106.8603048668101
 20
-859.3399186065442
 30
0.0
  0
VERTEX
  5
A3
  8
6_06MM_ABS_INSIDE
 10
101.8603048668101
 20
-864.3399186065437
 30
0.0
  0
VERTEX
  5
A4
  8
6_06MM_ABS_INSIDE
 10
26.86030486681011
 20
-864.3399186065437
 30
0.0
  0
VERTEX
  5
A5
  8
6_06MM_ABS_INSIDE
 10
21.86030486681011
 20
-859.3399186065437
 30
0.0
  0
SEQEND
  5
A6
  8
6_06MM_ABS_INSIDE
  0
POLYLINE
  5
A7
  8
6_06MM_ABS_INSIDE
 66
     1
 10
0.0
 20
0.0
 30
0.0
 70
     1
  0
VERTEX
  5
A8
  8
6_06MM_ABS_INSIDE
 10
170.2996291163697
 20
-889.8399817240717
 30
0.0
 42
-0.414213449415444
  0
VERTEX
  5
A9
  8
6_06MM_ABS_INSIDE
 10
173.2996291163699
 20
-886.8399818695309
 30
0.0
  0
VERTEX
  5
AA
  8
6_06MM_ABS_INSIDE
 10
176.2996291163699
 20
-886.8399818695309
 30
0.0
 42
-0.4142133790619801
  0
VERTEX
  5
AB
  8
6_06MM_ABS_INSIDE
 10
179.2996291163698
 20
-889.8399820149903
 30
0.0
  0
VERTEX
  5
AC
  8
6_06MM_ABS_INSIDE
 10
179.2996272253994
 20
-919.8399820149901
 30
0.0
 42
-0.4142133506593043
  0
VERTEX
  5
AD
  8
6_06MM_ABS_INSIDE
 10
176.2996272253998
 20
-922.8399818695308
 30
0.0
  0
VERTEX
  5
AE
  8
6_06MM_ABS_INSIDE
 10
173.2996272253995
 20
-922.8399818695311
 30
0.0
 42
-0.4142134778180392
  0
VERTEX
  5
AF
  8
6_06MM_ABS_INSIDE
 10
170.299627225399
 20
-919.8399817240717
 30
0.0
  0
SEQEND
  5
B0
  8
6_06MM_ABS_INSIDE
  0
POLYLINE
  5
B1
  8
6_06MM_ABS_INSIDE
 66
     1
 10
0.0
 20
0.0
 30
0.0
 70
     1
  0
VERTEX
  5
B2
  8
6_06MM_ABS_INSIDE
 10
197.7400509038389
 20
-859.3399186065438
 30
0.0
 42
-0.4142133648608033
  0
VERTEX
  5
B3
  8
6_06MM_ABS_INSIDE
 10
202.740050903839
 20
-864.3399186065435
 30
0.0
  0
VERTEX
  5
B4
  8
6_06MM_ABS_INSIDE
 10
202.740050903839
 20
-869.3399186065437
 30
0.0
 42
-0.4142135623731443
  0
VERTEX
  5
B5
  8
6_06MM_ABS_INSIDE
 10
197.7400509038398
 20
-874.3399186065438
 30
0.0
  0
VERTEX
  5
B6
  8
6_06MM_ABS_INSIDE
 10
187.7400183464565
 20
-874.3399186065437
 30
0.0
 42
-0.4142134636168841
  0
VERTEX
  5
B7
  8
6_06MM_ABS_INSIDE
 10
182.740018346457
 20
-869.3399186065437
 30
0.0
  0
VERTEX
  5
B8
  8
6_06MM_ABS_INSIDE
 10
182.7400183464565
 20
-864.3399186065437
 30
0.0
 42
-0.4142134636168648
  0
VERTEX
  5
B9
  8
6_06MM_ABS_INSIDE
 10
187.740018346457
 20
-859.3399186065437
 30
0.0
  0
SEQEND
  5
BA
  8
6_06MM_ABS_INSIDE
  0
POLYLINE
  5
BB
  8
6_06MM_ABS_INSIDE
 66
     1
 10
0.0
 20
0.0
 30
0.0
 70
     1
  0
VERTEX
  5
BC
  8
6_06MM_ABS_INSIDE
 10
227.7400509038389
 20
-859.3399186065437
 30
0.0
 42
-0.4142134636168855
  0
VERTEX
  5
BD
  8
6_06MM_ABS_INSIDE
 10
232.7400509038392
 20
-864.3399186065437
 30
0.0
  0
VERTEX
  5
BE
  8
6_06MM_ABS_INSIDE
 10
232.7400509038398
 20
-869.3399186065437
 30
0.0
 42
-0.4142135623730837
  0
VERTEX
  5
BF
  8
6_06MM_ABS_INSIDE
 10
227.7400509038398
 20
-874.3399186065438
 30
0.0
  0
VERTEX
  5
C0
  8
6_06MM_ABS_INSIDE
 10
217.740018346457
 20
-874.3399186065437
 30
0.0
 42
-0.4142135623731531
  0
VERTEX
  5
C1
  8
6_06MM_ABS_INSIDE
 10
212.740018346457
 20
-869.3399186065437
 30
0.0
  0
VERTEX
  5
C2
  8
6_06MM_ABS_INSIDE
 10
212.7400183464569
 20
-864.3399186065437
 30
0.0
 42
-0.4142134636169041
  0
VERTEX
  5
C3
  8
6_06MM_ABS_INSIDE
 10
217.740018346457
 20
-859.3399186065437
 30
0.0
  0
SEQEND
  5
C4
  8
6_06MM_ABS_INSIDE
  0
POLYLINE
  5
C5
  8
6_06MM_ABS_INSIDE
 66
     1
 10
0.0
 20
0.0
 30
0.0
 70
     1
  0
VERTEX
  5
C6
  8
6_06MM_ABS_INSIDE
 10
206.2996291163704
 20
-889.8399817240717
 30
0.0
 42
-0.414213449415489
  0
VERTEX
  5
C7
  8
6_06MM_ABS_INSIDE
 10
209.2996291163709
 20
-886.8399818695309
 30
0.0
  0
VERTEX
  5
C8
  8
6_06MM_ABS_INSIDE
 10
212.2996291163699
 20
-886.8399818695309
 30
0.0
 42
-0.4142135765744837
  0
VERTEX
  5
C9
  8
6_06MM_ABS_INSIDE
 10
215.2996291163699
 20
-889.8399820149903
 30
0.0
  0
VERTEX
  5
CA
  8
6_06MM_ABS_INSIDE
 10
215.2996272253998
 20
-919.83998201499
 30
0.0
 42
-0.4142133506593189
  0
VERTEX
  5
CB
  8
6_06MM_ABS_INSIDE
 10
212.2996272253995
 20
-922.839981869531
 30
0.0
  0
VERTEX
  5
CC
  8
6_06MM_ABS_INSIDE
 10
209.2996272253995
 20
-922.8399818695308
 30
0.0
 42
-0.4142134778180983
  0
VERTEX
  5
CD
  8
6_06MM_ABS_INSIDE
 10
206.2996272253993
 20
-919.8399817240719
 30
0.0
  0
SEQEND
  5
CE
  8
6_06MM_ABS_INSIDE
  0
POLYLINE
  5
CF
  8
6_06MM_ABS_INSIDE
 66
     1
 10
0.0
 20
0.0
 30
0.0
 70
     1
  0
VERTEX
  5
D0
  8
6_06MM_ABS_INSIDE
 10
257.7400509038396
 20
-859.3399186065436
 30
0.0
 42
-0.4142132661044912
  0
VERTEX
  5
D1
  8
6_06MM_ABS_INSIDE
 10
262.7400509038394
 20
-864.3399186065433
 30
0.0
  0
VERTEX
  5
D2
  8
6_06MM_ABS_INSIDE
 10
262.7400509038398
 20
-869.3399186065437
 30
0.0
 42
-0.4142135623730931
  0
VERTEX
  5
D3
  8
6_06MM_ABS_INSIDE
 10
257.7400509038398
 20
-874.3399186065437
 30
0.0
  0
VERTEX
  5
D4
  8
6_06MM_ABS_INSIDE
 10
247.740018346457
 20
-874.3399186065437
 30
0.0
 42
-0.414213562373099
  0
VERTEX
  5
D5
  8
6_06MM_ABS_INSIDE
 10
242.7400183464569
 20
-869.3399186065437
 30
0.0
  0
VERTEX
  5
D6
  8
6_06MM_ABS_INSIDE
 10
242.7400183464564
 20
-864.3399186065437
 30
0.0
 42
-0.4142134636168556
  0
VERTEX
  5
D7
  8
6_06MM_ABS_INSIDE
 10
247.740018346457
 20
-859.3399186065436
 30
0.0
  0
SEQEND
  5
D8
  8
6_06MM_ABS_INSIDE
  0
POLYLINE
  5
D9
  8
6_06MM_ABS_INSIDE
 66
     1
 10
0.0
 20
0.0
 30
0.0
 70
     1
  0
VERTEX
  5
DA
  8
6_06MM_ABS_INSIDE
 10
0.8003048668097108
 20
-864.3399186065437
 30
0.0
  0
VERTEX
  5
DB
  8
6_06MM_ABS_INSIDE
 10
0.8003048668106203
 20
-844.3399186065437
 30
0.0
  0
VERTEX
  5
DC
  8
6_06MM_ABS_INSIDE
 10
6.860304866810111
 20
-844.3399186065437
 30
0.0
  0
VERTEX
  5
DD
  8
6_06MM_ABS_INSIDE
 10
6.860304866810111
 20
-864.3399186065437
 30
0.0
  0
SEQEND
  5
DE
  8
6_06MM_ABS_INSIDE
  0
POLYLINE
  5
DF
  8
6_06MM_ABS_INSIDE
 66
     1
 10
0.0
 20
0.0
 30
0.0
 70
     1
  0
VERTEX
  5
E0
  8
6_06MM_ABS_INSIDE
 10
159.8001749329123
 20
-863.3399186065437
 30
0.0
  0
VERTEX
  5
E1
  8
6_06MM_ABS_INSIDE
 10
131.8001749329123
 20
-863.3399186065437
 30
0.0
 42
-0.4142135623731676
  0
VERTEX
  5
E2
  8
6_06MM_ABS_INSIDE
 10
127.8001749329123
 20
-859.3399186065437
 30
0.0
  0
VERTEX
  5
E3
  8
6_06MM_ABS_INSIDE
 10
127.8001749329124
 20
-853.3399186065437
 30
0.0
 42
-0.4142134636169303
  0
VERTEX
  5
E4
  8
6_06MM_ABS_INSIDE
 10
131.8001749329123
 20
-849.3399186065437
 30
0.0
  0
VERTEX
  5
E5
  8
6_06MM_ABS_INSIDE
 10
159.8001749329123
 20
-849.3399186065437
 30
0.0
 42
-0.4142134636168944
  0
VERTEX
  5
E6
  8
6_06MM_ABS_INSIDE
 10
163.8001749329119
 20
-853.3399186065437
 30
0.0
  0
VERTEX
  5
E7
  8
6_06MM_ABS_INSIDE
 10
163.8001749329124
 20
-859.3399186065437
 30
0.0
 42
-0.4142133648608299
  0
SEQEND
  5
E8
  8
6_06MM_ABS_INSIDE
  0
POLYLINE
  5
E9
  8
6_06MM_ABS_INSIDE
 66
     1
 10
0.0
 20
0.0
 30
0.0
 70
     1
  0
VERTEX
  5
EA
  8
6_06MM_ABS_INSIDE
 10
188.2996291163699
 20
-889.8399817240718
 30
0.0
 42
-0.4142135481717863
  0
VERTEX
  5
EB
  8
6_06MM_ABS_INSIDE
 10
191.2996291163699
 20
-886.8399818695309
 30
0.0
  0
VERTEX
  5
EC
  8
6_06MM_ABS_INSIDE
 10
194.2996291163699
 20
-886.8399818695309
 30
0.0
 42
-0.4142135765744423
  0
VERTEX
  5
ED
  8
6_06MM_ABS_INSIDE
 10
197.29962911637
 20
-889.8399820149903
 30
0.0
  0
VERTEX
  5
EE
  8
6_06MM_ABS_INSIDE
 10
197.2996272253995
 20
-919.8399820149901
 30
0.0
 42
-0.4142133506594344
  0
VERTEX
  5
EF
  8
6_06MM_ABS_INSIDE
 10
194.2996272253997
 20
-922.8399818695307
 30
0.0
  0
VERTEX
  5
F0
  8
6_06MM_ABS_INSIDE
 10
191.2996272253995
 20
-922.8399818695309
 30
0.0
 42
-0.4142134778181052
  0
VERTEX
  5
F1
  8
6_06MM_ABS_INSIDE
 10
188.2996272253996
 20
-919.8399817240715
 30
0.0
  0
SEQEND
  5
F2
  8
6_06MM_ABS_INSIDE
  0
POLYLINE
  5
F3
  8
6_06MM_ABS_INSIDE
 66
     1
 10
0.0
 20
0.0
 30
0.0
 70
     1
  0
VERTEX
  5
F4
  8
6_06MM_ABS_INSIDE
 10
41.86030486680647
 20
-888.2798738754079
 30
0.0
 42
-0.4142133648607046
  0
VERTEX
  5
F5
  8
6_06MM_ABS_INSIDE
 10
46.86030486680659
 20
-893.2798738754078
 30
0.0
  0
VERTEX
  5
F6
  8
6_06MM_ABS_INSIDE
 10
46.8603048668064
 20
-913.2798738754078
 30
0.0
 42
-0.4142135623730876
  0
VERTEX
  5
F7
  8
6_06MM_ABS_INSIDE
 10
41.86030486680647
 20
-918.2798738754079
 30
0.0
  0
VERTEX
  5
F8
  8
6_06MM_ABS_INSIDE
 10
31.86030486680647
 20
-918.2798738754079
 30
0.0
 42
-0.4142135623731402
  0
VERTEX
  5
F9
  8
6_06MM_ABS_INSIDE
 10
26.86030486680659
 20
-913.2798738754078
 30
0.0
  0
VERTEX
  5
FA
  8
6_06MM_ABS_INSIDE
 10
26.86030486680647
 20
-893.2798738754078
 30
0.0
 42
-0.4142134636168733
  0
VERTEX
  5
FB
  8
6_06MM_ABS_INSIDE
 10
31.86030486680648
 20
-888.2798738754079
 30
0.0
  0
SEQEND
  5
FC
  8
6_06MM_ABS_INSIDE
  0
POLYLINE
  5
FD
  8
6_06MM_ABS_INSIDE
 66
     1
 10
0.0
 20
0.0
 30
0.0
 70
     1
  0
VERTEX
  5
FE
  8
6_06MM_ABS_INSIDE
 10
0.8003048668060728
 20
-923.2798612103527
 30
0.0
  0
VERTEX
  5
FF
  8
6_06MM_ABS_INSIDE
 10
0.8003048668060728
 20
-903.2798286529701
 30
0.0
  0
VERTEX
  5
100
  8
6_06MM_ABS_INSIDE
 10
6.860304866806473
 20
-903.2798286529701
 30
0.0
  0
VERTEX
  5
101
  8
6_06MM_ABS_INSIDE
 10
6.860304866806473
 20
-923.2798612103527
 30
0.0
  0
SEQEND
  5
102
  8
6_06MM_ABS_INSIDE
  0
POLYLINE
  5
103
  8
6_06MM_ABS_INSIDE
 66
     1
 10
0.0
 20
0.0
 30
0.0
 70
     1
  0
VERTEX
  5
104
  8
6_06MM_ABS_INSIDE
 10
6.860304048836952
 20
-928.2800052534039
 30
0.0
  0
VERTEX
  5
105
  8
6_06MM_ABS_INSIDE
 10
125.80027025447
 20
-928.2800052534039
 30
0.0
  0
VERTEX
  5
106
  8
6_06MM_ABS_INSIDE
 10
125.80027025447
 20
-934.3400052534039
 30
0.0
  0
VERTEX
  5
107
  8
6_06MM_ABS_INSIDE
 10
6.860304048836952
 20
-934.3400052534039
 30
0.0
  0
SEQEND
  5
108
  8
6_06MM_ABS_INSIDE
  0
POLYLINE
  5
109
  8
6_06MM_ABS_INSIDE
 66
     1
 10
0.0
 20
0.0
 30
0.0
 70
     1
  0
VERTEX
  5
10A
  8
6_06MM_ABS_INSIDE
 10
6.860304048836952
 20
-872.2196829387856
 30
0.0
  0
VERTEX
  5
10B
  8
6_06MM_ABS_INSIDE
 10
125.80027025447
 20
-872.2196829387856
 30
0.0
  0
VERTEX
  5
10C
  8
6_06MM_ABS_INSIDE
 10
125.80027025447
 20
-878.2796829387855
 30
0.0
  0
VERTEX
  5
10D
  8
6_06MM_ABS_INSIDE
 10
6.860304048836952
 20
-878.2796829387855
 30
0.0
  0
SEQEND
  5
10E
  8
6_06MM_ABS_INSIDE
  0
POLYLINE
  5
10F
  8
6_06MM_ABS_INSIDE
 66
     1
 10
0.0
 20
0.0
 30
0.0
 70
     1
  0
VERTEX
  5
110
  8
6_06MM_ABS_INSIDE
 10
230.7995751558428
 20
-934.3400000000001
 30
0.0
  0
VERTEX
  5
111
  8
6_06MM_ABS_INSIDE
 10
260.7995751558428
 20
-934.3400000000001
 30
0.0
  0
VERTEX
  5
112
  8
6_06MM_ABS_INSIDE
 10
260.7995751558428
 20
-940.4000000000001
 30
0.0
  0
VERTEX
  5
113
  8
6_06MM_ABS_INSIDE
 10
230.7995751558428
 20
-940.4000000000001
 30
0.0
  0
SEQEND
  5
114
  8
6_06MM_ABS_INSIDE
  0
POLYLINE
  5
115
  8
6_06MM_ABS_INSIDE
 66
     1
 10
0.0
 20
0.0
 30
0.0
 70
     1
  0
VERTEX
  5
116
  8
6_06MM_ABS_INSIDE
 10
284.7400509038389
 20
-899.3399743286134
 30
0.0
  0
VERTEX
  5
117
  8
6_06MM_ABS_INSIDE
 10
290.8000509038393
 20
-899.3399743286134
 30
0.0
  0
VERTEX
  5
118
  8
6_06MM_ABS_INSIDE
 10
290.8000509038393
 20
-919.3399743286134
 30
0.0
  0
VERTEX
  5
119
  8
6_06MM_ABS_INSIDE
 10
284.7400509038389
 20
-919.3399743286134
 30
0.0
  0
SEQEND
  5
11A
  8
6_06MM_ABS_INSIDE
  0
POLYLINE
  5
11B
  8
6_06MM_ABS_INSIDE
 66
     1
 10
0.0
 20
0.0
 30
0.0
 70
     1
  0
VERTEX
  5
11C
  8
6_06MM_ABS_INSIDE
 10
290.8000509038393
 20
-879.3399417712308
 30
0.0
  0
VERTEX
  5
11D
  8
6_06MM_ABS_INSIDE
 10
284.7400509038389
 20
-879.3399417712308
 30
0.0
  0
VERTEX
  5
11E
  8
6_06MM_ABS_INSIDE
 10
284.7400509038389
 20
-859.3399417712308
 30
0.0
  0
VERTEX
  5
11F
  8
6_06MM_ABS_INSIDE
 10
290.8000509038393
 20
-859.3399417712308
 30
0.0
  0
SEQEND
  5
120
  8
6_06MM_ABS_INSIDE
  0
POLYLINE
  5
122
  8
6_06MM_ABS_OUTSIDE
 66
     1
 10
0.0
 20
0.0
 30
0.0
 70
     1
  0
VERTEX
  5
123
  8
6_06MM_ABS_OUTSIDE
 10
-9.19969595116254
 20
-843.2799186065438
 30
0.0
  0
VERTEX
  5
124
  8
6_06MM_ABS_OUTSIDE
 10
-9.199695951162544
 20
-935.4000000000001
 30
0.0
 42
0.4142135623731086
  0
VERTEX
  5
125
  8
6_06MM_ABS_OUTSIDE
 10
5.800304048837461
 20
-950.4000000000001
 30
0.0
  0
VERTEX
  5
126
  8
6_06MM_ABS_OUTSIDE
 10
285.8000389736253
 20
-950.4000000000001
 30
0.0
 42
0.4142135623730951
  0
VERTEX
  5
127
  8
6_06MM_ABS_OUTSIDE
 10
300.8000389736254
 20
-935.4000000000001
 30
0.0
  0
VERTEX
  5
128
  8
6_06MM_ABS_OUTSIDE
 10
300.8000389736253
 20
-843.2799186065438
 30
0.0
 42
0.414213562373081
  0
VERTEX
  5
129
  8
6_06MM_ABS_OUTSIDE
 10
285.8000389736244
 20
-828.2799186065436
 30
0.0
  0
VERTEX
  5
12A
  8
6_06MM_ABS_OUTSIDE
 10
5.800304048837462
 20
-828.2799186065436
 30
0.0
 42
0.4142135623731565
  0
SEQEND
  5
12B
  8
6_06MM_ABS_OUTSIDE
  0
CIRCLE
  5
12D
  8
SCREW_HOLES
 10
102.2052715266017
 20
-897.3296829387857
 30
0.0
 40
1.0
  0
CIRCLE
  5
12E
  8
SCREW_HOLES
 10
102.2052715266017
 20
-907.3296829387858
 30
0.0
 40
0.9999999999998863
  0
CIRCLE
  5
12F
  8
SCREW_HOLES
 10
102.2052715266018
 20
-887.3296829387858
 30
0.0
 40
0.9999999999998863
  0
CIRCLE
  5
130
  8
SCREW_HOLES
 10
86.33027152660182
 20
-887.3296829387858
 30
0.0
 40
0.9999999999998863
  0
CIRCLE
  5
131
  8
SCREW_HOLES
 10
70.45527152660188
 20
-887.3296829387858
 30
0.0
 40
0.9999999999998863
  0
CIRCLE
  5
132
  8
SCREW_HOLES
 10
70.4552715266018
 20
-907.3296829387857
 30
0.0
 40
1.0
  0
CIRCLE
  5
133
  8
SCREW_HOLES
 10
70.45527152660179
 20
-897.3296829387857
 30
0.0
 40
1.0
  0
CIRCLE
  5
134
  8
SCREW_HOLES
 10
220.7995751558428
 20
-937.3700000000001
 30
0.0
 40
1.5
  0
CIRCLE
  5
135
  8
SCREW_HOLES
 10
287.7700509038396
 20
-889.3399743286134
 30
0.0
 40
1.5
  0
CIRCLE
  5
136
  8
SCREW_HOLES
 10
3.830304866805765
 20
-889.339959303272
 30
0.0
 40
1.5
  0
CIRCLE
  5
137
  8
SCREW_HOLES
 10
15.65030397254301
 20
-701.5100814888235
 30
0.0
 40
2.25
  0
CIRCLE
  5
138
  8
SCREW_HOLES
 10
55.6503040488369
 20
-701.5100814888235
 30
0.0
 40
2.25
  0
CIRCLE
  5
139
  8
SCREW_HOLES
 10
15.65030397254301
 20
-729.6965284350019
 30
0.0
 40
2.25
  0
CIRCLE
  5
13A
  8
SCREW_HOLES
 10
55.6503040488369
 20
-729.6965284350019
 30
0.0
 40
2.25
  0
CIRCLE
  5
13B
  8
SCREW_HOLES
 10
213.0851185966484
 20
-738.6900813934565
 30
0.0
 40
1.5
  0
CIRCLE
  5
13C
  8
SCREW_HOLES
 10
287.7700387046443
 20
-700.6600406967282
 30
0.0
 40
1.5
  0
CIRCLE
  5
13D
  8
SCREW_HOLES
 10
66.80025126874442
 20
-738.6900813934565
 30
0.0
 40
1.5
  0
CIRCLE
  5
13E
  8
SCREW_HOLES
 10
3.830314385427297
 20
-700.6600697970025
 30
0.0
 40
1.5
  0
CIRCLE
  5
13F
  8
SCREW_HOLES
 10
138.4001815253728
 20
-700.6600697970026
 30
0.0
 40
1.5
  0
POLYLINE
  5
140
  8
6_06MM_ABS_OUTSIDE
 66
     1
 10
0.0
 20
0.0
 30
0.0
 70
     1
  0
VERTEX
  5
141
  8
6_06MM_ABS_OUTSIDE
 10
300.8000389736249
 20
-736.7200813934563
 30
0.0
  0
VERTEX
  5
142
  8
6_06MM_ABS_OUTSIDE
 10
300.8000389736248
 20
-664.5999999999999
 30
0.0
 42
0.4142135623731275
  0
VERTEX
  5
143
  8
6_06MM_ABS_OUTSIDE
 10
285.8000389736249
 20
-649.5999999999999
 30
0.0
  0
VERTEX
  5
144
  8
6_06MM_ABS_OUTSIDE
 10
5.80030404883746
 20
-649.5999999999998
 30
0.0
 42
0.4142135623730904
  0
VERTEX
  5
145
  8
6_06MM_ABS_OUTSIDE
 10
-9.199695951162436
 20
-664.6
 30
0.0
  0
VERTEX
  5
146
  8
6_06MM_ABS_OUTSIDE
 10
-9.199695951162596
 20
-736.7200813934562
 30
0.0
 42
0.4142135623730912
  0
VERTEX
  5
147
  8
6_06MM_ABS_OUTSIDE
 10
5.800304048837461
 20
-751.7200813934562
 30
0.0
  0
VERTEX
  5
148
  8
6_06MM_ABS_OUTSIDE
 10
285.8000389736249
 20
-751.7200813934563
 30
0.0
 42
0.4142135623730919
  0
SEQEND
  5
149
  8
6_06MM_ABS_OUTSIDE
  0
CIRCLE
  5
14A
  8
6_06MM_ABS_INSIDE
 10
26.61030404883696
 20
-715.5600813934561
 30
0.0
 40
10.00000000000011
  0
POLYLINE
  5
14B
  8
6_06MM_ABS_INSIDE
 66
     1
 10
0.0
 20
0.0
 30
0.0
 70
     1
  0
VERTEX
  5
14C
  8
6_06MM_ABS_INSIDE
 10
284.7400387046446
 20
-675.66
 30
0.0
  0
VERTEX
  5
14D
  8
6_06MM_ABS_INSIDE
 10
290.8000387046445
 20
-675.66
 30
0.0
  0
VERTEX
  5
14E
  8
6_06MM_ABS_INSIDE
 10
290.8000397955889
 20
-690.66
 30
0.0
  0
VERTEX
  5
14F
  8
6_06MM_ABS_INSIDE
 10
284.7400397955889
 20
-690.66
 30
0.0
  0
SEQEND
  5
150
  8
6_06MM_ABS_INSIDE
  0
POLYLINE
  5
151
  8
6_06MM_ABS_INSIDE
 66
     1
 10
0.0
 20
0.0
 30
0.0
 70
     1
  0
VERTEX
  5
152
  8
6_06MM_ABS_INSIDE
 10
290.8000387046445
 20
-725.6600813934564
 30
0.0
  0
VERTEX
  5
153
  8
6_06MM_ABS_INSIDE
 10
284.7400387046446
 20
-725.6600813934564
 30
0.0
  0
VERTEX
  5
154
  8
6_06MM_ABS_INSIDE
 10
284.7400397955889
 20
-710.6600813934564
 30
0.0
  0
VERTEX
  5
155
  8
6_06MM_ABS_INSIDE
 10
290.8000397955889
 20
-710.6600813934564
 30
0.0
  0
SEQEND
  5
156
  8
6_06MM_ABS_INSIDE
  0
POLYLINE
  5
157
  8
6_06MM_ABS_INSIDE
 66
     1
 10
0.0
 20
0.0
 30
0.0
 70
     1
  0
VERTEX
  5
158
  8
6_06MM_ABS_INSIDE
 10
135.370181525373
 20
-675.66
 30
0.0
  0
VERTEX
  5
159
  8
6_06MM_ABS_INSIDE
 10
141.430181525373
 20
-675.66
 30
0.0
  0
VERTEX
  5
15A
  8
6_06MM_ABS_INSIDE
 10
141.4301826163173
 20
-690.66
 30
0.0
  0
VERTEX
  5
15B
  8
6_06MM_ABS_INSIDE
 10
135.3701826163174
 20
-690.66
 30
0.0
  0
SEQEND
  5
15C
  8
6_06MM_ABS_INSIDE
  0
POLYLINE
  5
15D
  8
6_06MM_ABS_INSIDE
 66
     1
 10
0.0
 20
0.0
 30
0.0
 70
     1
  0
VERTEX
  5
15E
  8
6_06MM_ABS_INSIDE
 10
141.430181525373
 20
-725.6600813934564
 30
0.0
  0
VERTEX
  5
15F
  8
6_06MM_ABS_INSIDE
 10
135.370181525373
 20
-725.6600813934564
 30
0.0
  0
VERTEX
  5
160
  8
6_06MM_ABS_INSIDE
 10
135.3701826163174
 20
-710.6600813934564
 30
0.0
  0
VERTEX
  5
161
  8
6_06MM_ABS_INSIDE
 10
141.4301826163173
 20
-710.6600813934564
 30
0.0
  0
SEQEND
  5
162
  8
6_06MM_ABS_INSIDE
  0
POLYLINE
  5
163
  8
6_06MM_ABS_INSIDE
 66
     1
 10
0.0
 20
0.0
 30
0.0
 70
     1
  0
VERTEX
  5
164
  8
6_06MM_ABS_INSIDE
 10
0.8003040488374609
 20
-675.66
 30
0.0
  0
VERTEX
  5
165
  8
6_06MM_ABS_INSIDE
 10
6.860304048836952
 20
-675.66
 30
0.0
  0
VERTEX
  5
166
  8
6_06MM_ABS_INSIDE
 10
6.860304048836952
 20
-690.66
 30
0.0
  0
VERTEX
  5
167
  8
6_06MM_ABS_INSIDE
 10
0.8003040488374609
 20
-690.66
 30
0.0
  0
SEQEND
  5
168
  8
6_06MM_ABS_INSIDE
  0
POLYLINE
  5
169
  8
6_06MM_ABS_INSIDE
 66
     1
 10
0.0
 20
0.0
 30
0.0
 70
     1
  0
VERTEX
  5
16A
  8
6_06MM_ABS_INSIDE
 10
6.860304048836952
 20
-725.6600813934564
 30
0.0
  0
VERTEX
  5
16B
  8
6_06MM_ABS_INSIDE
 10
0.8003040488374609
 20
-725.6600813934564
 30
0.0
  0
VERTEX
  5
16C
  8
6_06MM_ABS_INSIDE
 10
0.8003040488374609
 20
-710.6600813934564
 30
0.0
  0
VERTEX
  5
16D
  8
6_06MM_ABS_INSIDE
 10
6.860304048836952
 20
-710.6600813934564
 30
0.0
  0
SEQEND
  5
16E
  8
6_06MM_ABS_INSIDE
  0
POLYLINE
  5
16F
  8
6_06MM_ABS_INSIDE
 66
     1
 10
0.0
 20
0.0
 30
0.0
 70
     1
  0
VERTEX
  5
170
  8
6_06MM_ABS_INSIDE
 10
243.0850857615142
 20
-735.6600813934565
 30
0.0
  0
VERTEX
  5
171
  8
6_06MM_ABS_INSIDE
 10
243.0850857615142
 20
-741.7200813934564
 30
0.0
  0
VERTEX
  5
172
  8
6_06MM_ABS_INSIDE
 10
223.0850857615142
 20
-741.7200813934564
 30
0.0
  0
VERTEX
  5
173
  8
6_06MM_ABS_INSIDE
 10
223.0850857615142
 20
-735.6600813934565
 30
0.0
  0
SEQEND
  5
174
  8
6_06MM_ABS_INSIDE
  0
POLYLINE
  5
175
  8
6_06MM_ABS_INSIDE
 66
     1
 10
0.0
 20
0.0
 30
0.0
 70
     1
  0
VERTEX
  5
176
  8
6_06MM_ABS_INSIDE
 10
183.0851514317824
 20
-741.7200813934564
 30
0.0
  0
VERTEX
  5
177
  8
6_06MM_ABS_INSIDE
 10
183.0851514317824
 20
-735.6600813934565
 30
0.0
  0
VERTEX
  5
178
  8
6_06MM_ABS_INSIDE
 10
203.0851514317824
 20
-735.6600813934565
 30
0.0
  0
VERTEX
  5
179
  8
6_06MM_ABS_INSIDE
 10
203.0851514317824
 20
-741.7200813934564
 30
0.0
  0
SEQEND
  5
17A
  8
6_06MM_ABS_INSIDE
  0
POLYLINE
  5
17B
  8
6_06MM_ABS_INSIDE
 66
     1
 10
0.0
 20
0.0
 30
0.0
 70
     1
  0
VERTEX
  5
17C
  8
6_06MM_ABS_INSIDE
 10
96.80022940095296
 20
-735.6600813934565
 30
0.0
  0
VERTEX
  5
17D
  8
6_06MM_ABS_INSIDE
 10
96.80022940095296
 20
-741.7200813934564
 30
0.0
  0
VERTEX
  5
17E
  8
6_06MM_ABS_INSIDE
 10
76.80022940095296
 20
-741.7200813934564
 30
0.0
  0
VERTEX
  5
17F
  8
6_06MM_ABS_INSIDE
 10
76.80022940095296
 20
-735.6600813934565
 30
0.0
  0
SEQEND
  5
180
  8
6_06MM_ABS_INSIDE
  0
POLYLINE
  5
181
  8
6_06MM_ABS_INSIDE
 66
     1
 10
0.0
 20
0.0
 30
0.0
 70
     1
  0
VERTEX
  5
182
  8
6_06MM_ABS_INSIDE
 10
36.80027313653636
 20
-741.7200813934564
 30
0.0
  0
VERTEX
  5
183
  8
6_06MM_ABS_INSIDE
 10
36.80027313653682
 20
-735.6600813934565
 30
0.0
  0
VERTEX
  5
184
  8
6_06MM_ABS_INSIDE
 10
56.80027313653682
 20
-735.6600813934565
 30
0.0
  0
VERTEX
  5
185
  8
6_06MM_ABS_INSIDE
 10
56.80027313653636
 20
-741.7200813934564
 30
0.0
  0
SEQEND
  5
186
  8
6_06MM_ABS_INSIDE
  0
POLYLINE
  5
187
  8
6_06MM_ABS_INSIDE
 66
     1
 10
0.0
 20
0.0
 30
0.0
 70
     1
  0
VERTEX
  5
188
  8
6_06MM_ABS_INSIDE
 10
199.5851204355431
 20
-720.1600010671378
 30
0.0
 42
-0.4142135481716368
  0
VERTEX
  5
189
  8
6_06MM_ABS_INSIDE
 10
196.5851204355426
 20
-723.1600009216787
 30
0.0
  0
VERTEX
  5
18A
  8
6_06MM_ABS_INSIDE
 10
193.5851204355431
 20
-723.1600009216788
 30
0.0
 42
-0.4142134778182072
  0
VERTEX
  5
18B
  8
6_06MM_ABS_INSIDE
 10
190.585120435543
 20
-720.1600007762195
 30
0.0
  0
VERTEX
  5
18C
  8
6_06MM_ABS_INSIDE
 10
190.5851223265135
 20
-681.1600007762195
 30
0.0
 42
-0.4142135481716517
  0
VERTEX
  5
18D
  8
6_06MM_ABS_INSIDE
 10
193.5851223265136
 20
-678.1600009216788
 30
0.0
  0
VERTEX
  5
18E
  8
6_06MM_ABS_INSIDE
 10
196.5851223265131
 20
-678.1600009216787
 30
0.0
 42
-0.4142134778182187
  0
VERTEX
  5
18F
  8
6_06MM_ABS_INSIDE
 10
199.5851223265136
 20
-681.1600010671381
 30
0.0
  0
SEQEND
  5
190
  8
6_06MM_ABS_INSIDE
  0
POLYLINE
  5
191
  8
6_06MM_ABS_INSIDE
 66
     1
 10
0.0
 20
0.0
 30
0.0
 70
     1
  0
VERTEX
  5
192
  8
6_06MM_ABS_INSIDE
 10
235.5851204355431
 20
-720.1600010671381
 30
0.0
 42
-0.4142134494154898
  0
VERTEX
  5
193
  8
6_06MM_ABS_INSIDE
 10
232.5851204355426
 20
-723.1600009216787
 30
0.0
  0
VERTEX
  5
194
  8
6_06MM_ABS_INSIDE
 10
229.5851204355431
 20
-723.1600009216787
 30
0.0
 42
-0.4142134778183119
  0
VERTEX
  5
195
  8
6_06MM_ABS_INSIDE
 10
226.5851204355432
 20
-720.1600007762196
 30
0.0
  0
VERTEX
  5
196
  8
6_06MM_ABS_INSIDE
 10
226.5851223265136
 20
-681.1600007762195
 30
0.0
 42
-0.4142135481716896
  0
VERTEX
  5
197
  8
6_06MM_ABS_INSIDE
 10
229.5851223265136
 20
-678.1600009216787
 30
0.0
  0
VERTEX
  5
198
  8
6_06MM_ABS_INSIDE
 10
232.5851223265131
 20
-678.1600009216786
 30
0.0
 42
-0.4142134778182978
  0
VERTEX
  5
199
  8
6_06MM_ABS_INSIDE
 10
235.5851223265136
 20
-681.1600010671381
 30
0.0
  0
SEQEND
  5
19A
  8
6_06MM_ABS_INSIDE
  0
POLYLINE
  5
19B
  8
6_06MM_ABS_INSIDE
 66
     1
 10
0.0
 20
0.0
 30
0.0
 70
     1
  0
VERTEX
  5
19C
  8
6_06MM_ABS_INSIDE
 10
217.585120435543
 20
-720.1600010671378
 30
0.0
 42
-0.4142132519031405
  0
VERTEX
  5
19D
  8
6_06MM_ABS_INSIDE
 10
214.5851204355427
 20
-723.1600009216786
 30
0.0
  0
VERTEX
  5
19E
  8
6_06MM_ABS_INSIDE
 10
211.5851204355431
 20
-723.1600009216788
 30
0.0
 42
-0.4142134778182347
  0
VERTEX
  5
19F
  8
6_06MM_ABS_INSIDE
 10
208.5851204355426
 20
-720.1600007762196
 30
0.0
  0
VERTEX
  5
1A0
  8
6_06MM_ABS_INSIDE
 10
208.5851223265135
 20
-681.1600007762194
 30
0.0
 42
-0.4142133506595435
  0
VERTEX
  5
1A1
  8
6_06MM_ABS_INSIDE
 10
211.5851223265136
 20
-678.1600009216787
 30
0.0
  0
VERTEX
  5
1A2
  8
6_06MM_ABS_INSIDE
 10
214.5851223265131
 20
-678.1600009216787
 30
0.0
 42
-0.4142133790621059
  0
VERTEX
  5
1A3
  8
6_06MM_ABS_INSIDE
 10
217.5851223265135
 20
-681.1600010671381
 30
0.0
  0
SEQEND
  5
1A4
  8
6_06MM_ABS_INSIDE
  0
POLYLINE
  5
1A5
  8
6_06MM_ABS_INSIDE
 66
     1
 10
0.0
 20
0.0
 30
0.0
 70
     1
  0
VERTEX
  5
1A6
  8
6_06MM_ABS_INSIDE
 10
253.5851204355434
 20
-720.160001067138
 30
0.0
 42
-0.4142133506592792
  0
VERTEX
  5
1A7
  8
6_06MM_ABS_INSIDE
 10
250.5851204355426
 20
-723.1600009216786
 30
0.0
  0
VERTEX
  5
1A8
  8
6_06MM_ABS_INSIDE
 10
247.5851204355431
 20
-723.1600009216787
 30
0.0
 42
-0.414213477818315
  0
VERTEX
  5
1A9
  8
6_06MM_ABS_INSIDE
 10
244.5851204355431
 20
-720.1600007762195
 30
0.0
  0
VERTEX
  5
1AA
  8
6_06MM_ABS_INSIDE
 10
244.5851223265136
 20
-681.1600007762195
 30
0.0
 42
-0.4142134494156229
  0
VERTEX
  5
1AB
  8
6_06MM_ABS_INSIDE
 10
247.5851223265136
 20
-678.1600009216788
 30
0.0
  0
VERTEX
  5
1AC
  8
6_06MM_ABS_INSIDE
 10
250.5851223265131
 20
-678.1600009216787
 30
0.0
 42
-0.4142133790619853
  0
VERTEX
  5
1AD
  8
6_06MM_ABS_INSIDE
 10
253.5851223265136
 20
-681.1600010671381
 30
0.0
  0
SEQEND
  5
1AE
  8
6_06MM_ABS_INSIDE
  0
POLYLINE
  5
1AF
  8
6_06MM_ABS_INSIDE
 66
     1
 10
0.0
 20
0.0
 30
0.0
 70
     1
  0
VERTEX
  5
1B0
  8
6_06MM_ABS_INSIDE
 10
181.585120435543
 20
-720.1600010671378
 30
0.0
 42
-0.4142132519030609
  0
VERTEX
  5
1B1
  8
6_06MM_ABS_INSIDE
 10
178.5851204355424
 20
-723.1600009216787
 30
0.0
  0
VERTEX
  5
1B2
  8
6_06MM_ABS_INSIDE
 10
175.5851204355431
 20
-723.1600009216788
 30
0.0
 42
-0.4142134778182355
  0
VERTEX
  5
1B3
  8
6_06MM_ABS_INSIDE
 10
172.5851204355431
 20
-720.1600007762194
 30
0.0
  0
VERTEX
  5
1B4
  8
6_06MM_ABS_INSIDE
 10
172.5851223265136
 20
-681.1600007762192
 30
0.0
 42
-0.4142134494155856
  0
VERTEX
  5
1B5
  8
6_06MM_ABS_INSIDE
 10
175.5851223265136
 20
-678.1600009216787
 30
0.0
  0
VERTEX
  5
1B6
  8
6_06MM_ABS_INSIDE
 10
178.5851223265131
 20
-678.1600009216788
 30
0.0
 42
-0.4142134778180714
  0
VERTEX
  5
1B7
  8
6_06MM_ABS_INSIDE
 10
181.5851223265135
 20
-681.1600010671381
 30
0.0
  0
SEQEND
  5
1B8
  8
6_06MM_ABS_INSIDE
  0
POLYLINE
  5
1B9
  8
6_06MM_ABS_INSIDE
 66
     1
 10
0.0
 20
0.0
 30
0.0
 70
     1
  0
VERTEX
  5
1BA
  8
6_06MM_ABS_INSIDE
 10
163.5851204355431
 20
-720.160001067138
 30
0.0
 42
-0.4142133506593704
  0
VERTEX
  5
1BB
  8
6_06MM_ABS_INSIDE
 10
160.5851204355426
 20
-723.1600009216787
 30
0.0
  0
VERTEX
  5
1BC
  8
6_06MM_ABS_INSIDE
 10
157.5851204355431
 20
-723.1600009216787
 30
0.0
 42
-0.4142132803058476
  0
VERTEX
  5
1BD
  8
6_06MM_ABS_INSIDE
 10
154.5851204355429
 20
-720.1600007762196
 30
0.0
  0
VERTEX
  5
1BE
  8
6_06MM_ABS_INSIDE
 10
154.5851223265135
 20
-681.1600007762196
 30
0.0
 42
-0.4142133506594259
  0
VERTEX
  5
1BF
  8
6_06MM_ABS_INSIDE
 10
157.5851223265136
 20
-678.1600009216787
 30
0.0
  0
VERTEX
  5
1C0
  8
6_06MM_ABS_INSIDE
 10
160.5851223265131
 20
-678.1600009216788
 30
0.0
 42
-0.4142135765742893
  0
VERTEX
  5
1C1
  8
6_06MM_ABS_INSIDE
 10
163.5851223265135
 20
-681.160001067138
 30
0.0
  0
SEQEND
  5
1C2
  8
6_06MM_ABS_INSIDE
  0
POLYLINE
  5
1C3
  8
6_06MM_ABS_INSIDE
 66
     1
 10
0.0
 20
0.0
 30
0.0
 70
     1
  0
VERTEX
  5
1C4
  8
6_06MM_ABS_INSIDE
 10
271.5851204355429
 20
-720.1600010671378
 30
0.0
 42
-0.4142132519031769
  0
VERTEX
  5
1C5
  8
6_06MM_ABS_INSIDE
 10
268.5851204355433
 20
-723.1600009216788
 30
0.0
  0
VERTEX
  5
1C6
  8
6_06MM_ABS_INSIDE
 10
265.5851204355431
 20
-723.1600009216789
 30
0.0
 42
-0.4142134778182406
  0
VERTEX
  5
1C7
  8
6_06MM_ABS_INSIDE
 10
262.5851204355426
 20
-720.1600007762195
 30
0.0
  0
VERTEX
  5
1C8
  8
6_06MM_ABS_INSIDE
 10
262.5851223265136
 20
-681.1600007762194
 30
0.0
 42
-0.4142133506593692
  0
VERTEX
  5
1C9
  8
6_06MM_ABS_INSIDE
 10
265.5851223265136
 20
-678.1600009216788
 30
0.0
  0
VERTEX
  5
1CA
  8
6_06MM_ABS_INSIDE
 10
268.5851223265129
 20
-678.1600009216787
 30
0.0
 42
-0.4142133790621568
  0
VERTEX
  5
1CB
  8
6_06MM_ABS_INSIDE
 10
271.5851223265136
 20
-681.160001067138
 30
0.0
  0
SEQEND
  5
1CC
  8
6_06MM_ABS_INSIDE
  0
CIRCLE
  5
1CD
  8
SCREW_HOLES
 10
77.56002430172113
 20
-789.9999172584629
 30
0.0
 40
2.5
  0
CIRCLE
  5
1CE
  8
SCREW_HOLES
 10
44.53003897362555
 20
-789.9999114493235
 30
0.0
 40
1.499999999999886
  0
CIRCLE
  5
1CF
  8
SCREW_HOLES
 10
31.50003856603212
 20
-768.029914716097
 30
0.0
 40
1.500000000000227
  0
CIRCLE
  5
1D0
  8
SCREW_HOLES
 10
31.50003856603223
 20
-811.9699216964126
 30
0.0
 40
1.5
  0
CIRCLE
  5
1D1
  8
SCREW_HOLES
 10
110.5900385012158
 20
-789.9999114493237
 30
0.0
 40
1.500000000000114
  0
POLYLINE
  5
1D2
  8
6_06MM_ABS_OUTSIDE
 66
     1
 10
0.0
 20
0.0
 30
0.0
 70
     1
  0
VERTEX
  5
1D3
  8
6_06MM_ABS_OUTSIDE
 10
21.50003815843866
 20
-808.9399286767283
 30
0.0
  0
VERTEX
  5
1D4
  8
6_06MM_ABS_OUTSIDE
 10
21.50003815843866
 20
-814.9999147160969
 30
0.0
  0
VERTEX
  5
1D5
  8
6_06MM_ABS_OUTSIDE
 10
29.50003815843866
 20
-822.9999184941624
 30
0.0
  0
VERTEX
  5
1D6
  8
6_06MM_ABS_OUTSIDE
 10
59.56004625199603
 20
-822.9999192315653
 30
0.0
  0
VERTEX
  5
1D7
  8
6_06MM_ABS_OUTSIDE
 10
67.56004620475505
 20
-814.9999147160969
 30
0.0
  0
VERTEX
  5
1D8
  8
6_06MM_ABS_OUTSIDE
 10
87.5600461102731
 20
-814.9999147160969
 30
0.0
  0
VERTEX
  5
1D9
  8
6_06MM_ABS_OUTSIDE
 10
95.56004606303213
 20
-822.9999164974032
 30
0.0
  0
VERTEX
  5
1DA
  8
6_06MM_ABS_OUTSIDE
 10
115.6200389736255
 20
-822.9999151262222
 30
0.0
  0
VERTEX
  5
1DB
  8
6_06MM_ABS_OUTSIDE
 10
123.6200389736255
 20
-814.9999147160974
 30
0.0
  0
VERTEX
  5
1DC
  8
6_06MM_ABS_OUTSIDE
 10
123.6200389736255
 20
-764.9999147160987
 30
0.0
  0
VERTEX
  5
1DD
  8
6_06MM_ABS_OUTSIDE
 10
115.620038973625
 20
-756.9999147160969
 30
0.0
  0
VERTEX
  5
1DE
  8
6_06MM_ABS_OUTSIDE
 10
95.56004606303213
 20
-756.9999147160974
 30
0.0
  0
VERTEX
  5
1DF
  8
6_06MM_ABS_OUTSIDE
 10
87.5600461102731
 20
-764.9999147160974
 30
0.0
  0
VERTEX
  5
1E0
  8
6_06MM_ABS_OUTSIDE
 10
67.56004620475505
 20
-764.9999147160974
 30
0.0
  0
VERTEX
  5
1E1
  8
6_06MM_ABS_OUTSIDE
 10
59.56004625199603
 20
-756.9999147160974
 30
0.0
  0
VERTEX
  5
1E2
  8
6_06MM_ABS_OUTSIDE
 10
29.50003815843866
 20
-756.9999147160978
 30
0.0
  0
VERTEX
  5
1E3
  8
6_06MM_ABS_OUTSIDE
 10
21.50003815843866
 20
-764.9999147160978
 30
0.0
  0
VERTEX
  5
1E4
  8
6_06MM_ABS_OUTSIDE
 10
21.50003815843866
 20
-771.0599147160968
 30
0.0
  0
VERTEX
  5
1E5
  8
6_06MM_ABS_OUTSIDE
 10
-7.499961841561344
 20
-771.0599147160968
 30
0.0
  0
VERTEX
  5
1E6
  8
6_06MM_ABS_OUTSIDE
 10
-7.499961841561344
 20
-764.9999147160974
 30
0.0
  0
VERTEX
  5
1E7
  8
6_06MM_ABS_OUTSIDE
 10
-33.55996102637437
 20
-764.9999147160974
 30
0.0
  0
VERTEX
  5
1E8
  8
6_06MM_ABS_OUTSIDE
 10
-33.55996102637437
 20
-779.999906339718
 30
0.0
  0
VERTEX
  5
1E9
  8
6_06MM_ABS_OUTSIDE
 10
-27.49996102637488
 20
-779.999906339718
 30
0.0
  0
VERTEX
  5
1EA
  8
6_06MM_ABS_OUTSIDE
 10
-27.49996102637488
 20
-799.999906339718
 30
0.0
  0
VERTEX
  5
1EB
  8
6_06MM_ABS_OUTSIDE
 10
-33.55996102637437
 20
-799.999906339718
 30
0.0
  0
VERTEX
  5
1EC
  8
6_06MM_ABS_OUTSIDE
 10
-33.55996102637437
 20
-814.9999147160969
 30
0.0
  0
VERTEX
  5
1ED
  8
6_06MM_ABS_OUTSIDE
 10
-7.499961841561344
 20
-814.9999216964128
 30
0.0
  0
VERTEX
  5
1EE
  8
6_06MM_ABS_OUTSIDE
 10
-7.499961841561344
 20
-808.9399286767283
 30
0.0
  0
SEQEND
  5
1EF
  8
6_06MM_ABS_OUTSIDE
  0
CIRCLE
  5
1F0
  8
SCREW_HOLES
 10
254.7400243017209
 20
-789.9999172584629
 30
0.0
 40
2.5
  0
CIRCLE
  5
1F1
  8
SCREW_HOLES
 10
221.710038973625
 20
-789.9999114493236
 30
0.0
 40
1.5
  0
CIRCLE
  5
1F2
  8
SCREW_HOLES
 10
208.6800385660316
 20
-768.029914716097
 30
0.0
 40
1.500000000000227
  0
CIRCLE
  5
1F3
  8
SCREW_HOLES
 10
208.6800385660318
 20
-811.9699216964127
 30
0.0
 40
1.500000000000114
  0
CIRCLE
  5
1F4
  8
SCREW_HOLES
 10
287.7700385012151
 20
-789.9999114493237
 30
0.0
 40
1.500000000000114
  0
POLYLINE
  5
1F5
  8
6_06MM_ABS_OUTSIDE
 66
     1
 10
0.0
 20
0.0
 30
0.0
 70
     1
  0
VERTEX
  5
1F6
  8
6_06MM_ABS_OUTSIDE
 10
198.680038158438
 20
-808.9399286767283
 30
0.0
  0
VERTEX
  5
1F7
  8
6_06MM_ABS_OUTSIDE
 10
198.680038158438
 20
-814.9999147160969
 30
0.0
  0
VERTEX
  5
1F8
  8
6_06MM_ABS_OUTSIDE
 10
206.680038158438
 20
-822.9999184941624
 30
0.0
  0
VERTEX
  5
1F9
  8
6_06MM_ABS_OUTSIDE
 10
236.7400462519954
 20
-822.9999192315653
 30
0.0
  0
VERTEX
  5
1FA
  8
6_06MM_ABS_OUTSIDE
 10
244.7400462047544
 20
-814.9999147160969
 30
0.0
  0
VERTEX
  5
1FB
  8
6_06MM_ABS_OUTSIDE
 10
264.7400461102725
 20
-814.9999147160969
 30
0.0
  0
VERTEX
  5
1FC
  8
6_06MM_ABS_OUTSIDE
 10
272.7400460630315
 20
-822.9999164974032
 30
0.0
  0
VERTEX
  5
1FD
  8
6_06MM_ABS_OUTSIDE
 10
292.8000389736253
 20
-822.9999151262222
 30
0.0
  0
VERTEX
  5
1FE
  8
6_06MM_ABS_OUTSIDE
 10
300.8000389736253
 20
-814.9999147160974
 30
0.0
  0
VERTEX
  5
1FF
  8
6_06MM_ABS_OUTSIDE
 10
300.8000389736253
 20
-764.9999147160987
 30
0.0
  0
VERTEX
  5
200
  8
6_06MM_ABS_OUTSIDE
 10
292.8000389736244
 20
-756.9999147160969
 30
0.0
  0
VERTEX
  5
201
  8
6_06MM_ABS_OUTSIDE
 10
272.7400460630315
 20
-756.9999147160974
 30
0.0
  0
VERTEX
  5
202
  8
6_06MM_ABS_OUTSIDE
 10
264.7400461102725
 20
-764.9999147160974
 30
0.0
  0
VERTEX
  5
203
  8
6_06MM_ABS_OUTSIDE
 10
244.7400462047544
 20
-764.9999147160974
 30
0.0
  0
VERTEX
  5
204
  8
6_06MM_ABS_OUTSIDE
 10
236.7400462519954
 20
-756.9999147160974
 30
0.0
  0
VERTEX
  5
205
  8
6_06MM_ABS_OUTSIDE
 10
206.680038158438
 20
-756.9999147160978
 30
0.0
  0
VERTEX
  5
206
  8
6_06MM_ABS_OUTSIDE
 10
198.680038158438
 20
-764.9999147160978
 30
0.0
  0
VERTEX
  5
207
  8
6_06MM_ABS_OUTSIDE
 10
198.680038158438
 20
-771.0599147160968
 30
0.0
  0
VERTEX
  5
208
  8
6_06MM_ABS_OUTSIDE
 10
169.680038158438
 20
-771.0599147160968
 30
0.0
  0
VERTEX
  5
209
  8
6_06MM_ABS_OUTSIDE
 10
169.680038158438
 20
-764.9999147160974
 30
0.0
  0
VERTEX
  5
20A
  8
6_06MM_ABS_OUTSIDE
 10
143.620038973625
 20
-764.9999147160974
 30
0.0
  0
VERTEX
  5
20B
  8
6_06MM_ABS_OUTSIDE
 10
143.620038973625
 20
-779.999906339718
 30
0.0
  0
VERTEX
  5
20C
  8
6_06MM_ABS_OUTSIDE
 10
149.6800389736254
 20
-779.999906339718
 30
0.0
  0
VERTEX
  5
20D
  8
6_06MM_ABS_OUTSIDE
 10
149.6800389736254
 20
-799.999906339718
 30
0.0
  0
VERTEX
  5
20E
  8
6_06MM_ABS_OUTSIDE
 10
143.620038973625
 20
-799.999906339718
 30
0.0
  0
VERTEX
  5
20F
  8
6_06MM_ABS_OUTSIDE
 10
143.620038973625
 20
-814.9999147160969
 30
0.0
  0
VERTEX
  5
210
  8
6_06MM_ABS_OUTSIDE
 10
169.680038158438
 20
-814.9999216964128
 30
0.0
  0
VERTEX
  5
211
  8
6_06MM_ABS_OUTSIDE
 10
169.680038158438
 20
-808.9399286767283
 30
0.0
  0
SEQEND
  5
212
  8
6_06MM_ABS_OUTSIDE
  0
POLYLINE
  5
213
  8
6_06MM_ABS_INSIDE
 66
     1
 10
0.0
 20
0.0
 30
0.0
 70
     1
  0
VERTEX
  5
214
  8
6_06MM_ABS_INSIDE
 10
52.56002756849466
 20
-801.9699144798923
 30
0.0
  0
VERTEX
  5
215
  8
6_06MM_ABS_INSIDE
 10
67.56002756849466
 20
-801.9699144798923
 30
0.0
  0
VERTEX
  5
216
  8
6_06MM_ABS_INSIDE
 10
67.56002756849466
 20
-808.0299144798922
 30
0.0
  0
VERTEX
  5
217
  8
6_06MM_ABS_INSIDE
 10
52.56002756849466
 20
-808.0299144798922
 30
0.0
  0
SEQEND
  5
218
  8
6_06MM_ABS_INSIDE
  0
POLYLINE
  5
219
  8
6_06MM_ABS_INSIDE
 66
     1
 10
0.0
 20
0.0
 30
0.0
 70
     1
  0
VERTEX
  5
21A
  8
6_06MM_ABS_INSIDE
 10
87.56002756849466
 20
-801.9699144798923
 30
0.0
  0
VERTEX
  5
21B
  8
6_06MM_ABS_INSIDE
 10
102.5600275684947
 20
-801.9699144798923
 30
0.0
  0
VERTEX
  5
21C
  8
6_06MM_ABS_INSIDE
 10
102.5600275684947
 20
-808.0299144798922
 30
0.0
  0
VERTEX
  5
21D
  8
6_06MM_ABS_INSIDE
 10
87.56002756849466
 20
-808.0299144798922
 30
0.0
  0
SEQEND
  5
21E
  8
6_06MM_ABS_INSIDE
  0
POLYLINE
  5
21F
  8
6_06MM_ABS_INSIDE
 66
     1
 10
0.0
 20
0.0
 30
0.0
 70
     1
  0
VERTEX
  5
220
  8
6_06MM_ABS_INSIDE
 10
87.56002756849466
 20
-771.9699144798923
 30
0.0
  0
VERTEX
  5
221
  8
6_06MM_ABS_INSIDE
 10
102.5600275684947
 20
-771.9699144798923
 30
0.0
  0
VERTEX
  5
222
  8
6_06MM_ABS_INSIDE
 10
102.5600275684947
 20
-778.0299144798922
 30
0.0
  0
VERTEX
  5
223
  8
6_06MM_ABS_INSIDE
 10
87.56002756849466
 20
-778.0299144798922
 30
0.0
  0
SEQEND
  5
224
  8
6_06MM_ABS_INSIDE
  0
POLYLINE
  5
225
  8
6_06MM_ABS_INSIDE
 66
     1
 10
0.0
 20
0.0
 30
0.0
 70
     1
  0
VERTEX
  5
226
  8
6_06MM_ABS_INSIDE
 10
52.56002756849466
 20
-771.9699144798923
 30
0.0
  0
VERTEX
  5
227
  8
6_06MM_ABS_INSIDE
 10
67.56002756849466
 20
-771.9699144798923
 30
0.0
  0
VERTEX
  5
228
  8
6_06MM_ABS_INSIDE
 10
67.56002756849466
 20
-778.0299144798922
 30
0.0
  0
VERTEX
  5
229
  8
6_06MM_ABS_INSIDE
 10
52.56002756849466
 20
-778.0299144798922
 30
0.0
  0
SEQEND
  5
22A
  8
6_06MM_ABS_INSIDE
  0
POLYLINE
  5
22B
  8
6_06MM_ABS_INSIDE
 66
     1
 10
0.0
 20
0.0
 30
0.0
 70
     1
  0
VERTEX
  5
22C
  8
6_06MM_ABS_INSIDE
 10
47.56003897362552
 20
-814.9999114493238
 30
0.0
  0
VERTEX
  5
22D
  8
6_06MM_ABS_INSIDE
 10
41.50003897362558
 20
-814.9999114493238
 30
0.0
  0
VERTEX
  5
22E
  8
6_06MM_ABS_INSIDE
 10
41.50003897362558
 20
-799.9999114493238
 30
0.0
  0
VERTEX
  5
22F
  8
6_06MM_ABS_INSIDE
 10
47.56003897362552
 20
-799.9999114493238
 30
0.0
  0
SEQEND
  5
230
  8
6_06MM_ABS_INSIDE
  0
POLYLINE
  5
231
  8
6_06MM_ABS_INSIDE
 66
     1
 10
0.0
 20
0.0
 30
0.0
 70
     1
  0
VERTEX
  5
232
  8
6_06MM_ABS_INSIDE
 10
47.56003897362552
 20
-779.9999114493238
 30
0.0
  0
VERTEX
  5
233
  8
6_06MM_ABS_INSIDE
 10
41.50003897362558
 20
-779.9999114493238
 30
0.0
  0
VERTEX
  5
234
  8
6_06MM_ABS_INSIDE
 10
41.50003897362558
 20
-764.9999114493238
 30
0.0
  0
VERTEX
  5
235
  8
6_06MM_ABS_INSIDE
 10
47.56003897362552
 20
-764.9999114493238
 30
0.0
  0
SEQEND
  5
236
  8
6_06MM_ABS_INSIDE
  0
POLYLINE
  5
237
  8
6_06MM_ABS_INSIDE
 66
     1
 10
0.0
 20
0.0
 30
0.0
 70
     1
  0
VERTEX
  5
238
  8
6_06MM_ABS_INSIDE
 10
229.740027568494
 20
-801.9699144798923
 30
0.0
  0
VERTEX
  5
239
  8
6_06MM_ABS_INSIDE
 10
244.740027568494
 20
-801.9699144798923
 30
0.0
  0
VERTEX
  5
23A
  8
6_06MM_ABS_INSIDE
 10
244.740027568494
 20
-808.0299144798922
 30
0.0
  0
VERTEX
  5
23B
  8
6_06MM_ABS_INSIDE
 10
229.740027568494
 20
-808.0299144798922
 30
0.0
  0
SEQEND
  5
23C
  8
6_06MM_ABS_INSIDE
  0
POLYLINE
  5
23D
  8
6_06MM_ABS_INSIDE
 66
     1
 10
0.0
 20
0.0
 30
0.0
 70
     1
  0
VERTEX
  5
23E
  8
6_06MM_ABS_INSIDE
 10
264.740027568494
 20
-801.9699144798923
 30
0.0
  0
VERTEX
  5
23F
  8
6_06MM_ABS_INSIDE
 10
279.740027568494
 20
-801.9699144798923
 30
0.0
  0
VERTEX
  5
240
  8
6_06MM_ABS_INSIDE
 10
279.740027568494
 20
-808.0299144798922
 30
0.0
  0
VERTEX
  5
241
  8
6_06MM_ABS_INSIDE
 10
264.740027568494
 20
-808.0299144798922
 30
0.0
  0
SEQEND
  5
242
  8
6_06MM_ABS_INSIDE
  0
POLYLINE
  5
243
  8
6_06MM_ABS_INSIDE
 66
     1
 10
0.0
 20
0.0
 30
0.0
 70
     1
  0
VERTEX
  5
244
  8
6_06MM_ABS_INSIDE
 10
264.740027568494
 20
-771.9699144798923
 30
0.0
  0
VERTEX
  5
245
  8
6_06MM_ABS_INSIDE
 10
279.740027568494
 20
-771.9699144798923
 30
0.0
  0
VERTEX
  5
246
  8
6_06MM_ABS_INSIDE
 10
279.740027568494
 20
-778.0299144798922
 30
0.0
  0
VERTEX
  5
247
  8
6_06MM_ABS_INSIDE
 10
264.740027568494
 20
-778.0299144798922
 30
0.0
  0
SEQEND
  5
248
  8
6_06MM_ABS_INSIDE
  0
POLYLINE
  5
249
  8
6_06MM_ABS_INSIDE
 66
     1
 10
0.0
 20
0.0
 30
0.0
 70
     1
  0
VERTEX
  5
24A
  8
6_06MM_ABS_INSIDE
 10
229.740027568494
 20
-771.9699144798923
 30
0.0
  0
VERTEX
  5
24B
  8
6_06MM_ABS_INSIDE
 10
244.740027568494
 20
-771.9699144798923
 30
0.0
  0
VERTEX
  5
24C
  8
6_06MM_ABS_INSIDE
 10
244.740027568494
 20
-778.0299144798922
 30
0.0
  0
VERTEX
  5
24D
  8
6_06MM_ABS_INSIDE
 10
229.740027568494
 20
-778.0299144798922
 30
0.0
  0
SEQEND
  5
24E
  8
6_06MM_ABS_INSIDE
  0
POLYLINE
  5
24F
  8
6_06MM_ABS_INSIDE
 66
     1
 10
0.0
 20
0.0
 30
0.0
 70
     1
  0
VERTEX
  5
250
  8
6_06MM_ABS_INSIDE
 10
224.7400389736249
 20
-814.9999114493238
 30
0.0
  0
VERTEX
  5
251
  8
6_06MM_ABS_INSIDE
 10
218.6800389736254
 20
-814.9999114493238
 30
0.0
  0
VERTEX
  5
252
  8
6_06MM_ABS_INSIDE
 10
218.6800389736254
 20
-799.9999114493238
 30
0.0
  0
VERTEX
  5
253
  8
6_06MM_ABS_INSIDE
 10
224.7400389736249
 20
-799.9999114493238
 30
0.0
  0
SEQEND
  5
254
  8
6_06MM_ABS_INSIDE
  0
POLYLINE
  5
255
  8
6_06MM_ABS_INSIDE
 66
     1
 10
0.0
 20
0.0
 30
0.0
 70
     1
  0
VERTEX
  5
256
  8
6_06MM_ABS_INSIDE
 10
224.7400389736249
 20
-779.9999114493238
 30
0.0
  0
VERTEX
  5
257
  8
6_06MM_ABS_INSIDE
 10
218.6800389736254
 20
-779.9999114493238
 30
0.0
  0
VERTEX
  5
258
  8
6_06MM_ABS_INSIDE
 10
218.6800389736254
 20
-764.9999114493238
 30
0.0
  0
VERTEX
  5
259
  8
6_06MM_ABS_INSIDE
 10
224.7400389736249
 20
-764.9999114493238
 30
0.0
  0
SEQEND
  5
25A
  8
6_06MM_ABS_INSIDE
  0
POLYLINE
  5
25B
  8
6_06MM_ABS_INSIDE
 66
     1
 10
0.0
 20
0.0
 30
0.0
 70
     1
  0
VERTEX
  5
25C
  8
6_06MM_ABS_INSIDE
 10
-249.7999194940803
 20
-688.4602650752121
 30
0.0
  0
VERTEX
  5
25D
  8
6_06MM_ABS_INSIDE
 10
-249.7999194940803
 20
-698.4604562797865
 30
0.0
 42
-0.4142134636168407
  0
VERTEX
  5
25E
  8
6_06MM_ABS_INSIDE
 10
-254.7999194940803
 20
-703.4604562797869
 30
0.0
  0
VERTEX
  5
25F
  8
6_06MM_ABS_INSIDE
 10
-264.7999194940803
 20
-703.4604562797867
 30
0.0
 42
-0.4142133648606357
  0
VERTEX
  5
260
  8
6_06MM_ABS_INSIDE
 10
-269.7999194940801
 20
-698.4604562797867
 30
0.0
  0
VERTEX
  5
261
  8
6_06MM_ABS_INSIDE
 10
-269.7999194940803
 20
-688.460265075212
 30
0.0
 42
-0.4142133648606889
  0
VERTEX
  5
262
  8
6_06MM_ABS_INSIDE
 10
-264.7999194940803
 20
-683.460265075212
 30
0.0
  0
VERTEX
  5
263
  8
6_06MM_ABS_INSIDE
 10
-254.7999194940803
 20
-683.460265075212
 30
0.0
 42
-0.4142134636167816
  0
SEQEND
  5
264
  8
6_06MM_ABS_INSIDE
  0
POLYLINE
  5
265
  8
6_06MM_ABS_INSIDE
 66
     1
 10
0.0
 20
0.0
 30
0.0
 70
     1
  0
VERTEX
  5
266
  8
6_06MM_ABS_INSIDE
 10
-219.7999194940803
 20
-688.4602650752121
 30
0.0
  0
VERTEX
  5
267
  8
6_06MM_ABS_INSIDE
 10
-219.7999194940803
 20
-698.4604562797865
 30
0.0
 42
-0.4142134636168309
  0
VERTEX
  5
268
  8
6_06MM_ABS_INSIDE
 10
-224.7999194940803
 20
-703.4604562797869
 30
0.0
  0
VERTEX
  5
269
  8
6_06MM_ABS_INSIDE
 10
-234.7999194940803
 20
-703.4604562797867
 30
0.0
 42
-0.4142133648606462
  0
VERTEX
  5
26A
  8
6_06MM_ABS_INSIDE
 10
-239.7999194940802
 20
-698.4604562797867
 30
0.0
  0
VERTEX
  5
26B
  8
6_06MM_ABS_INSIDE
 10
-239.7999194940803
 20
-688.460265075212
 30
0.0
 42
-0.4142133648606768
  0
VERTEX
  5
26C
  8
6_06MM_ABS_INSIDE
 10
-234.7999194940803
 20
-683.460265075212
 30
0.0
  0
VERTEX
  5
26D
  8
6_06MM_ABS_INSIDE
 10
-224.7999194940803
 20
-683.4602650752121
 30
0.0
 42
-0.4142134636168338
  0
SEQEND
  5
26E
  8
6_06MM_ABS_INSIDE
  0
POLYLINE
  5
26F
  8
6_06MM_ABS_INSIDE
 66
     1
 10
0.0
 20
0.0
 30
0.0
 70
     1
  0
VERTEX
  5
270
  8
6_06MM_ABS_INSIDE
 10
-249.7999194940803
 20
-718.4602650752121
 30
0.0
  0
VERTEX
  5
271
  8
6_06MM_ABS_INSIDE
 10
-249.7999194940803
 20
-762.511808795426
 30
0.0
  0
VERTEX
  5
272
  8
6_06MM_ABS_INSIDE
 10
-249.7999194940803
 20
-768.4604562797866
 30
0.0
 42
-0.4142133648607124
  0
VERTEX
  5
273
  8
6_06MM_ABS_INSIDE
 10
-254.7999194940803
 20
-773.4604562797866
 30
0.0
  0
VERTEX
  5
274
  8
6_06MM_ABS_INSIDE
 10
-264.7999194940803
 20
-773.4604562797866
 30
0.0
 42
-0.4142134636169102
  0
VERTEX
  5
275
  8
6_06MM_ABS_INSIDE
 10
-269.7999194940804
 20
-768.4604562797867
 30
0.0
  0
VERTEX
  5
276
  8
6_06MM_ABS_INSIDE
 10
-269.7999194940803
 20
-762.5118087954258
 30
0.0
  0
VERTEX
  5
277
  8
6_06MM_ABS_INSIDE
 10
-269.7999194940803
 20
-718.460265075212
 30
0.0
 42
-0.4142134636168149
  0
VERTEX
  5
278
  8
6_06MM_ABS_INSIDE
 10
-264.7999194940803
 20
-713.460265075212
 30
0.0
  0
VERTEX
  5
279
  8
6_06MM_ABS_INSIDE
 10
-254.7999194940803
 20
-713.460265075212
 30
0.0
 42
-0.4142134636167779
  0
SEQEND
  5
27A
  8
6_06MM_ABS_INSIDE
  0
POLYLINE
  5
27B
  8
6_06MM_ABS_INSIDE
 66
     1
 10
0.0
 20
0.0
 30
0.0
 70
     1
  0
VERTEX
  5
27C
  8
6_06MM_ABS_INSIDE
 10
-219.7999194940803
 20
-718.4602650752121
 30
0.0
  0
VERTEX
  5
27D
  8
6_06MM_ABS_INSIDE
 10
-219.7999194940803
 20
-762.511808795426
 30
0.0
  0
VERTEX
  5
27E
  8
6_06MM_ABS_INSIDE
 10
-219.7999194940802
 20
-768.4604562797865
 30
0.0
 42
-0.4142133648606921
  0
VERTEX
  5
27F
  8
6_06MM_ABS_INSIDE
 10
-224.7999194940803
 20
-773.4604562797866
 30
0.0
  0
VERTEX
  5
280
  8
6_06MM_ABS_INSIDE
 10
-234.7999194940803
 20
-773.4604562797865
 30
0.0
 42
-0.414213463616912
  0
VERTEX
  5
281
  8
6_06MM_ABS_INSIDE
 10
-239.7999194940803
 20
-768.4604562797867
 30
0.0
  0
VERTEX
  5
282
  8
6_06MM_ABS_INSIDE
 10
-239.7999194940803
 20
-762.5118087954258
 30
0.0
  0
VERTEX
  5
283
  8
6_06MM_ABS_INSIDE
 10
-239.7999194940803
 20
-718.4602650752119
 30
0.0
 42
-0.4142134636168388
  0
VERTEX
  5
284
  8
6_06MM_ABS_INSIDE
 10
-234.7999194940803
 20
-713.460265075212
 30
0.0
  0
VERTEX
  5
285
  8
6_06MM_ABS_INSIDE
 10
-224.7999194940803
 20
-713.4602650752119
 30
0.0
 42
-0.41421346361685
  0
SEQEND
  5
286
  8
6_06MM_ABS_INSIDE
  0
POLYLINE
  5
287
  8
6_06MM_ABS_INSIDE
 66
     1
 10
0.0
 20
0.0
 30
0.0
 70
     1
  0
VERTEX
  5
288
  8
6_06MM_ABS_INSIDE
 10
-219.7999194940803
 20
-906.3398087954255
 30
0.0
  0
VERTEX
  5
289
  8
6_06MM_ABS_INSIDE
 10
-219.7999194940803
 20
-916.34
 30
0.0
 42
-0.4142134636168444
  0
VERTEX
  5
28A
  8
6_06MM_ABS_INSIDE
 10
-224.7999194940803
 20
-921.34
 30
0.0
  0
VERTEX
  5
28B
  8
6_06MM_ABS_INSIDE
 10
-244.7999194940803
 20
-921.34
 30
0.0
 42
-0.4142134636168983
  0
VERTEX
  5
28C
  8
6_06MM_ABS_INSIDE
 10
-249.7999194940802
 20
-916.34
 30
0.0
  0
VERTEX
  5
28D
  8
6_06MM_ABS_INSIDE
 10
-249.7999194940804
 20
-906.3398087954255
 30
0.0
 42
-0.4142133648606388
  0
VERTEX
  5
28E
  8
6_06MM_ABS_INSIDE
 10
-244.7999194940803
 20
-901.3398087954255
 30
0.0
  0
VERTEX
  5
28F
  8
6_06MM_ABS_INSIDE
 10
-224.7999194940803
 20
-901.3398087954254
 30
0.0
 42
-0.4142134636167892
  0
SEQEND
  5
290
  8
6_06MM_ABS_INSIDE
  0
POLYLINE
  5
291
  8
6_06MM_ABS_INSIDE
 66
     1
 10
0.0
 20
0.0
 30
0.0
 70
     1
  0
VERTEX
  5
292
  8
6_06MM_ABS_INSIDE
 10
-259.7999194940803
 20
-906.3398087954255
 30
0.0
  0
VERTEX
  5
293
  8
6_06MM_ABS_INSIDE
 10
-259.7999194940803
 20
-916.3400000000001
 30
0.0
 42
-0.4142134636168642
  0
VERTEX
  5
294
  8
6_06MM_ABS_INSIDE
 10
-264.7999194940803
 20
-921.3399999999999
 30
0.0
  0
VERTEX
  5
295
  8
6_06MM_ABS_INSIDE
 10
-284.7999194940803
 20
-921.3399999999999
 30
0.0
 42
-0.4142134636169082
  0
VERTEX
  5
296
  8
6_06MM_ABS_INSIDE
 10
-289.7999194940803
 20
-916.3400000000001
 30
0.0
  0
VERTEX
  5
297
  8
6_06MM_ABS_INSIDE
 10
-289.7999194940803
 20
-906.3398087954255
 30
0.0
 42
-0.4142134636168497
  0
VERTEX
  5
298
  8
6_06MM_ABS_INSIDE
 10
-284.7999194940803
 20
-901.3398087954254
 30
0.0
  0
VERTEX
  5
299
  8
6_06MM_ABS_INSIDE
 10
-264.7999194940803
 20
-901.3398087954255
 30
0.0
 42
-0.4142134636167807
  0
SEQEND
  5
29A
  8
6_06MM_ABS_INSIDE
  0
POLYLINE
  5
29B
  8
6_06MM_ABS_INSIDE
 66
     1
 10
0.0
 20
0.0
 30
0.0
 70
     1
  0
VERTEX
  5
29C
  8
6_06MM_ABS_INSIDE
 10
-219.7999194940803
 20
-876.3398087954255
 30
0.0
  0
VERTEX
  5
29D
  8
6_06MM_ABS_INSIDE
 10
-219.7999194940804
 20
-886.34
 30
0.0
 42
-0.4142134636168522
  0
VERTEX
  5
29E
  8
6_06MM_ABS_INSIDE
 10
-224.7999194940803
 20
-891.3400000000001
 30
0.0
  0
VERTEX
  5
29F
  8
6_06MM_ABS_INSIDE
 10
-244.7999194940803
 20
-891.34
 30
0.0
 42
-0.4142134636169022
  0
VERTEX
  5
2A0
  8
6_06MM_ABS_INSIDE
 10
-249.7999194940803
 20
-886.34
 30
0.0
  0
VERTEX
  5
2A1
  8
6_06MM_ABS_INSIDE
 10
-249.7999194940804
 20
-876.3398087954254
 30
0.0
 42
-0.4142134636168263
  0
VERTEX
  5
2A2
  8
6_06MM_ABS_INSIDE
 10
-244.7999194940803
 20
-871.3398087954253
 30
0.0
  0
VERTEX
  5
2A3
  8
6_06MM_ABS_INSIDE
 10
-224.7999194940803
 20
-871.3398087954251
 30
0.0
 42
-0.4142134636167701
  0
SEQEND
  5
2A4
  8
6_06MM_ABS_INSIDE
  0
POLYLINE
  5
2A5
  8
6_06MM_ABS_INSIDE
 66
     1
 10
0.0
 20
0.0
 30
0.0
 70
     1
  0
VERTEX
  5
2A6
  8
6_06MM_ABS_INSIDE
 10
-259.7999194940803
 20
-876.3398087954255
 30
0.0
  0
VERTEX
  5
2A7
  8
6_06MM_ABS_INSIDE
 10
-259.7999194940803
 20
-886.3399999999999
 30
0.0
 42
-0.4142134636169041
  0
VERTEX
  5
2A8
  8
6_06MM_ABS_INSIDE
 10
-264.7999194940803
 20
-891.3399999999999
 30
0.0
  0
VERTEX
  5
2A9
  8
6_06MM_ABS_INSIDE
 10
-284.7999194940803
 20
-891.3400000000001
 30
0.0
 42
-0.4142134636168881
  0
VERTEX
  5
2AA
  8
6_06MM_ABS_INSIDE
 10
-289.7999194940804
 20
-886.34
 30
0.0
  0
VERTEX
  5
2AB
  8
6_06MM_ABS_INSIDE
 10
-289.7999194940803
 20
-876.3398087954255
 30
0.0
 42
-0.414213463616811
  0
VERTEX
  5
2AC
  8
6_06MM_ABS_INSIDE
 10
-284.7999194940803
 20
-871.3398087954255
 30
0.0
  0
VERTEX
  5
2AD
  8
6_06MM_ABS_INSIDE
 10
-264.7999194940803
 20
-871.3398087954251
 30
0.0
 42
-0.4142134636167567
  0
SEQEND
  5
2AE
  8
6_06MM_ABS_INSIDE
  0
POLYLINE
  5
2AF
  8
6_06MM_ABS_INSIDE
 66
     1
 10
0.0
 20
0.0
 30
0.0
 70
     1
  0
VERTEX
  5
2B0
  8
6_06MM_ABS_INSIDE
 10
-219.7999194940803
 20
-846.3398087954255
 30
0.0
  0
VERTEX
  5
2B1
  8
6_06MM_ABS_INSIDE
 10
-219.7999194940803
 20
-856.34
 30
0.0
 42
-0.4142134636168955
  0
VERTEX
  5
2B2
  8
6_06MM_ABS_INSIDE
 10
-224.7999194940803
 20
-861.3400000000003
 30
0.0
  0
VERTEX
  5
2B3
  8
6_06MM_ABS_INSIDE
 10
-244.7999194940803
 20
-861.34
 30
0.0
 42
-0.4142134636169156
  0
VERTEX
  5
2B4
  8
6_06MM_ABS_INSIDE
 10
-249.7999194940803
 20
-856.3400000000001
 30
0.0
  0
VERTEX
  5
2B5
  8
6_06MM_ABS_INSIDE
 10
-249.7999194940803
 20
-846.3398087954255
 30
0.0
 42
-0.4142134636168313
  0
VERTEX
  5
2B6
  8
6_06MM_ABS_INSIDE
 10
-244.7999194940803
 20
-841.3398087954254
 30
0.0
  0
VERTEX
  5
2B7
  8
6_06MM_ABS_INSIDE
 10
-224.7999194940803
 20
-841.3398087954256
 30
0.0
 42
-0.414213463616852
  0
SEQEND
  5
2B8
  8
6_06MM_ABS_INSIDE
  0
POLYLINE
  5
2B9
  8
6_06MM_ABS_INSIDE
 66
     1
 10
0.0
 20
0.0
 30
0.0
 70
     1
  0
VERTEX
  5
2BA
  8
6_06MM_ABS_INSIDE
 10
-259.7999194940803
 20
-846.3398087954255
 30
0.0
  0
VERTEX
  5
2BB
  8
6_06MM_ABS_INSIDE
 10
-259.7999194940803
 20
-856.34
 30
0.0
 42
-0.4142134636168854
  0
VERTEX
  5
2BC
  8
6_06MM_ABS_INSIDE
 10
-264.7999194940803
 20
-861.3400000000001
 30
0.0
  0
VERTEX
  5
2BD
  8
6_06MM_ABS_INSIDE
 10
-284.7999194940803
 20
-861.34
 30
0.0
 42
-0.4142134636168471
  0
VERTEX
  5
2BE
  8
6_06MM_ABS_INSIDE
 10
-289.7999194940803
 20
-856.3400000000001
 30
0.0
  0
VERTEX
  5
2BF
  8
6_06MM_ABS_INSIDE
 10
-289.7999194940803
 20
-846.3398087954255
 30
0.0
 42
-0.4142134636168191
  0
VERTEX
  5
2C0
  8
6_06MM_ABS_INSIDE
 10
-284.7999194940803
 20
-841.3398087954254
 30
0.0
  0
VERTEX
  5
2C1
  8
6_06MM_ABS_INSIDE
 10
-264.7999194940803
 20
-841.3398087954255
 30
0.0
 42
-0.4142134636167787
  0
SEQEND
  5
2C2
  8
6_06MM_ABS_INSIDE
  0
POLYLINE
  5
2C3
  8
6_06MM_ABS_INSIDE
 66
     1
 10
0.0
 20
0.0
 30
0.0
 70
     1
  0
VERTEX
  5
2C4
  8
6_06MM_ABS_INSIDE
 10
-259.7999610263751
 20
-820.4001291159256
 30
0.0
  0
VERTEX
  5
2C5
  8
6_06MM_ABS_INSIDE
 10
-265.7999610263751
 20
-820.4001291159256
 30
0.0
 42
-0.4142135623731021
  0
VERTEX
  5
2C6
  8
6_06MM_ABS_INSIDE
 10
-269.799961026375
 20
-816.4001291159257
 30
0.0
  0
VERTEX
  5
2C7
  8
6_06MM_ABS_INSIDE
 10
-269.7999610263751
 20
-788.4001291159256
 30
0.0
 42
-0.4142135623729791
  0
VERTEX
  5
2C8
  8
6_06MM_ABS_INSIDE
 10
-265.7999610263751
 20
-784.4001291159257
 30
0.0
  0
VERTEX
  5
2C9
  8
6_06MM_ABS_INSIDE
 10
-259.7999610263751
 20
-784.4001291159254
 30
0.0
 42
-0.414213562373025
  0
VERTEX
  5
2CA
  8
6_06MM_ABS_INSIDE
 10
-255.799961026375
 20
-788.4001291159254
 30
0.0
  0
VERTEX
  5
2CB
  8
6_06MM_ABS_INSIDE
 10
-255.7999610263751
 20
-816.4001291159256
 30
0.0
 42
-0.4142135623731397
  0
SEQEND
  5
2CC
  8
6_06MM_ABS_INSIDE
  0
POLYLINE
  5
2CD
  8
6_06MM_ABS_OUTSIDE
 66
     1
 10
0.0
 20
0.0
 30
0.0
 70
     1
  0
VERTEX
  5
2CE
  8
6_06MM_ABS_OUTSIDE
 10
-284.7999378616878
 20
-657.4002650752126
 30
0.0
  0
VERTEX
  5
2CF
  8
6_06MM_ABS_OUTSIDE
 10
-284.7999378616878
 20
-663.4602650752125
 30
0.0
  0
VERTEX
  5
2D0
  8
6_06MM_ABS_OUTSIDE
 10
-299.7999610263751
 20
-663.4602650752125
 30
0.0
  0
VERTEX
  5
2D1
  8
6_06MM_ABS_OUTSIDE
 10
-299.7999610263751
 20
-762.511808795426
 30
0.0
  0
VERTEX
  5
2D2
  8
6_06MM_ABS_OUTSIDE
 10
-299.7999610263751
 20
-892.511808795426
 30
0.0
  0
VERTEX
  5
2D3
  8
6_06MM_ABS_OUTSIDE
 10
-299.7999610263751
 20
-941.34
 30
0.0
  0
VERTEX
  5
2D4
  8
6_06MM_ABS_OUTSIDE
 10
-284.7999378616878
 20
-941.34
 30
0.0
  0
VERTEX
  5
2D5
  8
6_06MM_ABS_OUTSIDE
 10
-284.7999378616878
 20
-947.4000000000004
 30
0.0
  0
VERTEX
  5
2D6
  8
6_06MM_ABS_OUTSIDE
 10
-264.7999378616878
 20
-947.4000000000004
 30
0.0
  0
VERTEX
  5
2D7
  8
6_06MM_ABS_OUTSIDE
 10
-264.7999378616878
 20
-941.34
 30
0.0
  0
VERTEX
  5
2D8
  8
6_06MM_ABS_OUTSIDE
 10
-244.7999053043054
 20
-941.34
 30
0.0
  0
VERTEX
  5
2D9
  8
6_06MM_ABS_OUTSIDE
 10
-244.7999053043054
 20
-947.4000000000004
 30
0.0
  0
VERTEX
  5
2DA
  8
6_06MM_ABS_OUTSIDE
 10
-224.7999053043054
 20
-947.4000000000004
 30
0.0
  0
VERTEX
  5
2DB
  8
6_06MM_ABS_OUTSIDE
 10
-224.7999053043054
 20
-941.34
 30
0.0
  0
VERTEX
  5
2DC
  8
6_06MM_ABS_OUTSIDE
 10
-209.7998796329184
 20
-941.34
 30
0.0
  0
VERTEX
  5
2DD
  8
6_06MM_ABS_OUTSIDE
 10
-209.7998796329184
 20
-947.4000000000004
 30
0.0
  0
VERTEX
  5
2DE
  8
6_06MM_ABS_OUTSIDE
 10
-153.7398796329185
 20
-947.4000000000004
 30
0.0
  0
VERTEX
  5
2DF
  8
6_06MM_ABS_OUTSIDE
 10
-78.73987963291847
 20
-892.511808795426
 30
0.0
  0
VERTEX
  5
2E0
  8
6_06MM_ABS_OUTSIDE
 10
-78.73987963291847
 20
-762.511808795426
 30
0.0
  0
VERTEX
  5
2E1
  8
6_06MM_ABS_OUTSIDE
 10
-193.7398796329185
 20
-657.4002650752126
 30
0.0
  0
VERTEX
  5
2E2
  8
6_06MM_ABS_OUTSIDE
 10
-209.7998796329184
 20
-657.4002650752126
 30
0.0
  0
VERTEX
  5
2E3
  8
6_06MM_ABS_OUTSIDE
 10
-209.7998796329184
 20
-663.4602650752125
 30
0.0
  0
VERTEX
  5
2E4
  8
6_06MM_ABS_OUTSIDE
 10
-224.7999053043054
 20
-663.4602650752125
 30
0.0
  0
VERTEX
  5
2E5
  8
6_06MM_ABS_OUTSIDE
 10
-224.7999053043054
 20
-657.4002650752126
 30
0.0
  0
VERTEX
  5
2E6
  8
6_06MM_ABS_OUTSIDE
 10
-244.7999053043054
 20
-657.4002650752126
 30
0.0
  0
VERTEX
  5
2E7
  8
6_06MM_ABS_OUTSIDE
 10
-244.7999053043054
 20
-663.4602650752125
 30
0.0
  0
VERTEX
  5
2E8
  8
6_06MM_ABS_OUTSIDE
 10
-264.7999378616878
 20
-663.4602650752125
 30
0.0
  0
VERTEX
  5
2E9
  8
6_06MM_ABS_OUTSIDE
 10
-264.7999378616878
 20
-657.4002650752126
 30
0.0
  0
SEQEND
  5
2EA
  8
6_06MM_ABS_OUTSIDE
  0
POLYLINE
  5
2EB
  8
6_06MM_ABS_INSIDE
 66
     1
 10
0.0
 20
0.0
 30
0.0
 70
     1
  0
VERTEX
  5
2EC
  8
6_06MM_ABS_INSIDE
 10
-103.739878808944
 20
-817.5117968609728
 30
0.0
  0
VERTEX
  5
2ED
  8
6_06MM_ABS_INSIDE
 10
-109.799878808944
 20
-817.5117968609728
 30
0.0
  0
VERTEX
  5
2EE
  8
6_06MM_ABS_INSIDE
 10
-109.799878808944
 20
-787.5117968609728
 30
0.0
  0
VERTEX
  5
2EF
  8
6_06MM_ABS_INSIDE
 10
-103.739878808944
 20
-787.5117968609728
 30
0.0
  0
SEQEND
  5
2F0
  8
6_06MM_ABS_INSIDE
  0
POLYLINE
  5
2F1
  8
6_06MM_ABS_INSIDE
 66
     1
 10
0.0
 20
0.0
 30
0.0
 70
     1
  0
VERTEX
  5
2F2
  8
6_06MM_ABS_INSIDE
 10
-134.799878808944
 20
-837.5118058077168
 30
0.0
  0
VERTEX
  5
2F3
  8
6_06MM_ABS_INSIDE
 10
-128.739878808944
 20
-837.5118058077168
 30
0.0
  0
VERTEX
  5
2F4
  8
6_06MM_ABS_INSIDE
 10
-128.739878808944
 20
-867.5118058077168
 30
0.0
  0
VERTEX
  5
2F5
  8
6_06MM_ABS_INSIDE
 10
-134.799878808944
 20
-867.5118058077168
 30
0.0
  0
SEQEND
  5
2F6
  8
6_06MM_ABS_INSIDE
  0
POLYLINE
  5
2F7
  8
6_06MM_ABS_INSIDE
 66
     1
 10
0.0
 20
0.0
 30
0.0
 70
     1
  0
VERTEX
  5
2F8
  8
6_06MM_ABS_INSIDE
 10
-128.739878808944
 20
-817.5117968609728
 30
0.0
  0
VERTEX
  5
2F9
  8
6_06MM_ABS_INSIDE
 10
-134.799878808944
 20
-817.5117968609728
 30
0.0
  0
VERTEX
  5
2FA
  8
6_06MM_ABS_INSIDE
 10
-134.799878808944
 20
-787.5117968609728
 30
0.0
  0
VERTEX
  5
2FB
  8
6_06MM_ABS_INSIDE
 10
-128.739878808944
 20
-787.5117968609728
 30
0.0
  0
SEQEND
  5
2FC
  8
6_06MM_ABS_INSIDE
  0
POLYLINE
  5
2FD
  8
6_06MM_ABS_INSIDE
 66
     1
 10
0.0
 20
0.0
 30
0.0
 70
     1
  0
VERTEX
  5
2FE
  8
6_06MM_ABS_INSIDE
 10
-153.739878808944
 20
-817.5117968609728
 30
0.0
  0
VERTEX
  5
2FF
  8
6_06MM_ABS_INSIDE
 10
-159.799878808944
 20
-817.5117968609728
 30
0.0
  0
VERTEX
  5
300
  8
6_06MM_ABS_INSIDE
 10
-159.799878808944
 20
-787.5117968609728
 30
0.0
  0
VERTEX
  5
301
  8
6_06MM_ABS_INSIDE
 10
-153.739878808944
 20
-787.5117968609728
 30
0.0
  0
SEQEND
  5
302
  8
6_06MM_ABS_INSIDE
  0
POLYLINE
  5
303
  8
6_06MM_ABS_INSIDE
 66
     1
 10
0.0
 20
0.0
 30
0.0
 70
     1
  0
VERTEX
  5
304
  8
6_06MM_ABS_INSIDE
 10
-159.799878808944
 20
-837.5118058077168
 30
0.0
  0
VERTEX
  5
305
  8
6_06MM_ABS_INSIDE
 10
-153.739878808944
 20
-837.5118058077168
 30
0.0
  0
VERTEX
  5
306
  8
6_06MM_ABS_INSIDE
 10
-153.739878808944
 20
-867.5118058077168
 30
0.0
  0
VERTEX
  5
307
  8
6_06MM_ABS_INSIDE
 10
-159.799878808944
 20
-867.5118058077168
 30
0.0
  0
SEQEND
  5
308
  8
6_06MM_ABS_INSIDE
  0
POLYLINE
  5
309
  8
6_06MM_ABS_INSIDE
 66
     1
 10
0.0
 20
0.0
 30
0.0
 70
     1
  0
VERTEX
  5
30A
  8
6_06MM_ABS_INSIDE
 10
-109.799878808944
 20
-837.5118058077168
 30
0.0
  0
VERTEX
  5
30B
  8
6_06MM_ABS_INSIDE
 10
-103.739878808944
 20
-837.5118058077168
 30
0.0
  0
VERTEX
  5
30C
  8
6_06MM_ABS_INSIDE
 10
-103.739878808944
 20
-867.5118058077168
 30
0.0
  0
VERTEX
  5
30D
  8
6_06MM_ABS_INSIDE
 10
-109.799878808944
 20
-867.5118058077168
 30
0.0
  0
SEQEND
  5
30E
  8
6_06MM_ABS_INSIDE
  0
POLYLINE
  5
30F
  8
6_06MM_ABS_INSIDE
 66
     1
 10
0.0
 20
0.0
 30
0.0
 70
     1
  0
VERTEX
  5
310
  8
6_06MM_ABS_INSIDE
 10
-209.7998796329184
 20
-837.5118058077168
 30
0.0
  0
VERTEX
  5
311
  8
6_06MM_ABS_INSIDE
 10
-203.7398796329185
 20
-837.5118058077168
 30
0.0
  0
VERTEX
  5
312
  8
6_06MM_ABS_INSIDE
 10
-203.7398796329185
 20
-867.5118058077168
 30
0.0
  0
VERTEX
  5
313
  8
6_06MM_ABS_INSIDE
 10
-209.7998796329184
 20
-867.5118058077168
 30
0.0
  0
SEQEND
  5
314
  8
6_06MM_ABS_INSIDE
  0
POLYLINE
  5
315
  8
6_06MM_ABS_INSIDE
 66
     1
 10
0.0
 20
0.0
 30
0.0
 70
     1
  0
VERTEX
  5
316
  8
6_06MM_ABS_INSIDE
 10
-203.7398796329185
 20
-817.5117968609728
 30
0.0
  0
VERTEX
  5
317
  8
6_06MM_ABS_INSIDE
 10
-209.7998796329184
 20
-817.5117968609728
 30
0.0
  0
VERTEX
  5
318
  8
6_06MM_ABS_INSIDE
 10
-209.7998796329184
 20
-787.5117968609728
 30
0.0
  0
VERTEX
  5
319
  8
6_06MM_ABS_INSIDE
 10
-203.7398796329185
 20
-787.5117968609728
 30
0.0
  0
SEQEND
  5
31A
  8
6_06MM_ABS_INSIDE
  0
POLYLINE
  5
31B
  8
6_06MM_ABS_INSIDE
 66
     1
 10
0.0
 20
0.0
 30
0.0
 70
     1
  0
VERTEX
  5
31C
  8
6_06MM_ABS_INSIDE
 10
-209.7998796329184
 20
-727.4005988395596
 30
0.0
  0
VERTEX
  5
31D
  8
6_06MM_ABS_INSIDE
 10
-203.7398796329185
 20
-727.4005988395596
 30
0.0
  0
VERTEX
  5
31E
  8
6_06MM_ABS_INSIDE
 10
-203.7398796329185
 20
-757.4005988395596
 30
0.0
  0
VERTEX
  5
31F
  8
6_06MM_ABS_INSIDE
 10
-209.7998796329184
 20
-757.4005988395596
 30
0.0
  0
SEQEND
  5
320
  8
6_06MM_ABS_INSIDE
  0
POLYLINE
  5
321
  8
6_06MM_ABS_INSIDE
 66
     1
 10
0.0
 20
0.0
 30
0.0
 70
     1
  0
VERTEX
  5
322
  8
6_06MM_ABS_INSIDE
 10
-203.7398796329185
 20
-707.4002650752126
 30
0.0
  0
VERTEX
  5
323
  8
6_06MM_ABS_INSIDE
 10
-209.7998796329184
 20
-707.4002650752126
 30
0.0
  0
VERTEX
  5
324
  8
6_06MM_ABS_INSIDE
 10
-209.7998796329184
 20
-677.4002650752126
 30
0.0
  0
VERTEX
  5
325
  8
6_06MM_ABS_INSIDE
 10
-203.7398796329185
 20
-677.4002650752126
 30
0.0
  0
SEQEND
  5
326
  8
6_06MM_ABS_INSIDE
  0
POLYLINE
  5
327
  8
6_06MM_ABS_INSIDE
 66
     1
 10
0.0
 20
0.0
 30
0.0
 70
     1
  0
VERTEX
  5
328
  8
6_06MM_ABS_INSIDE
 10
-209.7998796329184
 20
-917.4000000000004
 30
0.0
  0
VERTEX
  5
329
  8
6_06MM_ABS_INSIDE
 10
-203.7398796329185
 20
-917.4000000000004
 30
0.0
  0
VERTEX
  5
32A
  8
6_06MM_ABS_INSIDE
 10
-203.7398796329185
 20
-932.4000000000004
 30
0.0
  0
VERTEX
  5
32B
  8
6_06MM_ABS_INSIDE
 10
-209.7998796329184
 20
-932.4000000000004
 30
0.0
  0
SEQEND
  5
32C
  8
6_06MM_ABS_INSIDE
  0
POLYLINE
  5
32D
  8
6_06MM_ABS_INSIDE
 66
     1
 10
0.0
 20
0.0
 30
0.0
 70
     1
  0
VERTEX
  5
32E
  8
6_06MM_ABS_INSIDE
 10
-203.7398796329185
 20
-897.3999944082851
 30
0.0
  0
VERTEX
  5
32F
  8
6_06MM_ABS_INSIDE
 10
-209.7998796329184
 20
-897.3999944082851
 30
0.0
  0
VERTEX
  5
330
  8
6_06MM_ABS_INSIDE
 10
-209.7998796329184
 20
-892.511808795426
 30
0.0
  0
VERTEX
  5
331
  8
6_06MM_ABS_INSIDE
 10
-209.7998796329184
 20
-882.3999944082851
 30
0.0
  0
VERTEX
  5
332
  8
6_06MM_ABS_INSIDE
 10
-203.7398796329185
 20
-882.3999944082851
 30
0.0
  0
VERTEX
  5
333
  8
6_06MM_ABS_INSIDE
 10
-203.7398796329185
 20
-892.511808795426
 30
0.0
  0
SEQEND
  5
334
  8
6_06MM_ABS_INSIDE
  0
CIRCLE
  5
335
  8
SCREW_HOLES
 10
-292.6249611289468
 20
-676.500097336371
 30
0.0
 40
1.000000000000057
  0
CIRCLE
  5
336
  8
SCREW_HOLES
 10
-292.6249611289468
 20
-713.1000813946414
 30
0.0
 40
1.000000000000057
  0
CIRCLE
  5
337
  8
SCREW_HOLES
 10
-206.7698788089437
 20
-907.399994408285
 30
0.0
 40
1.499999999999972
  0
CIRCLE
  5
338
  8
SCREW_HOLES
 10
-206.7698788089437
 20
-717.40059883956
 30
0.0
 40
1.499999999999972
  0
CIRCLE
  5
339
  8
SCREW_HOLES
 10
-148.7398796329185
 20
-772.511808795426
 30
0.0
 40
1.5
  0
CIRCLE
  5
33A
  8
SCREW_HOLES
 10
-138.7398796329185
 20
-772.5118087954258
 30
0.0
 40
1.5
  0
CIRCLE
  5
33B
  8
SCREW_HOLES
 10
-98.73987963291836
 20
-772.511808795426
 30
0.0
 40
1.499999999999886
  0
CIRCLE
  5
33C
  8
SCREW_HOLES
 10
-118.7398796329185
 20
-772.5118087954258
 30
0.0
 40
1.499999999999986
  0
CIRCLE
  5
33D
  8
SCREW_HOLES
 10
-88.73987963291842
 20
-772.5118087954258
 30
0.0
 40
1.500000000000242
  0
CIRCLE
  5
33E
  8
SCREW_HOLES
 10
-108.7398796329184
 20
-772.5118087954258
 30
0.0
 40
1.499999999999886
  0
CIRCLE
  5
33F
  8
SCREW_HOLES
 10
-128.7398796329184
 20
-772.5118087954258
 30
0.0
 40
1.499999999999886
  0
CIRCLE
  5
340
  8
SCREW_HOLES
 10
-148.7398796329184
 20
-882.511830116168
 30
0.0
 40
1.500000000000369
  0
CIRCLE
  5
341
  8
SCREW_HOLES
 10
-138.7398796329185
 20
-882.5118301161682
 30
0.0
 40
1.5
  0
CIRCLE
  5
342
  8
SCREW_HOLES
 10
-98.73987963291866
 20
-882.5118301161683
 30
0.0
 40
1.499999999999901
  0
CIRCLE
  5
343
  8
SCREW_HOLES
 10
-118.7398796329185
 20
-882.5118301161682
 30
0.0
 40
1.499999999999986
  0
CIRCLE
  5
344
  8
SCREW_HOLES
 10
-88.73987963291836
 20
-882.511830116168
 30
0.0
 40
1.500000000000185
  0
CIRCLE
  5
345
  8
SCREW_HOLES
 10
-108.7398796329185
 20
-882.5118301161682
 30
0.0
 40
1.500000000000057
  0
CIRCLE
  5
346
  8
SCREW_HOLES
 10
-128.7398796329186
 20
-882.5118301161682
 30
0.0
 40
1.499999999999929
  0
CIRCLE
  5
347
  8
SCREW_HOLES
 10
-206.7698788089438
 20
-827.5118058077169
 30
0.0
 40
1.500000000000057
  0
CIRCLE
  5
348
  8
SCREW_HOLES
 10
-156.7698788089438
 20
-827.5118058077168
 30
0.0
 40
1.5
  0
CIRCLE
  5
349
  8
SCREW_HOLES
 10
-131.7698788089437
 20
-827.5118058077168
 30
0.0
 40
1.499999999999972
  0
CIRCLE
  5
34A
  8
SCREW_HOLES
 10
-106.7698788089437
 20
-827.5118058077168
 30
0.0
 40
1.499999999999957
  0
POLYLINE
  5
34C
  8
BOUNDARIES
 66
     1
 10
0.0
 20
0.0
 30
0.0
 70
     1
  0
VERTEX
  5
34D
  8
BOUNDARIES
 10
-304.7999610263751
 20
-952.4000000000001
 30
0.0
  0
VERTEX
  5
34E
  8
BOUNDARIES
 10
-304.7999610263751
 20
-647.5999999999999
 30
0.0
  0
VERTEX
  5
34F
  8
BOUNDARIES
 10
304.8000389736253
 20
-647.5999999999999
 30
0.0
  0
VERTEX
  5
350
  8
BOUNDARIES
 10
304.8000389736253
 20
-952.4000000000001
 30
0.0
  0
SEQEND
  5
351
  8
BOUNDARIES
  0
ENDSEC
  0
EOF
