  0
SECTION
  2
HEADER
  9
$ACADVER
  1
AC1009
  9
$DWGCODEPAGE
  3
ansi_1252
  9
$INSBASE
 10
0.0
 20
0.0
 30
0.0
  9
$EXTMIN
 10
-304.8
 20
-152.4
 30
0.0
  9
$EXTMAX
 10
304.8
 20
152.4000000000001
 30
0.0
  9
$LIMMIN
 10
0.0
 20
0.0
  9
$LIMMAX
 10
12.0
 20
9.0
  9
$ORTHOMODE
 70
     0
  9
$REGENMODE
 70
     1
  9
$FILLMODE
 70
     1
  9
$QTEXTMODE
 70
     0
  9
$MIRRTEXT
 70
     1
  9
$DRAGMODE
 70
     2
  9
$LTSCALE
 40
1.0
  9
$OSMODE
 70
    37
  9
$ATTMODE
 70
     1
  9
$TEXTSIZE
 40
0.2
  9
$TRACEWID
 40
0.05
  9
$TEXTSTYLE
  7
STANDARD
  9
$CLAYER
  8
6_06MM_ABS
  9
$CELTYPE
  6
BYLAYER
  9
$CECOLOR
 62
   256
  9
$DIMSCALE
 40
1.0
  9
$DIMASZ
 40
0.18
  9
$DIMEXO
 40
0.0625
  9
$DIMDLI
 40
0.38
  9
$DIMRND
 40
0.0
  9
$DIMDLE
 40
0.0
  9
$DIMEXE
 40
0.18
  9
$DIMTP
 40
0.0
  9
$DIMTM
 40
0.0
  9
$DIMTXT
 40
0.18
  9
$DIMCEN
 40
0.09
  9
$DIMTSZ
 40
0.0
  9
$DIMTOL
 70
     0
  9
$DIMLIM
 70
     0
  9
$DIMTIH
 70
     1
  9
$DIMTOH
 70
     1
  9
$DIMSE1
 70
     0
  9
$DIMSE2
 70
     0
  9
$DIMTAD
 70
     0
  9
$DIMZIN
 70
     0
  9
$DIMBLK
  1

  9
$DIMASO
 70
     1
  9
$DIMSHO
 70
     1
  9
$DIMPOST
  1

  9
$DIMAPOST
  1

  9
$DIMALT
 70
     0
  9
$DIMALTD
 70
     2
  9
$DIMALTF
 40
25.4
  9
$DIMLFAC
 40
1.0
  9
$DIMTOFL
 70
     0
  9
$DIMTVP
 40
0.0
  9
$DIMTIX
 70
     0
  9
$DIMSOXD
 70
     0
  9
$DIMSAH
 70
     0
  9
$DIMBLK1
  1

  9
$DIMBLK2
  1

  9
$DIMSTYLE
  2
STANDARD
  9
$DIMCLRD
 70
     0
  9
$DIMCLRE
 70
     0
  9
$DIMCLRT
 70
     0
  9
$DIMTFAC
 40
1.0
  9
$DIMGAP
 40
0.09
  9
$LUNITS
 70
     2
  9
$LUPREC
 70
     3
  9
$SKETCHINC
 40
0.1
  9
$FILLETRAD
 40
0.5
  9
$AUNITS
 70
     0
  9
$AUPREC
 70
     0
  9
$MENU
  1
.
  9
$ELEVATION
 40
0.0
  9
$PELEVATION
 40
0.0
  9
$THICKNESS
 40
0.0
  9
$LIMCHECK
 70
     0
  9
$CHAMFERA
 40
0.0
  9
$CHAMFERB
 40
0.0
  9
$SKPOLY
 70
     0
  9
$TDCREATE
 40
2457327.741587662
  9
$TDUPDATE
 40
2457327.741611597
  9
$TDINDWG
 40
0.0000000116
  9
$TDUSRTIMER
 40
0.0000000116
  9
$USRTIMER
 70
     1
  9
$ANGBASE
 50
0.0
  9
$ANGDIR
 70
     0
  9
$PDMODE
 70
     0
  9
$PDSIZE
 40
0.0
  9
$PLINEWID
 40
0.0
  9
$COORDS
 70
     1
  9
$SPLFRAME
 70
     0
  9
$SPLINETYPE
 70
     6
  9
$SPLINESEGS
 70
     8
  9
$ATTDIA
 70
     0
  9
$ATTREQ
 70
     1
  9
$HANDLING
 70
     1
  9
$HANDSEED
  5
3B2
  9
$SURFTAB1
 70
     6
  9
$SURFTAB2
 70
     6
  9
$SURFTYPE
 70
     6
  9
$SURFU
 70
     6
  9
$SURFV
 70
     6
  9
$UCSNAME
  2

  9
$UCSORG
 10
0.0
 20
0.0
 30
0.0
  9
$UCSXDIR
 10
1.0
 20
0.0
 30
0.0
  9
$UCSYDIR
 10
0.0
 20
1.0
 30
0.0
  9
$PUCSNAME
  2

  9
$PUCSORG
 10
0.0
 20
0.0
 30
0.0
  9
$PUCSXDIR
 10
1.0
 20
0.0
 30
0.0
  9
$PUCSYDIR
 10
0.0
 20
1.0
 30
0.0
  9
$USERI1
 70
     0
  9
$USERI2
 70
     0
  9
$USERI3
 70
     0
  9
$USERI4
 70
     0
  9
$USERI5
 70
     0
  9
$USERR1
 40
0.0
  9
$USERR2
 40
0.0
  9
$USERR3
 40
0.0
  9
$USERR4
 40
0.0
  9
$USERR5
 40
0.0
  9
$WORLDVIEW
 70
     1
  9
$SHADEDGE
 70
     3
  9
$SHADEDIF
 70
    70
  9
$TILEMODE
 70
     1
  9
$MAXACTVP
 70
    64
  9
$PLIMCHECK
 70
     0
  9
$PEXTMIN
 10
1.000000000000000E+20
 20
1.000000000000000E+20
 30
1.000000000000000E+20
  9
$PEXTMAX
 10
-1.000000000000000E+20
 20
-1.000000000000000E+20
 30
-1.000000000000000E+20
  9
$PLIMMIN
 10
0.0
 20
0.0
  9
$PLIMMAX
 10
12.0
 20
9.0
  9
$UNITMODE
 70
     0
  9
$VISRETAIN
 70
     1
  9
$PLINEGEN
 70
     0
  9
$PSLTSCALE
 70
     1
  0
ENDSEC
  0
SECTION
  2
TABLES
  0
TABLE
  2
VPORT
 70
     1
  0
VPORT
  2
*ACTIVE
 70
     0
 10
0.0
 20
0.0
 11
1.0
 21
1.0
 12
0.0
 22
0.0
 13
0.0
 23
0.0
 14
0.5
 24
0.5
 15
0.5
 25
0.5
 16
0.0
 26
0.0
 36
1.0
 17
0.0
 27
0.0
 37
0.0
 40
310.8960000000001
 41
2.0
 42
50.0
 43
0.0
 44
0.0
 50
0.0
 51
0.0
 71
     0
 72
   100
 73
     1
 74
     3
 75
     0
 76
     0
 77
     0
 78
     0
  0
ENDTAB
  0
TABLE
  2
LTYPE
 70
     1
  0
LTYPE
  2
CONTINUOUS
 70
     0
  3
Solid line
 72
    65
 73
     0
 40
0.0
  0
ENDTAB
  0
TABLE
  2
LAYER
 70
     3
  0
LAYER
  2
0
 70
     0
 62
     7
  6
CONTINUOUS
  0
LAYER
  2
6_06MM_ABS
 70
     0
 62
     1
  6
CONTINUOUS
  0
LAYER
  2
DEFAULT
 70
     0
 62
     7
  6
CONTINUOUS
  0
ENDTAB
  0
TABLE
  2
STYLE
 70
     1
  0
STYLE
  2
STANDARD
 70
     0
 40
0.0
 41
1.0
 50
0.0
 71
     0
 42
0.2
  3
txt
  4

  0
ENDTAB
  0
TABLE
  2
VIEW
 70
     0
  0
ENDTAB
  0
TABLE
  2
UCS
 70
     0
  0
ENDTAB
  0
TABLE
  2
APPID
 70
     1
  0
APPID
  2
ACAD
 70
     0
  0
ENDTAB
  0
TABLE
  2
DIMSTYLE
 70
     1
  0
DIMSTYLE
  2
STANDARD
 70
     0
  3

  4

  5

  6

  7

 40
1.0
 41
0.18
 42
0.0625
 43
0.38
 44
0.18
 45
0.0
 46
0.0
 47
0.0
 48
0.0
140
0.18
141
0.09
142
0.0
143
25.4
144
1.0
145
0.0
146
1.0
147
0.09
 71
     0
 72
     0
 73
     1
 74
     1
 75
     0
 76
     0
 77
     0
 78
     0
170
     0
171
     2
172
     0
173
     0
174
     0
175
     0
176
     0
177
     0
178
     0
  0
ENDTAB
  0
ENDSEC
  0
SECTION
  2
BLOCKS
  0
BLOCK
  8
0
  2
$MODEL_SPACE
 70
     0
 10
0.0
 20
0.0
 30
0.0
  3
$MODEL_SPACE
  1

  0
ENDBLK
  5
21
  8
0
  0
BLOCK
 67
     1
  8
0
  2
$PAPER_SPACE
 70
     0
 10
0.0
 20
0.0
 30
0.0
  3
$PAPER_SPACE
  1

  0
ENDBLK
  5
1D
 67
     1
  8
0
  0
ENDSEC
  0
SECTION
  2
ENTITIES
  0
POLYLINE
  5
6F
  8
6_06MM_ABS
 66
     1
 10
0.0
 20
0.0
 30
0.0
 70
     1
  0
VERTEX
  5
70
  8
6_06MM_ABS
 10
99.68005782152022
 20
-100.1200245725631
 30
0.0
  0
VERTEX
  5
71
  8
6_06MM_ABS
 10
103.6800578215202
 20
-104.1200245725631
 30
0.0
  0
VERTEX
  5
72
  8
6_06MM_ABS
 10
103.6800578215202
 20
-128.1200245725631
 30
0.0
  0
VERTEX
  5
73
  8
6_06MM_ABS
 10
99.68005782152022
 20
-132.1200245725631
 30
0.0
  0
VERTEX
  5
74
  8
6_06MM_ABS
 10
91.67997711523549
 20
-132.1200245725631
 30
0.0
  0
VERTEX
  5
75
  8
6_06MM_ABS
 10
87.6799771152356
 20
-128.1200245725631
 30
0.0
  0
VERTEX
  5
76
  8
6_06MM_ABS
 10
87.6799771152356
 20
-104.1200245725631
 30
0.0
  0
VERTEX
  5
77
  8
6_06MM_ABS
 10
91.67997711523549
 20
-100.1200245725631
 30
0.0
  0
SEQEND
  5
78
  8
6_06MM_ABS
  0
POLYLINE
  5
79
  8
6_06MM_ABS
 66
     1
 10
0.0
 20
0.0
 30
0.0
 70
     1
  0
VERTEX
  5
7A
  8
6_06MM_ABS
 10
63.68000000000006
 20
-96.12003973687472
 30
0.0
  0
VERTEX
  5
7B
  8
6_06MM_ABS
 10
63.68000000000006
 20
-136.120013076191
 30
0.0
  0
VERTEX
  5
7C
  8
6_06MM_ABS
 10
71.68000000000006
 20
-144.120013076191
 30
0.0
  0
VERTEX
  5
7D
  8
6_06MM_ABS
 10
119.6800356102085
 20
-144.120013076191
 30
0.0
  0
VERTEX
  5
7E
  8
6_06MM_ABS
 10
127.6800356102083
 20
-136.120013076191
 30
0.0
  0
VERTEX
  5
7F
  8
6_06MM_ABS
 10
127.6800356102083
 20
-96.12003973687472
 30
0.0
  0
VERTEX
  5
80
  8
6_06MM_ABS
 10
119.6800356102083
 20
-88.12003973687477
 30
0.0
  0
VERTEX
  5
81
  8
6_06MM_ABS
 10
71.68000000000006
 20
-88.12003973687477
 30
0.0
  0
SEQEND
  5
82
  8
6_06MM_ABS
  0
CIRCLE
  5
83
  8
6_06MM_ABS
 10
115.6800135806654
 20
-101.1200273746124
 30
0.0
 40
1.0
  0
CIRCLE
  5
84
  8
6_06MM_ABS
 10
75.68002202954301
 20
-116.1200152608823
 30
0.0
 40
1.0
  0
CIRCLE
  5
85
  8
6_06MM_ABS
 10
115.6800135806654
 20
-131.1200152608823
 30
0.0
 40
1.000000000000014
  0
CIRCLE
  5
86
  8
6_06MM_ABS
 10
75.68007961963303
 20
-101.1200273746123
 30
0.0
 40
2.0
  0
CIRCLE
  5
87
  8
6_06MM_ABS
 10
75.68007961963303
 20
-131.1200152608822
 30
0.0
 40
2.0
  0
CIRCLE
  5
88
  8
6_06MM_ABS
 10
115.6800702728459
 20
-116.1200167320089
 30
0.0
 40
1.999999999999986
  0
POLYLINE
  5
89
  8
6_06MM_ABS
 66
     1
 10
0.0
 20
0.0
 30
0.0
 70
     1
  0
VERTEX
  5
8A
  8
6_06MM_ABS
 10
116.7400229622381
 20
-56.12003491505349
 30
0.0
  0
VERTEX
  5
8B
  8
6_06MM_ABS
 10
116.7400229622381
 20
-60.12003491505355
 30
0.0
 42
-0.4142134636168987
  0
VERTEX
  5
8C
  8
6_06MM_ABS
 10
114.7400229622381
 20
-62.12003491505349
 30
0.0
  0
VERTEX
  5
8D
  8
6_06MM_ABS
 10
86.74002296223807
 20
-62.12003491505356
 30
0.0
 42
-0.4142134636168739
  0
VERTEX
  5
8E
  8
6_06MM_ABS
 10
84.74002296223803
 20
-60.12003491505359
 30
0.0
  0
VERTEX
  5
8F
  8
6_06MM_ABS
 10
84.74002296223807
 20
-56.12003491505354
 30
0.0
 42
-0.414213266104555
  0
VERTEX
  5
90
  8
6_06MM_ABS
 10
86.7400229622381
 20
-54.12003491505352
 30
0.0
  0
VERTEX
  5
91
  8
6_06MM_ABS
 10
114.7400229622381
 20
-54.12003491505348
 30
0.0
 42
-0.4142135623730872
  0
SEQEND
  5
92
  8
6_06MM_ABS
  0
POLYLINE
  5
93
  8
6_06MM_ABS
 66
     1
 10
0.0
 20
0.0
 30
0.0
 70
     1
  0
VERTEX
  5
94
  8
6_06MM_ABS
 10
129.8000095968425
 20
-2.060047405095915
 30
0.0
  0
VERTEX
  5
95
  8
6_06MM_ABS
 10
129.8000095968425
 20
-17.0600416254474
 30
0.0
  0
VERTEX
  5
96
  8
6_06MM_ABS
 10
123.7400095968425
 20
-17.0600416254474
 30
0.0
  0
VERTEX
  5
97
  8
6_06MM_ABS
 10
123.7400095968425
 20
-2.060047405095915
 30
0.0
  0
SEQEND
  5
98
  8
6_06MM_ABS
  0
POLYLINE
  5
99
  8
6_06MM_ABS
 66
     1
 10
0.0
 20
0.0
 30
0.0
 70
     1
  0
VERTEX
  5
9A
  8
6_06MM_ABS
 10
129.8000095968425
 20
-37.06004740509591
 30
0.0
  0
VERTEX
  5
9B
  8
6_06MM_ABS
 10
129.8000095968425
 20
-52.0600416254474
 30
0.0
  0
VERTEX
  5
9C
  8
6_06MM_ABS
 10
123.7400095968425
 20
-52.0600416254474
 30
0.0
  0
VERTEX
  5
9D
  8
6_06MM_ABS
 10
123.7400095968425
 20
-37.06004740509591
 30
0.0
  0
SEQEND
  5
9E
  8
6_06MM_ABS
  0
POLYLINE
  5
9F
  8
6_06MM_ABS
 66
     1
 10
0.0
 20
0.0
 30
0.0
 70
     1
  0
VERTEX
  5
A0
  8
6_06MM_ABS
 10
77.74001116937188
 20
-2.060047405095915
 30
0.0
  0
VERTEX
  5
A1
  8
6_06MM_ABS
 10
77.74001116937188
 20
-17.0600416254474
 30
0.0
  0
VERTEX
  5
A2
  8
6_06MM_ABS
 10
71.68001116937194
 20
-17.0600416254474
 30
0.0
  0
VERTEX
  5
A3
  8
6_06MM_ABS
 10
71.68001116937194
 20
-2.060047405095915
 30
0.0
  0
SEQEND
  5
A4
  8
6_06MM_ABS
  0
POLYLINE
  5
A5
  8
6_06MM_ABS
 66
     1
 10
0.0
 20
0.0
 30
0.0
 70
     1
  0
VERTEX
  5
A6
  8
6_06MM_ABS
 10
77.74001116937188
 20
-37.06004740509591
 30
0.0
  0
VERTEX
  5
A7
  8
6_06MM_ABS
 10
77.74001116937188
 20
-52.0600416254474
 30
0.0
  0
VERTEX
  5
A8
  8
6_06MM_ABS
 10
71.68001116937194
 20
-52.0600416254474
 30
0.0
  0
VERTEX
  5
A9
  8
6_06MM_ABS
 10
71.68001116937194
 20
-37.06004740509591
 30
0.0
  0
SEQEND
  5
AA
  8
6_06MM_ABS
  0
POLYLINE
  5
AB
  8
6_06MM_ABS
 66
     1
 10
0.0
 20
0.0
 30
0.0
 70
     1
  0
VERTEX
  5
AC
  8
6_06MM_ABS
 10
125.7400202394458
 20
11.93994669339226
 30
0.0
  0
VERTEX
  5
AD
  8
6_06MM_ABS
 10
110.7400202394458
 20
11.93994669339226
 30
0.0
  0
VERTEX
  5
AE
  8
6_06MM_ABS
 10
110.7400202394458
 20
17.9999466933922
 30
0.0
  0
VERTEX
  5
AF
  8
6_06MM_ABS
 10
125.7400202394458
 20
17.9999466933922
 30
0.0
  0
SEQEND
  5
B0
  8
6_06MM_ABS
  0
POLYLINE
  5
B1
  8
6_06MM_ABS
 66
     1
 10
0.0
 20
0.0
 30
0.0
 70
     1
  0
VERTEX
  5
B2
  8
6_06MM_ABS
 10
90.74002072458552
 20
11.93994669339226
 30
0.0
  0
VERTEX
  5
B3
  8
6_06MM_ABS
 10
75.74002072458552
 20
11.93994669339226
 30
0.0
  0
VERTEX
  5
B4
  8
6_06MM_ABS
 10
75.74002072458552
 20
17.9999466933922
 30
0.0
  0
VERTEX
  5
B5
  8
6_06MM_ABS
 10
90.74002072458552
 20
17.9999466933922
 30
0.0
  0
SEQEND
  5
B6
  8
6_06MM_ABS
  0
POLYLINE
  5
B7
  8
6_06MM_ABS
 66
     1
 10
0.0
 20
0.0
 30
0.0
 70
     1
  0
VERTEX
  5
B8
  8
6_06MM_ABS
 10
125.7400202394458
 20
-72.12004162544734
 30
0.0
  0
VERTEX
  5
B9
  8
6_06MM_ABS
 10
110.7400202394458
 20
-72.12004162544734
 30
0.0
  0
VERTEX
  5
BA
  8
6_06MM_ABS
 10
110.7400202394458
 20
-66.0600416254474
 30
0.0
  0
VERTEX
  5
BB
  8
6_06MM_ABS
 10
125.7400202394458
 20
-66.0600416254474
 30
0.0
  0
SEQEND
  5
BC
  8
6_06MM_ABS
  0
POLYLINE
  5
BD
  8
6_06MM_ABS
 66
     1
 10
0.0
 20
0.0
 30
0.0
 70
     1
  0
VERTEX
  5
BE
  8
6_06MM_ABS
 10
90.74002072458552
 20
-72.12004162544734
 30
0.0
  0
VERTEX
  5
BF
  8
6_06MM_ABS
 10
75.74002072458552
 20
-72.12004162544734
 30
0.0
  0
VERTEX
  5
C0
  8
6_06MM_ABS
 10
75.74002072458552
 20
-66.0600416254474
 30
0.0
  0
VERTEX
  5
C1
  8
6_06MM_ABS
 10
90.74002072458552
 20
-66.0600416254474
 30
0.0
  0
SEQEND
  5
C2
  8
6_06MM_ABS
  0
POLYLINE
  5
C3
  8
6_06MM_ABS
 66
     1
 10
0.0
 20
0.0
 30
0.0
 70
     1
  0
VERTEX
  5
C4
  8
6_06MM_ABS
 10
129.8000202394458
 20
25.99999880658233
 30
0.0
  0
VERTEX
  5
C5
  8
6_06MM_ABS
 10
71.67999999999995
 20
25.99999880658181
 30
0.0
  0
VERTEX
  5
C6
  8
6_06MM_ABS
 10
63.68000000000006
 20
17.99999880658216
 30
0.0
  0
VERTEX
  5
C7
  8
6_06MM_ABS
 10
63.68000000000006
 20
-72.1200397368746
 30
0.0
  0
VERTEX
  5
C8
  8
6_06MM_ABS
 10
71.68000000000029
 20
-80.12003973687477
 30
0.0
  0
VERTEX
  5
C9
  8
6_06MM_ABS
 10
129.8000202394458
 20
-80.12003973687489
 30
0.0
  0
VERTEX
  5
CA
  8
6_06MM_ABS
 10
137.8000202394458
 20
-72.12003973687472
 30
0.0
  0
VERTEX
  5
CB
  8
6_06MM_ABS
 10
137.8000202394458
 20
17.99999880658267
 30
0.0
  0
SEQEND
  5
CC
  8
6_06MM_ABS
  0
CIRCLE
  5
CD
  8
6_06MM_ABS
 10
100.7400101197229
 20
-69.09004162544738
 30
0.0
 40
1.499999999999986
  0
CIRCLE
  5
CE
  8
6_06MM_ABS
 10
100.7400101197229
 20
14.9699466933922
 30
0.0
 40
1.499999999999986
  0
CIRCLE
  5
CF
  8
6_06MM_ABS
 10
126.7700095968424
 20
-27.06002046514617
 30
0.0
 40
1.500000000000014
  0
CIRCLE
  5
D0
  8
6_06MM_ABS
 10
74.7100111693719
 20
-27.06002046514616
 30
0.0
 40
1.500000000000014
  0
CIRCLE
  5
D1
  8
6_06MM_ABS
 10
100.7400217105725
 20
3.939919515034973
 30
0.0
 40
2.000000000000014
  0
CIRCLE
  5
D2
  8
6_06MM_ABS
 10
115.7400095968426
 20
-36.06007114931911
 30
0.0
 40
2.0
  0
CIRCLE
  5
D3
  8
6_06MM_ABS
 10
85.74002171057259
 20
-36.06007114931906
 30
0.0
 40
2.0
  0
CIRCLE
  5
D4
  8
6_06MM_ABS
 10
115.7400095968424
 20
-0.0600789244780791
 30
0.0
 40
3.499999999999996
  0
CIRCLE
  5
D5
  8
6_06MM_ABS
 10
100.7400105649219
 20
-40.06007934489678
 30
0.0
 40
3.5
  0
CIRCLE
  5
D6
  8
6_06MM_ABS
 10
85.74002171057236
 20
-0.0600789244780771
 30
0.0
 40
3.5
  0
CIRCLE
  5
D7
  8
6_06MM_ABS
 10
100.7400095968424
 20
-18.06002033520758
 30
0.0
 40
4.499999999999986
  0
POLYLINE
  5
D8
  8
6_06MM_ABS
 66
     1
 10
0.0
 20
0.0
 30
0.0
 70
     1
  0
VERTEX
  5
D9
  8
6_06MM_ABS
 10
63.68000000000006
 20
69.99999880658181
 30
0.0
  0
VERTEX
  5
DA
  8
6_06MM_ABS
 10
63.68000000000006
 20
41.99999880658181
 30
0.0
 42
0.4142135623730959
  0
VERTEX
  5
DB
  8
6_06MM_ABS
 10
71.68000000000006
 20
33.9999988065818
 30
0.0
  0
VERTEX
  5
DC
  8
6_06MM_ABS
 10
113.6800356102084
 20
33.99999880658181
 30
0.0
 42
0.4142135623730993
  0
VERTEX
  5
DD
  8
6_06MM_ABS
 10
121.6800356102083
 20
41.99999880658181
 30
0.0
  0
VERTEX
  5
DE
  8
6_06MM_ABS
 10
121.6800356102083
 20
69.99999880658181
 30
0.0
 42
0.4142135623730987
  0
VERTEX
  5
DF
  8
6_06MM_ABS
 10
113.6800356102084
 20
77.9999988065818
 30
0.0
  0
VERTEX
  5
E0
  8
6_06MM_ABS
 10
71.68000000000006
 20
77.9999988065818
 30
0.0
 42
0.4142135623730955
  0
SEQEND
  5
E1
  8
6_06MM_ABS
  0
CIRCLE
  5
E2
  8
6_06MM_ABS
 10
74.68007961963302
 20
70.99998669285186
 30
0.0
 40
2.000000000000014
  0
CIRCLE
  5
E3
  8
6_06MM_ABS
 10
74.68007961963303
 20
40.999998806582
 30
0.0
 40
2.0
  0
CIRCLE
  5
E4
  8
6_06MM_ABS
 10
114.6800702728459
 20
55.99999733545526
 30
0.0
 40
2.000000000000014
  0
CIRCLE
  5
E5
  8
6_06MM_ABS
 10
110.6800356102084
 20
70.99998160406633
 30
0.0
 40
3.5
  0
CIRCLE
  5
E6
  8
6_06MM_ABS
 10
70.68003518978969
 20
55.99999274971675
 30
0.0
 40
3.5
  0
CIRCLE
  5
E7
  8
6_06MM_ABS
 10
110.6800356102084
 20
40.99999371779631
 30
0.0
 40
3.5
  0
CIRCLE
  5
E8
  8
6_06MM_ABS
 10
100.9289114357485
 20
51.23749746005467
 30
0.0
 40
1.5
  0
CIRCLE
  5
E9
  8
6_06MM_ABS
 10
92.68000892466716
 20
65.52498495319401
 30
0.0
 40
1.5
  0
CIRCLE
  5
EA
  8
6_06MM_ABS
 10
84.43113305489668
 20
51.23748207868654
 30
0.0
 40
1.499999999999986
  0
CIRCLE
  5
EB
  8
6_06MM_ABS
 10
92.68001491477547
 20
55.9999897176212
 30
0.0
 40
6.999999999999986
  0
POLYLINE
  5
EC
  8
6_06MM_ABS
 66
     1
 10
0.0
 20
0.0
 30
0.0
 70
     1
  0
VERTEX
  5
ED
  8
6_06MM_ABS
 10
83.68000000000006
 20
144.1199988065819
 30
0.0
  0
VERTEX
  5
EE
  8
6_06MM_ABS
 10
83.68000000000006
 20
138.0599988065819
 30
0.0
  0
VERTEX
  5
EF
  8
6_06MM_ABS
 10
63.68000000000006
 20
138.0599988065819
 30
0.0
  0
VERTEX
  5
F0
  8
6_06MM_ABS
 10
63.68000000000006
 20
92.0599988065819
 30
0.0
  0
VERTEX
  5
F1
  8
6_06MM_ABS
 10
83.68000000000006
 20
92.0599988065819
 30
0.0
  0
VERTEX
  5
F2
  8
6_06MM_ABS
 10
83.68000000000006
 20
85.99999880658184
 30
0.0
  0
VERTEX
  5
F3
  8
6_06MM_ABS
 10
103.6800356102083
 20
85.99999880658184
 30
0.0
  0
VERTEX
  5
F4
  8
6_06MM_ABS
 10
103.6800356102083
 20
92.0599988065819
 30
0.0
  0
VERTEX
  5
F5
  8
6_06MM_ABS
 10
123.6800356102083
 20
92.0599988065819
 30
0.0
  0
VERTEX
  5
F6
  8
6_06MM_ABS
 10
123.6800346659222
 20
105.0599980710185
 30
0.0
  0
VERTEX
  5
F7
  8
6_06MM_ABS
 10
117.2800356102084
 20
105.0599980710185
 30
0.0
  0
VERTEX
  5
F8
  8
6_06MM_ABS
 10
117.2800356102084
 20
125.0599980710186
 30
0.0
  0
VERTEX
  5
F9
  8
6_06MM_ABS
 10
123.6800346659222
 20
125.0599980710186
 30
0.0
  0
VERTEX
  5
FA
  8
6_06MM_ABS
 10
123.6800356102083
 20
138.0599988065819
 30
0.0
  0
VERTEX
  5
FB
  8
6_06MM_ABS
 10
103.6800356102083
 20
138.0599988065819
 30
0.0
  0
VERTEX
  5
FC
  8
6_06MM_ABS
 10
103.6800356102083
 20
144.1199988065819
 30
0.0
  0
SEQEND
  5
FD
  8
6_06MM_ABS
  0
CIRCLE
  5
FE
  8
6_06MM_ABS
 10
71.6800792915476
 20
115.0600002777085
 30
0.0
 40
2.0
  0
CIRCLE
  5
FF
  8
6_06MM_ABS
 10
111.6800699559017
 20
130.0599881639786
 30
0.0
 40
1.999999999999986
  0
CIRCLE
  5
100
  8
6_06MM_ABS
 10
111.6800699559016
 20
100.0600002777086
 30
0.0
 40
2.0
  0
CIRCLE
  5
101
  8
6_06MM_ABS
 10
93.68002069543287
 20
115.0599988065819
 30
0.0
 40
7.999999999999986
  0
POLYLINE
  5
102
  8
6_06MM_ABS
 66
     1
 10
0.0
 20
0.0
 30
0.0
 70
     1
  0
VERTEX
  5
103
  8
6_06MM_ABS
 10
-161.6200027227922
 20
-36.06002003175773
 30
0.0
  0
VERTEX
  5
104
  8
6_06MM_ABS
 10
-161.6200027227922
 20
-40.06002003175767
 30
0.0
 42
-0.414213266104541
  0
VERTEX
  5
105
  8
6_06MM_ABS
 10
-163.6200027227922
 20
-42.06002003175764
 30
0.0
  0
VERTEX
  5
106
  8
6_06MM_ABS
 10
-191.6200027227922
 20
-42.06002003175769
 30
0.0
 42
-0.4142132661045714
  0
VERTEX
  5
107
  8
6_06MM_ABS
 10
-193.6200027227922
 20
-40.06002003175775
 30
0.0
  0
VERTEX
  5
108
  8
6_06MM_ABS
 10
-193.6200027227922
 20
-36.06002003175773
 30
0.0
 42
-0.4142134636169648
  0
VERTEX
  5
109
  8
6_06MM_ABS
 10
-191.6200027227924
 20
-34.06002003175772
 30
0.0
  0
VERTEX
  5
10A
  8
6_06MM_ABS
 10
-163.6200027227922
 20
-34.06002003175767
 30
0.0
 42
-0.4142133648607002
  0
SEQEND
  5
10B
  8
6_06MM_ABS
  0
POLYLINE
  5
10C
  8
6_06MM_ABS
 66
     1
 10
0.0
 20
0.0
 30
0.0
 70
     1
  0
VERTEX
  5
10D
  8
6_06MM_ABS
 10
-161.6200027227922
 20
-20.06002003175762
 30
0.0
  0
VERTEX
  5
10E
  8
6_06MM_ABS
 10
-161.6200027227922
 20
-24.06002003175767
 30
0.0
 42
-0.4142132661045768
  0
VERTEX
  5
10F
  8
6_06MM_ABS
 10
-163.6200027227921
 20
-26.06002003175766
 30
0.0
  0
VERTEX
  5
110
  8
6_06MM_ABS
 10
-191.6200027227922
 20
-26.06002003175769
 30
0.0
 42
-0.41421326610452
  0
VERTEX
  5
111
  8
6_06MM_ABS
 10
-193.6200027227921
 20
-24.0600200317577
 30
0.0
  0
VERTEX
  5
112
  8
6_06MM_ABS
 10
-193.6200027227922
 20
-20.06002003175773
 30
0.0
 42
-0.4142135623730215
  0
VERTEX
  5
113
  8
6_06MM_ABS
 10
-191.6200027227922
 20
-18.06002003175766
 30
0.0
  0
VERTEX
  5
114
  8
6_06MM_ABS
 10
-163.6200027227922
 20
-18.06002003175769
 30
0.0
 42
-0.4142135623731106
  0
SEQEND
  5
115
  8
6_06MM_ABS
  0
POLYLINE
  5
116
  8
6_06MM_ABS
 66
     1
 10
0.0
 20
0.0
 30
0.0
 70
     1
  0
VERTEX
  5
117
  8
6_06MM_ABS
 10
-161.6200027227922
 20
11.93997996824238
 30
0.0
  0
VERTEX
  5
118
  8
6_06MM_ABS
 10
-161.6200027227922
 20
7.93997996824227
 30
0.0
 42
-0.4142134636168887
  0
VERTEX
  5
119
  8
6_06MM_ABS
 10
-163.6200027227922
 20
5.939979968242328
 30
0.0
  0
VERTEX
  5
11A
  8
6_06MM_ABS
 10
-191.6200027227922
 20
5.939979968242305
 30
0.0
 42
-0.4142135623730787
  0
VERTEX
  5
11B
  8
6_06MM_ABS
 10
-193.6200027227922
 20
7.939979968242326
 30
0.0
  0
VERTEX
  5
11C
  8
6_06MM_ABS
 10
-193.6200027227922
 20
11.93997996824233
 30
0.0
 42
-0.4142135623730929
  0
VERTEX
  5
11D
  8
6_06MM_ABS
 10
-191.6200027227922
 20
13.93997996824233
 30
0.0
  0
VERTEX
  5
11E
  8
6_06MM_ABS
 10
-163.6200027227922
 20
13.93997996824234
 30
0.0
 42
-0.4142133648607315
  0
SEQEND
  5
11F
  8
6_06MM_ABS
  0
POLYLINE
  5
120
  8
6_06MM_ABS
 66
     1
 10
0.0
 20
0.0
 30
0.0
 70
     1
  0
VERTEX
  5
121
  8
6_06MM_ABS
 10
-161.6200027227922
 20
-52.06002003175762
 30
0.0
  0
VERTEX
  5
122
  8
6_06MM_ABS
 10
-161.6200027227922
 20
-56.06002003175774
 30
0.0
 42
-0.4142132661045315
  0
VERTEX
  5
123
  8
6_06MM_ABS
 10
-163.6200027227921
 20
-58.06002003175767
 30
0.0
  0
VERTEX
  5
124
  8
6_06MM_ABS
 10
-191.6200027227922
 20
-58.06002003175766
 30
0.0
 42
-0.4142132661044551
  0
VERTEX
  5
125
  8
6_06MM_ABS
 10
-193.6200027227923
 20
-56.0600200317577
 30
0.0
  0
VERTEX
  5
126
  8
6_06MM_ABS
 10
-193.6200027227922
 20
-52.06002003175773
 30
0.0
 42
-0.4142135623730993
  0
VERTEX
  5
127
  8
6_06MM_ABS
 10
-191.6200027227922
 20
-50.0600200317577
 30
0.0
  0
VERTEX
  5
128
  8
6_06MM_ABS
 10
-163.6200027227922
 20
-50.06002003175765
 30
0.0
 42
-0.4142133648607885
  0
SEQEND
  5
129
  8
6_06MM_ABS
  0
POLYLINE
  5
12A
  8
6_06MM_ABS
 66
     1
 10
0.0
 20
0.0
 30
0.0
 70
     1
  0
VERTEX
  5
12B
  8
6_06MM_ABS
 10
-161.6200027227922
 20
-100.0600200317577
 30
0.0
  0
VERTEX
  5
12C
  8
6_06MM_ABS
 10
-161.6200027227922
 20
-104.0600200317576
 30
0.0
 42
-0.4142135623730823
  0
VERTEX
  5
12D
  8
6_06MM_ABS
 10
-163.6200027227922
 20
-106.0600200317577
 30
0.0
  0
VERTEX
  5
12E
  8
6_06MM_ABS
 10
-191.6200027227922
 20
-106.0600200317577
 30
0.0
 42
-0.4142134636168913
  0
VERTEX
  5
12F
  8
6_06MM_ABS
 10
-193.6200027227922
 20
-104.0600200317577
 30
0.0
  0
VERTEX
  5
130
  8
6_06MM_ABS
 10
-193.6200027227922
 20
-100.0600200317577
 30
0.0
 42
-0.4142133648607348
  0
VERTEX
  5
131
  8
6_06MM_ABS
 10
-191.6200027227922
 20
-98.06002003175766
 30
0.0
  0
VERTEX
  5
132
  8
6_06MM_ABS
 10
-163.6200027227922
 20
-98.06002003175767
 30
0.0
 42
-0.4142135623730708
  0
SEQEND
  5
133
  8
6_06MM_ABS
  0
POLYLINE
  5
134
  8
6_06MM_ABS
 66
     1
 10
0.0
 20
0.0
 30
0.0
 70
     1
  0
VERTEX
  5
135
  8
6_06MM_ABS
 10
-161.6200027227922
 20
-68.06002003175773
 30
0.0
  0
VERTEX
  5
136
  8
6_06MM_ABS
 10
-161.6200027227922
 20
-72.06002003175773
 30
0.0
 42
-0.4142132661044683
  0
VERTEX
  5
137
  8
6_06MM_ABS
 10
-163.6200027227922
 20
-74.06002003175762
 30
0.0
  0
VERTEX
  5
138
  8
6_06MM_ABS
 10
-191.6200027227922
 20
-74.06002003175774
 30
0.0
 42
-0.4142134636169318
  0
VERTEX
  5
139
  8
6_06MM_ABS
 10
-193.6200027227922
 20
-72.06002003175773
 30
0.0
  0
VERTEX
  5
13A
  8
6_06MM_ABS
 10
-193.6200027227922
 20
-68.06002003175773
 30
0.0
 42
-0.414213463616888
  0
VERTEX
  5
13B
  8
6_06MM_ABS
 10
-191.6200027227924
 20
-66.0600200317577
 30
0.0
  0
VERTEX
  5
13C
  8
6_06MM_ABS
 10
-163.6200027227921
 20
-66.06002003175769
 30
0.0
 42
-0.4142133648607239
  0
SEQEND
  5
13D
  8
6_06MM_ABS
  0
POLYLINE
  5
13E
  8
6_06MM_ABS
 66
     1
 10
0.0
 20
0.0
 30
0.0
 70
     1
  0
VERTEX
  5
13F
  8
6_06MM_ABS
 10
-161.6200027227922
 20
-4.060020031757674
 30
0.0
  0
VERTEX
  5
140
  8
6_06MM_ABS
 10
-161.6200027227924
 20
-8.060020031757674
 30
0.0
 42
-0.4142134636169282
  0
VERTEX
  5
141
  8
6_06MM_ABS
 10
-163.6200027227922
 20
-10.06002003175766
 30
0.0
  0
VERTEX
  5
142
  8
6_06MM_ABS
 10
-191.6200027227922
 20
-10.06002003175772
 30
0.0
 42
-0.4142131673483766
  0
VERTEX
  5
143
  8
6_06MM_ABS
 10
-193.6200027227921
 20
-8.060020031757656
 30
0.0
  0
VERTEX
  5
144
  8
6_06MM_ABS
 10
-193.6200027227922
 20
-4.060020031757674
 30
0.0
 42
-0.4142134636168676
  0
VERTEX
  5
145
  8
6_06MM_ABS
 10
-191.6200027227922
 20
-2.06002003175773
 30
0.0
  0
VERTEX
  5
146
  8
6_06MM_ABS
 10
-163.6200027227922
 20
-2.060020031757709
 30
0.0
 42
-0.4142133648607446
  0
SEQEND
  5
147
  8
6_06MM_ABS
  0
POLYLINE
  5
148
  8
6_06MM_ABS
 66
     1
 10
0.0
 20
0.0
 30
0.0
 70
     1
  0
VERTEX
  5
149
  8
6_06MM_ABS
 10
-161.6200027227922
 20
-118.0600200317577
 30
0.0
  0
VERTEX
  5
14A
  8
6_06MM_ABS
 10
-161.6200027227922
 20
-126.0600200317577
 30
0.0
 42
-0.414213562373118
  0
VERTEX
  5
14B
  8
6_06MM_ABS
 10
-165.6200027227922
 20
-130.0600200317578
 30
0.0
  0
VERTEX
  5
14C
  8
6_06MM_ABS
 10
-189.6200027227922
 20
-130.0600200317577
 30
0.0
 42
-0.4142134636168668
  0
VERTEX
  5
14D
  8
6_06MM_ABS
 10
-193.6200027227922
 20
-126.0600200317576
 30
0.0
  0
VERTEX
  5
14E
  8
6_06MM_ABS
 10
-193.6200027227922
 20
-118.0600200317576
 30
0.0
 42
-0.4142133648606987
  0
VERTEX
  5
14F
  8
6_06MM_ABS
 10
-189.6200027227921
 20
-114.0600200317577
 30
0.0
  0
VERTEX
  5
150
  8
6_06MM_ABS
 10
-165.6200027227922
 20
-114.0600200317576
 30
0.0
 42
-0.4142135623730955
  0
SEQEND
  5
151
  8
6_06MM_ABS
  0
POLYLINE
  5
152
  8
6_06MM_ABS
 66
     1
 10
0.0
 20
0.0
 30
0.0
 70
     1
  0
VERTEX
  5
153
  8
6_06MM_ABS
 10
-161.6200027227922
 20
-84.06002003175762
 30
0.0
  0
VERTEX
  5
154
  8
6_06MM_ABS
 10
-161.6200027227921
 20
-88.06002003175769
 30
0.0
 42
-0.4142132661045236
  0
VERTEX
  5
155
  8
6_06MM_ABS
 10
-163.6200027227922
 20
-90.06002003175766
 30
0.0
  0
VERTEX
  5
156
  8
6_06MM_ABS
 10
-191.6200027227922
 20
-90.06002003175772
 30
0.0
 42
-0.4142133648606894
  0
VERTEX
  5
157
  8
6_06MM_ABS
 10
-193.6200027227923
 20
-88.06002003175772
 30
0.0
  0
VERTEX
  5
158
  8
6_06MM_ABS
 10
-193.6200027227922
 20
-84.06002003175773
 30
0.0
 42
-0.4142134636169256
  0
VERTEX
  5
159
  8
6_06MM_ABS
 10
-191.6200027227924
 20
-82.06002003175762
 30
0.0
  0
VERTEX
  5
15A
  8
6_06MM_ABS
 10
-163.6200027227921
 20
-82.06002003175766
 30
0.0
 42
-0.4142133648607231
  0
SEQEND
  5
15B
  8
6_06MM_ABS
  0
POLYLINE
  5
15C
  8
6_06MM_ABS
 66
     1
 10
0.0
 20
0.0
 30
0.0
 70
     1
  0
VERTEX
  5
15D
  8
6_06MM_ABS
 10
-187.6199992644365
 20
43.94006771654553
 30
0.0
  0
VERTEX
  5
15E
  8
6_06MM_ABS
 10
-187.6199992644365
 20
55.94006771654558
 30
0.0
 42
-0.4142135623730948
  0
VERTEX
  5
15F
  8
6_06MM_ABS
 10
-183.6199992644365
 20
59.9400677165456
 30
0.0
  0
VERTEX
  5
160
  8
6_06MM_ABS
 10
-171.6199992644367
 20
59.94006771654566
 30
0.0
 42
-0.4142133648606949
  0
VERTEX
  5
161
  8
6_06MM_ABS
 10
-167.6199992644365
 20
55.94006771654558
 30
0.0
  0
VERTEX
  5
162
  8
6_06MM_ABS
 10
-167.6199992644365
 20
43.94006771654564
 30
0.0
 42
-0.4142133648606945
  0
VERTEX
  5
163
  8
6_06MM_ABS
 10
-171.6199992644367
 20
39.94006771654562
 30
0.0
  0
VERTEX
  5
164
  8
6_06MM_ABS
 10
-183.6199992644367
 20
39.94006771654557
 30
0.0
 42
-0.4142134636168961
  0
SEQEND
  5
165
  8
6_06MM_ABS
  0
POLYLINE
  5
166
  8
6_06MM_ABS
 66
     1
 10
0.0
 20
0.0
 30
0.0
 70
     1
  0
VERTEX
  5
167
  8
6_06MM_ABS
 10
-206.6799893573966
 20
-118.0600130761918
 30
0.0
  0
VERTEX
  5
168
  8
6_06MM_ABS
 10
-206.6799893573966
 20
-98.05999595516697
 30
0.0
  0
VERTEX
  5
169
  8
6_06MM_ABS
 10
-200.6199893573967
 20
-98.05999595516697
 30
0.0
  0
VERTEX
  5
16A
  8
6_06MM_ABS
 10
-200.6199893573967
 20
-118.0600130761918
 30
0.0
  0
SEQEND
  5
16B
  8
6_06MM_ABS
  0
POLYLINE
  5
16C
  8
6_06MM_ABS
 66
     1
 10
0.0
 20
0.0
 30
0.0
 70
     1
  0
VERTEX
  5
16D
  8
6_06MM_ABS
 10
-206.6799893573966
 20
-78.0600130761918
 30
0.0
  0
VERTEX
  5
16E
  8
6_06MM_ABS
 10
-206.6799893573966
 20
-58.05999595516697
 30
0.0
  0
VERTEX
  5
16F
  8
6_06MM_ABS
 10
-200.6199893573967
 20
-58.05999595516697
 30
0.0
  0
VERTEX
  5
170
  8
6_06MM_ABS
 10
-200.6199893573967
 20
-78.0600130761918
 30
0.0
  0
SEQEND
  5
171
  8
6_06MM_ABS
  0
POLYLINE
  5
172
  8
6_06MM_ABS
 66
     1
 10
0.0
 20
0.0
 30
0.0
 70
     1
  0
VERTEX
  5
173
  8
6_06MM_ABS
 10
-206.6799893573966
 20
-14.05993603158031
 30
0.0
  0
VERTEX
  5
174
  8
6_06MM_ABS
 10
-206.6799893573966
 20
5.940081089444519
 30
0.0
  0
VERTEX
  5
175
  8
6_06MM_ABS
 10
-200.6199893573967
 20
5.940081089444519
 30
0.0
  0
VERTEX
  5
176
  8
6_06MM_ABS
 10
-200.6199893573967
 20
-14.05993603158031
 30
0.0
  0
SEQEND
  5
177
  8
6_06MM_ABS
  0
POLYLINE
  5
178
  8
6_06MM_ABS
 66
     1
 10
0.0
 20
0.0
 30
0.0
 70
     1
  0
VERTEX
  5
179
  8
6_06MM_ABS
 10
-206.6799893573966
 20
25.94006396841969
 30
0.0
  0
VERTEX
  5
17A
  8
6_06MM_ABS
 10
-206.6799893573966
 20
45.94008108944452
 30
0.0
  0
VERTEX
  5
17B
  8
6_06MM_ABS
 10
-200.6199893573967
 20
45.94008108944452
 30
0.0
  0
VERTEX
  5
17C
  8
6_06MM_ABS
 10
-200.6199893573967
 20
25.94006396841969
 30
0.0
  0
SEQEND
  5
17D
  8
6_06MM_ABS
  0
POLYLINE
  5
17E
  8
6_06MM_ABS
 66
     1
 10
0.0
 20
0.0
 30
0.0
 70
     1
  0
VERTEX
  5
17F
  8
6_06MM_ABS
 10
-154.6199893573967
 20
-118.0600130761918
 30
0.0
  0
VERTEX
  5
180
  8
6_06MM_ABS
 10
-154.6199893573967
 20
-98.05999595516697
 30
0.0
  0
VERTEX
  5
181
  8
6_06MM_ABS
 10
-148.5599893573967
 20
-98.05999595516697
 30
0.0
  0
VERTEX
  5
182
  8
6_06MM_ABS
 10
-148.5599893573967
 20
-118.0600130761918
 30
0.0
  0
SEQEND
  5
183
  8
6_06MM_ABS
  0
POLYLINE
  5
184
  8
6_06MM_ABS
 66
     1
 10
0.0
 20
0.0
 30
0.0
 70
     1
  0
VERTEX
  5
185
  8
6_06MM_ABS
 10
-154.6199893573967
 20
-78.0600130761918
 30
0.0
  0
VERTEX
  5
186
  8
6_06MM_ABS
 10
-154.6199893573967
 20
-58.05999595516697
 30
0.0
  0
VERTEX
  5
187
  8
6_06MM_ABS
 10
-148.5599893573967
 20
-58.05999595516697
 30
0.0
  0
VERTEX
  5
188
  8
6_06MM_ABS
 10
-148.5599893573967
 20
-78.0600130761918
 30
0.0
  0
SEQEND
  5
189
  8
6_06MM_ABS
  0
POLYLINE
  5
18A
  8
6_06MM_ABS
 66
     1
 10
0.0
 20
0.0
 30
0.0
 70
     1
  0
VERTEX
  5
18B
  8
6_06MM_ABS
 10
-154.6199893573967
 20
-14.05993603158031
 30
0.0
  0
VERTEX
  5
18C
  8
6_06MM_ABS
 10
-154.6199893573967
 20
5.940081089444519
 30
0.0
  0
VERTEX
  5
18D
  8
6_06MM_ABS
 10
-148.5599893573967
 20
5.940081089444519
 30
0.0
  0
VERTEX
  5
18E
  8
6_06MM_ABS
 10
-148.5599893573967
 20
-14.05993603158031
 30
0.0
  0
SEQEND
  5
18F
  8
6_06MM_ABS
  0
POLYLINE
  5
190
  8
6_06MM_ABS
 66
     1
 10
0.0
 20
0.0
 30
0.0
 70
     1
  0
VERTEX
  5
191
  8
6_06MM_ABS
 10
-154.6199893573967
 20
25.94006396841969
 30
0.0
  0
VERTEX
  5
192
  8
6_06MM_ABS
 10
-154.6199893573967
 20
45.94008108944452
 30
0.0
  0
VERTEX
  5
193
  8
6_06MM_ABS
 10
-148.5599893573967
 20
45.94008108944452
 30
0.0
  0
VERTEX
  5
194
  8
6_06MM_ABS
 10
-148.5599893573967
 20
25.94006396841969
 30
0.0
  0
SEQEND
  5
195
  8
6_06MM_ABS
  0
POLYLINE
  5
196
  8
6_06MM_ABS
 66
     1
 10
0.0
 20
0.0
 30
0.0
 70
     1
  0
VERTEX
  5
197
  8
6_06MM_ABS
 10
-148.5599999999999
 20
65.94006771654524
 30
0.0
  0
VERTEX
  5
198
  8
6_06MM_ABS
 10
-152.7663679749288
 20
104.6413801051597
 30
0.0
 42
0.8972012054464202
  0
VERTEX
  5
199
  8
6_06MM_ABS
 10
-202.473632025196
 20
104.6413801040125
 30
0.0
  0
VERTEX
  5
19A
  8
6_06MM_ABS
 10
-206.6800000000001
 20
65.94006771654564
 30
0.0
  0
VERTEX
  5
19B
  8
6_06MM_ABS
 10
-214.6800000000001
 20
57.94006771654496
 30
0.0
  0
VERTEX
  5
19C
  8
6_06MM_ABS
 10
-214.6800000000001
 20
-138.060013076191
 30
0.0
  0
VERTEX
  5
19D
  8
6_06MM_ABS
 10
-202.6200000000001
 20
-138.060013076191
 30
0.0
  0
VERTEX
  5
19E
  8
6_06MM_ABS
 10
-202.6199999999999
 20
-144.120013076191
 30
0.0
  0
VERTEX
  5
19F
  8
6_06MM_ABS
 10
-187.6199999999999
 20
-144.120013076191
 30
0.0
  0
VERTEX
  5
1A0
  8
6_06MM_ABS
 10
-187.6199999999999
 20
-138.060013076191
 30
0.0
  0
VERTEX
  5
1A1
  8
6_06MM_ABS
 10
-167.6200004851398
 20
-138.060013076191
 30
0.0
  0
VERTEX
  5
1A2
  8
6_06MM_ABS
 10
-167.6200004851398
 20
-144.120013076191
 30
0.0
  0
VERTEX
  5
1A3
  8
6_06MM_ABS
 10
-152.6200004851398
 20
-144.120013076191
 30
0.0
  0
VERTEX
  5
1A4
  8
6_06MM_ABS
 10
-152.6200004851398
 20
-138.060013076191
 30
0.0
  0
VERTEX
  5
1A5
  8
6_06MM_ABS
 10
-140.5599999999999
 20
-138.060013076191
 30
0.0
  0
VERTEX
  5
1A6
  8
6_06MM_ABS
 10
-140.5599999999999
 20
57.94006771654553
 30
0.0
  0
SEQEND
  5
1A7
  8
6_06MM_ABS
  0
CIRCLE
  5
1A8
  8
6_06MM_ABS
 10
-151.5899893573966
 20
15.94006396841981
 30
0.0
 40
1.499999999999886
  0
CIRCLE
  5
1A9
  8
6_06MM_ABS
 10
-151.5899893573967
 20
-88.0599959551671
 30
0.0
 40
1.500000000000028
  0
CIRCLE
  5
1AA
  8
6_06MM_ABS
 10
-203.6499893573966
 20
-88.0599959551671
 30
0.0
 40
1.5
  0
CIRCLE
  5
1AB
  8
6_06MM_ABS
 10
-203.6499893573966
 20
15.94006396841968
 30
0.0
 40
1.5
  0
CIRCLE
  5
1AC
  8
6_06MM_ABS
 10
-177.6199954142621
 20
35.52507252893232
 30
0.0
 40
0.9999999999999787
  0
CIRCLE
  5
1AD
  8
6_06MM_ABS
 10
-161.7449954142621
 20
45.0500725289324
 30
0.0
 40
1.000000000000014
  0
CIRCLE
  5
1AE
  8
6_06MM_ABS
 10
-193.4949954142621
 20
45.05007252893238
 30
0.0
 40
1.000000000000028
  0
CIRCLE
  5
1AF
  8
6_06MM_ABS
 10
-193.4949954142621
 20
35.52507252893235
 30
0.0
 40
1.000000000000007
  0
CIRCLE
  5
1B0
  8
6_06MM_ABS
 10
-161.7449954142621
 20
35.52507252893233
 30
0.0
 40
1.000000000000021
  0
CIRCLE
  5
1B1
  8
6_06MM_ABS
 10
-193.4949954142621
 20
54.57507252893241
 30
0.0
 40
0.9999999999999787
  0
CIRCLE
  5
1B2
  8
6_06MM_ABS
 10
-161.7449954142621
 20
54.57507252893242
 30
0.0
 40
0.9999999999999645
  0
CIRCLE
  5
1B3
  8
6_06MM_ABS
 10
-188.226591598074
 20
91.33347921114182
 30
0.0
 40
1.499999999999902
  0
CIRCLE
  5
1B4
  8
6_06MM_ABS
 10
-188.226591598074
 20
112.5466826467383
 30
0.0
 40
1.499999999999942
  0
CIRCLE
  5
1B5
  8
6_06MM_ABS
 10
-167.0133881624777
 20
91.33347921114193
 30
0.0
 40
1.499999999999962
  0
CIRCLE
  5
1B6
  8
6_06MM_ABS
 10
-167.0133881624777
 20
112.5466826467382
 30
0.0
 40
1.499999999999982
  0
CIRCLE
  5
1B7
  8
6_06MM_ABS
 10
-177.6199898802763
 20
116.940080928939
 30
0.0
 40
1.500000000000014
  0
CIRCLE
  5
1B8
  8
6_06MM_ABS
 10
-162.6199898802766
 20
101.9400809289391
 30
0.0
 40
1.5
  0
CIRCLE
  5
1B9
  8
6_06MM_ABS
 10
-192.6199898802763
 20
101.9400809289391
 30
0.0
 40
1.5
  0
CIRCLE
  5
1BA
  8
6_06MM_ABS
 10
-177.6199898802763
 20
86.94008092893915
 30
0.0
 40
1.499999999999986
  0
CIRCLE
  5
1BB
  8
6_06MM_ABS
 10
-177.6199898802763
 20
101.9400809289391
 30
0.0
 40
1.5
  0
POLYLINE
  5
1BC
  8
6_06MM_ABS
 66
     1
 10
0.0
 20
0.0
 30
0.0
 70
     1
  0
VERTEX
  5
1BD
  8
6_06MM_ABS
 10
-243.7400027227923
 20
-4.060020031757674
 30
0.0
  0
VERTEX
  5
1BE
  8
6_06MM_ABS
 10
-243.7400027227923
 20
-8.060020031757674
 30
0.0
 42
-0.4142132661045188
  0
VERTEX
  5
1BF
  8
6_06MM_ABS
 10
-245.740002722792
 20
-10.06002003175766
 30
0.0
  0
VERTEX
  5
1C0
  8
6_06MM_ABS
 10
-273.7400027227922
 20
-10.06002003175776
 30
0.0
 42
-0.4142132661045351
  0
VERTEX
  5
1C1
  8
6_06MM_ABS
 10
-275.7400027227922
 20
-8.060020031757656
 30
0.0
  0
VERTEX
  5
1C2
  8
6_06MM_ABS
 10
-275.7400027227923
 20
-4.060020031757674
 30
0.0
 42
-0.4142135623730948
  0
VERTEX
  5
1C3
  8
6_06MM_ABS
 10
-273.7400027227923
 20
-2.060020031757657
 30
0.0
  0
VERTEX
  5
1C4
  8
6_06MM_ABS
 10
-245.7400027227922
 20
-2.060020031757674
 30
0.0
 42
-0.4142133648607211
  0
SEQEND
  5
1C5
  8
6_06MM_ABS
  0
POLYLINE
  5
1C6
  8
6_06MM_ABS
 66
     1
 10
0.0
 20
0.0
 30
0.0
 70
     1
  0
VERTEX
  5
1C7
  8
6_06MM_ABS
 10
-243.7400027227923
 20
11.93997996824233
 30
0.0
  0
VERTEX
  5
1C8
  8
6_06MM_ABS
 10
-243.7400027227923
 20
7.939979968242286
 30
0.0
 42
-0.4142133648606943
  0
VERTEX
  5
1C9
  8
6_06MM_ABS
 10
-245.7400027227923
 20
5.939979968242316
 30
0.0
  0
VERTEX
  5
1CA
  8
6_06MM_ABS
 10
-273.7400027227923
 20
5.939979968242255
 30
0.0
 42
-0.4142135623730792
  0
VERTEX
  5
1CB
  8
6_06MM_ABS
 10
-275.7400027227923
 20
7.939979968242326
 30
0.0
  0
VERTEX
  5
1CC
  8
6_06MM_ABS
 10
-275.7400027227922
 20
11.93997996824233
 30
0.0
 42
-0.4142133648606521
  0
VERTEX
  5
1CD
  8
6_06MM_ABS
 10
-273.7400027227923
 20
13.93997996824237
 30
0.0
  0
VERTEX
  5
1CE
  8
6_06MM_ABS
 10
-245.7400027227923
 20
13.9399799682423
 30
0.0
 42
-0.4142134636169641
  0
SEQEND
  5
1CF
  8
6_06MM_ABS
  0
POLYLINE
  5
1D0
  8
6_06MM_ABS
 66
     1
 10
0.0
 20
0.0
 30
0.0
 70
     1
  0
VERTEX
  5
1D1
  8
6_06MM_ABS
 10
-243.7400027227923
 20
-52.06002003175762
 30
0.0
  0
VERTEX
  5
1D2
  8
6_06MM_ABS
 10
-243.7400027227923
 20
-56.06002003175773
 30
0.0
 42
-0.4142132661045855
  0
VERTEX
  5
1D3
  8
6_06MM_ABS
 10
-245.7400027227923
 20
-58.06002003175766
 30
0.0
  0
VERTEX
  5
1D4
  8
6_06MM_ABS
 10
-273.7400027227922
 20
-58.06002003175763
 30
0.0
 42
-0.4142135623730948
  0
VERTEX
  5
1D5
  8
6_06MM_ABS
 10
-275.7400027227923
 20
-56.06002003175767
 30
0.0
  0
VERTEX
  5
1D6
  8
6_06MM_ABS
 10
-275.7400027227922
 20
-52.06002003175772
 30
0.0
 42
-0.4142133648607289
  0
VERTEX
  5
1D7
  8
6_06MM_ABS
 10
-273.7400027227923
 20
-50.06002003175767
 30
0.0
  0
VERTEX
  5
1D8
  8
6_06MM_ABS
 10
-245.7400027227923
 20
-50.06002003175767
 30
0.0
 42
-0.4142133648607567
  0
SEQEND
  5
1D9
  8
6_06MM_ABS
  0
POLYLINE
  5
1DA
  8
6_06MM_ABS
 66
     1
 10
0.0
 20
0.0
 30
0.0
 70
     1
  0
VERTEX
  5
1DB
  8
6_06MM_ABS
 10
-243.7400027227923
 20
-20.06002003175762
 30
0.0
  0
VERTEX
  5
1DC
  8
6_06MM_ABS
 10
-243.7400027227923
 20
-24.06002003175767
 30
0.0
 42
-0.4142132661045858
  0
VERTEX
  5
1DD
  8
6_06MM_ABS
 10
-245.7400027227923
 20
-26.06002003175767
 30
0.0
  0
VERTEX
  5
1DE
  8
6_06MM_ABS
 10
-273.7400027227922
 20
-26.06002003175767
 30
0.0
 42
-0.4142132661045125
  0
VERTEX
  5
1DF
  8
6_06MM_ABS
 10
-275.7400027227922
 20
-24.06002003175771
 30
0.0
  0
VERTEX
  5
1E0
  8
6_06MM_ABS
 10
-275.7400027227923
 20
-20.06002003175773
 30
0.0
 42
-0.4142135623730663
  0
VERTEX
  5
1E1
  8
6_06MM_ABS
 10
-273.7400027227923
 20
-18.06002003175766
 30
0.0
  0
VERTEX
  5
1E2
  8
6_06MM_ABS
 10
-245.7400027227922
 20
-18.06002003175767
 30
0.0
 42
-0.4142135623731437
  0
SEQEND
  5
1E3
  8
6_06MM_ABS
  0
POLYLINE
  5
1E4
  8
6_06MM_ABS
 66
     1
 10
0.0
 20
0.0
 30
0.0
 70
     1
  0
VERTEX
  5
1E5
  8
6_06MM_ABS
 10
-243.7400027227923
 20
-36.06002003175773
 30
0.0
  0
VERTEX
  5
1E6
  8
6_06MM_ABS
 10
-243.7400027227923
 20
-40.06002003175767
 30
0.0
 42
-0.4142132661044945
  0
VERTEX
  5
1E7
  8
6_06MM_ABS
 10
-245.7400027227924
 20
-42.06002003175765
 30
0.0
  0
VERTEX
  5
1E8
  8
6_06MM_ABS
 10
-273.7400027227923
 20
-42.06002003175767
 30
0.0
 42
-0.4142134636169245
  0
VERTEX
  5
1E9
  8
6_06MM_ABS
 10
-275.7400027227923
 20
-40.06002003175775
 30
0.0
  0
VERTEX
  5
1EA
  8
6_06MM_ABS
 10
-275.7400027227922
 20
-36.06002003175773
 30
0.0
 42
-0.4142134636168854
  0
VERTEX
  5
1EB
  8
6_06MM_ABS
 10
-273.7400027227923
 20
-34.06002003175766
 30
0.0
  0
VERTEX
  5
1EC
  8
6_06MM_ABS
 10
-245.7400027227923
 20
-34.06002003175768
 30
0.0
 42
-0.4142135623730748
  0
SEQEND
  5
1ED
  8
6_06MM_ABS
  0
POLYLINE
  5
1EE
  8
6_06MM_ABS
 66
     1
 10
0.0
 20
0.0
 30
0.0
 70
     1
  0
VERTEX
  5
1EF
  8
6_06MM_ABS
 10
-243.7400027227923
 20
-68.06002003175773
 30
0.0
  0
VERTEX
  5
1F0
  8
6_06MM_ABS
 10
-243.7400027227923
 20
-72.06002003175774
 30
0.0
 42
-0.4142134636168977
  0
VERTEX
  5
1F1
  8
6_06MM_ABS
 10
-245.7400027227922
 20
-74.06002003175767
 30
0.0
  0
VERTEX
  5
1F2
  8
6_06MM_ABS
 10
-273.7400027227923
 20
-74.06002003175774
 30
0.0
 42
-0.4142133648606873
  0
VERTEX
  5
1F3
  8
6_06MM_ABS
 10
-275.7400027227923
 20
-72.06002003175786
 30
0.0
  0
VERTEX
  5
1F4
  8
6_06MM_ABS
 10
-275.7400027227923
 20
-68.06002003175773
 30
0.0
 42
-0.4142134636168903
  0
VERTEX
  5
1F5
  8
6_06MM_ABS
 10
-273.7400027227923
 20
-66.0600200317577
 30
0.0
  0
VERTEX
  5
1F6
  8
6_06MM_ABS
 10
-245.7400027227923
 20
-66.06002003175767
 30
0.0
 42
-0.4142135623731354
  0
SEQEND
  5
1F7
  8
6_06MM_ABS
  0
POLYLINE
  5
1F8
  8
6_06MM_ABS
 66
     1
 10
0.0
 20
0.0
 30
0.0
 70
     1
  0
VERTEX
  5
1F9
  8
6_06MM_ABS
 10
-243.7400027227923
 20
-100.0600200317577
 30
0.0
  0
VERTEX
  5
1FA
  8
6_06MM_ABS
 10
-243.7400027227923
 20
-104.0600200317577
 30
0.0
 42
-0.4142134636168655
  0
VERTEX
  5
1FB
  8
6_06MM_ABS
 10
-245.7400027227923
 20
-106.0600200317576
 30
0.0
  0
VERTEX
  5
1FC
  8
6_06MM_ABS
 10
-273.7400027227923
 20
-106.0600200317577
 30
0.0
 42
-0.4142135623730985
  0
VERTEX
  5
1FD
  8
6_06MM_ABS
 10
-275.7400027227923
 20
-104.0600200317577
 30
0.0
  0
VERTEX
  5
1FE
  8
6_06MM_ABS
 10
-275.7400027227923
 20
-100.0600200317577
 30
0.0
 42
-0.414213463616852
  0
VERTEX
  5
1FF
  8
6_06MM_ABS
 10
-273.7400027227923
 20
-98.06002003175766
 30
0.0
  0
VERTEX
  5
200
  8
6_06MM_ABS
 10
-245.7400027227923
 20
-98.06002003175767
 30
0.0
 42
-0.4142135623730941
  0
SEQEND
  5
201
  8
6_06MM_ABS
  0
POLYLINE
  5
202
  8
6_06MM_ABS
 66
     1
 10
0.0
 20
0.0
 30
0.0
 70
     1
  0
VERTEX
  5
203
  8
6_06MM_ABS
 10
-243.7400027227923
 20
-118.0600200317577
 30
0.0
  0
VERTEX
  5
204
  8
6_06MM_ABS
 10
-243.7400027227923
 20
-126.0600200317577
 30
0.0
 42
-0.4142135623731087
  0
VERTEX
  5
205
  8
6_06MM_ABS
 10
-247.7400027227923
 20
-130.0600200317577
 30
0.0
  0
VERTEX
  5
206
  8
6_06MM_ABS
 10
-271.7400027227923
 20
-130.0600200317577
 30
0.0
 42
-0.4142132661045458
  0
VERTEX
  5
207
  8
6_06MM_ABS
 10
-275.7400027227922
 20
-126.0600200317577
 30
0.0
  0
VERTEX
  5
208
  8
6_06MM_ABS
 10
-275.7400027227923
 20
-118.0600200317577
 30
0.0
 42
-0.4142135623730728
  0
VERTEX
  5
209
  8
6_06MM_ABS
 10
-271.740002722792
 20
-114.0600200317577
 30
0.0
  0
VERTEX
  5
20A
  8
6_06MM_ABS
 10
-247.7400027227922
 20
-114.0600200317576
 30
0.0
 42
-0.4142135623731058
  0
SEQEND
  5
20B
  8
6_06MM_ABS
  0
POLYLINE
  5
20C
  8
6_06MM_ABS
 66
     1
 10
0.0
 20
0.0
 30
0.0
 70
     1
  0
VERTEX
  5
20D
  8
6_06MM_ABS
 10
-269.7399992644366
 20
43.94006771654553
 30
0.0
  0
VERTEX
  5
20E
  8
6_06MM_ABS
 10
-269.7399992644366
 20
55.94006771654553
 30
0.0
 42
-0.4142135623730878
  0
VERTEX
  5
20F
  8
6_06MM_ABS
 10
-265.7399992644368
 20
59.94006771654559
 30
0.0
  0
VERTEX
  5
210
  8
6_06MM_ABS
 10
-253.7399992644368
 20
59.94006771654563
 30
0.0
 42
-0.4142133648607062
  0
VERTEX
  5
211
  8
6_06MM_ABS
 10
-249.7399992644366
 20
55.94006771654558
 30
0.0
  0
VERTEX
  5
212
  8
6_06MM_ABS
 10
-249.7399992644366
 20
43.94006771654558
 30
0.0
 42
-0.4142135623730571
  0
VERTEX
  5
213
  8
6_06MM_ABS
 10
-253.7399992644366
 20
39.94006771654561
 30
0.0
  0
VERTEX
  5
214
  8
6_06MM_ABS
 10
-265.7399992644368
 20
39.94006771654563
 30
0.0
 42
-0.414213364860738
  0
SEQEND
  5
215
  8
6_06MM_ABS
  0
POLYLINE
  5
216
  8
6_06MM_ABS
 66
     1
 10
0.0
 20
0.0
 30
0.0
 70
     1
  0
VERTEX
  5
217
  8
6_06MM_ABS
 10
-243.7400027227923
 20
-84.06002003175762
 30
0.0
  0
VERTEX
  5
218
  8
6_06MM_ABS
 10
-243.7400027227923
 20
-88.06002003175769
 30
0.0
 42
-0.4142132661045008
  0
VERTEX
  5
219
  8
6_06MM_ABS
 10
-245.7400027227921
 20
-90.06002003175769
 30
0.0
  0
VERTEX
  5
21A
  8
6_06MM_ABS
 10
-273.7400027227922
 20
-90.06002003175769
 30
0.0
 42
-0.4142133648606786
  0
VERTEX
  5
21B
  8
6_06MM_ABS
 10
-275.7400027227923
 20
-88.06002003175773
 30
0.0
  0
VERTEX
  5
21C
  8
6_06MM_ABS
 10
-275.7400027227923
 20
-84.06002003175776
 30
0.0
 42
-0.4142132661044767
  0
VERTEX
  5
21D
  8
6_06MM_ABS
 10
-273.7400027227922
 20
-82.0600200317577
 30
0.0
  0
VERTEX
  5
21E
  8
6_06MM_ABS
 10
-245.7400027227923
 20
-82.06002003175767
 30
0.0
 42
-0.4142135623731188
  0
SEQEND
  5
21F
  8
6_06MM_ABS
  0
POLYLINE
  5
220
  8
6_06MM_ABS
 66
     1
 10
0.0
 20
0.0
 30
0.0
 70
     1
  0
VERTEX
  5
221
  8
6_06MM_ABS
 10
-288.7999893573967
 20
-118.0600130761918
 30
0.0
  0
VERTEX
  5
222
  8
6_06MM_ABS
 10
-288.7999893573967
 20
-98.05999595516697
 30
0.0
  0
VERTEX
  5
223
  8
6_06MM_ABS
 10
-282.7399893573968
 20
-98.05999595516697
 30
0.0
  0
VERTEX
  5
224
  8
6_06MM_ABS
 10
-282.7399893573966
 20
-118.0600130761918
 30
0.0
  0
SEQEND
  5
225
  8
6_06MM_ABS
  0
POLYLINE
  5
226
  8
6_06MM_ABS
 66
     1
 10
0.0
 20
0.0
 30
0.0
 70
     1
  0
VERTEX
  5
227
  8
6_06MM_ABS
 10
-288.7999893573967
 20
-78.0600130761918
 30
0.0
  0
VERTEX
  5
228
  8
6_06MM_ABS
 10
-288.7999893573967
 20
-58.05999595516697
 30
0.0
  0
VERTEX
  5
229
  8
6_06MM_ABS
 10
-282.7399893573966
 20
-58.05999595516697
 30
0.0
  0
VERTEX
  5
22A
  8
6_06MM_ABS
 10
-282.7399893573966
 20
-78.0600130761918
 30
0.0
  0
SEQEND
  5
22B
  8
6_06MM_ABS
  0
POLYLINE
  5
22C
  8
6_06MM_ABS
 66
     1
 10
0.0
 20
0.0
 30
0.0
 70
     1
  0
VERTEX
  5
22D
  8
6_06MM_ABS
 10
-288.7999893573967
 20
-14.05993603158031
 30
0.0
  0
VERTEX
  5
22E
  8
6_06MM_ABS
 10
-288.7999893573967
 20
5.940081089444519
 30
0.0
  0
VERTEX
  5
22F
  8
6_06MM_ABS
 10
-282.7399893573966
 20
5.940081089444519
 30
0.0
  0
VERTEX
  5
230
  8
6_06MM_ABS
 10
-282.7399893573966
 20
-14.05993603158031
 30
0.0
  0
SEQEND
  5
231
  8
6_06MM_ABS
  0
POLYLINE
  5
232
  8
6_06MM_ABS
 66
     1
 10
0.0
 20
0.0
 30
0.0
 70
     1
  0
VERTEX
  5
233
  8
6_06MM_ABS
 10
-288.7999893573967
 20
25.94006396841969
 30
0.0
  0
VERTEX
  5
234
  8
6_06MM_ABS
 10
-288.7999893573967
 20
45.94008108944452
 30
0.0
  0
VERTEX
  5
235
  8
6_06MM_ABS
 10
-282.7399893573966
 20
45.94008108944452
 30
0.0
  0
VERTEX
  5
236
  8
6_06MM_ABS
 10
-282.7399893573966
 20
25.94006396841969
 30
0.0
  0
SEQEND
  5
237
  8
6_06MM_ABS
  0
POLYLINE
  5
238
  8
6_06MM_ABS
 66
     1
 10
0.0
 20
0.0
 30
0.0
 70
     1
  0
VERTEX
  5
239
  8
6_06MM_ABS
 10
-236.7399893573968
 20
-118.0600130761918
 30
0.0
  0
VERTEX
  5
23A
  8
6_06MM_ABS
 10
-236.7399893573968
 20
-98.05999595516697
 30
0.0
  0
VERTEX
  5
23B
  8
6_06MM_ABS
 10
-230.6799893573966
 20
-98.05999595516697
 30
0.0
  0
VERTEX
  5
23C
  8
6_06MM_ABS
 10
-230.6799893573966
 20
-118.0600130761918
 30
0.0
  0
SEQEND
  5
23D
  8
6_06MM_ABS
  0
POLYLINE
  5
23E
  8
6_06MM_ABS
 66
     1
 10
0.0
 20
0.0
 30
0.0
 70
     1
  0
VERTEX
  5
23F
  8
6_06MM_ABS
 10
-236.7399893573966
 20
-78.0600130761918
 30
0.0
  0
VERTEX
  5
240
  8
6_06MM_ABS
 10
-236.7399893573966
 20
-58.05999595516697
 30
0.0
  0
VERTEX
  5
241
  8
6_06MM_ABS
 10
-230.6799893573966
 20
-58.05999595516697
 30
0.0
  0
VERTEX
  5
242
  8
6_06MM_ABS
 10
-230.6799893573966
 20
-78.0600130761918
 30
0.0
  0
SEQEND
  5
243
  8
6_06MM_ABS
  0
POLYLINE
  5
244
  8
6_06MM_ABS
 66
     1
 10
0.0
 20
0.0
 30
0.0
 70
     1
  0
VERTEX
  5
245
  8
6_06MM_ABS
 10
-236.7399893573966
 20
-14.05993603158031
 30
0.0
  0
VERTEX
  5
246
  8
6_06MM_ABS
 10
-236.7399893573966
 20
5.940081089444519
 30
0.0
  0
VERTEX
  5
247
  8
6_06MM_ABS
 10
-230.6799893573966
 20
5.940081089444519
 30
0.0
  0
VERTEX
  5
248
  8
6_06MM_ABS
 10
-230.6799893573966
 20
-14.05993603158031
 30
0.0
  0
SEQEND
  5
249
  8
6_06MM_ABS
  0
POLYLINE
  5
24A
  8
6_06MM_ABS
 66
     1
 10
0.0
 20
0.0
 30
0.0
 70
     1
  0
VERTEX
  5
24B
  8
6_06MM_ABS
 10
-236.7399893573966
 20
25.94006396841969
 30
0.0
  0
VERTEX
  5
24C
  8
6_06MM_ABS
 10
-236.7399893573966
 20
45.94008108944452
 30
0.0
  0
VERTEX
  5
24D
  8
6_06MM_ABS
 10
-230.6799893573966
 20
45.94008108944452
 30
0.0
  0
VERTEX
  5
24E
  8
6_06MM_ABS
 10
-230.6799893573966
 20
25.94006396841969
 30
0.0
  0
SEQEND
  5
24F
  8
6_06MM_ABS
  0
POLYLINE
  5
250
  8
6_06MM_ABS
 66
     1
 10
0.0
 20
0.0
 30
0.0
 70
     1
  0
VERTEX
  5
251
  8
6_06MM_ABS
 10
-230.6800000000001
 20
65.94006771654524
 30
0.0
  0
VERTEX
  5
252
  8
6_06MM_ABS
 10
-234.8863679749287
 20
104.6413801051597
 30
0.0
 42
0.8972012054464192
  0
VERTEX
  5
253
  8
6_06MM_ABS
 10
-284.5936320251961
 20
104.6413801040125
 30
0.0
  0
VERTEX
  5
254
  8
6_06MM_ABS
 10
-288.8000000000002
 20
65.94006771654564
 30
0.0
  0
VERTEX
  5
255
  8
6_06MM_ABS
 10
-296.8000000000002
 20
57.94006771654496
 30
0.0
  0
VERTEX
  5
256
  8
6_06MM_ABS
 10
-296.8000000000002
 20
-138.060013076191
 30
0.0
  0
VERTEX
  5
257
  8
6_06MM_ABS
 10
-284.74
 20
-138.060013076191
 30
0.0
  0
VERTEX
  5
258
  8
6_06MM_ABS
 10
-284.74
 20
-144.120013076191
 30
0.0
  0
VERTEX
  5
259
  8
6_06MM_ABS
 10
-269.74
 20
-144.120013076191
 30
0.0
  0
VERTEX
  5
25A
  8
6_06MM_ABS
 10
-269.74
 20
-138.060013076191
 30
0.0
  0
VERTEX
  5
25B
  8
6_06MM_ABS
 10
-249.7400004851397
 20
-138.060013076191
 30
0.0
  0
VERTEX
  5
25C
  8
6_06MM_ABS
 10
-249.7400004851397
 20
-144.120013076191
 30
0.0
  0
VERTEX
  5
25D
  8
6_06MM_ABS
 10
-234.7400004851397
 20
-144.120013076191
 30
0.0
  0
VERTEX
  5
25E
  8
6_06MM_ABS
 10
-234.7400004851397
 20
-138.060013076191
 30
0.0
  0
VERTEX
  5
25F
  8
6_06MM_ABS
 10
-222.6800000000001
 20
-138.060013076191
 30
0.0
  0
VERTEX
  5
260
  8
6_06MM_ABS
 10
-222.6800000000001
 20
57.94006771654553
 30
0.0
  0
SEQEND
  5
261
  8
6_06MM_ABS
  0
CIRCLE
  5
262
  8
6_06MM_ABS
 10
-233.7099893573967
 20
15.9400639684198
 30
0.0
 40
1.499999999999858
  0
CIRCLE
  5
263
  8
6_06MM_ABS
 10
-233.7099893573968
 20
-88.0599959551671
 30
0.0
 40
1.5
  0
CIRCLE
  5
264
  8
6_06MM_ABS
 10
-285.7699893573968
 20
-88.05999595516704
 30
0.0
 40
1.5
  0
CIRCLE
  5
265
  8
6_06MM_ABS
 10
-285.7699893573968
 20
15.94006396841974
 30
0.0
 40
1.5
  0
CIRCLE
  5
266
  8
6_06MM_ABS
 10
-259.7399954142612
 20
35.52507252893225
 30
0.0
 40
0.9999999999999574
  0
CIRCLE
  5
267
  8
6_06MM_ABS
 10
-243.864995414261
 20
45.05007252893238
 30
0.0
 40
1.000000000000036
  0
CIRCLE
  5
268
  8
6_06MM_ABS
 10
-275.614995414261
 20
45.05007252893242
 30
0.0
 40
0.9999999999999929
  0
CIRCLE
  5
269
  8
6_06MM_ABS
 10
-275.6149954142611
 20
35.52507252893233
 30
0.0
 40
1.000000000000028
  0
CIRCLE
  5
26A
  8
6_06MM_ABS
 10
-243.8649954142611
 20
35.52507252893233
 30
0.0
 40
1.000000000000028
  0
CIRCLE
  5
26B
  8
6_06MM_ABS
 10
-275.614995414261
 20
54.57507252893242
 30
0.0
 40
0.9999999999999929
  0
CIRCLE
  5
26C
  8
6_06MM_ABS
 10
-243.864995414261
 20
54.57507252893243
 30
0.0
 40
0.9999999999999787
  0
CIRCLE
  5
26D
  8
6_06MM_ABS
 10
-270.3465915980757
 20
91.33347921114189
 30
0.0
 40
1.499999999999972
  0
CIRCLE
  5
26E
  8
6_06MM_ABS
 10
-270.3465915980757
 20
112.5466826467383
 30
0.0
 40
1.499999999999962
  0
CIRCLE
  5
26F
  8
6_06MM_ABS
 10
-249.1333881624794
 20
91.33347921114193
 30
0.0
 40
1.499999999999962
  0
CIRCLE
  5
270
  8
6_06MM_ABS
 10
-249.1333881624794
 20
112.5466826467383
 30
0.0
 40
1.499999999999952
  0
CIRCLE
  5
271
  8
6_06MM_ABS
 10
-259.739989880278
 20
116.940080928939
 30
0.0
 40
1.500000000000014
  0
CIRCLE
  5
272
  8
6_06MM_ABS
 10
-244.739989880278
 20
101.9400809289391
 30
0.0
 40
1.5
  0
CIRCLE
  5
273
  8
6_06MM_ABS
 10
-274.7399898802779
 20
101.940080928939
 30
0.0
 40
1.500000000000114
  0
CIRCLE
  5
274
  8
6_06MM_ABS
 10
-259.739989880278
 20
86.94008092893915
 30
0.0
 40
1.499999999999986
  0
CIRCLE
  5
275
  8
6_06MM_ABS
 10
-259.739989880278
 20
101.9400809289391
 30
0.0
 40
1.5
  0
POLYLINE
  5
276
  8
6_06MM_ABS
 66
     1
 10
0.0
 20
0.0
 30
0.0
 70
     1
  0
VERTEX
  5
277
  8
6_06MM_ABS
 10
17.61999034281621
 20
-82.06002003175784
 30
0.0
  0
VERTEX
  5
278
  8
6_06MM_ABS
 10
-14.38004526739201
 20
-82.06002003175784
 30
0.0
  0
VERTEX
  5
279
  8
6_06MM_ABS
 10
-14.38004526739201
 20
-58.06002003175784
 30
0.0
  0
VERTEX
  5
27A
  8
6_06MM_ABS
 10
17.61999034281621
 20
-74.06002003175784
 30
0.0
  0
SEQEND
  5
27B
  8
6_06MM_ABS
  0
POLYLINE
  5
27C
  8
6_06MM_ABS
 66
     1
 10
0.0
 20
0.0
 30
0.0
 70
     1
  0
VERTEX
  5
27D
  8
6_06MM_ABS
 10
-14.38004810025075
 20
-42.06001519412597
 30
0.0
  0
VERTEX
  5
27E
  8
6_06MM_ABS
 10
17.61998750995747
 20
-42.06001519412597
 30
0.0
  0
VERTEX
  5
27F
  8
6_06MM_ABS
 10
17.61998750995747
 20
-66.06001519412597
 30
0.0
  0
VERTEX
  5
280
  8
6_06MM_ABS
 10
-14.38004810025075
 20
-50.06001519412597
 30
0.0
  0
SEQEND
  5
281
  8
6_06MM_ABS
  0
POLYLINE
  5
282
  8
6_06MM_ABS
 66
     1
 10
0.0
 20
0.0
 30
0.0
 70
     1
  0
VERTEX
  5
283
  8
6_06MM_ABS
 10
-14.38004810025075
 20
-90.06001519412597
 30
0.0
  0
VERTEX
  5
284
  8
6_06MM_ABS
 10
17.61998750995747
 20
-90.06001519412597
 30
0.0
  0
VERTEX
  5
285
  8
6_06MM_ABS
 10
17.61998750995747
 20
-114.060015194126
 30
0.0
  0
VERTEX
  5
286
  8
6_06MM_ABS
 10
-14.38004810025075
 20
-98.06001519412597
 30
0.0
  0
SEQEND
  5
287
  8
6_06MM_ABS
  0
POLYLINE
  5
288
  8
6_06MM_ABS
 66
     1
 10
0.0
 20
0.0
 30
0.0
 70
     1
  0
VERTEX
  5
289
  8
6_06MM_ABS
 10
17.61999034281621
 20
-130.0600200317579
 30
0.0
  0
VERTEX
  5
28A
  8
6_06MM_ABS
 10
-14.38004526739201
 20
-130.0600200317579
 30
0.0
  0
VERTEX
  5
28B
  8
6_06MM_ABS
 10
-14.38004526739201
 20
-106.0600200317578
 30
0.0
  0
VERTEX
  5
28C
  8
6_06MM_ABS
 10
17.61999034281621
 20
-122.0600200317578
 30
0.0
  0
SEQEND
  5
28D
  8
6_06MM_ABS
  0
POLYLINE
  5
28E
  8
6_06MM_ABS
 66
     1
 10
0.0
 20
0.0
 30
0.0
 70
     1
  0
VERTEX
  5
28F
  8
6_06MM_ABS
 10
17.61999034281621
 20
-34.06002003175784
 30
0.0
  0
VERTEX
  5
290
  8
6_06MM_ABS
 10
-14.38004526739201
 20
-34.06002003175784
 30
0.0
  0
VERTEX
  5
291
  8
6_06MM_ABS
 10
-14.38004526739201
 20
-10.06002003175784
 30
0.0
  0
VERTEX
  5
292
  8
6_06MM_ABS
 10
17.61999034281621
 20
-26.06002003175784
 30
0.0
  0
SEQEND
  5
293
  8
6_06MM_ABS
  0
POLYLINE
  5
294
  8
6_06MM_ABS
 66
     1
 10
0.0
 20
0.0
 30
0.0
 70
     1
  0
VERTEX
  5
295
  8
6_06MM_ABS
 10
-14.38004810025075
 20
5.93998480587409
 30
0.0
  0
VERTEX
  5
296
  8
6_06MM_ABS
 10
17.61998750995747
 20
5.93998480587409
 30
0.0
  0
VERTEX
  5
297
  8
6_06MM_ABS
 10
17.61998750995747
 20
-18.06001519412597
 30
0.0
  0
VERTEX
  5
298
  8
6_06MM_ABS
 10
-14.38004810025075
 20
-2.06001519412591
 30
0.0
  0
SEQEND
  5
299
  8
6_06MM_ABS
  0
POLYLINE
  5
29A
  8
6_06MM_ABS
 66
     1
 10
0.0
 20
0.0
 30
0.0
 70
     1
  0
VERTEX
  5
29B
  8
6_06MM_ABS
 10
-28.37999999999988
 20
-138.0600130761919
 30
0.0
  0
VERTEX
  5
29C
  8
6_06MM_ABS
 10
-14.37999999999988
 20
-138.0600130761919
 30
0.0
  0
VERTEX
  5
29D
  8
6_06MM_ABS
 10
-14.37999999999988
 20
-144.1200130761919
 30
0.0
  0
VERTEX
  5
29E
  8
6_06MM_ABS
 10
0.6199942203516002
 20
-144.1200130761919
 30
0.0
  0
VERTEX
  5
29F
  8
6_06MM_ABS
 10
0.6199942203516002
 20
-138.0600130761919
 30
0.0
  0
VERTEX
  5
2A0
  8
6_06MM_ABS
 10
20.62000000000012
 20
-138.0600130761919
 30
0.0
  0
VERTEX
  5
2A1
  8
6_06MM_ABS
 10
20.62000000000012
 20
-144.1200130761919
 30
0.0
  0
VERTEX
  5
2A2
  8
6_06MM_ABS
 10
35.6199942203516
 20
-144.1200130761919
 30
0.0
  0
VERTEX
  5
2A3
  8
6_06MM_ABS
 10
35.6199942203516
 20
-138.0600130761919
 30
0.0
  0
VERTEX
  5
2A4
  8
6_06MM_ABS
 10
49.6199942203516
 20
-138.0600130761919
 30
0.0
  0
VERTEX
  5
2A5
  8
6_06MM_ABS
 10
49.61999711017575
 20
-118.0600130761918
 30
0.0
  0
VERTEX
  5
2A6
  8
6_06MM_ABS
 10
55.68000000000006
 20
-118.0600130761918
 30
0.0
  0
VERTEX
  5
2A7
  8
6_06MM_ABS
 10
55.68000000000006
 20
-98.05999595516697
 30
0.0
  0
VERTEX
  5
2A8
  8
6_06MM_ABS
 10
49.61999711017575
 20
-98.05999595516697
 30
0.0
  0
VERTEX
  5
2A9
  8
6_06MM_ABS
 10
49.61999837447411
 20
-78.0600130761918
 30
0.0
  0
VERTEX
  5
2AA
  8
6_06MM_ABS
 10
55.68000000000006
 20
-78.0600130761918
 30
0.0
  0
VERTEX
  5
2AB
  8
6_06MM_ABS
 10
55.68000000000006
 20
-58.05999595516697
 30
0.0
  0
VERTEX
  5
2AC
  8
6_06MM_ABS
 10
49.61999819386006
 20
-58.05999595516697
 30
0.0
  0
VERTEX
  5
2AD
  8
6_06MM_ABS
 10
49.61999843467811
 20
-14.05993603158036
 30
0.0
  0
VERTEX
  5
2AE
  8
6_06MM_ABS
 10
55.68000000000006
 20
-14.05993603158031
 30
0.0
  0
VERTEX
  5
2AF
  8
6_06MM_ABS
 10
55.68000000000006
 20
5.940081089444519
 30
0.0
  0
VERTEX
  5
2B0
  8
6_06MM_ABS
 10
49.61999810355223
 20
5.940081089444462
 30
0.0
  0
VERTEX
  5
2B1
  8
6_06MM_ABS
 10
49.61999840457656
 20
25.94006396841958
 30
0.0
  0
VERTEX
  5
2B2
  8
6_06MM_ABS
 10
55.68000000000006
 20
25.94006396841969
 30
0.0
  0
VERTEX
  5
2B3
  8
6_06MM_ABS
 10
55.68000000000006
 20
45.94008108944452
 30
0.0
  0
VERTEX
  5
2B4
  8
6_06MM_ABS
 10
49.61999775737581
 20
45.9400810894444
 30
0.0
  0
VERTEX
  5
2B5
  8
6_06MM_ABS
 10
49.6199942203516
 20
65.94007252893222
 30
0.0
  0
VERTEX
  5
2B6
  8
6_06MM_ABS
 10
18.61999365575457
 20
65.94007252893216
 30
0.0
 42
0.4142135623730915
  0
VERTEX
  5
2B7
  8
6_06MM_ABS
 10
14.61999365575456
 20
61.94007252893216
 30
0.0
  0
VERTEX
  5
2B8
  8
6_06MM_ABS
 10
14.61999365575468
 20
52.94007252893233
 30
0.0
 42
-0.4142135623730846
  0
VERTEX
  5
2B9
  8
6_06MM_ABS
 10
10.61999365575457
 20
48.94007252893233
 30
0.0
  0
VERTEX
  5
2BA
  8
6_06MM_ABS
 10
-7.38000634424543
 20
48.94007252893233
 30
0.0
 42
-0.4142135623731075
  0
VERTEX
  5
2BB
  8
6_06MM_ABS
 10
-11.38000634424521
 20
52.94007252893233
 30
0.0
  0
VERTEX
  5
2BC
  8
6_06MM_ABS
 10
-11.3800063442452
 20
61.94007252893216
 30
0.0
 42
0.4142135623731019
  0
VERTEX
  5
2BD
  8
6_06MM_ABS
 10
-15.38000634424543
 20
65.94007252893216
 30
0.0
  0
VERTEX
  5
2BE
  8
6_06MM_ABS
 10
-28.37999999999988
 20
65.94007252893222
 30
0.0
  0
VERTEX
  5
2BF
  8
6_06MM_ABS
 10
-28.37999999999988
 20
45.94008108944452
 30
0.0
  0
VERTEX
  5
2C0
  8
6_06MM_ABS
 10
-34.44000000000005
 20
45.94008108944452
 30
0.0
  0
VERTEX
  5
2C1
  8
6_06MM_ABS
 10
-34.44000000000005
 20
25.94006396841969
 30
0.0
  0
VERTEX
  5
2C2
  8
6_06MM_ABS
 10
-28.37999999999988
 20
25.94006396841969
 30
0.0
  0
VERTEX
  5
2C3
  8
6_06MM_ABS
 10
-28.37999999999988
 20
5.940081089444462
 30
0.0
  0
VERTEX
  5
2C4
  8
6_06MM_ABS
 10
-34.44000000000005
 20
5.940081089444519
 30
0.0
  0
VERTEX
  5
2C5
  8
6_06MM_ABS
 10
-34.44000000000005
 20
-14.05993603158031
 30
0.0
  0
VERTEX
  5
2C6
  8
6_06MM_ABS
 10
-28.37999999999988
 20
-14.05993603158036
 30
0.0
  0
VERTEX
  5
2C7
  8
6_06MM_ABS
 10
-28.37999999999988
 20
-58.05999595516697
 30
0.0
  0
VERTEX
  5
2C8
  8
6_06MM_ABS
 10
-34.44000000000005
 20
-58.05999595516697
 30
0.0
  0
VERTEX
  5
2C9
  8
6_06MM_ABS
 10
-34.44000000000005
 20
-78.0600130761918
 30
0.0
  0
VERTEX
  5
2CA
  8
6_06MM_ABS
 10
-28.37999999999988
 20
-78.0600130761918
 30
0.0
  0
VERTEX
  5
2CB
  8
6_06MM_ABS
 10
-28.37999999999988
 20
-98.05999595516697
 30
0.0
  0
VERTEX
  5
2CC
  8
6_06MM_ABS
 10
-34.44000000000005
 20
-98.05999595516697
 30
0.0
  0
VERTEX
  5
2CD
  8
6_06MM_ABS
 10
-34.44000000000005
 20
-118.0600130761918
 30
0.0
  0
VERTEX
  5
2CE
  8
6_06MM_ABS
 10
-28.37999999999988
 20
-118.0600130761918
 30
0.0
  0
SEQEND
  5
2CF
  8
6_06MM_ABS
  0
POLYLINE
  5
2D0
  8
6_06MM_ABS
 66
     1
 10
0.0
 20
0.0
 30
0.0
 70
     1
  0
VERTEX
  5
2D1
  8
6_06MM_ABS
 10
31.61998750995758
 20
1.939944121245574
 30
0.0
  0
VERTEX
  5
2D2
  8
6_06MM_ABS
 10
31.61998750995758
 20
21.9400297263701
 30
0.0
  0
VERTEX
  5
2D3
  8
6_06MM_ABS
 10
37.67998750995764
 20
21.9400297263701
 30
0.0
  0
VERTEX
  5
2D4
  8
6_06MM_ABS
 10
37.67998750995764
 20
1.939944121245574
 30
0.0
  0
SEQEND
  5
2D5
  8
6_06MM_ABS
  0
POLYLINE
  5
2D6
  8
6_06MM_ABS
 66
     1
 10
0.0
 20
0.0
 30
0.0
 70
     1
  0
VERTEX
  5
2D7
  8
6_06MM_ABS
 10
31.61998750995758
 20
-38.06005587875443
 30
0.0
  0
VERTEX
  5
2D8
  8
6_06MM_ABS
 10
31.61998750995758
 20
-18.0599702736299
 30
0.0
  0
VERTEX
  5
2D9
  8
6_06MM_ABS
 10
37.67998750995764
 20
-18.0599702736299
 30
0.0
  0
VERTEX
  5
2DA
  8
6_06MM_ABS
 10
37.67998750995764
 20
-38.06005587875443
 30
0.0
  0
SEQEND
  5
2DB
  8
6_06MM_ABS
  0
POLYLINE
  5
2DC
  8
6_06MM_ABS
 66
     1
 10
0.0
 20
0.0
 30
0.0
 70
     1
  0
VERTEX
  5
2DD
  8
6_06MM_ABS
 10
31.61998750995758
 20
-78.06001307619191
 30
0.0
  0
VERTEX
  5
2DE
  8
6_06MM_ABS
 10
31.61998750995758
 20
-58.05992747106738
 30
0.0
  0
VERTEX
  5
2DF
  8
6_06MM_ABS
 10
37.67998750995764
 20
-58.05992747106738
 30
0.0
  0
VERTEX
  5
2E0
  8
6_06MM_ABS
 10
37.67998750995764
 20
-78.06001307619191
 30
0.0
  0
SEQEND
  5
2E1
  8
6_06MM_ABS
  0
POLYLINE
  5
2E2
  8
6_06MM_ABS
 66
     1
 10
0.0
 20
0.0
 30
0.0
 70
     1
  0
VERTEX
  5
2E3
  8
6_06MM_ABS
 10
31.61998750995758
 20
-118.0600130761919
 30
0.0
  0
VERTEX
  5
2E4
  8
6_06MM_ABS
 10
31.61998750995758
 20
-98.05992747106738
 30
0.0
  0
VERTEX
  5
2E5
  8
6_06MM_ABS
 10
37.67998750995764
 20
-98.05992747106738
 30
0.0
  0
VERTEX
  5
2E6
  8
6_06MM_ABS
 10
37.67998750995764
 20
-118.0600130761919
 30
0.0
  0
SEQEND
  5
2E7
  8
6_06MM_ABS
  0
POLYLINE
  5
2E8
  8
6_06MM_ABS
 66
     1
 10
0.0
 20
0.0
 30
0.0
 70
     1
  0
VERTEX
  5
2E9
  8
6_06MM_ABS
 10
-8.380046211678291
 20
17.99998692380809
 30
0.0
  0
VERTEX
  5
2EA
  8
6_06MM_ABS
 10
11.61998939852992
 20
17.99998692380809
 30
0.0
  0
VERTEX
  5
2EB
  8
6_06MM_ABS
 10
11.61998939852992
 20
11.93998692380809
 30
0.0
  0
VERTEX
  5
2EC
  8
6_06MM_ABS
 10
-8.380046211678291
 20
11.93998692380809
 30
0.0
  0
SEQEND
  5
2ED
  8
6_06MM_ABS
  0
CIRCLE
  5
2EE
  8
6_06MM_ABS
 10
34.64998750995755
 20
-8.060055878754369
 30
0.0
 40
1.5
  0
CIRCLE
  5
2EF
  8
6_06MM_ABS
 10
34.64998750995755
 20
-88.05999595516707
 30
0.0
 40
1.499999999999993
  0
POLYLINE
  5
2F0
  8
6_06MM_ABS
 66
     1
 10
0.0
 20
0.0
 30
0.0
 70
     1
  0
VERTEX
  5
2F1
  8
6_06MM_ABS
 10
-80.50000965718391
 20
-82.06002003175784
 30
0.0
  0
VERTEX
  5
2F2
  8
6_06MM_ABS
 10
-112.5000452673921
 20
-82.06002003175784
 30
0.0
  0
VERTEX
  5
2F3
  8
6_06MM_ABS
 10
-112.5000452673921
 20
-58.06002003175784
 30
0.0
  0
VERTEX
  5
2F4
  8
6_06MM_ABS
 10
-80.50000965718391
 20
-74.06002003175784
 30
0.0
  0
SEQEND
  5
2F5
  8
6_06MM_ABS
  0
POLYLINE
  5
2F6
  8
6_06MM_ABS
 66
     1
 10
0.0
 20
0.0
 30
0.0
 70
     1
  0
VERTEX
  5
2F7
  8
6_06MM_ABS
 10
-112.5000481002508
 20
-42.06001519412597
 30
0.0
  0
VERTEX
  5
2F8
  8
6_06MM_ABS
 10
-80.50001249004254
 20
-42.06001519412597
 30
0.0
  0
VERTEX
  5
2F9
  8
6_06MM_ABS
 10
-80.50001249004254
 20
-66.06001519412597
 30
0.0
  0
VERTEX
  5
2FA
  8
6_06MM_ABS
 10
-112.5000481002508
 20
-50.06001519412597
 30
0.0
  0
SEQEND
  5
2FB
  8
6_06MM_ABS
  0
POLYLINE
  5
2FC
  8
6_06MM_ABS
 66
     1
 10
0.0
 20
0.0
 30
0.0
 70
     1
  0
VERTEX
  5
2FD
  8
6_06MM_ABS
 10
-112.5000481002508
 20
-90.06001519412597
 30
0.0
  0
VERTEX
  5
2FE
  8
6_06MM_ABS
 10
-80.50001249004254
 20
-90.06001519412597
 30
0.0
  0
VERTEX
  5
2FF
  8
6_06MM_ABS
 10
-80.50001249004254
 20
-114.060015194126
 30
0.0
  0
VERTEX
  5
300
  8
6_06MM_ABS
 10
-112.5000481002508
 20
-98.06001519412597
 30
0.0
  0
SEQEND
  5
301
  8
6_06MM_ABS
  0
POLYLINE
  5
302
  8
6_06MM_ABS
 66
     1
 10
0.0
 20
0.0
 30
0.0
 70
     1
  0
VERTEX
  5
303
  8
6_06MM_ABS
 10
-80.50000965718391
 20
-130.0600200317579
 30
0.0
  0
VERTEX
  5
304
  8
6_06MM_ABS
 10
-112.5000452673921
 20
-130.0600200317579
 30
0.0
  0
VERTEX
  5
305
  8
6_06MM_ABS
 10
-112.5000452673921
 20
-106.0600200317578
 30
0.0
  0
VERTEX
  5
306
  8
6_06MM_ABS
 10
-80.50000965718391
 20
-122.0600200317578
 30
0.0
  0
SEQEND
  5
307
  8
6_06MM_ABS
  0
POLYLINE
  5
308
  8
6_06MM_ABS
 66
     1
 10
0.0
 20
0.0
 30
0.0
 70
     1
  0
VERTEX
  5
309
  8
6_06MM_ABS
 10
-80.50000965718391
 20
-34.06002003175784
 30
0.0
  0
VERTEX
  5
30A
  8
6_06MM_ABS
 10
-112.5000452673921
 20
-34.06002003175784
 30
0.0
  0
VERTEX
  5
30B
  8
6_06MM_ABS
 10
-112.5000452673921
 20
-10.06002003175784
 30
0.0
  0
VERTEX
  5
30C
  8
6_06MM_ABS
 10
-80.50000965718391
 20
-26.06002003175784
 30
0.0
  0
SEQEND
  5
30D
  8
6_06MM_ABS
  0
POLYLINE
  5
30E
  8
6_06MM_ABS
 66
     1
 10
0.0
 20
0.0
 30
0.0
 70
     1
  0
VERTEX
  5
30F
  8
6_06MM_ABS
 10
-112.5000481002508
 20
5.93998480587409
 30
0.0
  0
VERTEX
  5
310
  8
6_06MM_ABS
 10
-80.50001249004254
 20
5.93998480587409
 30
0.0
  0
VERTEX
  5
311
  8
6_06MM_ABS
 10
-80.50001249004254
 20
-18.06001519412597
 30
0.0
  0
VERTEX
  5
312
  8
6_06MM_ABS
 10
-112.5000481002508
 20
-2.06001519412591
 30
0.0
  0
SEQEND
  5
313
  8
6_06MM_ABS
  0
POLYLINE
  5
314
  8
6_06MM_ABS
 66
     1
 10
0.0
 20
0.0
 30
0.0
 70
     1
  0
VERTEX
  5
315
  8
6_06MM_ABS
 10
-66.50001249004254
 20
1.939944121245574
 30
0.0
  0
VERTEX
  5
316
  8
6_06MM_ABS
 10
-66.50001249004254
 20
21.9400297263701
 30
0.0
  0
VERTEX
  5
317
  8
6_06MM_ABS
 10
-60.44001249004236
 20
21.9400297263701
 30
0.0
  0
VERTEX
  5
318
  8
6_06MM_ABS
 10
-60.44001249004236
 20
1.939944121245574
 30
0.0
  0
SEQEND
  5
319
  8
6_06MM_ABS
  0
POLYLINE
  5
31A
  8
6_06MM_ABS
 66
     1
 10
0.0
 20
0.0
 30
0.0
 70
     1
  0
VERTEX
  5
31B
  8
6_06MM_ABS
 10
-66.50001249004254
 20
-38.06005587875443
 30
0.0
  0
VERTEX
  5
31C
  8
6_06MM_ABS
 10
-66.50001249004254
 20
-18.0599702736299
 30
0.0
  0
VERTEX
  5
31D
  8
6_06MM_ABS
 10
-60.44001249004236
 20
-18.0599702736299
 30
0.0
  0
VERTEX
  5
31E
  8
6_06MM_ABS
 10
-60.44001249004236
 20
-38.06005587875443
 30
0.0
  0
SEQEND
  5
31F
  8
6_06MM_ABS
  0
POLYLINE
  5
320
  8
6_06MM_ABS
 66
     1
 10
0.0
 20
0.0
 30
0.0
 70
     1
  0
VERTEX
  5
321
  8
6_06MM_ABS
 10
-66.50001249004254
 20
-78.06001307619191
 30
0.0
  0
VERTEX
  5
322
  8
6_06MM_ABS
 10
-66.50001249004254
 20
-58.05992747106738
 30
0.0
  0
VERTEX
  5
323
  8
6_06MM_ABS
 10
-60.44001249004236
 20
-58.05992747106738
 30
0.0
  0
VERTEX
  5
324
  8
6_06MM_ABS
 10
-60.44001249004236
 20
-78.06001307619191
 30
0.0
  0
SEQEND
  5
325
  8
6_06MM_ABS
  0
POLYLINE
  5
326
  8
6_06MM_ABS
 66
     1
 10
0.0
 20
0.0
 30
0.0
 70
     1
  0
VERTEX
  5
327
  8
6_06MM_ABS
 10
-66.50001249004254
 20
-118.0600130761919
 30
0.0
  0
VERTEX
  5
328
  8
6_06MM_ABS
 10
-66.50001249004254
 20
-98.05992747106738
 30
0.0
  0
VERTEX
  5
329
  8
6_06MM_ABS
 10
-60.44001249004236
 20
-98.05992747106738
 30
0.0
  0
VERTEX
  5
32A
  8
6_06MM_ABS
 10
-60.44001249004236
 20
-118.0600130761919
 30
0.0
  0
SEQEND
  5
32B
  8
6_06MM_ABS
  0
POLYLINE
  5
32C
  8
6_06MM_ABS
 66
     1
 10
0.0
 20
0.0
 30
0.0
 70
     1
  0
VERTEX
  5
32D
  8
6_06MM_ABS
 10
-106.5000462116782
 20
17.99998692380809
 30
0.0
  0
VERTEX
  5
32E
  8
6_06MM_ABS
 10
-86.50001060146997
 20
17.99998692380809
 30
0.0
  0
VERTEX
  5
32F
  8
6_06MM_ABS
 10
-86.50001060146997
 20
11.93998692380809
 30
0.0
  0
VERTEX
  5
330
  8
6_06MM_ABS
 10
-106.5000462116782
 20
11.93998692380809
 30
0.0
  0
SEQEND
  5
331
  8
6_06MM_ABS
  0
POLYLINE
  5
332
  8
6_06MM_ABS
 66
     1
 10
0.0
 20
0.0
 30
0.0
 70
     1
  0
VERTEX
  5
333
  8
6_06MM_ABS
 10
-62.50000577964852
 20
-144.1200130761919
 30
0.0
  0
VERTEX
  5
334
  8
6_06MM_ABS
 10
-62.50000577964852
 20
-138.0600130761919
 30
0.0
  0
VERTEX
  5
335
  8
6_06MM_ABS
 10
-48.50000577964852
 20
-138.0600130761919
 30
0.0
  0
VERTEX
  5
336
  8
6_06MM_ABS
 10
-48.50000288982437
 20
-118.0600130761918
 30
0.0
  0
VERTEX
  5
337
  8
6_06MM_ABS
 10
-42.44000000000005
 20
-118.0600130761918
 30
0.0
  0
VERTEX
  5
338
  8
6_06MM_ABS
 10
-42.44000000000005
 20
-98.05999595516697
 30
0.0
  0
VERTEX
  5
339
  8
6_06MM_ABS
 10
-48.50000288982437
 20
-98.05999595516697
 30
0.0
  0
VERTEX
  5
33A
  8
6_06MM_ABS
 10
-48.50000162552578
 20
-78.0600130761918
 30
0.0
  0
VERTEX
  5
33B
  8
6_06MM_ABS
 10
-42.44000000000005
 20
-78.0600130761918
 30
0.0
  0
VERTEX
  5
33C
  8
6_06MM_ABS
 10
-42.44000000000005
 20
-58.05999595516697
 30
0.0
  0
VERTEX
  5
33D
  8
6_06MM_ABS
 10
-48.50000180614006
 20
-58.05999595516697
 30
0.0
  0
VERTEX
  5
33E
  8
6_06MM_ABS
 10
-48.50000156532201
 20
-14.05993603158036
 30
0.0
  0
VERTEX
  5
33F
  8
6_06MM_ABS
 10
-42.44000000000005
 20
-14.05993603158031
 30
0.0
  0
VERTEX
  5
340
  8
6_06MM_ABS
 10
-42.44000000000005
 20
5.940081089444519
 30
0.0
  0
VERTEX
  5
341
  8
6_06MM_ABS
 10
-48.50000189644788
 20
5.940081089444462
 30
0.0
  0
VERTEX
  5
342
  8
6_06MM_ABS
 10
-48.50000159542356
 20
25.94006396841958
 30
0.0
  0
VERTEX
  5
343
  8
6_06MM_ABS
 10
-42.44000000000005
 20
25.94006396841969
 30
0.0
  0
VERTEX
  5
344
  8
6_06MM_ABS
 10
-42.44000000000005
 20
45.94008108944452
 30
0.0
  0
VERTEX
  5
345
  8
6_06MM_ABS
 10
-48.5000022426243
 20
45.9400810894444
 30
0.0
  0
VERTEX
  5
346
  8
6_06MM_ABS
 10
-48.50000577964852
 20
65.94007252893222
 30
0.0
  0
VERTEX
  5
347
  8
6_06MM_ABS
 10
-79.50000634424532
 20
65.94007252893216
 30
0.0
 42
0.4142135623731034
  0
VERTEX
  5
348
  8
6_06MM_ABS
 10
-83.50000634424532
 20
61.94007252893216
 30
0.0
  0
VERTEX
  5
349
  8
6_06MM_ABS
 10
-83.50000634424532
 20
52.94007252893233
 30
0.0
 42
-0.4142135623730959
  0
VERTEX
  5
34A
  8
6_06MM_ABS
 10
-87.50000634424532
 20
48.94007252893233
 30
0.0
  0
VERTEX
  5
34B
  8
6_06MM_ABS
 10
-105.5000063442453
 20
48.94007252893232
 30
0.0
 42
-0.4142135623731003
  0
VERTEX
  5
34C
  8
6_06MM_ABS
 10
-109.5000063442453
 20
52.94007252893233
 30
0.0
  0
VERTEX
  5
34D
  8
6_06MM_ABS
 10
-109.5000063442453
 20
61.94007252893216
 30
0.0
 42
0.4142135623731125
  0
VERTEX
  5
34E
  8
6_06MM_ABS
 10
-113.5000063442453
 20
65.94007252893216
 30
0.0
  0
VERTEX
  5
34F
  8
6_06MM_ABS
 10
-126.5
 20
65.94007252893222
 30
0.0
  0
VERTEX
  5
350
  8
6_06MM_ABS
 10
-126.5
 20
45.94008108944452
 30
0.0
  0
VERTEX
  5
351
  8
6_06MM_ABS
 10
-132.5599999999999
 20
45.94008108944452
 30
0.0
  0
VERTEX
  5
352
  8
6_06MM_ABS
 10
-132.5599999999999
 20
25.94006396841969
 30
0.0
  0
VERTEX
  5
353
  8
6_06MM_ABS
 10
-126.5
 20
25.94006396841969
 30
0.0
  0
VERTEX
  5
354
  8
6_06MM_ABS
 10
-126.5
 20
5.940081089444462
 30
0.0
  0
VERTEX
  5
355
  8
6_06MM_ABS
 10
-132.5599999999999
 20
5.940081089444519
 30
0.0
  0
VERTEX
  5
356
  8
6_06MM_ABS
 10
-132.5599999999999
 20
-14.05993603158031
 30
0.0
  0
VERTEX
  5
357
  8
6_06MM_ABS
 10
-126.5
 20
-14.05993603158036
 30
0.0
  0
VERTEX
  5
358
  8
6_06MM_ABS
 10
-126.5
 20
-58.05999595516697
 30
0.0
  0
VERTEX
  5
359
  8
6_06MM_ABS
 10
-132.5599999999999
 20
-58.05999595516697
 30
0.0
  0
VERTEX
  5
35A
  8
6_06MM_ABS
 10
-132.5599999999999
 20
-78.0600130761918
 30
0.0
  0
VERTEX
  5
35B
  8
6_06MM_ABS
 10
-126.5
 20
-78.0600130761918
 30
0.0
  0
VERTEX
  5
35C
  8
6_06MM_ABS
 10
-126.5
 20
-98.05999595516697
 30
0.0
  0
VERTEX
  5
35D
  8
6_06MM_ABS
 10
-132.5599999999999
 20
-98.05999595516697
 30
0.0
  0
VERTEX
  5
35E
  8
6_06MM_ABS
 10
-132.5599999999999
 20
-118.0600130761918
 30
0.0
  0
VERTEX
  5
35F
  8
6_06MM_ABS
 10
-126.5
 20
-118.0600130761918
 30
0.0
  0
VERTEX
  5
360
  8
6_06MM_ABS
 10
-126.5
 20
-138.0600130761919
 30
0.0
  0
VERTEX
  5
361
  8
6_06MM_ABS
 10
-112.5
 20
-138.0600130761919
 30
0.0
  0
VERTEX
  5
362
  8
6_06MM_ABS
 10
-112.5
 20
-144.1200130761919
 30
0.0
  0
VERTEX
  5
363
  8
6_06MM_ABS
 10
-97.50000577964852
 20
-144.1200130761919
 30
0.0
  0
VERTEX
  5
364
  8
6_06MM_ABS
 10
-97.50000577964852
 20
-138.0600130761919
 30
0.0
  0
VERTEX
  5
365
  8
6_06MM_ABS
 10
-77.5
 20
-138.0600130761919
 30
0.0
  0
VERTEX
  5
366
  8
6_06MM_ABS
 10
-77.5
 20
-144.1200130761919
 30
0.0
  0
SEQEND
  5
367
  8
6_06MM_ABS
  0
CIRCLE
  5
368
  8
6_06MM_ABS
 10
-63.47001249004234
 20
-8.060055878754362
 30
0.0
 40
1.499999999999993
  0
CIRCLE
  5
369
  8
6_06MM_ABS
 10
-63.47001249004233
 20
-88.05999595516707
 30
0.0
 40
1.500000000000007
  0
POLYLINE
  5
36A
  8
6_06MM_ABS
 66
     1
 10
0.0
 20
0.0
 30
0.0
 70
     1
  0
VERTEX
  5
36B
  8
6_06MM_ABS
 10
11.43999304443423
 20
95.00003986945306
 30
0.0
  0
VERTEX
  5
36C
  8
6_06MM_ABS
 10
-120.5600069555658
 20
95.00003986945306
 30
0.0
  0
VERTEX
  5
36D
  8
6_06MM_ABS
 10
-124.5600069555658
 20
99.00003986945306
 30
0.0
  0
VERTEX
  5
36E
  8
6_06MM_ABS
 10
-124.5600069555658
 20
107.0000398694531
 30
0.0
  0
VERTEX
  5
36F
  8
6_06MM_ABS
 10
-120.5600069555658
 20
111.0000398694531
 30
0.0
  0
VERTEX
  5
370
  8
6_06MM_ABS
 10
11.43999304443423
 20
111.0000398694531
 30
0.0
  0
VERTEX
  5
371
  8
6_06MM_ABS
 10
15.439993044434
 20
107.0000398694531
 30
0.0
  0
VERTEX
  5
372
  8
6_06MM_ABS
 10
15.439993044434
 20
99.00003986945306
 30
0.0
  0
SEQEND
  5
373
  8
6_06MM_ABS
  0
POLYLINE
  5
374
  8
6_06MM_ABS
 66
     1
 10
0.0
 20
0.0
 30
0.0
 70
     1
  0
VERTEX
  5
375
  8
6_06MM_ABS
 10
-112.5600000000002
 20
80.00007252893225
 30
0.0
  0
VERTEX
  5
376
  8
6_06MM_ABS
 10
-112.5600000000002
 20
73.94007252893222
 30
0.0
  0
VERTEX
  5
377
  8
6_06MM_ABS
 10
-92.55991439487548
 20
73.94007252893222
 30
0.0
  0
VERTEX
  5
378
  8
6_06MM_ABS
 10
-92.55991439487548
 20
80.00007252893225
 30
0.0
  0
VERTEX
  5
379
  8
6_06MM_ABS
 10
-72.56000000000017
 20
80.00007252893225
 30
0.0
  0
VERTEX
  5
37A
  8
6_06MM_ABS
 10
-72.56000000000017
 20
73.94007252893222
 30
0.0
  0
VERTEX
  5
37B
  8
6_06MM_ABS
 10
-52.55991439487548
 20
73.94007252893222
 30
0.0
  0
VERTEX
  5
37C
  8
6_06MM_ABS
 10
-52.55991439487548
 20
80.00007252893225
 30
0.0
  0
VERTEX
  5
37D
  8
6_06MM_ABS
 10
-32.56004280256275
 20
80.00007252893225
 30
0.0
  0
VERTEX
  5
37E
  8
6_06MM_ABS
 10
-32.56004280256252
 20
73.94007252893222
 30
0.0
  0
VERTEX
  5
37F
  8
6_06MM_ABS
 10
-12.55995719743805
 20
73.94007252893222
 30
0.0
  0
VERTEX
  5
380
  8
6_06MM_ABS
 10
-12.55995719743805
 20
80.00007252893225
 30
0.0
  0
VERTEX
  5
381
  8
6_06MM_ABS
 10
7.439957197437479
 20
80.00007252893225
 30
0.0
  0
VERTEX
  5
382
  8
6_06MM_ABS
 10
7.439957197437479
 20
73.94007252893222
 30
0.0
  0
VERTEX
  5
383
  8
6_06MM_ABS
 10
27.44004280256195
 20
73.94007252893222
 30
0.0
  0
VERTEX
  5
384
  8
6_06MM_ABS
 10
27.44004280256195
 20
80.00007252893225
 30
0.0
  0
VERTEX
  5
385
  8
6_06MM_ABS
 10
51.44004280256195
 20
80.00007252893225
 30
0.0
  0
VERTEX
  5
386
  8
6_06MM_ABS
 10
51.44004280256195
 20
89.00005996822573
 30
0.0
 42
0.414213562373104
  0
VERTEX
  5
387
  8
6_06MM_ABS
 10
47.44004280256195
 20
93.00005996822574
 30
0.0
  0
VERTEX
  5
388
  8
6_06MM_ABS
 10
40.44004280256195
 20
93.00005996822573
 30
0.0
 42
-0.4142135623730792
  0
VERTEX
  5
389
  8
6_06MM_ABS
 10
36.44004280256216
 20
97.00005996822584
 30
0.0
  0
VERTEX
  5
38A
  8
6_06MM_ABS
 10
36.44004280256217
 20
109.000037146661
 30
0.0
 42
-0.4142135623731026
  0
VERTEX
  5
38B
  8
6_06MM_ABS
 10
40.44004280256195
 20
113.0000371466609
 30
0.0
  0
VERTEX
  5
38C
  8
6_06MM_ABS
 10
47.44004280256195
 20
113.0000371466609
 30
0.0
 42
0.4142135623730961
  0
VERTEX
  5
38D
  8
6_06MM_ABS
 10
51.44004280256194
 20
117.0000371466609
 30
0.0
  0
VERTEX
  5
38E
  8
6_06MM_ABS
 10
51.44004280256195
 20
126.0000265040575
 30
0.0
  0
VERTEX
  5
38F
  8
6_06MM_ABS
 10
27.44004280256195
 20
126.0000265040575
 30
0.0
  0
VERTEX
  5
390
  8
6_06MM_ABS
 10
27.44004280256195
 20
132.0600265040575
 30
0.0
  0
VERTEX
  5
391
  8
6_06MM_ABS
 10
7.439957197437479
 20
132.0600265040575
 30
0.0
  0
VERTEX
  5
392
  8
6_06MM_ABS
 10
7.439957197437479
 20
126.0000265040575
 30
0.0
  0
VERTEX
  5
393
  8
6_06MM_ABS
 10
-12.55995719743805
 20
126.0000265040575
 30
0.0
  0
VERTEX
  5
394
  8
6_06MM_ABS
 10
-12.55995719743805
 20
132.0600265040575
 30
0.0
  0
VERTEX
  5
395
  8
6_06MM_ABS
 10
-32.56004280256252
 20
132.0600265040575
 30
0.0
  0
VERTEX
  5
396
  8
6_06MM_ABS
 10
-32.56004280256252
 20
126.0000265040575
 30
0.0
  0
VERTEX
  5
397
  8
6_06MM_ABS
 10
-52.5599143948757
 20
126.0000265040575
 30
0.0
  0
VERTEX
  5
398
  8
6_06MM_ABS
 10
-52.55991439487548
 20
132.0600265040575
 30
0.0
  0
VERTEX
  5
399
  8
6_06MM_ABS
 10
-72.56000000000017
 20
132.0600265040575
 30
0.0
  0
VERTEX
  5
39A
  8
6_06MM_ABS
 10
-72.56000000000017
 20
126.0000265040575
 30
0.0
  0
VERTEX
  5
39B
  8
6_06MM_ABS
 10
-92.55991439487548
 20
126.0000265040575
 30
0.0
  0
VERTEX
  5
39C
  8
6_06MM_ABS
 10
-92.55991439487548
 20
132.0600265040575
 30
0.0
  0
VERTEX
  5
39D
  8
6_06MM_ABS
 10
-112.5600000000002
 20
132.0600265040575
 30
0.0
  0
VERTEX
  5
39E
  8
6_06MM_ABS
 10
-112.5600000000002
 20
126.0000265040575
 30
0.0
  0
VERTEX
  5
39F
  8
6_06MM_ABS
 10
-132.5600000000002
 20
126.0000265040575
 30
0.0
  0
VERTEX
  5
3A0
  8
6_06MM_ABS
 10
-132.5600000000002
 20
80.00007252893225
 30
0.0
  0
SEQEND
  5
3A1
  8
6_06MM_ABS
  0
CIRCLE
  5
3A2
  8
6_06MM_ABS
 10
20.47000000000003
 20
107.6000788619283
 30
0.0
 40
1.000000000000028
  0
CIRCLE
  5
3A3
  8
6_06MM_ABS
 10
20.47000000000003
 20
98.40007886192812
 30
0.0
 40
1.0
  0
POLYLINE
  5
3A5
  8
DEFAULT
 66
     1
 10
0.0
 20
0.0
 30
0.0
 70
     1
  0
VERTEX
  5
3A6
  8
DEFAULT
 10
304.8
 20
-152.4
 30
0.0
  0
VERTEX
  5
3A7
  8
DEFAULT
 10
304.8
 20
152.4
 30
0.0
  0
VERTEX
  5
3A8
  8
DEFAULT
 10
-304.8
 20
152.4
 30
0.0
  0
VERTEX
  5
3A9
  8
DEFAULT
 10
-304.8
 20
-152.4
 30
0.0
  0
SEQEND
  5
3AA
  8
DEFAULT
  0
ENDSEC
  0
EOF
