  0
SECTION
  2
HEADER
  9
$ACADVER
  1
AC1009
  9
$DWGCODEPAGE
  3
ansi_1252
  9
$INSBASE
 10
0.0
 20
0.0
 30
0.0
  9
$EXTMIN
 10
0.0
 20
0.0
 30
0.0
  9
$EXTMAX
 10
609.6
 20
304.8
 30
0.0
  9
$LIMMIN
 10
0.0
 20
0.0
  9
$LIMMAX
 10
12.0
 20
9.0
  9
$ORTHOMODE
 70
     0
  9
$REGENMODE
 70
     1
  9
$FILLMODE
 70
     1
  9
$QTEXTMODE
 70
     0
  9
$MIRRTEXT
 70
     1
  9
$DRAGMODE
 70
     2
  9
$LTSCALE
 40
1.0
  9
$OSMODE
 70
    37
  9
$ATTMODE
 70
     1
  9
$TEXTSIZE
 40
0.2
  9
$TRACEWID
 40
0.05
  9
$TEXTSTYLE
  7
STANDARD
  9
$CLAYER
  8
DEFAULT
  9
$CELTYPE
  6
BYLAYER
  9
$CECOLOR
 62
   256
  9
$DIMSCALE
 40
1.0
  9
$DIMASZ
 40
0.18
  9
$DIMEXO
 40
0.0625
  9
$DIMDLI
 40
0.38
  9
$DIMRND
 40
0.0
  9
$DIMDLE
 40
0.0
  9
$DIMEXE
 40
0.18
  9
$DIMTP
 40
0.0
  9
$DIMTM
 40
0.0
  9
$DIMTXT
 40
0.18
  9
$DIMCEN
 40
0.09
  9
$DIMTSZ
 40
0.0
  9
$DIMTOL
 70
     0
  9
$DIMLIM
 70
     0
  9
$DIMTIH
 70
     1
  9
$DIMTOH
 70
     1
  9
$DIMSE1
 70
     0
  9
$DIMSE2
 70
     0
  9
$DIMTAD
 70
     0
  9
$DIMZIN
 70
     0
  9
$DIMBLK
  1

  9
$DIMASO
 70
     1
  9
$DIMSHO
 70
     1
  9
$DIMPOST
  1

  9
$DIMAPOST
  1

  9
$DIMALT
 70
     0
  9
$DIMALTD
 70
     2
  9
$DIMALTF
 40
25.4
  9
$DIMLFAC
 40
1.0
  9
$DIMTOFL
 70
     0
  9
$DIMTVP
 40
0.0
  9
$DIMTIX
 70
     0
  9
$DIMSOXD
 70
     0
  9
$DIMSAH
 70
     0
  9
$DIMBLK1
  1

  9
$DIMBLK2
  1

  9
$DIMSTYLE
  2
STANDARD
  9
$DIMCLRD
 70
     0
  9
$DIMCLRE
 70
     0
  9
$DIMCLRT
 70
     0
  9
$DIMTFAC
 40
1.0
  9
$DIMGAP
 40
0.09
  9
$LUNITS
 70
     2
  9
$LUPREC
 70
     3
  9
$SKETCHINC
 40
0.1
  9
$FILLETRAD
 40
0.5
  9
$AUNITS
 70
     0
  9
$AUPREC
 70
     0
  9
$MENU
  1
.
  9
$ELEVATION
 40
0.0
  9
$PELEVATION
 40
0.0
  9
$THICKNESS
 40
0.0
  9
$LIMCHECK
 70
     0
  9
$CHAMFERA
 40
0.0
  9
$CHAMFERB
 40
0.0
  9
$SKPOLY
 70
     0
  9
$TDCREATE
 40
2457420.108133854
  9
$TDUPDATE
 40
2457420.108161065
  9
$TDINDWG
 40
0.0000000116
  9
$TDUSRTIMER
 40
0.0000000116
  9
$USRTIMER
 70
     1
  9
$ANGBASE
 50
0.0
  9
$ANGDIR
 70
     0
  9
$PDMODE
 70
     0
  9
$PDSIZE
 40
0.0
  9
$PLINEWID
 40
0.0
  9
$COORDS
 70
     1
  9
$SPLFRAME
 70
     0
  9
$SPLINETYPE
 70
     6
  9
$SPLINESEGS
 70
     8
  9
$ATTDIA
 70
     0
  9
$ATTREQ
 70
     1
  9
$HANDLING
 70
     1
  9
$HANDSEED
  5
2B0
  9
$SURFTAB1
 70
     6
  9
$SURFTAB2
 70
     6
  9
$SURFTYPE
 70
     6
  9
$SURFU
 70
     6
  9
$SURFV
 70
     6
  9
$UCSNAME
  2

  9
$UCSORG
 10
0.0
 20
0.0
 30
0.0
  9
$UCSXDIR
 10
1.0
 20
0.0
 30
0.0
  9
$UCSYDIR
 10
0.0
 20
1.0
 30
0.0
  9
$PUCSNAME
  2

  9
$PUCSORG
 10
0.0
 20
0.0
 30
0.0
  9
$PUCSXDIR
 10
1.0
 20
0.0
 30
0.0
  9
$PUCSYDIR
 10
0.0
 20
1.0
 30
0.0
  9
$USERI1
 70
     0
  9
$USERI2
 70
     0
  9
$USERI3
 70
     0
  9
$USERI4
 70
     0
  9
$USERI5
 70
     0
  9
$USERR1
 40
0.0
  9
$USERR2
 40
0.0
  9
$USERR3
 40
0.0
  9
$USERR4
 40
0.0
  9
$USERR5
 40
0.0
  9
$WORLDVIEW
 70
     1
  9
$SHADEDGE
 70
     3
  9
$SHADEDIF
 70
    70
  9
$TILEMODE
 70
     1
  9
$MAXACTVP
 70
    64
  9
$PLIMCHECK
 70
     0
  9
$PEXTMIN
 10
1.000000000000000E+20
 20
1.000000000000000E+20
 30
1.000000000000000E+20
  9
$PEXTMAX
 10
-1.000000000000000E+20
 20
-1.000000000000000E+20
 30
-1.000000000000000E+20
  9
$PLIMMIN
 10
0.0
 20
0.0
  9
$PLIMMAX
 10
12.0
 20
9.0
  9
$UNITMODE
 70
     0
  9
$VISRETAIN
 70
     1
  9
$PLINEGEN
 70
     0
  9
$PSLTSCALE
 70
     1
  0
ENDSEC
  0
SECTION
  2
TABLES
  0
TABLE
  2
VPORT
 70
     1
  0
VPORT
  2
*ACTIVE
 70
     0
 10
0.0
 20
0.0
 11
1.0
 21
1.0
 12
304.8
 22
152.4
 13
0.0
 23
0.0
 14
0.5
 24
0.5
 15
0.5
 25
0.5
 16
0.0
 26
0.0
 36
1.0
 17
0.0
 27
0.0
 37
0.0
 40
310.896
 41
2.0
 42
50.0
 43
0.0
 44
0.0
 50
0.0
 51
0.0
 71
     0
 72
   100
 73
     1
 74
     3
 75
     0
 76
     0
 77
     0
 78
     0
  0
ENDTAB
  0
TABLE
  2
LTYPE
 70
     1
  0
LTYPE
  2
CONTINUOUS
 70
     0
  3
Solid line
 72
    65
 73
     0
 40
0.0
  0
ENDTAB
  0
TABLE
  2
LAYER
 70
     2
  0
LAYER
  2
0
 70
     0
 62
     7
  6
CONTINUOUS
  0
LAYER
  2
DEFAULT
 70
     0
 62
     7
  6
CONTINUOUS
  0
ENDTAB
  0
TABLE
  2
STYLE
 70
     1
  0
STYLE
  2
STANDARD
 70
     0
 40
0.0
 41
1.0
 50
0.0
 71
     0
 42
0.2
  3
txt
  4

  0
ENDTAB
  0
TABLE
  2
VIEW
 70
     0
  0
ENDTAB
  0
TABLE
  2
UCS
 70
     0
  0
ENDTAB
  0
TABLE
  2
APPID
 70
     1
  0
APPID
  2
ACAD
 70
     0
  0
ENDTAB
  0
TABLE
  2
DIMSTYLE
 70
     1
  0
DIMSTYLE
  2
STANDARD
 70
     0
  3

  4

  5

  6

  7

 40
1.0
 41
0.18
 42
0.0625
 43
0.38
 44
0.18
 45
0.0
 46
0.0
 47
0.0
 48
0.0
140
0.18
141
0.09
142
0.0
143
25.4
144
1.0
145
0.0
146
1.0
147
0.09
 71
     0
 72
     0
 73
     1
 74
     1
 75
     0
 76
     0
 77
     0
 78
     0
170
     0
171
     2
172
     0
173
     0
174
     0
175
     0
176
     0
177
     0
178
     0
  0
ENDTAB
  0
ENDSEC
  0
SECTION
  2
BLOCKS
  0
BLOCK
  8
0
  2
$MODEL_SPACE
 70
     0
 10
0.0
 20
0.0
 30
0.0
  3
$MODEL_SPACE
  1

  0
ENDBLK
  5
21
  8
0
  0
BLOCK
 67
     1
  8
0
  2
$PAPER_SPACE
 70
     0
 10
0.0
 20
0.0
 30
0.0
  3
$PAPER_SPACE
  1

  0
ENDBLK
  5
1D
 67
     1
  8
0
  0
ENDSEC
  0
SECTION
  2
ENTITIES
  0
POLYLINE
  5
6F
  8
DEFAULT
 66
     1
 10
0.0
 20
0.0
 30
0.0
 70
     1
  0
VERTEX
  5
70
  8
DEFAULT
 10
318.8151836132941
 20
41.56010200476571
 30
0.0
 42
0.4142132519032042
  0
VERTEX
  5
71
  8
DEFAULT
 10
321.8151836132942
 20
38.56010215022499
 30
0.0
  0
VERTEX
  5
72
  8
DEFAULT
 10
324.8151836132939
 20
38.56010215022509
 30
0.0
 42
0.4142134778182197
  0
VERTEX
  5
73
  8
DEFAULT
 10
327.8151836132939
 20
41.56010229568422
 30
0.0
  0
VERTEX
  5
74
  8
DEFAULT
 10
327.8151817223234
 20
80.56010229568425
 30
0.0
 42
0.4142133506594192
  0
VERTEX
  5
75
  8
DEFAULT
 10
324.8151817223234
 20
83.56010215022505
 30
0.0
  0
VERTEX
  5
76
  8
DEFAULT
 10
321.8151817223237
 20
83.56010215022499
 30
0.0
 42
0.4142134778181958
  0
VERTEX
  5
77
  8
DEFAULT
 10
318.8151817223237
 20
80.56010200476567
 30
0.0
  0
SEQEND
  5
78
  8
DEFAULT
  0
POLYLINE
  5
79
  8
DEFAULT
 66
     1
 10
0.0
 20
0.0
 30
0.0
 70
     1
  0
VERTEX
  5
7A
  8
DEFAULT
 10
426.815183613294
 20
41.56010200476577
 30
0.0
 42
0.4142134494155328
  0
VERTEX
  5
7B
  8
DEFAULT
 10
429.8151836132942
 20
38.56010215022504
 30
0.0
  0
VERTEX
  5
7C
  8
DEFAULT
 10
432.8151836132939
 20
38.56010215022498
 30
0.0
 42
0.4142133790619952
  0
VERTEX
  5
7D
  8
DEFAULT
 10
435.8151836132939
 20
41.56010229568423
 30
0.0
  0
VERTEX
  5
7E
  8
DEFAULT
 10
435.8151817223235
 20
80.56010229568426
 30
0.0
 42
0.4142133506594168
  0
VERTEX
  5
7F
  8
DEFAULT
 10
432.8151817223235
 20
83.56010215022502
 30
0.0
  0
VERTEX
  5
80
  8
DEFAULT
 10
429.8151817223237
 20
83.560102150225
 30
0.0
 42
0.41421357657441
  0
VERTEX
  5
81
  8
DEFAULT
 10
426.8151817223236
 20
80.56010200476567
 30
0.0
  0
SEQEND
  5
82
  8
DEFAULT
  0
POLYLINE
  5
83
  8
DEFAULT
 66
     1
 10
0.0
 20
0.0
 30
0.0
 70
     1
  0
VERTEX
  5
84
  8
DEFAULT
 10
408.815183613294
 20
41.56010200476581
 30
0.0
 42
0.4142133506593874
  0
VERTEX
  5
85
  8
DEFAULT
 10
411.8151836132942
 20
38.56010215022497
 30
0.0
  0
VERTEX
  5
86
  8
DEFAULT
 10
414.8151836132939
 20
38.56010215022499
 30
0.0
 42
0.4142134778182257
  0
VERTEX
  5
87
  8
DEFAULT
 10
417.815183613294
 20
41.56010229568422
 30
0.0
  0
VERTEX
  5
88
  8
DEFAULT
 10
417.8151817223235
 20
80.56010229568425
 30
0.0
 42
0.4142133506594286
  0
VERTEX
  5
89
  8
DEFAULT
 10
414.8151817223235
 20
83.56010215022506
 30
0.0
  0
VERTEX
  5
8A
  8
DEFAULT
 10
411.8151817223237
 20
83.56010215022499
 30
0.0
 42
0.4142134778182239
  0
VERTEX
  5
8B
  8
DEFAULT
 10
408.8151817223235
 20
80.56010200476567
 30
0.0
  0
SEQEND
  5
8C
  8
DEFAULT
  0
POLYLINE
  5
8D
  8
DEFAULT
 66
     1
 10
0.0
 20
0.0
 30
0.0
 70
     1
  0
VERTEX
  5
8E
  8
DEFAULT
 10
336.815183613294
 20
41.56010200476577
 30
0.0
 42
0.414213449415526
  0
VERTEX
  5
8F
  8
DEFAULT
 10
339.8151836132941
 20
38.56010215022498
 30
0.0
  0
VERTEX
  5
90
  8
DEFAULT
 10
342.8151836132939
 20
38.56010215022505
 30
0.0
 42
0.4142134778182083
  0
VERTEX
  5
91
  8
DEFAULT
 10
345.8151836132939
 20
41.56010229568423
 30
0.0
  0
VERTEX
  5
92
  8
DEFAULT
 10
345.8151817223234
 20
80.56010229568427
 30
0.0
 42
0.414213350659385
  0
VERTEX
  5
93
  8
DEFAULT
 10
342.8151817223234
 20
83.56010215022506
 30
0.0
  0
VERTEX
  5
94
  8
DEFAULT
 10
339.8151817223236
 20
83.56010215022496
 30
0.0
 42
0.4142134778182199
  0
VERTEX
  5
95
  8
DEFAULT
 10
336.8151817223236
 20
80.56010200476567
 30
0.0
  0
SEQEND
  5
96
  8
DEFAULT
  0
POLYLINE
  5
97
  8
DEFAULT
 66
     1
 10
0.0
 20
0.0
 30
0.0
 70
     1
  0
VERTEX
  5
98
  8
DEFAULT
 10
372.815183613294
 20
41.56010200476581
 30
0.0
 42
0.4142133506593778
  0
VERTEX
  5
99
  8
DEFAULT
 10
375.8151836132941
 20
38.56010215022511
 30
0.0
  0
VERTEX
  5
9A
  8
DEFAULT
 10
378.8151836132939
 20
38.56010215022508
 30
0.0
 42
0.414213477818231
  0
VERTEX
  5
9B
  8
DEFAULT
 10
381.8151836132938
 20
41.56010229568422
 30
0.0
  0
VERTEX
  5
9C
  8
DEFAULT
 10
381.8151817223235
 20
80.56010229568425
 30
0.0
 42
0.4142133506594619
  0
VERTEX
  5
9D
  8
DEFAULT
 10
378.8151817223234
 20
83.56010215022505
 30
0.0
  0
VERTEX
  5
9E
  8
DEFAULT
 10
375.8151817223237
 20
83.56010215022499
 30
0.0
 42
0.4142134778182043
  0
VERTEX
  5
9F
  8
DEFAULT
 10
372.8151817223235
 20
80.56010200476567
 30
0.0
  0
SEQEND
  5
A0
  8
DEFAULT
  0
POLYLINE
  5
A1
  8
DEFAULT
 66
     1
 10
0.0
 20
0.0
 30
0.0
 70
     1
  0
VERTEX
  5
A2
  8
DEFAULT
 10
354.815183613294
 20
41.56010200476577
 30
0.0
 42
0.4142134494155195
  0
VERTEX
  5
A3
  8
DEFAULT
 10
357.8151836132942
 20
38.56010215022504
 30
0.0
  0
VERTEX
  5
A4
  8
DEFAULT
 10
360.8151836132939
 20
38.56010215022506
 30
0.0
 42
0.4142134778181816
  0
VERTEX
  5
A5
  8
DEFAULT
 10
363.8151836132939
 20
41.56010229568423
 30
0.0
  0
VERTEX
  5
A6
  8
DEFAULT
 10
363.8151817223235
 20
80.56010229568427
 30
0.0
 42
0.4142135481717394
  0
VERTEX
  5
A7
  8
DEFAULT
 10
360.8151817223234
 20
83.56010215022498
 30
0.0
  0
VERTEX
  5
A8
  8
DEFAULT
 10
357.8151817223238
 20
83.56010215022502
 30
0.0
 42
0.4142134778182316
  0
VERTEX
  5
A9
  8
DEFAULT
 10
354.8151817223236
 20
80.56010200476567
 30
0.0
  0
SEQEND
  5
AA
  8
DEFAULT
  0
POLYLINE
  5
AB
  8
DEFAULT
 66
     1
 10
0.0
 20
0.0
 30
0.0
 70
     1
  0
VERTEX
  5
AC
  8
DEFAULT
 10
390.815183613294
 20
41.56010200476589
 30
0.0
 42
0.4142135481717557
  0
VERTEX
  5
AD
  8
DEFAULT
 10
393.8151836132942
 20
38.56010215022503
 30
0.0
  0
VERTEX
  5
AE
  8
DEFAULT
 10
396.8151836132939
 20
38.56010215022501
 30
0.0
 42
0.4142134778182089
  0
VERTEX
  5
AF
  8
DEFAULT
 10
399.8151836132939
 20
41.56010229568423
 30
0.0
  0
VERTEX
  5
B0
  8
DEFAULT
 10
399.8151817223235
 20
80.56010229568427
 30
0.0
 42
0.4142135481717482
  0
VERTEX
  5
B1
  8
DEFAULT
 10
396.8151817223235
 20
83.560102150225
 30
0.0
  0
VERTEX
  5
B2
  8
DEFAULT
 10
393.8151817223237
 20
83.56010215022499
 30
0.0
 42
0.4142134778182418
  0
VERTEX
  5
B3
  8
DEFAULT
 10
390.8151817223236
 20
80.56010200476567
 30
0.0
  0
SEQEND
  5
B4
  8
DEFAULT
  0
POLYLINE
  5
B5
  8
DEFAULT
 66
     1
 10
0.0
 20
0.0
 30
0.0
 70
     1
  0
VERTEX
  5
B6
  8
DEFAULT
 10
553.6000309123004
 20
20.0000216784473
 30
0.0
  0
VERTEX
  5
B7
  8
DEFAULT
 10
553.6000309123003
 20
26.06002167844724
 30
0.0
  0
VERTEX
  5
B8
  8
DEFAULT
 10
533.6000309123003
 20
26.06002167844724
 30
0.0
  0
VERTEX
  5
B9
  8
DEFAULT
 10
533.6000309123004
 20
20.0000216784473
 30
0.0
  0
SEQEND
  5
BA
  8
DEFAULT
  0
POLYLINE
  5
BB
  8
DEFAULT
 66
     1
 10
0.0
 20
0.0
 30
0.0
 70
     1
  0
VERTEX
  5
BC
  8
DEFAULT
 10
493.6000746478842
 20
26.06002167844724
 30
0.0
  0
VERTEX
  5
BD
  8
DEFAULT
 10
493.6000746478842
 20
20.0000216784473
 30
0.0
  0
VERTEX
  5
BE
  8
DEFAULT
 10
513.6000746478842
 20
20.0000216784473
 30
0.0
  0
VERTEX
  5
BF
  8
DEFAULT
 10
513.6000746478842
 20
26.06002167844724
 30
0.0
  0
SEQEND
  5
C0
  8
DEFAULT
  0
POLYLINE
  5
C1
  8
DEFAULT
 66
     1
 10
0.0
 20
0.0
 30
0.0
 70
     1
  0
VERTEX
  5
C2
  8
DEFAULT
 10
407.3151526170544
 20
20.0000216784473
 30
0.0
  0
VERTEX
  5
C3
  8
DEFAULT
 10
407.3151526170544
 20
26.06002167844724
 30
0.0
  0
VERTEX
  5
C4
  8
DEFAULT
 10
387.3151526170544
 20
26.06002167844724
 30
0.0
  0
VERTEX
  5
C5
  8
DEFAULT
 10
387.3151526170544
 20
20.0000216784473
 30
0.0
  0
SEQEND
  5
C6
  8
DEFAULT
  0
POLYLINE
  5
C7
  8
DEFAULT
 66
     1
 10
0.0
 20
0.0
 30
0.0
 70
     1
  0
VERTEX
  5
C8
  8
DEFAULT
 10
347.3152182873229
 20
26.06002167844724
 30
0.0
  0
VERTEX
  5
C9
  8
DEFAULT
 10
347.3152182873229
 20
20.0000216784473
 30
0.0
  0
VERTEX
  5
CA
  8
DEFAULT
 10
367.3152182873229
 20
20.0000216784473
 30
0.0
  0
VERTEX
  5
CB
  8
DEFAULT
 10
367.3152182873229
 20
26.06002167844724
 30
0.0
  0
SEQEND
  5
CC
  8
DEFAULT
  0
POLYLINE
  5
CD
  8
DEFAULT
 66
     1
 10
0.0
 20
0.0
 30
0.0
 70
     1
  0
VERTEX
  5
CE
  8
DEFAULT
 10
583.5399999999997
 20
36.06002167844736
 30
0.0
  0
VERTEX
  5
CF
  8
DEFAULT
 10
589.5999999999997
 20
36.06002167844736
 30
0.0
  0
VERTEX
  5
D0
  8
DEFAULT
 10
589.5999999999997
 20
51.06002167844736
 30
0.0
  0
VERTEX
  5
D1
  8
DEFAULT
 10
583.5399999999997
 20
51.06002167844736
 30
0.0
  0
SEQEND
  5
D2
  8
DEFAULT
  0
POLYLINE
  5
D3
  8
DEFAULT
 66
     1
 10
0.0
 20
0.0
 30
0.0
 70
     1
  0
VERTEX
  5
D4
  8
DEFAULT
 10
589.5999999999997
 20
86.06010307190377
 30
0.0
  0
VERTEX
  5
D5
  8
DEFAULT
 10
583.5399999999997
 20
86.06010307190377
 30
0.0
  0
VERTEX
  5
D6
  8
DEFAULT
 10
583.5399999999997
 20
71.06010307190377
 30
0.0
  0
VERTEX
  5
D7
  8
DEFAULT
 10
589.5999999999997
 20
71.06010307190377
 30
0.0
  0
SEQEND
  5
D8
  8
DEFAULT
  0
POLYLINE
  5
D9
  8
DEFAULT
 66
     1
 10
0.0
 20
0.0
 30
0.0
 70
     1
  0
VERTEX
  5
DA
  8
DEFAULT
 10
448.9701225234641
 20
36.06002167844736
 30
0.0
  0
VERTEX
  5
DB
  8
DEFAULT
 10
455.030122523464
 20
36.06002167844736
 30
0.0
  0
VERTEX
  5
DC
  8
DEFAULT
 10
455.0301214325195
 20
51.06002167844736
 30
0.0
  0
VERTEX
  5
DD
  8
DEFAULT
 10
448.9701214325196
 20
51.06002167844736
 30
0.0
  0
SEQEND
  5
DE
  8
DEFAULT
  0
POLYLINE
  5
DF
  8
DEFAULT
 66
     1
 10
0.0
 20
0.0
 30
0.0
 70
     1
  0
VERTEX
  5
E0
  8
DEFAULT
 10
455.030122523464
 20
86.06010307190377
 30
0.0
  0
VERTEX
  5
E1
  8
DEFAULT
 10
448.9701225234641
 20
86.06010307190377
 30
0.0
  0
VERTEX
  5
E2
  8
DEFAULT
 10
448.9701214325196
 20
71.06010307190377
 30
0.0
  0
VERTEX
  5
E3
  8
DEFAULT
 10
455.0301214325195
 20
71.06010307190377
 30
0.0
  0
SEQEND
  5
E4
  8
DEFAULT
  0
POLYLINE
  5
E5
  8
DEFAULT
 66
     1
 10
0.0
 20
0.0
 30
0.0
 70
     1
  0
VERTEX
  5
E6
  8
DEFAULT
 10
299.6002653441925
 20
36.06002167844736
 30
0.0
  0
VERTEX
  5
E7
  8
DEFAULT
 10
305.6602653441925
 20
36.06002167844736
 30
0.0
  0
VERTEX
  5
E8
  8
DEFAULT
 10
305.6602642532479
 20
51.06002167844736
 30
0.0
  0
VERTEX
  5
E9
  8
DEFAULT
 10
299.600264253248
 20
51.06002167844736
 30
0.0
  0
SEQEND
  5
EA
  8
DEFAULT
  0
POLYLINE
  5
EB
  8
DEFAULT
 66
     1
 10
0.0
 20
0.0
 30
0.0
 70
     1
  0
VERTEX
  5
EC
  8
DEFAULT
 10
305.6602653441925
 20
86.06010307190377
 30
0.0
  0
VERTEX
  5
ED
  8
DEFAULT
 10
299.6002653441925
 20
86.06010307190377
 30
0.0
  0
VERTEX
  5
EE
  8
DEFAULT
 10
299.600264253248
 20
71.06010307190377
 30
0.0
  0
VERTEX
  5
EF
  8
DEFAULT
 10
305.6602642532479
 20
71.06010307190377
 30
0.0
  0
SEQEND
  5
F0
  8
DEFAULT
  0
POLYLINE
  5
F1
  8
DEFAULT
 66
     1
 10
0.0
 20
0.0
 30
0.0
 70
     1
  0
VERTEX
  5
F2
  8
DEFAULT
 10
289.6002650752119
 20
25.00002167844741
 30
0.0
  0
VERTEX
  5
F3
  8
DEFAULT
 10
289.600265075212
 20
97.12010307190383
 30
0.0
 42
-0.414213562373094
  0
VERTEX
  5
F4
  8
DEFAULT
 10
304.600265075212
 20
112.1201030719038
 30
0.0
  0
VERTEX
  5
F5
  8
DEFAULT
 10
584.5999999999997
 20
112.1201030719037
 30
0.0
 42
-0.4142135623730872
  0
VERTEX
  5
F6
  8
DEFAULT
 10
599.5999999999997
 20
97.12010307190371
 30
0.0
  0
VERTEX
  5
F7
  8
DEFAULT
 10
599.5999999999997
 20
25.00002167844741
 30
0.0
 42
-0.4142135623731005
  0
VERTEX
  5
F8
  8
DEFAULT
 10
584.5999999999997
 20
10.00002167844721
 30
0.0
  0
VERTEX
  5
F9
  8
DEFAULT
 10
304.6002650752119
 20
10.0000216784474
 30
0.0
 42
-0.4142135623730874
  0
SEQEND
  5
FA
  8
DEFAULT
  0
CIRCLE
  5
FB
  8
DEFAULT
 10
452.0001225234641
 20
61.06003327490112
 30
0.0
 40
1.5
  0
CIRCLE
  5
FC
  8
DEFAULT
 10
586.5699896634096
 20
61.06003327490123
 30
0.0
 40
1.5
  0
CIRCLE
  5
FD
  8
DEFAULT
 10
523.6000527800923
 20
23.03002167844727
 30
0.0
 40
1.5
  0
CIRCLE
  5
FE
  8
DEFAULT
 10
302.6302653441925
 20
61.06006237517554
 30
0.0
 40
1.499999999999979
  0
CIRCLE
  5
FF
  8
DEFAULT
 10
377.3151854521888
 20
23.03002167844728
 30
0.0
 40
1.500000000000014
  0
CIRCLE
  5
100
  8
DEFAULT
 10
563.7899999999996
 20
46.16002167844749
 30
0.0
 40
10.0
  0
CIRCLE
  5
101
  8
DEFAULT
 10
534.7499999999998
 20
32.0235746369018
 30
0.0
 40
2.25
  0
CIRCLE
  5
102
  8
DEFAULT
 10
574.7500000762936
 20
32.0235746369018
 30
0.0
 40
2.25
  0
CIRCLE
  5
103
  8
DEFAULT
 10
534.7499999999998
 20
60.21002158308022
 30
0.0
 40
2.25
  0
CIRCLE
  5
104
  8
DEFAULT
 10
574.7500000762936
 20
60.21002158308022
 30
0.0
 40
2.25
  0
POLYLINE
  5
105
  8
DEFAULT
 66
     1
 10
0.0
 20
0.0
 30
0.0
 70
     1
  0
VERTEX
  5
106
  8
DEFAULT
 10
290.7848163867056
 20
263.2399196736817
 30
0.0
 42
0.414213251903183
  0
VERTEX
  5
107
  8
DEFAULT
 10
287.7848163867056
 20
266.2399195282225
 30
0.0
  0
VERTEX
  5
108
  8
DEFAULT
 10
284.7848163867059
 20
266.2399195282225
 30
0.0
 42
0.4142134778182082
  0
VERTEX
  5
109
  8
DEFAULT
 10
281.7848163867056
 20
263.2399193827632
 30
0.0
  0
VERTEX
  5
10A
  8
DEFAULT
 10
281.7848182776763
 20
224.2399193827632
 30
0.0
 42
0.4142133506594065
  0
VERTEX
  5
10B
  8
DEFAULT
 10
284.7848182776763
 20
221.2399195282225
 30
0.0
  0
VERTEX
  5
10C
  8
DEFAULT
 10
287.784818277676
 20
221.2399195282224
 30
0.0
 42
0.4142134778181948
  0
VERTEX
  5
10D
  8
DEFAULT
 10
290.7848182776762
 20
224.2399196736818
 30
0.0
  0
SEQEND
  5
10E
  8
DEFAULT
  0
POLYLINE
  5
10F
  8
DEFAULT
 66
     1
 10
0.0
 20
0.0
 30
0.0
 70
     1
  0
VERTEX
  5
110
  8
DEFAULT
 10
182.7848163867057
 20
263.2399196736817
 30
0.0
 42
0.4142133506593399
  0
VERTEX
  5
111
  8
DEFAULT
 10
179.7848163867056
 20
266.2399195282224
 30
0.0
  0
VERTEX
  5
112
  8
DEFAULT
 10
176.7848163867058
 20
266.2399195282225
 30
0.0
 42
0.4142133790620333
  0
VERTEX
  5
113
  8
DEFAULT
 10
173.7848163867059
 20
263.2399193827632
 30
0.0
  0
VERTEX
  5
114
  8
DEFAULT
 10
173.7848182776764
 20
224.2399193827632
 30
0.0
 42
0.4142133506594156
  0
VERTEX
  5
115
  8
DEFAULT
 10
176.7848182776763
 20
221.2399195282225
 30
0.0
  0
VERTEX
  5
116
  8
DEFAULT
 10
179.7848182776761
 20
221.2399195282224
 30
0.0
 42
0.4142135765744155
  0
VERTEX
  5
117
  8
DEFAULT
 10
182.7848182776762
 20
224.2399196736818
 30
0.0
  0
SEQEND
  5
118
  8
DEFAULT
  0
POLYLINE
  5
119
  8
DEFAULT
 66
     1
 10
0.0
 20
0.0
 30
0.0
 70
     1
  0
VERTEX
  5
11A
  8
DEFAULT
 10
200.7848163867057
 20
263.2399196736817
 30
0.0
 42
0.4142133506593016
  0
VERTEX
  5
11B
  8
DEFAULT
 10
197.7848163867056
 20
266.2399195282225
 30
0.0
  0
VERTEX
  5
11C
  8
DEFAULT
 10
194.7848163867058
 20
266.2399195282225
 30
0.0
 42
0.4142134778181912
  0
VERTEX
  5
11D
  8
DEFAULT
 10
191.7848163867058
 20
263.2399193827632
 30
0.0
  0
VERTEX
  5
11E
  8
DEFAULT
 10
191.7848182776763
 20
224.2399193827632
 30
0.0
 42
0.4142134494155699
  0
VERTEX
  5
11F
  8
DEFAULT
 10
194.7848182776763
 20
221.2399195282225
 30
0.0
  0
VERTEX
  5
120
  8
DEFAULT
 10
197.7848182776761
 20
221.2399195282225
 30
0.0
 42
0.4142133790620617
  0
VERTEX
  5
121
  8
DEFAULT
 10
200.7848182776761
 20
224.2399196736818
 30
0.0
  0
SEQEND
  5
122
  8
DEFAULT
  0
POLYLINE
  5
123
  8
DEFAULT
 66
     1
 10
0.0
 20
0.0
 30
0.0
 70
     1
  0
VERTEX
  5
124
  8
DEFAULT
 10
272.7848163867056
 20
263.2399196736817
 30
0.0
 42
0.4142133506593835
  0
VERTEX
  5
125
  8
DEFAULT
 10
269.7848163867056
 20
266.2399195282225
 30
0.0
  0
VERTEX
  5
126
  8
DEFAULT
 10
266.7848163867059
 20
266.2399195282225
 30
0.0
 42
0.4142134778181922
  0
VERTEX
  5
127
  8
DEFAULT
 10
263.7848163867058
 20
263.2399193827632
 30
0.0
  0
VERTEX
  5
128
  8
DEFAULT
 10
263.7848182776764
 20
224.2399193827632
 30
0.0
 42
0.4142133506594143
  0
VERTEX
  5
129
  8
DEFAULT
 10
266.7848182776764
 20
221.2399195282225
 30
0.0
  0
VERTEX
  5
12A
  8
DEFAULT
 10
269.7848182776762
 20
221.2399195282225
 30
0.0
 42
0.4142133790620609
  0
VERTEX
  5
12B
  8
DEFAULT
 10
272.7848182776762
 20
224.2399196736818
 30
0.0
  0
SEQEND
  5
12C
  8
DEFAULT
  0
POLYLINE
  5
12D
  8
DEFAULT
 66
     1
 10
0.0
 20
0.0
 30
0.0
 70
     1
  0
VERTEX
  5
12E
  8
DEFAULT
 10
236.7848163867057
 20
263.2399196736817
 30
0.0
 42
0.4142133506593335
  0
VERTEX
  5
12F
  8
DEFAULT
 10
233.7848163867056
 20
266.2399195282225
 30
0.0
  0
VERTEX
  5
130
  8
DEFAULT
 10
230.7848163867058
 20
266.2399195282225
 30
0.0
 42
0.4142134778182286
  0
VERTEX
  5
131
  8
DEFAULT
 10
227.7848163867058
 20
263.2399193827632
 30
0.0
  0
VERTEX
  5
132
  8
DEFAULT
 10
227.7848182776764
 20
224.2399193827632
 30
0.0
 42
0.41421344941553
  0
VERTEX
  5
133
  8
DEFAULT
 10
230.7848182776763
 20
221.2399195282225
 30
0.0
  0
VERTEX
  5
134
  8
DEFAULT
 10
233.7848182776761
 20
221.2399195282225
 30
0.0
 42
0.4142134778182041
  0
VERTEX
  5
135
  8
DEFAULT
 10
236.7848182776762
 20
224.2399196736818
 30
0.0
  0
SEQEND
  5
136
  8
DEFAULT
  0
POLYLINE
  5
137
  8
DEFAULT
 66
     1
 10
0.0
 20
0.0
 30
0.0
 70
     1
  0
VERTEX
  5
138
  8
DEFAULT
 10
254.7848163867057
 20
263.2399196736817
 30
0.0
 42
0.414213350659371
  0
VERTEX
  5
139
  8
DEFAULT
 10
251.7848163867056
 20
266.2399195282225
 30
0.0
  0
VERTEX
  5
13A
  8
DEFAULT
 10
248.7848163867059
 20
266.2399195282224
 30
0.0
 42
0.414213477818189
  0
VERTEX
  5
13B
  8
DEFAULT
 10
245.7848163867058
 20
263.2399193827632
 30
0.0
  0
VERTEX
  5
13C
  8
DEFAULT
 10
245.7848182776763
 20
224.2399193827632
 30
0.0
 42
0.4142135481717593
  0
VERTEX
  5
13D
  8
DEFAULT
 10
248.7848182776764
 20
221.2399195282225
 30
0.0
  0
VERTEX
  5
13E
  8
DEFAULT
 10
251.7848182776761
 20
221.2399195282225
 30
0.0
 42
0.4142134778182123
  0
VERTEX
  5
13F
  8
DEFAULT
 10
254.7848182776761
 20
224.2399196736818
 30
0.0
  0
SEQEND
  5
140
  8
DEFAULT
  0
POLYLINE
  5
141
  8
DEFAULT
 66
     1
 10
0.0
 20
0.0
 30
0.0
 70
     1
  0
VERTEX
  5
142
  8
DEFAULT
 10
218.7848163867057
 20
263.2399196736816
 30
0.0
 42
0.4142135481717176
  0
VERTEX
  5
143
  8
DEFAULT
 10
215.7848163867056
 20
266.2399195282224
 30
0.0
  0
VERTEX
  5
144
  8
DEFAULT
 10
212.7848163867058
 20
266.2399195282225
 30
0.0
 42
0.4142134778181912
  0
VERTEX
  5
145
  8
DEFAULT
 10
209.7848163867058
 20
263.2399193827633
 30
0.0
  0
VERTEX
  5
146
  8
DEFAULT
 10
209.7848182776763
 20
224.2399193827632
 30
0.0
 42
0.4142135481717675
  0
VERTEX
  5
147
  8
DEFAULT
 10
212.7848182776764
 20
221.2399195282225
 30
0.0
  0
VERTEX
  5
148
  8
DEFAULT
 10
215.7848182776761
 20
221.2399195282224
 30
0.0
 42
0.4142134778182515
  0
VERTEX
  5
149
  8
DEFAULT
 10
218.7848182776762
 20
224.2399196736818
 30
0.0
  0
SEQEND
  5
14A
  8
DEFAULT
  0
POLYLINE
  5
14B
  8
DEFAULT
 66
     1
 10
0.0
 20
0.0
 30
0.0
 70
     1
  0
VERTEX
  5
14C
  8
DEFAULT
 10
55.99996908769931
 20
284.8000000000002
 30
0.0
  0
VERTEX
  5
14D
  8
DEFAULT
 10
55.99996908769934
 20
278.7400000000002
 30
0.0
  0
VERTEX
  5
14E
  8
DEFAULT
 10
75.99996908769934
 20
278.7400000000002
 30
0.0
  0
VERTEX
  5
14F
  8
DEFAULT
 10
75.99996908769931
 20
284.8000000000002
 30
0.0
  0
SEQEND
  5
150
  8
DEFAULT
  0
POLYLINE
  5
151
  8
DEFAULT
 66
     1
 10
0.0
 20
0.0
 30
0.0
 70
     1
  0
VERTEX
  5
152
  8
DEFAULT
 10
115.9999253521156
 20
278.7400000000002
 30
0.0
  0
VERTEX
  5
153
  8
DEFAULT
 10
115.9999253521156
 20
284.8000000000002
 30
0.0
  0
VERTEX
  5
154
  8
DEFAULT
 10
95.99992535211554
 20
284.8000000000002
 30
0.0
  0
VERTEX
  5
155
  8
DEFAULT
 10
95.99992535211554
 20
278.7400000000002
 30
0.0
  0
SEQEND
  5
156
  8
DEFAULT
  0
POLYLINE
  5
157
  8
DEFAULT
 66
     1
 10
0.0
 20
0.0
 30
0.0
 70
     1
  0
VERTEX
  5
158
  8
DEFAULT
 10
202.2848473829453
 20
284.8000000000002
 30
0.0
  0
VERTEX
  5
159
  8
DEFAULT
 10
202.2848473829453
 20
278.7400000000002
 30
0.0
  0
VERTEX
  5
15A
  8
DEFAULT
 10
222.2848473829453
 20
278.7400000000002
 30
0.0
  0
VERTEX
  5
15B
  8
DEFAULT
 10
222.2848473829453
 20
284.8000000000002
 30
0.0
  0
SEQEND
  5
15C
  8
DEFAULT
  0
POLYLINE
  5
15D
  8
DEFAULT
 66
     1
 10
0.0
 20
0.0
 30
0.0
 70
     1
  0
VERTEX
  5
15E
  8
DEFAULT
 10
262.2847817126769
 20
278.7400000000002
 30
0.0
  0
VERTEX
  5
15F
  8
DEFAULT
 10
262.2847817126769
 20
284.8000000000002
 30
0.0
  0
VERTEX
  5
160
  8
DEFAULT
 10
242.2847817126769
 20
284.8000000000002
 30
0.0
  0
VERTEX
  5
161
  8
DEFAULT
 10
242.2847817126769
 20
278.7400000000002
 30
0.0
  0
SEQEND
  5
162
  8
DEFAULT
  0
POLYLINE
  5
163
  8
DEFAULT
 66
     1
 10
0.0
 20
0.0
 30
0.0
 70
     1
  0
VERTEX
  5
164
  8
DEFAULT
 10
26.05999999999995
 20
268.7400000000001
 30
0.0
  0
VERTEX
  5
165
  8
DEFAULT
 10
20.0
 20
268.7400000000001
 30
0.0
  0
VERTEX
  5
166
  8
DEFAULT
 10
20.0
 20
253.7400000000001
 30
0.0
  0
VERTEX
  5
167
  8
DEFAULT
 10
26.05999999999995
 20
253.7400000000001
 30
0.0
  0
SEQEND
  5
168
  8
DEFAULT
  0
POLYLINE
  5
169
  8
DEFAULT
 66
     1
 10
0.0
 20
0.0
 30
0.0
 70
     1
  0
VERTEX
  5
16A
  8
DEFAULT
 10
20.0
 20
218.7399186065437
 30
0.0
  0
VERTEX
  5
16B
  8
DEFAULT
 10
26.05999999999995
 20
218.7399186065437
 30
0.0
  0
VERTEX
  5
16C
  8
DEFAULT
 10
26.05999999999995
 20
233.7399186065437
 30
0.0
  0
VERTEX
  5
16D
  8
DEFAULT
 10
20.0
 20
233.7399186065437
 30
0.0
  0
SEQEND
  5
16E
  8
DEFAULT
  0
POLYLINE
  5
16F
  8
DEFAULT
 66
     1
 10
0.0
 20
0.0
 30
0.0
 70
     1
  0
VERTEX
  5
170
  8
DEFAULT
 10
160.6298774765357
 20
268.7400000000001
 30
0.0
  0
VERTEX
  5
171
  8
DEFAULT
 10
154.5698774765357
 20
268.7400000000001
 30
0.0
  0
VERTEX
  5
172
  8
DEFAULT
 10
154.5698785674803
 20
253.7400000000001
 30
0.0
  0
VERTEX
  5
173
  8
DEFAULT
 10
160.6298785674802
 20
253.7400000000001
 30
0.0
  0
SEQEND
  5
174
  8
DEFAULT
  0
POLYLINE
  5
175
  8
DEFAULT
 66
     1
 10
0.0
 20
0.0
 30
0.0
 70
     1
  0
VERTEX
  5
176
  8
DEFAULT
 10
154.5698774765357
 20
218.7399186065437
 30
0.0
  0
VERTEX
  5
177
  8
DEFAULT
 10
160.6298774765357
 20
218.7399186065437
 30
0.0
  0
VERTEX
  5
178
  8
DEFAULT
 10
160.6298785674802
 20
233.7399186065437
 30
0.0
  0
VERTEX
  5
179
  8
DEFAULT
 10
154.5698785674803
 20
233.7399186065437
 30
0.0
  0
SEQEND
  5
17A
  8
DEFAULT
  0
POLYLINE
  5
17B
  8
DEFAULT
 66
     1
 10
0.0
 20
0.0
 30
0.0
 70
     1
  0
VERTEX
  5
17C
  8
DEFAULT
 10
309.9997346558072
 20
268.7400000000001
 30
0.0
  0
VERTEX
  5
17D
  8
DEFAULT
 10
303.9397346558073
 20
268.7400000000001
 30
0.0
  0
VERTEX
  5
17E
  8
DEFAULT
 10
303.9397357467518
 20
253.7400000000001
 30
0.0
  0
VERTEX
  5
17F
  8
DEFAULT
 10
309.9997357467518
 20
253.7400000000001
 30
0.0
  0
SEQEND
  5
180
  8
DEFAULT
  0
POLYLINE
  5
181
  8
DEFAULT
 66
     1
 10
0.0
 20
0.0
 30
0.0
 70
     1
  0
VERTEX
  5
182
  8
DEFAULT
 10
303.9397346558073
 20
218.7399186065437
 30
0.0
  0
VERTEX
  5
183
  8
DEFAULT
 10
309.9997346558072
 20
218.7399186065437
 30
0.0
  0
VERTEX
  5
184
  8
DEFAULT
 10
309.9997357467518
 20
233.7399186065437
 30
0.0
  0
VERTEX
  5
185
  8
DEFAULT
 10
303.9397357467518
 20
233.7399186065437
 30
0.0
  0
SEQEND
  5
186
  8
DEFAULT
  0
POLYLINE
  5
187
  8
DEFAULT
 66
     1
 10
0.0
 20
0.0
 30
0.0
 70
     1
  0
VERTEX
  5
188
  8
DEFAULT
 10
319.9997349247878
 20
279.8
 30
0.0
  0
VERTEX
  5
189
  8
DEFAULT
 10
319.9997349247878
 20
207.6799186065437
 30
0.0
 42
-0.4142135623730961
  0
VERTEX
  5
18A
  8
DEFAULT
 10
304.9997349247878
 20
192.6799186065437
 30
0.0
  0
VERTEX
  5
18B
  8
DEFAULT
 10
25.00000000000003
 20
192.6799186065437
 30
0.0
 42
-0.4142135623730931
  0
VERTEX
  5
18C
  8
DEFAULT
 10
10.00000000000002
 20
207.6799186065438
 30
0.0
  0
VERTEX
  5
18D
  8
DEFAULT
 10
10.00000000000002
 20
279.8
 30
0.0
 42
-0.4142135623730907
  0
VERTEX
  5
18E
  8
DEFAULT
 10
25.00000000000003
 20
294.8
 30
0.0
  0
VERTEX
  5
18F
  8
DEFAULT
 10
304.9997349247878
 20
294.7999999999999
 30
0.0
 42
-0.4142135623730944
  0
SEQEND
  5
190
  8
DEFAULT
  0
CIRCLE
  5
191
  8
DEFAULT
 10
157.5998774765356
 20
243.7399884035463
 30
0.0
 40
1.500000000000057
  0
CIRCLE
  5
192
  8
DEFAULT
 10
23.03001033659007
 20
243.7399884035462
 30
0.0
 40
1.5
  0
CIRCLE
  5
193
  8
DEFAULT
 10
85.99994721990748
 20
281.7700000000002
 30
0.0
 40
1.5
  0
CIRCLE
  5
194
  8
DEFAULT
 10
306.9697346558072
 20
243.7399593032719
 30
0.0
 40
1.499999999999972
  0
CIRCLE
  5
195
  8
DEFAULT
 10
232.2848145478111
 20
281.7700000000003
 30
0.0
 40
1.499999999999943
  0
CIRCLE
  5
196
  8
DEFAULT
 10
45.81000000000005
 20
258.64
 30
0.0
 40
10.0
  0
CIRCLE
  5
197
  8
DEFAULT
 10
74.84999999999985
 20
272.7764470415457
 30
0.0
 40
2.25
  0
CIRCLE
  5
198
  8
DEFAULT
 10
34.84999992370614
 20
272.7764470415457
 30
0.0
 40
2.25
  0
CIRCLE
  5
199
  8
DEFAULT
 10
74.84999999999987
 20
244.5900000953673
 30
0.0
 40
2.25
  0
CIRCLE
  5
19A
  8
DEFAULT
 10
34.84999992370614
 20
244.5900000953673
 30
0.0
 40
2.25
  0
POLYLINE
  5
19B
  8
DEFAULT
 66
     1
 10
0.0
 20
0.0
 30
0.0
 70
     1
  0
VERTEX
  5
19C
  8
DEFAULT
 10
433.4800348849375
 20
264.3000359947041
 30
0.0
  0
VERTEX
  5
19D
  8
DEFAULT
 10
433.4800348849375
 20
251.3000359947041
 30
0.0
  0
VERTEX
  5
19E
  8
DEFAULT
 10
439.5400348849374
 20
251.3000359947041
 30
0.0
  0
VERTEX
  5
19F
  8
DEFAULT
 10
439.5400348849374
 20
264.3000359947041
 30
0.0
  0
SEQEND
  5
1A0
  8
DEFAULT
  0
POLYLINE
  5
1A1
  8
DEFAULT
 66
     1
 10
0.0
 20
0.0
 30
0.0
 70
     1
  0
VERTEX
  5
1A2
  8
DEFAULT
 10
439.5400348849374
 20
218.3000491720506
 30
0.0
  0
VERTEX
  5
1A3
  8
DEFAULT
 10
439.5400348849374
 20
231.3000491720506
 30
0.0
  0
VERTEX
  5
1A4
  8
DEFAULT
 10
433.4800348849375
 20
231.3000491720506
 30
0.0
  0
VERTEX
  5
1A5
  8
DEFAULT
 10
433.4800348849375
 20
218.3000491720506
 30
0.0
  0
SEQEND
  5
1A6
  8
DEFAULT
  0
POLYLINE
  5
1A7
  8
DEFAULT
 66
     1
 10
0.0
 20
0.0
 30
0.0
 70
     1
  0
VERTEX
  5
1A8
  8
DEFAULT
 10
357.1600199848136
 20
284.8000383221354
 30
0.0
 42
0.4142133648607261
  0
VERTEX
  5
1A9
  8
DEFAULT
 10
355.1600199848136
 20
282.8000383221354
 30
0.0
  0
VERTEX
  5
1AA
  8
DEFAULT
 10
355.1600199848137
 20
256.8000383221353
 30
0.0
 42
0.4142133648606837
  0
VERTEX
  5
1AB
  8
DEFAULT
 10
357.1600199848136
 20
254.8000383221353
 30
0.0
  0
VERTEX
  5
1AC
  8
DEFAULT
 10
412.1600199848136
 20
254.8000383221352
 30
0.0
 42
0.4142135623731191
  0
VERTEX
  5
1AD
  8
DEFAULT
 10
414.1600199848135
 20
256.8000383221353
 30
0.0
  0
VERTEX
  5
1AE
  8
DEFAULT
 10
414.1600199848135
 20
282.8000383221354
 30
0.0
 42
0.4142135623731225
  0
VERTEX
  5
1AF
  8
DEFAULT
 10
412.1600199848136
 20
284.8000383221354
 30
0.0
  0
SEQEND
  5
1B0
  8
DEFAULT
  0
POLYLINE
  5
1B1
  8
DEFAULT
 66
     1
 10
0.0
 20
0.0
 30
0.0
 70
     1
  0
VERTEX
  5
1B2
  8
DEFAULT
 10
489.5700151563473
 20
268.7400216784478
 30
0.0
  0
VERTEX
  5
1B3
  8
DEFAULT
 10
479.5700151563473
 20
268.7400216784478
 30
0.0
 42
0.4142133648606923
  0
VERTEX
  5
1B4
  8
DEFAULT
 10
474.5700151563472
 20
263.7400216784477
 30
0.0
  0
VERTEX
  5
1B5
  8
DEFAULT
 10
474.5700151563473
 20
253.7400216784478
 30
0.0
 42
0.4142133648607661
  0
VERTEX
  5
1B6
  8
DEFAULT
 10
479.5700151563472
 20
248.7400216784478
 30
0.0
  0
VERTEX
  5
1B7
  8
DEFAULT
 10
489.5700151563473
 20
248.7400216784478
 30
0.0
 42
0.4142134636168869
  0
VERTEX
  5
1B8
  8
DEFAULT
 10
494.5700151563473
 20
253.7400216784477
 30
0.0
  0
VERTEX
  5
1B9
  8
DEFAULT
 10
494.5700151563473
 20
263.7400216784478
 30
0.0
 42
0.414213364860719
  0
SEQEND
  5
1BA
  8
DEFAULT
  0
POLYLINE
  5
1BB
  8
DEFAULT
 66
     1
 10
0.0
 20
0.0
 30
0.0
 70
     1
  0
VERTEX
  5
1BC
  8
DEFAULT
 10
495.3580179755965
 20
169.8000554728146
 30
0.0
  0
VERTEX
  5
1BD
  8
DEFAULT
 10
451.5400261637025
 20
169.8000554728144
 30
0.0
  0
VERTEX
  5
1BE
  8
DEFAULT
 10
451.5400348849374
 20
149.8000546218132
 30
0.0
  0
VERTEX
  5
1BF
  8
DEFAULT
 10
341.540019984824
 20
244.8000546218134
 30
0.0
  0
VERTEX
  5
1C0
  8
DEFAULT
 10
341.540019984824
 20
294.8000216784474
 30
0.0
  0
VERTEX
  5
1C1
  8
DEFAULT
 10
451.5400348849374
 20
294.8000216784474
 30
0.0
  0
VERTEX
  5
1C2
  8
DEFAULT
 10
451.5400261637025
 20
288.7400216784476
 30
0.0
  0
VERTEX
  5
1C3
  8
DEFAULT
 10
511.5400174424675
 20
288.7400216784476
 30
0.0
  0
VERTEX
  5
1C4
  8
DEFAULT
 10
511.5400174424675
 20
179.8000554728146
 30
0.0
 42
-0.4142135623730985
  0
VERTEX
  5
1C5
  8
DEFAULT
 10
501.5400174424675
 20
169.8000554728145
 30
0.0
  0
SEQEND
  5
1C6
  8
DEFAULT
  0
CIRCLE
  5
1C7
  8
DEFAULT
 10
350.6100199848227
 20
279.0000383221445
 30
0.0
 40
1.5
  0
CIRCLE
  5
1C8
  8
DEFAULT
 10
350.6100199848228
 20
260.6000383221444
 30
0.0
 40
1.5
  0
CIRCLE
  5
1C9
  8
DEFAULT
 10
425.7100199848227
 20
260.6000383221444
 30
0.0
 40
1.5
  0
CIRCLE
  5
1CA
  8
DEFAULT
 10
425.7100199848227
 20
279.0000383221442
 30
0.0
 40
1.500000000000057
  0
CIRCLE
  5
1CB
  8
DEFAULT
 10
436.5100461114959
 20
241.3000861090713
 30
0.0
 40
1.5
  0
CIRCLE
  5
1CC
  8
DEFAULT
 10
503.0999850005297
 20
224.7700529406329
 30
0.0
 40
1.5
  0
CIRCLE
  5
1CD
  8
DEFAULT
 10
503.0999850005297
 20
193.770052940633
 30
0.0
 40
1.5
  0
CIRCLE
  5
1CE
  8
DEFAULT
 10
472.0999850005297
 20
193.7700529406329
 30
0.0
 40
1.5
  0
CIRCLE
  5
1CF
  8
DEFAULT
 10
472.0999850005298
 20
224.7700529406329
 30
0.0
 40
1.499999999999943
  0
CIRCLE
  5
1D0
  8
DEFAULT
 10
501.5400174424676
 20
278.7400216784477
 30
0.0
 40
1.499999999999943
  0
CIRCLE
  5
1D1
  8
DEFAULT
 10
501.5400174424675
 20
179.8000554728144
 30
0.0
 40
1.5
  0
CIRCLE
  5
1D2
  8
DEFAULT
 10
487.5999850005295
 20
209.2700385756311
 30
0.0
 40
15.0
  0
POLYLINE
  5
1D3
  8
DEFAULT
 66
     1
 10
0.0
 20
0.0
 30
0.0
 70
     1
  0
VERTEX
  5
1D4
  8
DEFAULT
 10
553.5100197285876
 20
268.7400216784478
 30
0.0
  0
VERTEX
  5
1D5
  8
DEFAULT
 10
543.5100197285875
 20
268.7400216784478
 30
0.0
 42
0.4142133648607199
  0
VERTEX
  5
1D6
  8
DEFAULT
 10
538.5100197285875
 20
263.7400216784477
 30
0.0
  0
VERTEX
  5
1D7
  8
DEFAULT
 10
538.5100197285876
 20
253.7400216784477
 30
0.0
 42
0.4142134636168918
  0
VERTEX
  5
1D8
  8
DEFAULT
 10
543.5100197285876
 20
248.7400216784478
 30
0.0
  0
VERTEX
  5
1D9
  8
DEFAULT
 10
553.5100197285876
 20
248.7400216784475
 30
0.0
 42
0.414213463616889
  0
VERTEX
  5
1DA
  8
DEFAULT
 10
558.5100197285877
 20
253.7400216784478
 30
0.0
  0
VERTEX
  5
1DB
  8
DEFAULT
 10
558.5100197285876
 20
263.7400216784478
 30
0.0
 42
0.4142133648607308
  0
SEQEND
  5
1DC
  8
DEFAULT
  0
POLYLINE
  5
1DD
  8
DEFAULT
 66
     1
 10
0.0
 20
0.0
 30
0.0
 70
     1
  0
VERTEX
  5
1DE
  8
DEFAULT
 10
581.5399999999975
 20
149.8000546218132
 30
0.0
  0
VERTEX
  5
1DF
  8
DEFAULT
 10
581.5400087212324
 20
169.8000554728144
 30
0.0
  0
VERTEX
  5
1E0
  8
DEFAULT
 10
559.2980169093382
 20
169.8000554728146
 30
0.0
  0
VERTEX
  5
1E1
  8
DEFAULT
 10
553.9040169093385
 20
169.8000554728146
 30
0.0
  0
VERTEX
  5
1E2
  8
DEFAULT
 10
543.1160169093384
 20
169.8000554728146
 30
0.0
  0
VERTEX
  5
1E3
  8
DEFAULT
 10
537.7220169093384
 20
169.8000554728146
 30
0.0
  0
VERTEX
  5
1E4
  8
DEFAULT
 10
531.5400174424674
 20
169.8000554728146
 30
0.0
 42
-0.4142135623730936
  0
VERTEX
  5
1E5
  8
DEFAULT
 10
521.5400174424674
 20
179.8000554728146
 30
0.0
  0
VERTEX
  5
1E6
  8
DEFAULT
 10
521.5400174424674
 20
288.7400216784476
 30
0.0
  0
VERTEX
  5
1E7
  8
DEFAULT
 10
581.5400087212324
 20
288.7400216784476
 30
0.0
  0
VERTEX
  5
1E8
  8
DEFAULT
 10
581.5399999999975
 20
294.8000216784474
 30
0.0
  0
VERTEX
  5
1E9
  8
DEFAULT
 10
599.5999999999999
 20
294.8000216784474
 30
0.0
  0
VERTEX
  5
1EA
  8
DEFAULT
 10
599.5999999999995
 20
264.3000359947039
 30
0.0
  0
VERTEX
  5
1EB
  8
DEFAULT
 10
593.5399999999975
 20
264.3000359947041
 30
0.0
  0
VERTEX
  5
1EC
  8
DEFAULT
 10
593.5399999999975
 20
251.3000359947041
 30
0.0
  0
VERTEX
  5
1ED
  8
DEFAULT
 10
599.5999999999995
 20
251.3000359947043
 30
0.0
  0
VERTEX
  5
1EE
  8
DEFAULT
 10
599.599999999999
 20
231.3000491720505
 30
0.0
  0
VERTEX
  5
1EF
  8
DEFAULT
 10
593.5399999999975
 20
231.3000491720506
 30
0.0
  0
VERTEX
  5
1F0
  8
DEFAULT
 10
593.5399999999975
 20
218.3000491720506
 30
0.0
  0
VERTEX
  5
1F1
  8
DEFAULT
 10
599.599999999999
 20
218.3000491720505
 30
0.0
  0
VERTEX
  5
1F2
  8
DEFAULT
 10
599.5999999999983
 20
165.3973252363494
 30
0.0
  0
SEQEND
  5
1F3
  8
DEFAULT
  0
CIRCLE
  5
1F4
  8
DEFAULT
 10
587.5400005763879
 20
256.2400101182668
 30
0.0
 40
1.0
  0
CIRCLE
  5
1F5
  8
DEFAULT
 10
587.5400005763879
 20
206.2400101182669
 30
0.0
 40
1.0
  0
CIRCLE
  5
1F6
  8
DEFAULT
 10
529.9800498844052
 20
224.7700529406329
 30
0.0
 40
1.5
  0
CIRCLE
  5
1F7
  8
DEFAULT
 10
529.9800498844052
 20
193.7700529406329
 30
0.0
 40
1.5
  0
CIRCLE
  5
1F8
  8
DEFAULT
 10
560.9800498844052
 20
193.7700529406329
 30
0.0
 40
1.5
  0
CIRCLE
  5
1F9
  8
DEFAULT
 10
560.9800498844053
 20
224.770052940633
 30
0.0
 40
1.500000000000114
  0
CIRCLE
  5
1FA
  8
DEFAULT
 10
531.5400174424674
 20
278.7400216784477
 30
0.0
 40
1.5
  0
CIRCLE
  5
1FB
  8
DEFAULT
 10
531.5400174424675
 20
179.8000554728144
 30
0.0
 40
1.500000000000114
  0
CIRCLE
  5
1FC
  8
DEFAULT
 10
545.4800498844054
 20
209.2700385756312
 30
0.0
 40
15.0
  0
POLYLINE
  5
1FD
  8
DEFAULT
 66
     1
 10
0.0
 20
0.0
 30
0.0
 70
     1
  0
VERTEX
  5
1FE
  8
DEFAULT
 10
56.08997645671494
 20
36.05999999999972
 30
0.0
  0
VERTEX
  5
1FF
  8
DEFAULT
 10
66.08997645671494
 20
36.05999999999973
 30
0.0
 42
0.4142133648607522
  0
VERTEX
  5
200
  8
DEFAULT
 10
71.08997645671491
 20
41.05999999999973
 30
0.0
  0
VERTEX
  5
201
  8
DEFAULT
 10
71.08997645671491
 20
51.05999999999972
 30
0.0
 42
0.414213463616905
  0
VERTEX
  5
202
  8
DEFAULT
 10
66.08997645671494
 20
56.05999999999972
 30
0.0
  0
VERTEX
  5
203
  8
DEFAULT
 10
56.08997645671494
 20
56.05999999999973
 30
0.0
 42
0.4142134636168909
  0
VERTEX
  5
204
  8
DEFAULT
 10
51.08997645671493
 20
51.05999999999972
 30
0.0
  0
VERTEX
  5
205
  8
DEFAULT
 10
51.08997645671493
 20
41.05999999999972
 30
0.0
 42
0.4142133648607299
  0
SEQEND
  5
206
  8
DEFAULT
  0
POLYLINE
  5
207
  8
DEFAULT
 66
     1
 10
0.0
 20
0.0
 30
0.0
 70
     1
  0
VERTEX
  5
208
  8
DEFAULT
 10
28.0599961853051
 20
154.9999670566342
 30
0.0
  0
VERTEX
  5
209
  8
DEFAULT
 10
28.05998746407013
 20
134.999966205633
 30
0.0
  0
VERTEX
  5
20A
  8
DEFAULT
 10
50.30197927596433
 20
134.9999662056329
 30
0.0
  0
VERTEX
  5
20B
  8
DEFAULT
 10
55.69597927596411
 20
134.9999662056327
 30
0.0
  0
VERTEX
  5
20C
  8
DEFAULT
 10
66.48397927596412
 20
134.9999662056327
 30
0.0
  0
VERTEX
  5
20D
  8
DEFAULT
 10
71.87797927596412
 20
134.9999662056329
 30
0.0
  0
VERTEX
  5
20E
  8
DEFAULT
 10
78.05997874283517
 20
134.9999662056329
 30
0.0
 42
-0.4142135623731001
  0
VERTEX
  5
20F
  8
DEFAULT
 10
88.05997874283516
 20
124.9999662056327
 30
0.0
  0
VERTEX
  5
210
  8
DEFAULT
 10
88.05997874283517
 20
16.05999999999972
 30
0.0
  0
VERTEX
  5
211
  8
DEFAULT
 10
28.05998746407013
 20
16.05999999999972
 30
0.0
  0
VERTEX
  5
212
  8
DEFAULT
 10
28.0599961853051
 20
10.0
 30
0.0
  0
VERTEX
  5
213
  8
DEFAULT
 10
9.999996185302734
 20
10.0
 30
0.0
  0
VERTEX
  5
214
  8
DEFAULT
 10
9.999996185303075
 20
40.49998568374349
 30
0.0
  0
VERTEX
  5
215
  8
DEFAULT
 10
16.05999618530507
 20
40.49998568374326
 30
0.0
  0
VERTEX
  5
216
  8
DEFAULT
 10
16.05999618530507
 20
53.49998568374326
 30
0.0
  0
VERTEX
  5
217
  8
DEFAULT
 10
9.99999618530319
 20
53.49998568374315
 30
0.0
  0
VERTEX
  5
218
  8
DEFAULT
 10
9.99999618530353
 20
73.49997250639683
 30
0.0
  0
VERTEX
  5
219
  8
DEFAULT
 10
16.05999618530507
 20
73.49997250639683
 30
0.0
  0
VERTEX
  5
21A
  8
DEFAULT
 10
16.05999618530507
 20
86.49997250639683
 30
0.0
  0
VERTEX
  5
21B
  8
DEFAULT
 10
9.999996185303644
 20
86.49997250639694
 30
0.0
  0
VERTEX
  5
21C
  8
DEFAULT
 10
9.999996185304212
 20
139.4026964420981
 30
0.0
  0
SEQEND
  5
21D
  8
DEFAULT
  0
CIRCLE
  5
21E
  8
DEFAULT
 10
22.05999560891471
 20
48.56001156018057
 30
0.0
 40
0.9999999999999964
  0
CIRCLE
  5
21F
  8
DEFAULT
 10
22.05999560891472
 20
98.56001156018057
 30
0.0
 40
0.9999999999999858
  0
CIRCLE
  5
220
  8
DEFAULT
 10
79.6199463008974
 20
80.02996873781444
 30
0.0
 40
1.5
  0
CIRCLE
  5
221
  8
DEFAULT
 10
79.6199463008974
 20
111.0299687378144
 30
0.0
 40
1.5
  0
CIRCLE
  5
222
  8
DEFAULT
 10
48.6199463008974
 20
111.0299687378144
 30
0.0
 40
1.499999999999993
  0
CIRCLE
  5
223
  8
DEFAULT
 10
48.6199463008974
 20
80.02996873781444
 30
0.0
 40
1.499999999999993
  0
CIRCLE
  5
224
  8
DEFAULT
 10
78.05997874283518
 20
26.05999999999974
 30
0.0
 40
1.499999999999986
  0
CIRCLE
  5
225
  8
DEFAULT
 10
78.0599787428352
 20
124.9999662056329
 30
0.0
 40
1.500000000000043
  0
CIRCLE
  5
226
  8
DEFAULT
 10
64.11994630089717
 20
95.52998310281635
 30
0.0
 40
15.0
  0
POLYLINE
  5
227
  8
DEFAULT
 66
     1
 10
0.0
 20
0.0
 30
0.0
 70
     1
  0
VERTEX
  5
228
  8
DEFAULT
 10
364.5400035131363
 20
140.1727890597754
 30
0.0
  0
VERTEX
  5
229
  8
DEFAULT
 10
384.5400035131363
 20
140.1727890597754
 30
0.0
 42
0.4142135623730959
  0
VERTEX
  5
22A
  8
DEFAULT
 10
389.5400035131362
 20
145.1727890597754
 30
0.0
  0
VERTEX
  5
22B
  8
DEFAULT
 10
389.5400035131362
 20
155.1727890597754
 30
0.0
 42
0.4142133648606972
  0
VERTEX
  5
22C
  8
DEFAULT
 10
384.5400035131364
 20
160.1727890597753
 30
0.0
  0
VERTEX
  5
22D
  8
DEFAULT
 10
364.5400035131363
 20
160.1727890597754
 30
0.0
 42
0.4142134636168805
  0
VERTEX
  5
22E
  8
DEFAULT
 10
359.5400035131363
 20
155.1727890597754
 30
0.0
  0
VERTEX
  5
22F
  8
DEFAULT
 10
359.5400035131364
 20
145.1727890597754
 30
0.0
 42
0.4142133648607238
  0
SEQEND
  5
230
  8
DEFAULT
  0
POLYLINE
  5
231
  8
DEFAULT
 66
     1
 10
0.0
 20
0.0
 30
0.0
 70
     1
  0
VERTEX
  5
232
  8
DEFAULT
 10
341.540019984824
 20
129.1725981231336
 30
0.0
  0
VERTEX
  5
233
  8
DEFAULT
 10
341.540019984824
 20
179.1729204377518
 30
0.0
  0
VERTEX
  5
234
  8
DEFAULT
 10
351.5400056685672
 20
179.1729204377518
 30
0.0
  0
VERTEX
  5
235
  8
DEFAULT
 10
351.5400056685672
 20
185.232920437752
 30
0.0
  0
VERTEX
  5
236
  8
DEFAULT
 10
364.5400056685672
 20
185.232920437752
 30
0.0
  0
VERTEX
  5
237
  8
DEFAULT
 10
364.5400056685672
 20
179.1729204377518
 30
0.0
  0
VERTEX
  5
238
  8
DEFAULT
 10
384.5399924912208
 20
179.1729204377518
 30
0.0
  0
VERTEX
  5
239
  8
DEFAULT
 10
384.5399924912208
 20
185.232920437752
 30
0.0
  0
VERTEX
  5
23A
  8
DEFAULT
 10
397.5399924912208
 20
185.232920437752
 30
0.0
  0
VERTEX
  5
23B
  8
DEFAULT
 10
397.5399924912208
 20
179.1729204377518
 30
0.0
  0
VERTEX
  5
23C
  8
DEFAULT
 10
407.5399870414581
 20
179.1729204377518
 30
0.0
  0
VERTEX
  5
23D
  8
DEFAULT
 10
407.5399870414581
 20
129.1725981231336
 30
0.0
  0
VERTEX
  5
23E
  8
DEFAULT
 10
397.5399924912208
 20
129.1725981231336
 30
0.0
  0
VERTEX
  5
23F
  8
DEFAULT
 10
397.5399924912208
 20
123.1125981231337
 30
0.0
  0
VERTEX
  5
240
  8
DEFAULT
 10
384.5399924912208
 20
123.1125981231337
 30
0.0
  0
VERTEX
  5
241
  8
DEFAULT
 10
384.5399924912208
 20
129.1725981231336
 30
0.0
  0
VERTEX
  5
242
  8
DEFAULT
 10
364.5400056685672
 20
129.1725981231336
 30
0.0
  0
VERTEX
  5
243
  8
DEFAULT
 10
364.5400056685672
 20
123.1125981231337
 30
0.0
  0
VERTEX
  5
244
  8
DEFAULT
 10
351.5400056685672
 20
123.1125981231337
 30
0.0
  0
VERTEX
  5
245
  8
DEFAULT
 10
351.5400056685672
 20
129.1725981231336
 30
0.0
  0
SEQEND
  5
246
  8
DEFAULT
  0
CIRCLE
  5
247
  8
DEFAULT
 10
350.5400224342031
 20
154.1727537490037
 30
0.0
 40
1.0
  0
CIRCLE
  5
248
  8
DEFAULT
 10
398.5400059625114
 20
154.1727537490038
 30
0.0
 40
0.9999999999999432
  0
POLYLINE
  5
249
  8
DEFAULT
 66
     1
 10
0.0
 20
0.0
 30
0.0
 70
     1
  0
VERTEX
  5
24A
  8
DEFAULT
 10
245.0599926721662
 20
164.627232618672
 30
0.0
  0
VERTEX
  5
24B
  8
DEFAULT
 10
225.0599926721662
 20
164.627232618672
 30
0.0
 42
0.4142135623730963
  0
VERTEX
  5
24C
  8
DEFAULT
 10
220.0599926721663
 20
159.627232618672
 30
0.0
  0
VERTEX
  5
24D
  8
DEFAULT
 10
220.0599926721663
 20
149.627232618672
 30
0.0
 42
0.4142133648606965
  0
VERTEX
  5
24E
  8
DEFAULT
 10
225.0599926721663
 20
144.627232618672
 30
0.0
  0
VERTEX
  5
24F
  8
DEFAULT
 10
245.0599926721662
 20
144.627232618672
 30
0.0
 42
0.414213364860738
  0
VERTEX
  5
250
  8
DEFAULT
 10
250.0599926721663
 20
149.627232618672
 30
0.0
  0
VERTEX
  5
251
  8
DEFAULT
 10
250.0599926721662
 20
159.627232618672
 30
0.0
 42
0.4142133648607575
  0
SEQEND
  5
252
  8
DEFAULT
  0
POLYLINE
  5
253
  8
DEFAULT
 66
     1
 10
0.0
 20
0.0
 30
0.0
 70
     1
  0
VERTEX
  5
254
  8
DEFAULT
 10
268.0599762004786
 20
175.6274235553137
 30
0.0
  0
VERTEX
  5
255
  8
DEFAULT
 10
268.0599762004786
 20
125.6271012406955
 30
0.0
  0
VERTEX
  5
256
  8
DEFAULT
 10
258.0599905167353
 20
125.6271012406955
 30
0.0
  0
VERTEX
  5
257
  8
DEFAULT
 10
258.0599905167353
 20
119.5671012406954
 30
0.0
  0
VERTEX
  5
258
  8
DEFAULT
 10
245.0599905167353
 20
119.5671012406954
 30
0.0
  0
VERTEX
  5
259
  8
DEFAULT
 10
245.0599905167353
 20
125.6271012406955
 30
0.0
  0
VERTEX
  5
25A
  8
DEFAULT
 10
225.0600036940817
 20
125.6271012406955
 30
0.0
  0
VERTEX
  5
25B
  8
DEFAULT
 10
225.0600036940817
 20
119.5671012406954
 30
0.0
  0
VERTEX
  5
25C
  8
DEFAULT
 10
212.0600036940817
 20
119.5671012406954
 30
0.0
  0
VERTEX
  5
25D
  8
DEFAULT
 10
212.0600036940817
 20
125.6271012406955
 30
0.0
  0
VERTEX
  5
25E
  8
DEFAULT
 10
202.0600091438445
 20
125.6271012406955
 30
0.0
  0
VERTEX
  5
25F
  8
DEFAULT
 10
202.0600091438445
 20
175.6274235553137
 30
0.0
  0
VERTEX
  5
260
  8
DEFAULT
 10
212.0600036940817
 20
175.6274235553137
 30
0.0
  0
VERTEX
  5
261
  8
DEFAULT
 10
212.0600036940817
 20
181.6874235553137
 30
0.0
  0
VERTEX
  5
262
  8
DEFAULT
 10
225.0600036940817
 20
181.6874235553137
 30
0.0
  0
VERTEX
  5
263
  8
DEFAULT
 10
225.0600036940817
 20
175.6274235553137
 30
0.0
  0
VERTEX
  5
264
  8
DEFAULT
 10
245.0599905167353
 20
175.6274235553137
 30
0.0
  0
VERTEX
  5
265
  8
DEFAULT
 10
245.0599905167353
 20
181.6874235553137
 30
0.0
  0
VERTEX
  5
266
  8
DEFAULT
 10
258.0599905167353
 20
181.6874235553137
 30
0.0
  0
VERTEX
  5
267
  8
DEFAULT
 10
258.0599905167353
 20
175.6274235553137
 30
0.0
  0
SEQEND
  5
268
  8
DEFAULT
  0
CIRCLE
  5
269
  8
DEFAULT
 10
259.0599737510993
 20
150.6272679294436
 30
0.0
 40
1.0
  0
CIRCLE
  5
26A
  8
DEFAULT
 10
211.059990222791
 20
150.6272679294437
 30
0.0
 40
1.000000000000028
  0
POLYLINE
  5
26B
  8
DEFAULT
 66
     1
 10
0.0
 20
0.0
 30
0.0
 70
     1
  0
VERTEX
  5
26C
  8
DEFAULT
 10
252.4399762004888
 20
19.99998335631206
 30
0.0
 42
0.4142134636169058
  0
VERTEX
  5
26D
  8
DEFAULT
 10
254.4399762004889
 20
21.99998335631199
 30
0.0
  0
VERTEX
  5
26E
  8
DEFAULT
 10
254.4399762004889
 20
47.9999833563121
 30
0.0
 42
0.41421326610451
  0
VERTEX
  5
26F
  8
DEFAULT
 10
252.4399762004889
 20
49.99998335631204
 30
0.0
  0
VERTEX
  5
270
  8
DEFAULT
 10
197.4399762004889
 20
49.9999833563121
 30
0.0
 42
0.4142135623731164
  0
VERTEX
  5
271
  8
DEFAULT
 10
195.439976200489
 20
47.9999833563121
 30
0.0
  0
VERTEX
  5
272
  8
DEFAULT
 10
195.439976200489
 20
21.99998335631199
 30
0.0
 42
0.4142135623731377
  0
VERTEX
  5
273
  8
DEFAULT
 10
197.4399762004889
 20
19.99998335631201
 30
0.0
  0
SEQEND
  5
274
  8
DEFAULT
  0
POLYLINE
  5
275
  8
DEFAULT
 66
     1
 10
0.0
 20
0.0
 30
0.0
 70
     1
  0
VERTEX
  5
276
  8
DEFAULT
 10
176.119961300365
 20
40.49998568374326
 30
0.0
  0
VERTEX
  5
277
  8
DEFAULT
 10
176.119961300365
 20
53.49998568374326
 30
0.0
  0
VERTEX
  5
278
  8
DEFAULT
 10
170.0599613003651
 20
53.49998568374326
 30
0.0
  0
VERTEX
  5
279
  8
DEFAULT
 10
170.0599613003651
 20
40.49998568374326
 30
0.0
  0
SEQEND
  5
27A
  8
DEFAULT
  0
POLYLINE
  5
27B
  8
DEFAULT
 66
     1
 10
0.0
 20
0.0
 30
0.0
 70
     1
  0
VERTEX
  5
27C
  8
DEFAULT
 10
170.0599613003651
 20
86.49997250639672
 30
0.0
  0
VERTEX
  5
27D
  8
DEFAULT
 10
170.0599613003651
 20
73.49997250639672
 30
0.0
  0
VERTEX
  5
27E
  8
DEFAULT
 10
176.119961300365
 20
73.49997250639672
 30
0.0
  0
VERTEX
  5
27F
  8
DEFAULT
 10
176.119961300365
 20
86.49997250639672
 30
0.0
  0
SEQEND
  5
280
  8
DEFAULT
  0
POLYLINE
  5
281
  8
DEFAULT
 66
     1
 10
0.0
 20
0.0
 30
0.0
 70
     1
  0
VERTEX
  5
282
  8
DEFAULT
 10
120.0299810289553
 20
36.0599999999996
 30
0.0
  0
VERTEX
  5
283
  8
DEFAULT
 10
130.0299810289553
 20
36.0599999999996
 30
0.0
 42
0.4142133648607162
  0
VERTEX
  5
284
  8
DEFAULT
 10
135.0299810289552
 20
41.05999999999962
 30
0.0
  0
VERTEX
  5
285
  8
DEFAULT
 10
135.0299810289553
 20
51.0599999999996
 30
0.0
 42
0.4142133648607416
  0
VERTEX
  5
286
  8
DEFAULT
 10
130.0299810289552
 20
56.05999999999963
 30
0.0
  0
VERTEX
  5
287
  8
DEFAULT
 10
120.0299810289552
 20
56.05999999999962
 30
0.0
 42
0.4142134636168923
  0
VERTEX
  5
288
  8
DEFAULT
 10
115.0299810289551
 20
51.05999999999974
 30
0.0
  0
VERTEX
  5
289
  8
DEFAULT
 10
115.0299810289552
 20
41.0599999999996
 30
0.0
 42
0.4142133648607325
  0
SEQEND
  5
28A
  8
DEFAULT
  0
POLYLINE
  5
28B
  8
DEFAULT
 66
     1
 10
0.0
 20
0.0
 30
0.0
 70
     1
  0
VERTEX
  5
28C
  8
DEFAULT
 10
114.2419782097061
 20
134.9999662056327
 30
0.0
  0
VERTEX
  5
28D
  8
DEFAULT
 10
158.0599700216001
 20
134.999966205633
 30
0.0
  0
VERTEX
  5
28E
  8
DEFAULT
 10
158.0599613003651
 20
154.9999670566342
 30
0.0
  0
VERTEX
  5
28F
  8
DEFAULT
 10
268.0599762004786
 20
59.99996705663398
 30
0.0
  0
VERTEX
  5
290
  8
DEFAULT
 10
268.0599762004786
 20
9.999999999999943
 30
0.0
  0
VERTEX
  5
291
  8
DEFAULT
 10
158.0599613003651
 20
9.999999999999943
 30
0.0
  0
VERTEX
  5
292
  8
DEFAULT
 10
158.0599700216001
 20
16.05999999999972
 30
0.0
  0
VERTEX
  5
293
  8
DEFAULT
 10
98.05997874283503
 20
16.05999999999972
 30
0.0
  0
VERTEX
  5
294
  8
DEFAULT
 10
98.05997874283503
 20
124.9999662056327
 30
0.0
 42
-0.414213562373095
  0
VERTEX
  5
295
  8
DEFAULT
 10
108.059978742835
 20
134.9999662056327
 30
0.0
  0
SEQEND
  5
296
  8
DEFAULT
  0
CIRCLE
  5
297
  8
DEFAULT
 10
258.9899762004799
 20
25.79998335630285
 30
0.0
 40
1.5
  0
CIRCLE
  5
298
  8
DEFAULT
 10
258.9899762004798
 20
44.19998335630294
 30
0.0
 40
1.5
  0
CIRCLE
  5
299
  8
DEFAULT
 10
183.8899762004799
 20
44.19998335630294
 30
0.0
 40
1.5
  0
CIRCLE
  5
29A
  8
DEFAULT
 10
183.8899762004797
 20
25.79998335630307
 30
0.0
 40
1.5
  0
CIRCLE
  5
29B
  8
DEFAULT
 10
173.0899500738066
 20
63.49993556937606
 30
0.0
 40
1.500000000000057
  0
CIRCLE
  5
29C
  8
DEFAULT
 10
106.5000111847728
 20
80.02996873781444
 30
0.0
 40
1.5
  0
CIRCLE
  5
29D
  8
DEFAULT
 10
106.5000111847728
 20
111.0299687378144
 30
0.0
 40
1.5
  0
CIRCLE
  5
29E
  8
DEFAULT
 10
137.5000111847728
 20
111.0299687378145
 30
0.0
 40
1.500000000000028
  0
CIRCLE
  5
29F
  8
DEFAULT
 10
137.5000111847728
 20
80.02996873781447
 30
0.0
 40
1.500000000000028
  0
CIRCLE
  5
2A0
  8
DEFAULT
 10
108.059978742835
 20
26.0599999999997
 30
0.0
 40
1.5
  0
CIRCLE
  5
2A1
  8
DEFAULT
 10
108.059978742835
 20
124.999966205633
 30
0.0
 40
1.499999999999972
  0
CIRCLE
  5
2A2
  8
DEFAULT
 10
122.000011184773
 20
95.52998310281623
 30
0.0
 40
15.0
  0
POLYLINE
  5
2A3
  8
DEFAULT
 66
     1
 10
0.0
 20
0.0
 30
0.0
 70
     1
  0
VERTEX
  5
2A4
  8
DEFAULT
 10
0.0
 20
0.0
 30
0.0
  0
VERTEX
  5
2A5
  8
DEFAULT
 10
609.6
 20
0.0
 30
0.0
  0
VERTEX
  5
2A6
  8
DEFAULT
 10
609.6
 20
304.8
 30
0.0
  0
VERTEX
  5
2A7
  8
DEFAULT
 10
0.0
 20
304.8
 30
0.0
  0
SEQEND
  5
2A8
  8
DEFAULT
  0
ENDSEC
  0
EOF
